<?xml version="1.0" encoding="utf-8"?>
<svg viewBox="0 0 500 500" xmlns="http://www.w3.org/2000/svg">
  <defs>
    <clipPath id="Suomen  Bitcoin-yhdistys ry" transform="">
      <path d="M -0.000022888 141.72 L 141.72 141.72 L 141.72 0 L -0.000022888 0.000015259" style="fill: none; clip-rule: evenodd;"/>
    </clipPath>
    <clipPath id="Finnish Bitcoin Association" transform="">
      <path d="M -0.000007629 141.72 L 141.72 141.72 L 141.72 0.000045776 L -0.000007629 0.000045776" style="fill: none; clip-rule: evenodd;"/>
    </clipPath>
  </defs>
  <g class="page-1" transform="matrix(3.5280840396881104, 0, 0, -3.528082847595215, -0.00001600000359758269, 500.00006103515625)">
    <title>SBY-FBA-avatar</title>
    <path d="M 0 0.000030518 L 141.72 0.000030518 L 141.72 141.720030518 L 0 141.720030518 Z" style="fill: none;">
      <title>Area</title>
    </path>
    <path d="M 70.859 141.72 C 31.723 141.72 0 110.002 0 70.862 C 0 31.723 31.723 0 70.859 0 C 109.993 0 141.72 31.723 141.72 70.862 C 141.72 110.002 109.993 141.72 70.859 141.72 Z" style="fill-rule: evenodd; fill-opacity: 1; fill: rgb(0, 47, 108);">
      <title>Ball Blue</title>
    </path>
    <g id="_1421344023328" transform="matrix(0.025288, 0, 0, -0.025286, 19.045029, 122.677523)">
      <title>B icon inverted</title>
      <path fill-rule="nonzero" d="M4030.06 2540.77c-273.24,1096.01 -1383.32,1763.02 -2479.46,1489.71 -1095.68,-273.24 -1762.69,-1383.39 -1489.33,-2479.31 273.12,-1096.13 1383.2,-1763.19 2479,-1489.95 1096.06,273.24 1763.03,1383.51 1489.76,2479.57l0.02 -0.02z" style="fill: rgb(250, 250, 250);">
        <title>B ball</title>
      </path>
      <path fill-rule="nonzero" d="M 3394.505 1698.365 C 3450.78 1322.1 3164.319 1119.843 2772.603 984.918 L 2899.678 475.233 L 2589.418 397.924 L 2465.714 894.189 C 2384.148 873.846 2300.385 854.677 2217.133 835.675 L 2341.734 336.135 L 2031.667 258.825 L 1904.523 768.344 C 1837.026 752.976 1770.731 737.787 1706.412 721.784 L 1706.772 720.18 L 1278.916 613.337 L 1196.383 944.715 C 1196.383 944.715 1426.57 997.48 1421.72 1000.728 C 1547.358 1032.086 1570.078 1115.255 1566.305 1181.177 L 1218.123 2577.472 C 1202.768 2615.644 1163.796 2672.927 1075.955 2651.174 C 1079.065 2655.681 850.454 2594.9 850.454 2594.9 L 696.415 2950.048 L 1100.169 3050.699 C 1175.28 3069.536 1248.886 3089.243 1321.372 3107.776 L 1192.983 3623.306 L 1502.885 3700.615 L 1630.029 3190.558 C 1714.691 3213.54 1796.851 3234.741 1877.284 3254.725 L 1750.568 3762.377 L 2060.842 3839.687 L 2189.217 3325.123 C 2718.276 3425.25 3116.086 3384.882 3283.531 2906.349 C 3418.456 2521.073 3276.814 2298.846 2998.477 2153.929 C 3201.205 2107.175 3353.902 1973.84 3394.616 1698.406 L 3394.519 1698.336 L 3394.505 1698.365 Z M 2685.633 2692.387 C 2589.75 3077.662 1941.064 2869.393 1730.749 2817.167 L 1901.124 2134.18 C 2111.424 2186.682 2785.843 2290.582 2685.647 2692.387 L 2685.633 2692.387 Z M 2781.586 1692.781 C 2694.119 2043.23 2154.21 1865.187 1979.068 1821.529 L 2133.535 1202.1 C 2308.677 1245.757 2872.701 1327.241 2781.613 1692.781 L 2781.586 1692.781 Z" style="fill: rgb(247, 147, 26);">
        <title>B</title>
      </path>
    </g>
    <g style="clip-path: url('#Suomen  Bitcoin-yhdistys ry');">
      <title>Suomen Bitcoin-yhdistys ry</title>
      <path d="M 31.364 27.726 C 30.501 28.519 29.788 28.619 29.247 28.028 C 29.082 27.847 28.968 27.652 28.927 27.453 C 28.887 27.255 28.896 27.04 28.939 26.83 C 28.981 26.617 29.065 26.399 29.165 26.182 C 29.274 25.956 29.39 25.723 29.516 25.481 C 29.66 25.209 29.788 24.935 29.899 24.66 C 30.009 24.386 30.069 24.125 30.098 23.863 C 30.126 23.601 30.104 23.353 30.018 23.103 C 29.938 22.844 29.784 22.59 29.558 22.342 C 29.079 21.82 28.53 21.582 27.913 21.612 C 27.295 21.641 26.673 21.943 26.046 22.516 C 25.686 22.844 25.392 23.177 25.163 23.528 C 24.942 23.873 24.807 24.155 24.756 24.373 L 25.64 24.808 C 25.69 24.621 25.807 24.387 25.967 24.098 C 26.146 23.81 26.388 23.526 26.706 23.235 C 26.868 23.086 27.029 22.97 27.198 22.879 C 27.366 22.788 27.534 22.729 27.698 22.703 C 27.864 22.678 28.02 22.693 28.174 22.741 C 28.336 22.798 28.48 22.887 28.614 23.032 C 28.762 23.196 28.846 23.355 28.888 23.522 C 28.929 23.687 28.922 23.868 28.882 24.047 C 28.848 24.236 28.781 24.437 28.691 24.646 C 28.606 24.849 28.497 25.074 28.381 25.308 C 28.219 25.646 28.073 25.967 27.952 26.266 C 27.832 26.565 27.762 26.851 27.731 27.146 C 27.712 27.432 27.741 27.705 27.835 27.98 C 27.929 28.257 28.105 28.535 28.365 28.817 C 28.844 29.34 29.393 29.561 30.029 29.501 C 30.673 29.431 31.33 29.082 32.025 28.447 C 32.256 28.235 32.454 28.021 32.627 27.815 C 32.793 27.6 32.943 27.402 33.049 27.208 C 33.164 27.026 33.253 26.864 33.318 26.711 C 33.39 26.567 33.446 26.438 33.473 26.348 L 32.598 25.889 C 32.541 26.085 32.404 26.349 32.226 26.688 C 32.046 27.025 31.75 27.374 31.364 27.726 Z" style="fill: rgb(255, 255, 255); fill-rule: evenodd; fill-opacity: 1;"/>
      <path d="M 25.774 34.458 C 25.98 34.314 26.247 34.117 26.571 33.86 C 26.892 33.601 27.235 33.268 27.588 32.868 C 27.898 32.521 28.108 32.18 28.211 31.853 C 28.324 31.532 28.345 31.21 28.294 30.901 C 28.243 30.591 28.11 30.287 27.912 30.002 C 27.712 29.717 27.467 29.437 27.162 29.165 L 24.626 26.915 L 23.908 27.723 L 26.271 29.82 C 26.818 30.306 27.142 30.747 27.221 31.129 C 27.303 31.512 27.161 31.914 26.799 32.323 C 26.722 32.41 26.646 32.496 26.552 32.585 C 26.458 32.672 26.372 32.751 26.295 32.822 C 26.216 32.893 26.139 32.964 26.067 33.025 C 26.004 33.078 25.951 33.122 25.919 33.141 L 22.105 29.757 L 21.387 30.564 Z" style="fill: rgb(255, 255, 255); fill-rule: evenodd; fill-opacity: 1;"/>
      <path d="M 19.451 38.331 C 19.84 38.607 20.243 38.804 20.635 38.912 C 21.029 39.018 21.418 39.051 21.786 39.012 C 22.161 38.964 22.507 38.838 22.832 38.641 C 23.155 38.444 23.443 38.177 23.677 37.844 C 23.911 37.513 24.077 37.158 24.144 36.779 C 24.221 36.409 24.225 36.04 24.138 35.68 C 24.057 35.312 23.895 34.956 23.664 34.621 C 23.431 34.287 23.11 33.975 22.721 33.699 C 22.331 33.425 21.941 33.234 21.537 33.12 C 21.143 33.014 20.754 32.981 20.379 33.029 C 20.01 33.066 19.655 33.186 19.332 33.383 C 19.007 33.581 18.729 33.855 18.495 34.188 C 18.261 34.519 18.097 34.873 18.02 35.245 C 17.941 35.616 17.948 35.991 18.028 36.359 C 18.115 36.719 18.277 37.076 18.51 37.41 C 18.751 37.752 19.063 38.056 19.451 38.331 Z M 20.101 37.411 C 19.541 37.016 19.193 36.584 19.034 36.102 C 18.893 35.619 18.971 35.163 19.274 34.736 C 19.574 34.309 19.978 34.081 20.474 34.062 C 20.988 34.04 21.511 34.226 22.071 34.621 C 22.631 35.016 22.981 35.447 23.122 35.93 C 23.281 36.412 23.201 36.869 22.9 37.295 C 22.597 37.721 22.196 37.95 21.682 37.972 C 21.186 37.991 20.661 37.806 20.101 37.411 Z" style="fill: rgb(255, 255, 255); fill-rule: evenodd; fill-opacity: 1;"/>
      <path d="M 16.095 38.22 C 15.931 38.41 15.715 38.676 15.467 39.006 C 15.218 39.335 14.974 39.733 14.729 40.207 C 14.554 40.547 14.446 40.858 14.416 41.144 C 14.387 41.429 14.429 41.701 14.526 41.946 C 14.468 41.982 14.378 42.027 14.264 42.098 C 14.148 42.17 14.022 42.26 13.88 42.384 C 13.75 42.513 13.612 42.651 13.465 42.81 C 13.327 42.975 13.205 43.16 13.093 43.377 C 12.88 43.789 12.766 44.162 12.747 44.479 C 12.738 44.8 12.807 45.098 12.943 45.364 C 13.086 45.621 13.301 45.863 13.574 46.07 C 13.846 46.276 14.167 46.467 14.527 46.652 L 17.541 48.208 L 18.038 47.248 L 15.229 45.799 C 14.908 45.634 14.646 45.484 14.435 45.337 C 14.223 45.189 14.07 45.032 13.957 44.869 C 13.851 44.695 13.797 44.524 13.797 44.341 C 13.805 44.15 13.87 43.949 13.993 43.71 C 14.159 43.39 14.337 43.143 14.528 42.98 C 14.733 42.811 14.879 42.703 14.988 42.668 C 15.137 42.81 15.312 42.953 15.513 43.096 C 15.715 43.239 15.926 43.36 16.163 43.483 L 19.177 45.039 L 19.673 44.079 L 16.864 42.63 C 16.544 42.464 16.287 42.306 16.076 42.158 C 15.865 42.01 15.711 41.852 15.598 41.689 C 15.491 41.516 15.436 41.344 15.439 41.163 C 15.446 40.97 15.511 40.769 15.629 40.541 C 15.677 40.447 15.729 40.345 15.8 40.237 C 15.868 40.128 15.921 40.026 15.979 39.937 C 16.043 39.839 16.113 39.757 16.164 39.68 C 16.218 39.603 16.254 39.558 16.281 39.53 L 20.814 41.87 L 21.309 40.91 Z" style="fill: rgb(255, 255, 255); fill-rule: evenodd; fill-opacity: 1;"/>
      <path d="M 14.408 48.133 C 13.905 47.953 13.439 47.874 13.005 47.879 C 12.584 47.888 12.206 47.976 11.868 48.129 C 11.532 48.279 11.248 48.486 11.013 48.761 C 10.78 49.033 10.601 49.327 10.484 49.656 C 10.21 50.423 10.241 51.099 10.568 51.671 C 10.903 52.248 11.562 52.718 12.536 53.065 C 12.579 53.08 12.635 53.099 12.7 53.124 C 12.776 53.151 12.843 53.174 12.902 53.183 L 14.291 49.289 C 14.867 49.543 15.253 49.879 15.453 50.283 C 15.654 50.688 15.64 51.213 15.414 51.848 C 15.285 52.207 15.146 52.492 14.992 52.721 C 14.85 52.942 14.718 53.104 14.62 53.206 L 15.424 53.652 C 15.532 53.555 15.675 53.359 15.862 53.08 C 16.052 52.79 16.209 52.452 16.349 52.058 C 16.526 51.566 16.601 51.111 16.576 50.696 C 16.564 50.283 16.465 49.903 16.284 49.579 C 16.105 49.257 15.849 48.968 15.527 48.731 C 15.209 48.481 14.834 48.286 14.408 48.133 Z M 12.456 51.84 C 11.992 51.688 11.653 51.43 11.438 51.094 C 11.229 50.749 11.205 50.369 11.353 49.954 C 11.435 49.724 11.552 49.531 11.703 49.387 C 11.867 49.238 12.043 49.127 12.228 49.057 C 12.412 48.987 12.624 48.952 12.832 48.953 C 13.045 48.943 13.259 48.968 13.463 49.017 Z" style="fill: rgb(255, 255, 255); fill-rule: evenodd; fill-opacity: 1;"/>
      <path d="M 9.4393 53.871 C 9.3263 54.096 9.1797 54.408 9.0172 54.786 C 8.8547 55.165 8.71 55.621 8.5856 56.14 C 8.4744 56.604 8.4478 57.016 8.4998 57.349 C 8.5629 57.687 8.6832 57.98 8.8746 58.229 C 9.0683 58.465 9.332 58.661 9.6413 58.818 C 9.9505 58.975 10.314 59.099 10.711 59.192 L 14.01 59.982 L 14.262 58.931 L 11.188 58.197 C 10.826 58.109 10.527 58.013 10.277 57.908 C 10.031 57.789 9.8468 57.66 9.7161 57.509 C 9.5837 57.358 9.5073 57.185 9.4741 56.973 C 9.452 56.765 9.4712 56.532 9.5383 56.249 C 9.5665 56.136 9.5928 56.023 9.6343 55.902 C 9.6753 55.78 9.7034 55.667 9.7374 55.568 C 9.7761 55.457 9.8224 55.361 9.8536 55.286 C 9.8866 55.196 9.9149 55.132 9.9335 55.101 L 14.894 56.288 L 15.146 55.236 Z" style="fill: rgb(255, 255, 255); fill-rule: evenodd; fill-opacity: 1;"/>
      <path d="M 13.272 66.066 C 13.284 65.903 13.296 65.729 13.298 65.544 C 13.3 65.346 13.303 65.159 13.305 64.974 C 13.307 64.776 13.298 64.588 13.288 64.401 C 13.28 64.214 13.257 64.038 13.233 63.886 L 5.4476 63.314 C 5.4006 63.463 5.354 63.634 5.3168 63.818 C 5.2796 64.002 5.2442 64.185 5.2183 64.381 C 5.1929 64.565 5.168 64.751 5.1427 64.935 C 5.1173 65.119 5.1042 65.292 5.0923 65.455 C 5.0586 65.918 5.0602 66.361 5.1012 66.771 C 5.1403 67.182 5.2322 67.539 5.3716 67.852 C 5.5239 68.155 5.7267 68.402 5.9804 68.597 C 6.2353 68.788 6.5651 68.895 6.9583 68.923 C 7.3992 68.955 7.7662 68.878 8.0588 68.69 C 8.3633 68.502 8.5922 68.24 8.7565 67.902 C 8.8616 68.387 9.0552 68.774 9.335 69.073 C 9.6171 69.374 10.035 69.545 10.579 69.585 C 11.378 69.643 12.002 69.398 12.451 68.836 C 12.9 68.275 13.177 67.352 13.272 66.066 Z M 9.5372 64.733 L 12.364 64.94 C 12.37 65.022 12.362 65.125 12.364 65.243 C 12.369 65.347 12.361 65.464 12.35 65.603 C 12.352 65.731 12.341 65.892 12.328 66.066 C 12.303 66.402 12.258 66.713 12.189 67.011 C 12.133 67.299 12.032 67.559 11.911 67.772 C 11.791 67.984 11.627 68.159 11.421 68.283 C 11.214 68.397 10.966 68.448 10.676 68.427 C 10.41 68.408 10.192 68.345 10.014 68.227 C 9.8486 68.11 9.7085 67.96 9.617 67.768 C 9.5272 67.562 9.4632 67.337 9.435 67.067 C 9.4086 66.796 9.4073 66.505 9.43 66.181 Z M 8.633 64.665 L 8.5454 65.848 C 8.5253 66.126 8.4839 66.39 8.43 66.631 C 8.3778 66.872 8.293 67.086 8.1749 67.266 C 8.0586 67.431 7.9197 67.572 7.7497 67.665 C 7.5798 67.758 7.3688 67.789 7.1244 67.771 C 6.8919 67.754 6.7003 67.682 6.5444 67.565 C 6.4027 67.449 6.2855 67.29 6.1952 67.096 C 6.116 66.893 6.0638 66.669 6.0369 66.41 C 6.0081 66.152 6.004 65.884 6.0264 65.594 C 6.047 65.304 6.0622 65.084 6.0865 64.923 C 6.1103 64.761 6.1318 64.611 6.154 64.484 Z" style="fill: rgb(255, 255, 255); fill-rule: evenodd; fill-opacity: 1;"/>
      <path d="M 12.998 72.069 L 12.99 70.988 L 6.9476 71.038 L 6.9575 72.119 Z M 5.8616 71.583 C 5.8597 71.385 5.7882 71.222 5.6589 71.096 C 5.53 70.958 5.3666 70.889 5.1457 70.892 C 4.9265 70.894 4.7522 70.965 4.6251 71.106 C 4.498 71.234 4.4416 71.398 4.4434 71.595 C 4.4453 71.793 4.505 71.955 4.6338 72.094 C 4.7632 72.22 4.9379 72.287 5.1594 72.286 C 5.3785 72.284 5.541 72.213 5.6676 72.083 C 5.7952 71.944 5.8634 71.781 5.8616 71.583 Z" style="fill: rgb(255, 255, 255); fill-rule: evenodd; fill-opacity: 1;"/>
      <path d="M 7.0789 75.15 L 7.2538 77.432 L 8.1582 77.363 L 7.9833 75.081 L 10.763 74.87 C 11.065 74.846 11.31 74.85 11.509 74.883 C 11.711 74.913 11.879 74.97 11.989 75.056 C 12.112 75.139 12.203 75.248 12.259 75.383 C 12.315 75.519 12.351 75.68 12.365 75.865 C 12.391 76.19 12.376 76.459 12.31 76.662 C 12.256 76.864 12.22 76.995 12.191 77.079 L 13.098 77.22 C 13.147 77.11 13.191 76.909 13.263 76.636 C 13.324 76.364 13.335 76.048 13.308 75.699 C 13.278 75.294 13.205 74.962 13.069 74.705 C 12.945 74.447 12.777 74.238 12.556 74.091 C 12.336 73.945 12.071 73.85 11.754 73.815 C 11.449 73.768 11.099 73.761 10.693 73.791 L 5.3174 74.202 L 5.2156 75.293 Z" style="fill: rgb(255, 255, 255); fill-rule: evenodd; fill-opacity: 1;"/>
      <path d="M 13.933 80.623 C 13.858 80.141 13.71 79.73 13.504 79.397 C 13.297 79.053 13.03 78.777 12.717 78.581 C 12.403 78.371 12.041 78.24 11.642 78.173 C 11.245 78.107 10.823 78.114 10.363 78.187 C 9.903 78.259 9.4902 78.394 9.132 78.591 C 8.7744 78.777 8.4715 79.025 8.2224 79.311 C 7.986 79.594 7.8155 79.939 7.7121 80.32 C 7.6176 80.699 7.6002 81.103 7.6679 81.539 C 7.71 81.803 7.7755 82.074 7.8623 82.331 C 7.951 82.588 8.0617 82.84 8.2015 83.065 L 9.0707 82.682 C 8.9642 82.533 8.8796 82.359 8.7996 82.16 C 8.7202 81.949 8.6629 81.734 8.6256 81.494 C 8.5314 80.896 8.6419 80.409 8.9722 80.039 C 9.3013 79.658 9.815 79.412 10.538 79.3 C 10.86 79.249 11.163 79.237 11.439 79.275 C 11.715 79.302 11.961 79.381 12.183 79.511 C 12.401 79.629 12.571 79.815 12.712 80.039 C 12.854 80.263 12.958 80.553 13.014 80.908 C 13.059 81.197 13.076 81.453 13.054 81.69 C 13.033 81.93 13.004 82.123 12.966 82.258 L 13.885 82.265 C 13.912 82.203 13.931 82.106 13.947 81.985 C 13.963 81.865 13.978 81.733 13.989 81.578 C 13.988 81.426 13.987 81.273 13.985 81.108 C 13.971 80.935 13.956 80.772 13.933 80.623 Z" style="fill: rgb(255, 255, 255); fill-rule: evenodd; fill-opacity: 1;"/>
      <path d="M 12.611 88.958 C 13.074 88.84 13.482 88.662 13.819 88.432 C 14.156 88.2 14.431 87.925 14.642 87.618 C 14.847 87.301 14.975 86.957 15.033 86.581 C 15.092 86.206 15.074 85.814 14.973 85.421 C 14.871 85.028 14.708 84.674 14.462 84.376 C 14.229 84.077 13.951 83.837 13.621 83.67 C 13.287 83.493 12.91 83.386 12.505 83.348 C 12.098 83.308 11.653 83.351 11.193 83.47 C 10.732 83.59 10.334 83.764 9.9862 83.999 C 9.6491 84.229 9.3715 84.504 9.1661 84.821 C 8.9577 85.128 8.8196 85.476 8.7608 85.851 C 8.7021 86.225 8.7292 86.614 8.8313 87.007 C 8.9339 87.402 9.097 87.756 9.33 88.056 C 9.563 88.355 9.8521 88.592 10.186 88.769 C 10.518 88.935 10.893 89.043 11.299 89.083 C 11.717 89.117 12.151 89.077 12.611 88.958 Z M 12.33 87.867 C 11.665 88.039 11.111 88.027 10.641 87.836 C 10.18 87.631 9.8841 87.276 9.7538 86.77 C 9.623 86.263 9.7101 85.81 10.017 85.418 C 10.331 85.013 10.812 84.732 11.475 84.561 C 12.138 84.39 12.694 84.403 13.154 84.606 C 13.623 84.798 13.919 85.153 14.051 85.66 C 14.182 86.166 14.095 86.62 13.78 87.025 C 13.473 87.415 12.993 87.696 12.33 87.867 Z" style="fill: rgb(255, 255, 255); fill-rule: evenodd; fill-opacity: 1;"/>
      <path d="M 16.336 90.394 L 15.983 89.372 L 10.273 91.343 L 10.626 92.365 Z M 9.4158 92.205 C 9.3508 92.018 9.2322 91.888 9.0694 91.808 C 8.904 91.719 8.7269 91.705 8.5182 91.778 C 8.309 91.849 8.1673 91.973 8.092 92.146 C 8.0138 92.309 8.012 92.48 8.0753 92.668 C 8.1399 92.854 8.2482 92.989 8.4141 93.08 C 8.5764 93.158 8.7637 93.167 8.9729 93.096 C 9.1817 93.023 9.3131 92.904 9.3914 92.741 C 9.4666 92.568 9.4804 92.391 9.4158 92.205 Z" style="fill: rgb(255, 255, 255); fill-rule: evenodd; fill-opacity: 1;"/>
      <path d="M 11.461 94.233 C 11.506 94.479 11.577 94.817 11.675 95.217 C 11.774 95.619 11.933 96.068 12.147 96.559 C 12.337 96.995 12.563 97.339 12.805 97.575 C 13.06 97.807 13.332 97.968 13.635 98.051 C 13.932 98.124 14.26 98.12 14.602 98.06 C 14.943 98 15.309 97.878 15.681 97.716 L 18.79 96.359 L 18.358 95.367 L 15.462 96.633 C 15.121 96.78 14.824 96.884 14.561 96.95 C 14.292 97.003 14.069 97.012 13.872 96.97 C 13.677 96.929 13.51 96.838 13.357 96.689 C 13.214 96.535 13.089 96.337 12.972 96.071 C 12.926 95.964 12.881 95.858 12.84 95.735 C 12.8 95.615 12.752 95.508 12.721 95.407 C 12.686 95.297 12.666 95.192 12.643 95.113 C 12.618 95.023 12.6 94.954 12.595 94.916 L 17.27 92.876 L 16.839 91.886 Z" style="fill: rgb(255, 255, 255); fill-rule: evenodd; fill-opacity: 1;"/>
      <path d="M 15.697 99.007 L 17.057 101.53 L 17.946 101.05 L 16.587 98.528 Z" style="fill: rgb(255, 255, 255); fill-rule: evenodd; fill-opacity: 1;"/>
      <path d="M 21.608 99.283 C 21.682 99.332 21.783 99.405 21.887 99.503 C 21.986 99.594 22.07 99.704 22.14 99.813 C 22.371 100.17 22.468 100.5 22.442 100.8 C 22.406 101.12 22.265 101.46 22.009 101.85 C 20.962 101.94 19.886 102.09 18.779 102.3 C 17.677 102.49 16.598 102.77 15.547 103.11 L 16.172 104.09 C 16.51 103.97 16.88 103.86 17.29 103.75 C 17.695 103.63 18.107 103.51 18.552 103.41 C 18.995 103.31 19.429 103.21 19.885 103.12 C 20.341 103.04 20.778 102.97 21.21 102.91 C 20.68 103.59 20.143 104.24 19.585 104.86 C 19.029 105.48 18.45 106.08 17.842 106.7 L 18.44 107.64 C 19.251 106.79 20.003 105.94 20.703 105.1 C 21.412 104.24 22.035 103.41 22.597 102.58 C 22.809 102.27 22.976 101.97 23.104 101.69 C 23.216 101.41 23.293 101.14 23.324 100.89 C 23.355 100.64 23.328 100.38 23.265 100.13 C 23.195 99.868 23.069 99.605 22.901 99.341 C 22.856 99.272 22.806 99.193 22.746 99.121 C 22.687 99.05 22.616 98.985 22.563 98.922 C 22.494 98.856 22.431 98.8 22.374 98.754 C 22.311 98.696 22.266 98.67 22.236 98.647 Z" style="fill: rgb(255, 255, 255); fill-rule: evenodd; fill-opacity: 1;"/>
      <path d="M 23.992 105.01 L 17.081 110.5 L 17.608 111.46 L 20.027 109.54 C 20.087 109.75 20.178 109.96 20.286 110.17 C 20.396 110.36 20.522 110.56 20.66 110.73 C 20.957 111.1 21.265 111.38 21.559 111.54 C 21.863 111.7 22.168 111.79 22.481 111.79 C 22.788 111.78 23.104 111.7 23.418 111.55 C 23.733 111.4 24.056 111.19 24.373 110.94 L 27.028 108.83 L 26.355 107.98 L 23.883 109.95 C 23.593 110.18 23.332 110.36 23.095 110.49 C 22.849 110.61 22.635 110.67 22.435 110.68 C 22.236 110.69 22.05 110.65 21.864 110.54 C 21.687 110.43 21.515 110.27 21.333 110.05 C 21.261 109.95 21.198 109.86 21.128 109.75 C 21.057 109.64 21.004 109.54 20.947 109.45 C 20.894 109.34 20.847 109.25 20.813 109.17 C 20.775 109.08 20.749 109.01 20.736 108.98 L 24.665 105.85 Z" style="fill: rgb(255, 255, 255); fill-rule: evenodd; fill-opacity: 1;"/>
      <path d="M 27.29 115.98 C 27.126 115.96 26.912 115.89 26.668 115.79 C 26.421 115.69 26.193 115.52 25.988 115.32 C 25.769 115.09 25.63 114.87 25.551 114.64 C 25.479 114.4 25.455 114.16 25.499 113.92 C 25.54 113.69 25.641 113.44 25.79 113.21 C 25.941 112.98 26.123 112.76 26.346 112.54 C 26.85 112.04 27.355 111.79 27.872 111.77 C 28.389 111.75 28.856 111.94 29.264 112.35 C 29.469 112.56 29.64 112.75 29.753 112.91 C 29.875 113.07 29.965 113.19 30.012 113.29 Z M 24.393 118.83 L 25.019 119.73 L 31.317 113.53 C 31.196 113.3 31.017 113.02 30.797 112.7 C 30.578 112.38 30.285 112.03 29.935 111.68 C 29.609 111.34 29.266 111.09 28.896 110.94 C 28.528 110.78 28.16 110.7 27.782 110.7 C 27.404 110.69 27.024 110.79 26.645 110.97 C 26.267 111.13 25.903 111.39 25.555 111.73 C 25.225 112.06 24.958 112.4 24.775 112.76 C 24.583 113.11 24.466 113.47 24.431 113.84 C 24.395 114.2 24.442 114.56 24.57 114.9 C 24.699 115.25 24.91 115.58 25.213 115.89 C 25.456 116.13 25.71 116.33 25.963 116.45 C 26.218 116.58 26.422 116.65 26.57 116.68 Z" style="fill: rgb(255, 255, 255); fill-rule: evenodd; fill-opacity: 1;"/>
      <path d="M 33.461 115.11 L 32.642 114.41 L 28.701 118.99 L 29.52 119.69 Z M 28.394 120.16 C 28.245 120.03 28.076 119.98 27.895 119.99 C 27.706 120 27.547 120.08 27.404 120.24 C 27.259 120.41 27.199 120.59 27.221 120.78 C 27.236 120.96 27.319 121.11 27.471 121.24 C 27.62 121.37 27.78 121.43 27.969 121.42 C 28.149 121.41 28.315 121.32 28.46 121.15 C 28.603 120.99 28.656 120.82 28.644 120.64 C 28.622 120.45 28.544 120.29 28.394 120.16 Z" style="fill: rgb(255, 255, 255); fill-rule: evenodd; fill-opacity: 1;"/>
      <path d="M 35.356 117.62 C 35.708 117.89 35.934 118.13 36.041 118.36 C 36.138 118.57 36.109 118.79 35.957 118.99 C 35.796 119.2 35.587 119.31 35.329 119.3 C 35.07 119.3 34.687 119.23 34.187 119.1 C 33.947 119.03 33.714 118.98 33.485 118.93 C 33.252 118.88 33.033 118.86 32.836 118.87 C 32.639 118.88 32.438 118.93 32.252 119.03 C 32.067 119.12 31.89 119.28 31.729 119.49 C 31.409 119.92 31.307 120.38 31.435 120.87 C 31.564 121.36 31.9 121.8 32.446 122.21 C 32.587 122.31 32.723 122.4 32.871 122.5 C 33.024 122.58 33.157 122.66 33.293 122.73 C 33.435 122.79 33.551 122.85 33.664 122.89 C 33.769 122.93 33.857 122.96 33.918 122.98 L 34.317 122.12 C 34.189 122.09 33.999 122.04 33.763 121.95 C 33.532 121.85 33.27 121.69 32.991 121.49 C 32.751 121.3 32.571 121.1 32.464 120.87 C 32.365 120.64 32.384 120.42 32.538 120.21 C 32.614 120.11 32.702 120.03 32.811 119.98 C 32.912 119.93 33.026 119.91 33.157 119.91 C 33.291 119.91 33.442 119.92 33.604 119.95 C 33.767 119.99 33.957 120.05 34.182 120.11 C 34.478 120.2 34.745 120.27 34.984 120.32 C 35.222 120.37 35.458 120.39 35.672 120.37 C 35.876 120.35 36.075 120.3 36.26 120.19 C 36.443 120.08 36.627 119.91 36.802 119.68 C 37.136 119.24 37.221 118.78 37.07 118.3 C 36.909 117.82 36.519 117.35 35.906 116.89 C 35.48 116.57 35.118 116.35 34.827 116.24 C 34.529 116.13 34.32 116.06 34.21 116.04 L 33.809 116.9 C 33.939 116.94 34.138 117 34.408 117.09 C 34.677 117.17 34.993 117.35 35.356 117.62 Z" style="fill: rgb(255, 255, 255); fill-rule: evenodd; fill-opacity: 1;"/>
      <path d="M 36.286 124.69 L 38.226 125.91 L 38.708 125.14 L 36.767 123.92 L 38.246 121.56 C 38.405 121.3 38.554 121.11 38.698 120.97 C 38.842 120.82 38.988 120.72 39.123 120.68 C 39.262 120.63 39.404 120.63 39.547 120.66 C 39.69 120.69 39.84 120.76 39.998 120.86 C 40.273 121.03 40.481 121.2 40.606 121.38 C 40.737 121.54 40.82 121.65 40.871 121.72 L 41.521 121.07 C 41.464 120.97 41.327 120.82 41.15 120.59 C 40.967 120.38 40.719 120.19 40.423 120 C 40.08 119.79 39.77 119.65 39.482 119.61 C 39.2 119.55 38.933 119.56 38.682 119.65 C 38.434 119.74 38.2 119.9 37.985 120.14 C 37.765 120.36 37.551 120.63 37.336 120.98 L 34.478 125.55 L 35.294 126.28 Z" style="fill: rgb(255, 255, 255); fill-rule: evenodd; fill-opacity: 1;"/>
      <path d="M 42.26 120.01 C 42.35 120.01 42.474 120.03 42.614 120.06 C 42.742 120.09 42.873 120.14 42.985 120.2 C 43.366 120.4 43.611 120.63 43.743 120.91 C 43.867 121.2 43.913 121.56 43.89 122.04 C 43.028 122.63 42.169 123.3 41.316 124.03 C 40.456 124.75 39.658 125.53 38.918 126.35 L 39.948 126.88 C 40.18 126.61 40.445 126.33 40.746 126.03 C 41.038 125.72 41.339 125.42 41.67 125.11 C 42.004 124.8 42.331 124.5 42.684 124.2 C 43.037 123.9 43.379 123.62 43.728 123.35 C 43.61 124.21 43.466 125.04 43.291 125.85 C 43.116 126.66 42.915 127.47 42.698 128.32 L 43.687 128.83 C 43.966 127.69 44.192 126.58 44.377 125.5 C 44.566 124.41 44.687 123.37 44.762 122.37 C 44.79 121.99 44.784 121.65 44.758 121.35 C 44.716 121.05 44.649 120.78 44.549 120.54 C 44.449 120.31 44.296 120.1 44.119 119.91 C 43.928 119.72 43.687 119.56 43.408 119.41 C 43.337 119.38 43.255 119.33 43.166 119.3 C 43.079 119.27 42.985 119.25 42.909 119.22 C 42.815 119.2 42.733 119.18 42.659 119.17 C 42.577 119.15 42.526 119.15 42.489 119.14 Z" style="fill: rgb(255, 255, 255); fill-rule: evenodd; fill-opacity: 1;"/>
      <path d="M 48.24 125.03 C 48.65 125.2 48.928 125.37 49.089 125.56 C 49.237 125.75 49.265 125.96 49.167 126.2 C 49.066 126.45 48.89 126.6 48.638 126.66 C 48.388 126.72 47.999 126.75 47.484 126.75 C 47.234 126.75 46.994 126.75 46.761 126.77 C 46.521 126.77 46.306 126.81 46.117 126.87 C 45.928 126.93 45.749 127.03 45.592 127.17 C 45.436 127.3 45.305 127.5 45.203 127.75 C 45.001 128.24 45.021 128.72 45.266 129.16 C 45.513 129.6 45.95 129.94 46.584 130.2 C 46.745 130.26 46.9 130.32 47.066 130.37 C 47.235 130.42 47.384 130.45 47.532 130.49 C 47.685 130.51 47.813 130.54 47.933 130.55 C 48.043 130.56 48.138 130.57 48.201 130.57 L 48.37 129.64 C 48.241 129.65 48.043 129.64 47.791 129.61 C 47.543 129.58 47.251 129.49 46.928 129.36 C 46.648 129.25 46.423 129.09 46.263 128.9 C 46.107 128.7 46.07 128.48 46.168 128.24 C 46.216 128.13 46.282 128.03 46.375 127.95 C 46.458 127.87 46.564 127.83 46.692 127.79 C 46.82 127.76 46.968 127.73 47.135 127.72 C 47.3 127.72 47.499 127.72 47.734 127.73 C 48.042 127.75 48.318 127.75 48.563 127.73 C 48.806 127.72 49.037 127.68 49.242 127.61 C 49.433 127.54 49.614 127.44 49.764 127.28 C 49.913 127.13 50.05 126.92 50.16 126.66 C 50.372 126.14 50.336 125.67 50.07 125.25 C 49.794 124.82 49.299 124.47 48.59 124.18 C 48.095 123.98 47.69 123.86 47.379 123.82 C 47.066 123.79 46.846 123.78 46.732 123.78 L 46.56 124.71 C 46.698 124.72 46.907 124.73 47.189 124.75 C 47.471 124.76 47.822 124.85 48.24 125.03 Z" style="fill: rgb(255, 255, 255); fill-rule: evenodd; fill-opacity: 1;"/>
      <path d="M 54.741 132.88 C 54.831 132.9 54.932 132.93 55.059 132.95 C 55.173 132.97 55.292 132.97 55.408 132.99 C 55.525 133 55.633 133 55.737 133.02 C 55.832 133.02 55.905 133.02 55.954 133.02 L 56.016 132.06 C 55.928 132.07 55.786 132.07 55.582 132.06 C 55.382 132.05 55.129 132 54.826 131.92 C 54.635 131.87 54.45 131.8 54.269 131.71 C 54.09 131.62 53.963 131.55 53.911 131.52 L 55.216 126.62 L 54.17 126.34 L 52.684 131.93 C 52.908 132.09 53.186 132.26 53.536 132.43 C 53.886 132.61 54.282 132.75 54.741 132.88 Z" style="fill: rgb(255, 255, 255); fill-rule: evenodd; fill-opacity: 1;"/>
      <path d="M 57.761 126.16 C 57.847 126.14 57.968 126.12 58.112 126.11 C 58.245 126.1 58.383 126.11 58.509 126.14 C 58.932 126.22 59.235 126.37 59.44 126.59 C 59.644 126.83 59.794 127.17 59.909 127.63 C 59.258 128.45 58.632 129.34 58.029 130.29 C 57.417 131.23 56.881 132.2 56.411 133.2 L 57.553 133.42 C 57.698 133.09 57.868 132.74 58.067 132.36 C 58.258 131.99 58.457 131.61 58.684 131.22 C 58.912 130.82 59.137 130.44 59.387 130.05 C 59.636 129.66 59.884 129.29 60.139 128.93 C 60.275 129.79 60.378 130.62 60.448 131.45 C 60.519 132.28 60.564 133.11 60.602 133.98 L 61.698 134.19 C 61.634 133.02 61.526 131.89 61.385 130.8 C 61.249 129.7 61.061 128.67 60.842 127.69 C 60.758 127.32 60.654 127 60.541 126.72 C 60.413 126.45 60.269 126.2 60.106 126.01 C 59.941 125.81 59.733 125.66 59.509 125.53 C 59.273 125.4 58.993 125.32 58.685 125.26 C 58.605 125.24 58.514 125.23 58.419 125.22 C 58.326 125.22 58.231 125.22 58.148 125.22 C 58.052 125.22 57.969 125.23 57.896 125.24 C 57.813 125.25 57.762 125.26 57.725 125.27 Z" style="fill: rgb(255, 255, 255); fill-rule: evenodd; fill-opacity: 1;"/>
    </g>
    <g transform="">
      <title>Est. 783 065 and dots</title>
      <path d="M 38.789 19.238 C 38.682 19.073 38.546 18.927 38.392 18.819 C 38.241 18.712 38.074 18.626 37.898 18.589 C 37.722 18.551 37.53 18.551 37.339 18.579 C 37.141 18.611 36.94 18.686 36.746 18.811 C 36.551 18.939 36.402 19.09 36.301 19.253 C 36.19 19.421 36.119 19.591 36.082 19.767 C 36.044 19.943 36.046 20.136 36.082 20.319 C 36.119 20.502 36.196 20.688 36.304 20.852 C 36.411 21.017 36.54 21.153 36.699 21.271 C 36.853 21.378 37.028 21.458 37.204 21.496 C 37.38 21.533 37.569 21.548 37.769 21.514 C 37.958 21.488 38.153 21.404 38.347 21.279 C 38.542 21.152 38.697 21.009 38.807 20.841 C 38.91 20.678 38.983 20.493 39.021 20.317 C 39.058 20.141 39.047 19.954 39.011 19.771 C 38.968 19.578 38.897 19.404 38.789 19.238 Z" style="fill: rgb(255, 255, 255); fill-rule: evenodd; fill-opacity: 1;"/>
      <path d="M 40.689 13.429 L 44.105 20.688 L 48.535 18.602 L 48.125 17.734 L 44.711 19.339 L 43.696 17.182 L 46.734 15.753 L 46.335 14.905 L 43.297 16.333 L 42.115 13.82 L 45.791 12.09 L 45.383 11.22 Z" style="fill: rgb(255, 255, 255); fill-rule: evenodd; fill-opacity: 1;"/>
      <path d="M 48.537 10.863 C 48.95 10.713 49.274 10.657 49.521 10.691 C 49.755 10.728 49.918 10.866 50.004 11.106 C 50.095 11.357 50.067 11.589 49.923 11.8 C 49.779 12.013 49.512 12.296 49.132 12.642 C 48.947 12.808 48.771 12.969 48.612 13.139 C 48.436 13.302 48.301 13.472 48.204 13.644 C 48.105 13.815 48.041 14.011 48.017 14.217 C 47.993 14.423 48.028 14.656 48.12 14.905 C 48.301 15.407 48.632 15.742 49.109 15.9 C 49.586 16.061 50.138 16.02 50.78 15.788 C 50.943 15.728 51.091 15.663 51.251 15.592 C 51.407 15.511 51.539 15.438 51.672 15.365 C 51.803 15.281 51.914 15.216 52.011 15.143 C 52.097 15.076 52.177 15.021 52.222 14.98 L 51.723 14.178 C 51.633 14.271 51.483 14.4 51.278 14.548 C 51.07 14.685 50.799 14.821 50.471 14.939 C 50.189 15.042 49.919 15.077 49.673 15.044 C 49.422 14.999 49.25 14.864 49.164 14.627 C 49.121 14.507 49.102 14.389 49.121 14.271 C 49.128 14.157 49.177 14.054 49.248 13.942 C 49.317 13.832 49.411 13.712 49.528 13.594 C 49.646 13.478 49.796 13.349 49.976 13.197 C 50.211 13.001 50.415 12.816 50.587 12.644 C 50.758 12.472 50.9 12.284 51.004 12.097 C 51.098 11.916 51.162 11.719 51.171 11.508 C 51.18 11.295 51.141 11.05 51.042 10.779 C 50.853 10.257 50.514 9.9367 50.035 9.802 C 49.545 9.6729 48.943 9.744 48.225 10.004 C 47.723 10.186 47.347 10.371 47.093 10.55 C 46.84 10.739 46.668 10.876 46.588 10.956 L 47.087 11.759 C 47.192 11.673 47.353 11.54 47.572 11.362 C 47.791 11.184 48.112 11.018 48.537 10.863 Z" style="fill: rgb(255, 255, 255); fill-rule: evenodd; fill-opacity: 1;"/>
      <path d="M 54.664 14.38 L 56.865 13.787 L 56.63 12.915 L 54.428 13.508 L 53.706 10.825 C 53.627 10.533 53.586 10.294 53.58 10.092 C 53.575 9.8899 53.599 9.7141 53.661 9.5906 C 53.721 9.4541 53.811 9.3456 53.934 9.2651 C 54.056 9.1847 54.205 9.1192 54.385 9.0724 C 54.697 8.9883 54.963 8.9508 55.174 8.9789 C 55.384 8.9939 55.518 9.007 55.605 9.0182 L 55.575 8.1034 C 55.459 8.0753 55.255 8.0697 54.972 8.051 C 54.695 8.0417 54.383 8.0884 54.048 8.1801 C 53.657 8.2849 53.345 8.4158 53.118 8.5973 C 52.888 8.7675 52.714 8.9695 52.613 9.2127 C 52.51 9.4559 52.465 9.7328 52.49 10.049 C 52.501 10.358 52.559 10.702 52.664 11.093 L 54.061 16.28 L 55.148 16.179 Z" style="fill: rgb(255, 255, 255); fill-rule: evenodd; fill-opacity: 1;"/>
      <path d="M 58.205 7.9874 C 58.162 7.7835 58.057 7.617 57.891 7.4973 C 57.722 7.3795 57.526 7.3383 57.286 7.3888 C 57.049 7.4374 56.884 7.5553 56.779 7.7311 C 56.675 7.907 56.645 8.1034 56.688 8.3073 C 56.731 8.5112 56.837 8.6777 57.004 8.7956 C 57.17 8.9153 57.369 8.9565 57.606 8.9059 C 57.844 8.8554 58.008 8.7376 58.113 8.5617 C 58.218 8.3859 58.248 8.1913 58.205 7.9874 Z" style="fill: rgb(255, 255, 255); fill-rule: evenodd; fill-opacity: 1;"/>
      <path d="M 63.65 6.5133 C 63.75 7.1194 63.922 7.7667 64.155 8.4327 C 64.387 9.0968 64.653 9.7365 64.964 10.359 C 65.272 10.971 65.602 11.547 65.961 12.073 C 66.309 12.589 66.647 13.012 66.967 13.332 L 63.082 13.674 L 63.162 14.608 L 68.249 14.163 L 68.17 13.274 C 67.891 13.008 67.579 12.629 67.223 12.148 C 66.866 11.658 66.528 11.117 66.208 10.505 C 65.875 9.8956 65.585 9.2352 65.327 8.5393 C 65.067 7.8284 64.878 7.125 64.769 6.4142 Z" style="fill: rgb(255, 255, 255); fill-rule: evenodd; fill-opacity: 1;"/>
      <path d="M 74.515 8.2905 C 74.523 7.9669 74.471 7.6657 74.371 7.3963 C 74.261 7.1176 74.104 6.8706 73.887 6.6704 C 73.672 6.4572 73.397 6.2888 73.064 6.1672 C 72.729 6.0569 72.349 5.9914 71.921 5.9839 C 71.423 5.9745 71.006 6.0344 70.667 6.1785 C 70.329 6.3113 70.048 6.4796 69.846 6.6967 C 69.646 6.9118 69.491 7.14 69.405 7.4056 C 69.319 7.6582 69.268 7.8995 69.263 8.1315 C 69.259 8.3522 69.289 8.573 69.365 8.7825 C 69.431 8.9808 69.521 9.1791 69.644 9.3549 C 69.756 9.5308 69.893 9.6954 70.052 9.8488 C 70.2 9.991 70.37 10.122 70.542 10.229 C 69.783 10.642 69.388 11.272 69.371 12.116 C 69.365 12.406 69.418 12.696 69.528 12.965 C 69.639 13.233 69.796 13.467 70.013 13.669 C 70.217 13.869 70.469 14.035 70.767 14.17 C 71.066 14.292 71.401 14.355 71.771 14.363 C 72.2 14.37 72.57 14.309 72.886 14.187 C 73.2 14.065 73.459 13.897 73.659 13.704 C 73.859 13.5 74.003 13.27 74.1 13.029 C 74.186 12.788 74.237 12.546 74.24 12.314 C 74.246 12.095 74.214 11.886 74.16 11.688 C 74.095 11.489 74.007 11.302 73.906 11.126 C 73.793 10.951 73.668 10.799 73.531 10.668 C 73.384 10.539 73.236 10.419 73.088 10.313 C 74.01 9.9012 74.486 9.2277 74.515 8.2905 Z M 70.351 8.1408 C 70.353 8.0024 70.379 7.864 70.441 7.7143 C 70.49 7.5647 70.574 7.4281 70.703 7.3027 C 70.832 7.1774 70.985 7.0652 71.184 6.9885 C 71.382 6.9099 71.625 6.8687 71.915 6.8744 C 72.181 6.88 72.413 6.9193 72.607 7.0034 C 72.802 7.0895 72.952 7.1849 73.077 7.314 C 73.2 7.4318 73.29 7.5721 73.346 7.7237 C 73.401 7.8752 73.432 8.0379 73.429 8.2007 C 73.425 8.4439 73.374 8.6627 73.279 8.8461 C 73.182 9.0294 73.051 9.1884 72.875 9.325 C 72.699 9.4597 72.488 9.5719 72.243 9.6711 C 71.999 9.759 71.719 9.8338 71.404 9.8974 C 71.062 9.6954 70.8 9.4578 70.621 9.166 C 70.43 8.8723 70.344 8.5337 70.351 8.1408 Z M 73.165 12.305 C 73.163 12.421 73.137 12.548 73.088 12.687 C 73.028 12.823 72.944 12.95 72.837 13.074 C 72.731 13.188 72.591 13.291 72.415 13.368 C 72.241 13.446 72.031 13.476 71.788 13.47 C 71.545 13.467 71.337 13.427 71.165 13.343 C 70.993 13.259 70.845 13.164 70.742 13.046 C 70.641 12.917 70.563 12.788 70.518 12.647 C 70.464 12.496 70.443 12.357 70.447 12.219 C 70.449 12.045 70.488 11.884 70.548 11.71 C 70.609 11.538 70.716 11.39 70.847 11.242 C 70.976 11.095 71.154 10.969 71.375 10.859 C 71.586 10.747 71.842 10.659 72.132 10.595 C 72.454 10.799 72.703 11.024 72.895 11.293 C 73.086 11.551 73.172 11.89 73.165 12.305 Z" style="fill: rgb(255, 255, 255); fill-rule: evenodd; fill-opacity: 1;"/>
      <path d="M 78.072 7.357 C 78.751 7.4412 79.226 7.6413 79.492 7.9425 C 79.746 8.2419 79.851 8.6291 79.795 9.0762 C 79.759 9.3643 79.669 9.6093 79.52 9.7889 C 79.368 9.9685 79.187 10.109 78.977 10.212 C 78.768 10.301 78.526 10.354 78.255 10.378 C 77.986 10.391 77.707 10.38 77.432 10.345 L 77.157 10.311 L 77.047 11.184 L 77.426 11.231 C 77.621 11.256 77.814 11.302 78.016 11.364 C 78.208 11.422 78.382 11.514 78.541 11.639 C 78.702 11.763 78.822 11.918 78.904 12.103 C 78.986 12.288 79.018 12.503 78.985 12.767 C 78.958 12.986 78.9 13.164 78.801 13.304 C 78.702 13.442 78.595 13.558 78.455 13.646 C 78.317 13.734 78.158 13.783 77.991 13.809 C 77.815 13.822 77.64 13.824 77.456 13.802 C 77.088 13.755 76.786 13.659 76.545 13.525 C 76.294 13.388 76.091 13.246 75.932 13.109 L 75.417 13.875 C 75.501 13.942 75.608 14.026 75.748 14.125 C 75.877 14.211 76.029 14.299 76.193 14.38 C 76.36 14.458 76.547 14.539 76.749 14.612 C 76.94 14.67 77.155 14.72 77.374 14.748 C 77.799 14.801 78.16 14.799 78.483 14.733 C 78.807 14.67 79.078 14.552 79.295 14.393 C 79.516 14.221 79.692 14.022 79.826 13.781 C 79.963 13.53 80.043 13.261 80.081 12.962 C 80.131 12.548 80.062 12.178 79.856 11.86 C 79.652 11.532 79.392 11.267 79.078 11.076 C 79.293 11.044 79.499 10.977 79.709 10.885 C 79.918 10.795 80.098 10.666 80.268 10.513 C 80.429 10.358 80.569 10.165 80.689 9.9461 C 80.799 9.7272 80.876 9.4803 80.911 9.1922 C 80.954 8.8479 80.938 8.5187 80.857 8.2175 C 80.769 7.9032 80.616 7.6283 80.403 7.3795 C 80.176 7.1288 79.886 6.9305 79.523 6.7565 C 79.16 6.5825 78.73 6.4722 78.214 6.4067 C 78.019 6.3824 77.81 6.3674 77.6 6.3767 C 77.378 6.3842 77.177 6.3936 76.989 6.4179 C 76.798 6.4404 76.631 6.4666 76.489 6.4946 C 76.345 6.5245 76.236 6.5451 76.175 6.5732 L 76.266 7.5291 C 76.399 7.4879 76.627 7.4337 76.951 7.3701 C 77.262 7.3027 77.636 7.3027 78.072 7.357 Z" style="fill: rgb(255, 255, 255); fill-rule: evenodd; fill-opacity: 1;"/>
      <path d="M 82.079 11.177 C 81.77 12.485 81.77 13.543 82.064 14.361 C 82.357 15.18 82.906 15.68 83.729 15.874 C 84.55 16.069 85.276 15.871 85.904 15.27 C 86.535 14.67 86.997 13.721 87.305 12.414 C 87.616 11.108 87.627 10.053 87.334 9.2333 C 87.04 8.414 86.48 7.9126 85.657 7.718 C 84.836 7.5235 84.122 7.7237 83.493 8.3242 C 82.863 8.9247 82.389 9.8712 82.079 11.177 Z M 86.202 12.153 C 86.101 12.582 85.983 12.982 85.846 13.354 C 85.7 13.723 85.541 14.043 85.362 14.297 C 85.171 14.55 84.958 14.75 84.726 14.873 C 84.494 14.997 84.228 15.018 83.946 14.95 C 83.665 14.883 83.435 14.746 83.283 14.531 C 83.132 14.318 83.031 14.043 82.984 13.736 C 82.928 13.424 82.928 13.068 82.975 12.674 C 83.008 12.277 83.081 11.867 83.182 11.439 C 83.285 11.01 83.403 10.61 83.551 10.242 C 83.686 9.8694 83.845 9.5495 84.035 9.2969 C 84.215 9.0425 84.425 8.8536 84.657 8.7301 C 84.889 8.6066 85.158 8.5748 85.438 8.6422 C 85.721 8.7095 85.947 8.8573 86.099 9.0724 C 86.25 9.2857 86.355 9.5495 86.411 9.86 C 86.458 10.169 86.456 10.524 86.422 10.921 C 86.378 11.314 86.303 11.725 86.202 12.153 Z" style="fill: rgb(255, 255, 255); fill-rule: evenodd; fill-opacity: 1;"/>
      <path d="M 88.787 12.023 C 88.529 12.754 88.396 13.444 88.402 14.084 C 88.413 14.714 88.527 15.294 88.774 15.811 C 89.01 16.325 89.363 16.782 89.825 17.178 C 90.291 17.564 90.856 17.874 91.518 18.121 L 91.894 17.296 C 91.473 17.135 91.096 16.952 90.777 16.74 C 90.448 16.527 90.183 16.273 89.975 15.99 C 89.767 15.71 89.616 15.373 89.535 15.012 C 89.457 14.642 89.447 14.221 89.507 13.738 C 89.661 13.891 89.853 14.045 90.074 14.183 C 90.284 14.32 90.523 14.441 90.774 14.529 C 91.198 14.681 91.593 14.746 91.934 14.72 C 92.276 14.692 92.588 14.606 92.846 14.466 C 93.11 14.312 93.34 14.112 93.524 13.869 C 93.701 13.613 93.849 13.334 93.958 13.029 C 94.053 12.756 94.109 12.457 94.117 12.127 C 94.122 11.798 94.072 11.486 93.973 11.179 C 93.86 10.87 93.679 10.584 93.438 10.328 C 93.198 10.071 92.865 9.8675 92.461 9.7253 C 91.631 9.4316 90.897 9.4915 90.272 9.9086 C 89.634 10.32 89.139 11.029 88.787 12.023 Z M 90.957 13.661 C 90.706 13.573 90.474 13.467 90.272 13.345 C 90.072 13.214 89.878 13.072 89.694 12.896 C 89.709 12.816 89.741 12.728 89.767 12.651 C 89.788 12.561 89.82 12.473 89.846 12.397 C 89.958 12.081 90.087 11.783 90.231 11.514 C 90.375 11.246 90.542 11.022 90.734 10.857 C 90.92 10.678 91.135 10.558 91.363 10.502 C 91.595 10.438 91.859 10.457 92.152 10.562 C 92.392 10.646 92.581 10.773 92.71 10.93 C 92.839 11.085 92.934 11.267 92.985 11.469 C 93.037 11.671 93.052 11.873 93.041 12.079 C 93.019 12.279 92.979 12.462 92.918 12.636 C 92.744 13.126 92.487 13.467 92.166 13.648 C 91.834 13.824 91.427 13.828 90.957 13.661 Z" style="fill: rgb(255, 255, 255); fill-rule: evenodd; fill-opacity: 1;"/>
      <path d="M 95.641 16.508 C 96.717 16.971 97.6 17.109 98.29 16.924 C 98.979 16.74 99.489 16.29 99.832 15.569 C 99.987 15.246 100.07 14.928 100.1 14.606 C 100.11 14.28 100.07 13.976 99.94 13.673 C 99.815 13.369 99.603 13.089 99.323 12.814 C 99.044 12.539 98.672 12.298 98.212 12.079 C 98.034 11.994 97.841 11.916 97.637 11.858 C 97.435 11.8 97.243 11.746 97.065 11.714 C 96.889 11.68 96.723 11.652 96.577 11.635 C 96.433 11.617 96.322 11.604 96.257 11.609 L 96.042 12.546 C 96.18 12.548 96.414 12.569 96.73 12.604 C 97.037 12.636 97.39 12.752 97.778 12.937 C 98.092 13.087 98.337 13.242 98.522 13.42 C 98.696 13.592 98.82 13.766 98.9 13.946 C 98.981 14.125 99.005 14.316 98.994 14.503 C 98.971 14.685 98.928 14.857 98.844 15.034 C 98.719 15.294 98.563 15.515 98.369 15.68 C 98.18 15.833 97.939 15.936 97.645 15.962 C 97.349 15.99 96.992 15.96 96.571 15.85 C 96.148 15.738 95.653 15.541 95.069 15.263 C 94.945 15.627 94.828 15.955 94.715 16.273 C 94.592 16.585 94.472 16.888 94.36 17.18 C 94.246 17.474 94.128 17.775 94.003 18.063 C 93.879 18.349 93.761 18.652 93.623 18.97 L 97.114 20.633 L 97.506 19.808 L 94.861 18.548 C 94.901 18.439 94.955 18.299 95.03 18.115 C 95.104 17.932 95.172 17.734 95.252 17.541 C 95.336 17.337 95.404 17.141 95.479 16.957 C 95.553 16.774 95.602 16.619 95.641 16.508 Z" style="fill: rgb(255, 255, 255); fill-rule: evenodd; fill-opacity: 1;"/>
      <path d="M 105.05 20.852 C 105.16 20.686 105.24 20.502 105.27 20.319 C 105.31 20.136 105.32 19.949 105.28 19.773 C 105.25 19.597 105.17 19.421 105.07 19.258 C 104.95 19.09 104.8 18.937 104.61 18.811 C 104.42 18.686 104.22 18.611 104.03 18.585 C 103.83 18.551 103.64 18.557 103.47 18.594 C 103.29 18.632 103.12 18.71 102.96 18.819 C 102.81 18.925 102.67 19.073 102.57 19.238 C 102.46 19.402 102.39 19.576 102.35 19.769 C 102.31 19.952 102.31 20.145 102.35 20.323 C 102.38 20.499 102.45 20.676 102.56 20.847 C 102.66 21.009 102.82 21.152 103.01 21.277 C 103.2 21.404 103.4 21.488 103.6 21.52 C 103.79 21.548 103.98 21.539 104.16 21.501 C 104.34 21.464 104.5 21.378 104.66 21.269 C 104.82 21.153 104.94 21.017 105.05 20.852 Z" style="fill: rgb(255, 255, 255); fill-rule: evenodd; fill-opacity: 1;"/>
      <path d="M 72.188 132.83 C 72.188 132.63 72.155 132.43 72.084 132.25 C 72.012 132.08 71.917 131.91 71.788 131.78 C 71.659 131.65 71.492 131.55 71.317 131.47 C 71.128 131.38 70.914 131.33 70.679 131.33 C 70.443 131.33 70.23 131.38 70.054 131.47 C 69.865 131.55 69.711 131.65 69.581 131.78 C 69.451 131.91 69.345 132.08 69.274 132.25 C 69.203 132.43 69.169 132.63 69.169 132.83 C 69.169 133.03 69.203 133.22 69.274 133.41 C 69.345 133.59 69.451 133.75 69.581 133.88 C 69.711 134.01 69.865 134.13 70.054 134.22 C 70.23 134.3 70.443 134.33 70.679 134.33 C 70.914 134.33 71.128 134.3 71.317 134.22 C 71.492 134.13 71.659 134.01 71.788 133.88 C 71.917 133.75 72.012 133.59 72.084 133.41 C 72.155 133.22 72.188 133.03 72.188 132.83 Z" style="fill: rgb(255, 255, 255); fill-rule: evenodd; fill-opacity: 1;"/>
    </g>
    <g style="clip-path: url('#Finnish Bitcoin Association');">
      <title>Finnish Bitcoin Association</title>
      <path d="M 79.333 128.11 L 80.881 136.05 L 85.671 135.12 L 85.485 134.17 L 81.808 134.88 L 81.341 132.49 L 84.606 131.85 L 84.423 130.91 L 81.158 131.55 L 80.444 127.9 Z" style="fill: rgb(255, 255, 255); fill-rule: evenodd; fill-opacity: 1;"/>
      <path d="M 86.195 126.59 L 85.147 126.87 L 86.722 132.73 L 87.77 132.45 Z M 87.525 133.66 C 87.335 133.71 87.195 133.82 87.104 133.97 C 87.002 134.13 86.977 134.31 87.033 134.52 C 87.091 134.74 87.205 134.89 87.374 134.98 C 87.531 135.07 87.704 135.08 87.895 135.03 C 88.087 134.98 88.23 134.88 88.331 134.72 C 88.423 134.56 88.444 134.37 88.387 134.16 C 88.329 133.95 88.22 133.81 88.061 133.72 C 87.894 133.63 87.718 133.6 87.525 133.66 Z" style="fill: rgb(255, 255, 255); fill-rule: evenodd; fill-opacity: 1;"/>
      <path d="M 89.704 131.75 C 89.954 131.72 90.296 131.67 90.705 131.6 C 91.114 131.53 91.577 131.4 92.082 131.22 C 92.533 131.06 92.893 130.86 93.147 130.63 C 93.399 130.39 93.577 130.13 93.682 129.83 C 93.775 129.54 93.794 129.21 93.757 128.86 C 93.721 128.52 93.625 128.14 93.488 127.76 L 92.343 124.55 L 91.321 124.91 L 92.387 127.9 C 92.513 128.26 92.597 128.56 92.642 128.83 C 92.678 129.1 92.671 129.33 92.617 129.52 C 92.559 129.71 92.457 129.87 92.296 130.02 C 92.134 130.15 91.926 130.26 91.652 130.36 C 91.541 130.4 91.431 130.44 91.305 130.47 C 91.18 130.5 91.072 130.54 90.969 130.56 C 90.855 130.59 90.748 130.61 90.667 130.62 C 90.575 130.64 90.505 130.66 90.468 130.66 L 88.748 125.83 L 87.726 126.19 Z" style="fill: rgb(255, 255, 255); fill-rule: evenodd; fill-opacity: 1;"/>
      <path d="M 96.212 129.31 C 96.458 129.25 96.793 129.17 97.192 129.05 C 97.59 128.94 98.035 128.76 98.519 128.53 C 98.949 128.32 99.286 128.08 99.514 127.82 C 99.736 127.56 99.885 127.28 99.958 126.97 C 100.02 126.67 100 126.34 99.926 126 C 99.853 125.66 99.716 125.3 99.537 124.93 L 98.05 121.87 L 97.074 122.34 L 98.459 125.2 C 98.621 125.53 98.738 125.83 98.814 126.09 C 98.878 126.35 98.896 126.58 98.863 126.78 C 98.83 126.97 98.745 127.15 98.602 127.31 C 98.452 127.46 98.259 127.59 97.995 127.72 C 97.89 127.77 97.786 127.82 97.665 127.86 C 97.544 127.91 97.44 127.96 97.34 128 C 97.23 128.04 97.125 128.06 97.046 128.09 C 96.957 128.12 96.889 128.14 96.852 128.14 L 94.616 123.53 L 93.638 124.01 Z" style="fill: rgb(255, 255, 255); fill-rule: evenodd; fill-opacity: 1;"/>
      <path d="M 100.29 120.54 L 99.35 121.09 L 102.42 126.32 L 103.36 125.77 Z M 103.44 127 C 103.27 127.1 103.16 127.24 103.11 127.42 C 103.06 127.6 103.08 127.78 103.19 127.97 C 103.3 128.16 103.45 128.27 103.64 128.31 C 103.81 128.36 103.99 128.33 104.16 128.23 C 104.33 128.13 104.44 127.99 104.49 127.81 C 104.54 127.64 104.51 127.45 104.4 127.26 C 104.29 127.07 104.15 126.96 103.97 126.92 C 103.78 126.88 103.61 126.9 103.44 127 Z" style="fill: rgb(255, 255, 255); fill-rule: evenodd; fill-opacity: 1;"/>
      <path d="M 103.29 119.55 C 103.66 119.3 103.96 119.17 104.21 119.14 C 104.45 119.12 104.64 119.22 104.79 119.43 C 104.93 119.65 104.97 119.88 104.88 120.13 C 104.79 120.37 104.6 120.71 104.31 121.14 C 104.17 121.35 104.04 121.56 103.93 121.76 C 103.8 121.96 103.71 122.16 103.65 122.36 C 103.6 122.55 103.59 122.75 103.61 122.96 C 103.64 123.17 103.73 123.39 103.89 123.61 C 104.19 124.05 104.59 124.3 105.1 124.34 C 105.6 124.38 106.13 124.2 106.7 123.81 C 106.85 123.71 106.98 123.61 107.11 123.5 C 107.25 123.39 107.36 123.28 107.47 123.18 C 107.58 123.06 107.67 122.97 107.75 122.88 C 107.82 122.79 107.88 122.72 107.91 122.66 L 107.23 122 C 107.16 122.12 107.05 122.28 106.88 122.48 C 106.71 122.66 106.48 122.86 106.19 123.06 C 105.94 123.23 105.69 123.33 105.44 123.36 C 105.18 123.38 104.98 123.29 104.84 123.08 C 104.76 122.97 104.72 122.86 104.71 122.74 C 104.69 122.63 104.71 122.51 104.75 122.39 C 104.79 122.26 104.85 122.12 104.94 121.98 C 105.02 121.83 105.14 121.67 105.28 121.48 C 105.46 121.23 105.61 121 105.74 120.79 C 105.86 120.58 105.95 120.36 106.01 120.15 C 106.06 119.95 106.07 119.74 106.03 119.53 C 105.98 119.32 105.88 119.09 105.72 118.85 C 105.4 118.39 104.99 118.16 104.49 118.14 C 103.98 118.14 103.41 118.36 102.77 118.79 C 102.33 119.09 102.01 119.37 101.8 119.61 C 101.6 119.85 101.47 120.03 101.41 120.13 L 102.1 120.79 C 102.18 120.68 102.3 120.51 102.47 120.28 C 102.64 120.05 102.91 119.81 103.29 119.55 Z" style="fill: rgb(255, 255, 255); fill-rule: evenodd; fill-opacity: 1;"/>
      <path d="M 105.68 116.94 L 111.35 123.76 L 112.31 123.21 L 110.32 120.83 C 110.53 120.76 110.73 120.67 110.94 120.55 C 111.14 120.44 111.33 120.3 111.5 120.16 C 111.87 119.86 112.14 119.54 112.3 119.24 C 112.45 118.93 112.53 118.62 112.52 118.31 C 112.51 118 112.41 117.69 112.26 117.37 C 112.11 117.06 111.89 116.74 111.63 116.43 L 109.45 113.81 L 108.61 114.5 L 110.64 116.94 C 110.88 117.23 111.07 117.49 111.2 117.72 C 111.33 117.97 111.4 118.18 111.42 118.38 C 111.43 118.58 111.39 118.77 111.29 118.96 C 111.18 119.14 111.02 119.32 110.8 119.5 C 110.71 119.58 110.61 119.64 110.51 119.72 C 110.4 119.79 110.29 119.85 110.21 119.9 C 110.1 119.96 110.01 120.01 109.93 120.04 C 109.84 120.09 109.77 120.11 109.74 120.13 L 106.51 116.25 Z" style="fill: rgb(255, 255, 255); fill-rule: evenodd; fill-opacity: 1;"/>
      <path d="M 113.68 109.38 C 113.57 109.5 113.45 109.64 113.34 109.78 C 113.22 109.94 113.11 110.09 112.99 110.24 C 112.87 110.4 112.77 110.55 112.66 110.71 C 112.56 110.87 112.47 111.02 112.4 111.16 L 118.32 116.3 C 118.44 116.21 118.59 116.1 118.72 115.98 C 118.86 115.85 119.01 115.72 119.14 115.58 C 119.28 115.45 119.41 115.31 119.54 115.18 C 119.67 115.05 119.78 114.92 119.89 114.79 C 120.2 114.44 120.46 114.08 120.68 113.73 C 120.89 113.37 121.03 113.03 121.11 112.7 C 121.17 112.36 121.15 112.04 121.06 111.73 C 120.98 111.42 120.78 111.14 120.48 110.88 C 120.14 110.59 119.8 110.43 119.45 110.4 C 119.09 110.37 118.75 110.45 118.41 110.62 C 118.62 110.16 118.7 109.74 118.65 109.33 C 118.61 108.92 118.37 108.53 117.96 108.17 C 117.35 107.64 116.7 107.46 116 107.64 C 115.3 107.83 114.53 108.4 113.68 109.38 Z M 115.88 112.7 L 113.73 110.83 C 113.77 110.76 113.84 110.68 113.91 110.59 C 113.97 110.5 114.05 110.41 114.14 110.31 C 114.21 110.2 114.32 110.08 114.43 109.95 C 114.66 109.69 114.88 109.47 115.12 109.27 C 115.33 109.07 115.57 108.92 115.8 108.83 C 116.02 108.73 116.26 108.68 116.5 108.71 C 116.73 108.74 116.97 108.85 117.18 109.04 C 117.39 109.22 117.52 109.4 117.6 109.6 C 117.66 109.79 117.68 110 117.64 110.21 C 117.59 110.43 117.51 110.65 117.37 110.88 C 117.22 111.12 117.05 111.35 116.84 111.6 Z M 116.57 113.3 L 117.35 112.4 C 117.53 112.19 117.73 112 117.91 111.84 C 118.1 111.67 118.3 111.55 118.5 111.48 C 118.69 111.42 118.89 111.39 119.08 111.42 C 119.27 111.44 119.46 111.55 119.65 111.71 C 119.83 111.86 119.94 112.03 119.99 112.22 C 120.04 112.4 120.04 112.6 119.99 112.81 C 119.93 113.02 119.84 113.23 119.71 113.46 C 119.57 113.68 119.41 113.9 119.22 114.12 C 119.03 114.34 118.89 114.51 118.77 114.62 C 118.65 114.74 118.55 114.85 118.45 114.94 Z" style="fill: rgb(255, 255, 255); fill-rule: evenodd; fill-opacity: 1;"/>
      <path d="M 117.51 104.71 L 116.86 105.59 L 121.76 109.18 L 122.4 108.31 Z M 122.96 109.4 C 122.84 109.56 122.8 109.73 122.83 109.91 C 122.85 110.1 122.94 110.25 123.12 110.38 C 123.3 110.51 123.48 110.56 123.67 110.52 C 123.85 110.5 123.99 110.4 124.11 110.24 C 124.22 110.08 124.27 109.91 124.25 109.72 C 124.23 109.54 124.13 109.38 123.95 109.25 C 123.77 109.12 123.6 109.08 123.42 109.11 C 123.23 109.15 123.08 109.24 122.96 109.4 Z" style="fill: rgb(255, 255, 255); fill-rule: evenodd; fill-opacity: 1;"/>
      <path d="M 124.12 105.79 L 125.35 103.85 L 124.58 103.36 L 123.35 105.3 L 120.99 103.8 C 120.73 103.64 120.54 103.49 120.4 103.34 C 120.25 103.2 120.15 103.05 120.11 102.92 C 120.06 102.78 120.06 102.63 120.09 102.49 C 120.13 102.35 120.2 102.2 120.3 102.04 C 120.47 101.76 120.65 101.55 120.82 101.43 C 120.99 101.3 121.09 101.22 121.17 101.17 L 120.52 100.51 C 120.42 100.57 120.26 100.7 120.04 100.88 C 119.83 101.06 119.63 101.31 119.44 101.6 C 119.22 101.95 119.08 102.26 119.03 102.55 C 118.98 102.83 118.99 103.1 119.08 103.35 C 119.17 103.6 119.32 103.84 119.56 104.06 C 119.78 104.28 120.05 104.5 120.4 104.71 L 124.97 107.61 L 125.71 106.8 Z" style="fill: rgb(255, 255, 255); fill-rule: evenodd; fill-opacity: 1;"/>
      <path d="M 121.89 97.266 C 121.66 97.7 121.54 98.121 121.5 98.51 C 121.46 98.912 121.51 99.295 121.64 99.642 C 121.77 100 121.99 100.32 122.27 100.62 C 122.55 100.91 122.89 101.16 123.3 101.37 C 123.72 101.59 124.13 101.73 124.54 101.79 C 124.94 101.85 125.33 101.83 125.7 101.75 C 126.06 101.67 126.41 101.49 126.72 101.25 C 127.02 101 127.28 100.69 127.49 100.29 C 127.61 100.06 127.72 99.797 127.81 99.537 C 127.89 99.279 127.95 99.009 127.98 98.742 L 127.05 98.529 C 127.04 98.713 127.01 98.905 126.95 99.113 C 126.89 99.33 126.81 99.538 126.69 99.754 C 126.41 100.29 126.03 100.62 125.54 100.72 C 125.05 100.83 124.48 100.71 123.83 100.37 C 123.54 100.22 123.29 100.05 123.09 99.85 C 122.89 99.663 122.73 99.451 122.64 99.215 C 122.53 98.987 122.5 98.735 122.52 98.471 C 122.55 98.204 122.64 97.908 122.8 97.588 C 122.94 97.329 123.08 97.113 123.24 96.935 C 123.4 96.755 123.54 96.617 123.65 96.531 L 122.92 95.973 C 122.86 96.006 122.78 96.074 122.7 96.161 C 122.61 96.248 122.52 96.344 122.42 96.463 C 122.33 96.586 122.24 96.709 122.14 96.843 C 122.05 96.993 121.96 97.131 121.89 97.266 Z" style="fill: rgb(255, 255, 255); fill-rule: evenodd; fill-opacity: 1;"/>
      <path d="M 127.96 91.346 C 127.52 91.165 127.08 91.062 126.67 91.047 C 126.26 91.031 125.87 91.086 125.52 91.207 C 125.16 91.34 124.85 91.541 124.58 91.808 C 124.31 92.075 124.09 92.402 123.93 92.78 C 123.78 93.157 123.7 93.541 123.72 93.927 C 123.73 94.308 123.81 94.669 123.97 95.003 C 124.14 95.345 124.38 95.657 124.68 95.932 C 124.98 96.207 125.37 96.44 125.81 96.62 C 126.25 96.801 126.68 96.9 127.1 96.92 C 127.51 96.935 127.9 96.88 128.25 96.747 C 128.61 96.627 128.93 96.428 129.2 96.161 C 129.47 95.895 129.68 95.565 129.84 95.187 C 129.99 94.809 130.07 94.425 130.06 94.042 C 130.05 93.662 129.96 93.298 129.8 92.954 C 129.63 92.621 129.4 92.31 129.09 92.034 C 128.78 91.755 128.4 91.526 127.96 91.346 Z M 127.53 92.394 C 128.17 92.655 128.61 92.997 128.87 93.433 C 129.12 93.875 129.15 94.339 128.95 94.825 C 128.75 95.312 128.41 95.626 127.93 95.757 C 127.43 95.894 126.87 95.832 126.24 95.572 C 125.6 95.312 125.16 94.968 124.91 94.526 C 124.65 94.092 124.62 93.628 124.82 93.142 C 125.02 92.655 125.36 92.34 125.86 92.204 C 126.34 92.072 126.9 92.135 127.53 92.394 Z" style="fill: rgb(255, 255, 255); fill-rule: evenodd; fill-opacity: 1;"/>
      <path d="M 125.81 87.965 L 125.49 89.001 L 131.27 90.836 L 131.6 89.801 Z M 132.48 90.656 C 132.42 90.844 132.44 91.021 132.52 91.182 C 132.6 91.356 132.74 91.472 132.95 91.538 C 133.16 91.606 133.35 91.591 133.51 91.497 C 133.67 91.414 133.78 91.276 133.84 91.087 C 133.9 90.897 133.89 90.724 133.81 90.552 C 133.73 90.389 133.58 90.27 133.37 90.204 C 133.16 90.136 132.98 90.154 132.82 90.237 C 132.66 90.331 132.54 90.467 132.48 90.656 Z" style="fill: rgb(255, 255, 255); fill-rule: evenodd; fill-opacity: 1;"/>
      <path d="M 132.05 87.782 C 132.16 87.557 132.31 87.243 132.47 86.861 C 132.63 86.479 132.77 86.02 132.89 85.496 C 133 85.03 133.03 84.616 132.97 84.28 C 132.91 83.942 132.78 83.65 132.59 83.401 C 132.39 83.164 132.13 82.971 131.81 82.814 C 131.5 82.658 131.13 82.536 130.74 82.444 L 127.42 81.674 L 127.17 82.732 L 130.26 83.448 C 130.63 83.534 130.93 83.627 131.18 83.734 C 131.43 83.852 131.62 83.979 131.75 84.129 C 131.88 84.279 131.96 84.453 131.99 84.666 C 132.02 84.874 132 85.11 131.93 85.395 C 131.91 85.508 131.88 85.621 131.84 85.744 C 131.8 85.867 131.77 85.98 131.74 86.08 C 131.7 86.19 131.66 86.288 131.63 86.365 C 131.59 86.453 131.57 86.519 131.55 86.55 L 126.55 85.392 L 126.31 86.451 Z" style="fill: rgb(255, 255, 255); fill-rule: evenodd; fill-opacity: 1;"/>
      <path d="M 128.39 72.345 C 128.74 72.497 129.08 72.648 129.41 72.786 C 129.74 72.926 130.07 73.064 130.41 73.215 L 130.16 76.874 L 128.05 77.469 L 127.98 78.646 C 128.85 78.387 129.66 78.15 130.41 77.931 C 131.15 77.71 131.85 77.489 132.52 77.265 C 133.19 77.051 133.84 76.837 134.45 76.621 C 135.06 76.404 135.66 76.175 136.26 75.934 L 136.33 74.898 C 135.77 74.58 135.2 74.273 134.63 73.976 C 134.05 73.682 133.44 73.382 132.8 73.071 C 132.17 72.772 131.5 72.458 130.79 72.141 C 130.08 71.825 129.31 71.481 128.48 71.11 Z M 131.32 73.604 C 131.98 73.894 132.61 74.182 133.24 74.47 C 133.85 74.755 134.44 75.052 135 75.359 C 134.4 75.587 133.78 75.804 133.14 76.006 C 132.48 76.208 131.81 76.409 131.12 76.609 Z" style="fill: rgb(255, 255, 255); fill-rule: evenodd; fill-opacity: 1;"/>
      <path d="M 129.1 69.018 C 129.08 68.576 129.13 68.246 129.24 68.02 C 129.35 67.806 129.53 67.693 129.78 67.684 C 130.05 67.674 130.27 67.77 130.43 67.973 C 130.59 68.178 130.78 68.52 130.99 68.992 C 131.1 69.221 131.2 69.438 131.31 69.645 C 131.41 69.863 131.54 70.045 131.67 70.19 C 131.81 70.337 131.97 70.458 132.16 70.546 C 132.36 70.631 132.59 70.669 132.86 70.659 C 133.39 70.637 133.82 70.422 134.12 70.013 C 134.42 69.604 134.55 69.062 134.52 68.373 C 134.51 68.197 134.49 68.036 134.48 67.861 C 134.45 67.687 134.42 67.535 134.39 67.386 C 134.35 67.236 134.32 67.109 134.28 66.993 C 134.24 66.888 134.21 66.796 134.19 66.738 L 133.26 66.975 C 133.32 67.089 133.4 67.271 133.48 67.515 C 133.55 67.757 133.6 68.06 133.61 68.409 C 133.62 68.713 133.57 68.984 133.47 69.209 C 133.35 69.436 133.16 69.559 132.91 69.569 C 132.78 69.575 132.66 69.556 132.55 69.503 C 132.45 69.46 132.36 69.382 132.28 69.279 C 132.19 69.177 132.1 69.052 132.03 68.903 C 131.95 68.754 131.88 68.571 131.79 68.352 C 131.67 68.066 131.55 67.811 131.44 67.594 C 131.33 67.378 131.19 67.184 131.04 67.025 C 130.9 66.881 130.73 66.759 130.53 66.684 C 130.33 66.612 130.08 66.574 129.79 66.586 C 129.23 66.608 128.82 66.834 128.54 67.254 C 128.27 67.685 128.15 68.285 128.18 69.055 C 128.2 69.591 128.26 70.009 128.36 70.31 C 128.46 70.608 128.54 70.816 128.59 70.919 L 129.52 70.685 C 129.46 70.558 129.39 70.362 129.28 70.098 C 129.18 69.833 129.12 69.474 129.1 69.018 Z" style="fill: rgb(255, 255, 255); fill-rule: evenodd; fill-opacity: 1;"/>
      <path d="M 128.72 64.071 C 128.66 63.631 128.68 63.299 128.77 63.066 C 128.86 62.842 129.03 62.714 129.29 62.683 C 129.55 62.649 129.77 62.728 129.95 62.918 C 130.13 63.107 130.35 63.432 130.6 63.884 C 130.72 64.103 130.84 64.312 130.97 64.506 C 131.09 64.715 131.23 64.887 131.38 65.022 C 131.52 65.156 131.7 65.264 131.9 65.333 C 132.1 65.403 132.33 65.42 132.6 65.386 C 133.13 65.32 133.54 65.069 133.8 64.635 C 134.06 64.204 134.15 63.651 134.06 62.969 C 134.04 62.795 134.01 62.633 133.98 62.462 C 133.93 62.29 133.89 62.144 133.85 61.995 C 133.79 61.848 133.75 61.724 133.7 61.613 C 133.66 61.514 133.62 61.423 133.59 61.368 L 132.69 61.681 C 132.76 61.791 132.86 61.966 132.95 62.2 C 133.04 62.437 133.12 62.733 133.16 63.081 C 133.2 63.383 133.17 63.657 133.08 63.89 C 132.98 64.126 132.81 64.266 132.56 64.297 C 132.43 64.314 132.31 64.304 132.2 64.26 C 132.09 64.227 132 64.156 131.91 64.061 C 131.81 63.968 131.71 63.849 131.63 63.708 C 131.54 63.567 131.45 63.39 131.34 63.18 C 131.2 62.903 131.06 62.662 130.93 62.453 C 130.8 62.247 130.64 62.065 130.49 61.921 C 130.33 61.789 130.15 61.682 129.94 61.624 C 129.74 61.568 129.49 61.553 129.2 61.589 C 128.64 61.657 128.25 61.918 128.01 62.36 C 127.77 62.813 127.71 63.422 127.8 64.185 C 127.87 64.718 127.97 65.129 128.09 65.422 C 128.22 65.709 128.31 65.909 128.37 66.009 L 129.27 65.695 C 129.21 65.574 129.12 65.386 128.99 65.13 C 128.87 64.877 128.78 64.522 128.72 64.071 Z" style="fill: rgb(255, 255, 255); fill-rule: evenodd; fill-opacity: 1;"/>
      <path d="M 129.26 54.864 C 128.79 54.97 128.38 55.136 128.03 55.358 C 127.69 55.58 127.4 55.847 127.18 56.149 C 126.97 56.461 126.83 56.803 126.76 57.178 C 126.69 57.553 126.69 57.947 126.78 58.345 C 126.87 58.745 127.03 59.104 127.26 59.41 C 127.49 59.718 127.76 59.968 128.09 60.144 C 128.42 60.333 128.79 60.451 129.2 60.502 C 129.6 60.554 130.05 60.526 130.52 60.42 C 130.98 60.313 131.39 60.15 131.75 59.926 C 132.09 59.703 132.38 59.435 132.59 59.124 C 132.81 58.822 132.96 58.478 133.03 58.103 C 133.1 57.727 133.09 57.337 133 56.937 C 132.91 56.539 132.75 56.179 132.53 55.871 C 132.3 55.563 132.02 55.316 131.69 55.127 C 131.36 54.95 130.99 54.83 130.58 54.779 C 130.16 54.73 129.73 54.757 129.26 54.864 Z M 129.51 55.969 C 130.18 55.816 130.74 55.845 131.2 56.051 C 131.66 56.271 131.95 56.636 132.06 57.148 C 132.18 57.662 132.08 58.114 131.76 58.499 C 131.43 58.896 130.94 59.163 130.27 59.314 C 129.6 59.468 129.04 59.438 128.58 59.218 C 128.12 59.012 127.83 58.647 127.71 58.133 C 127.6 57.621 127.7 57.167 128.03 56.771 C 128.35 56.387 128.84 56.12 129.51 55.969 Z" style="fill: rgb(255, 255, 255); fill-rule: evenodd; fill-opacity: 1;"/>
      <path d="M 124.97 51.978 C 125.12 52.441 125.34 52.825 125.6 53.12 C 125.86 53.423 126.17 53.652 126.52 53.794 C 126.87 53.947 127.24 54.016 127.65 54.015 C 128.06 54.014 128.47 53.934 128.92 53.785 C 129.36 53.634 129.75 53.431 130.06 53.174 C 130.39 52.93 130.65 52.633 130.84 52.307 C 131.03 51.986 131.14 51.616 131.18 51.22 C 131.21 50.828 131.16 50.426 131.02 50.006 C 130.93 49.752 130.82 49.495 130.69 49.256 C 130.56 49.015 130.4 48.784 130.23 48.586 L 129.43 49.112 C 129.56 49.242 129.68 49.399 129.79 49.584 C 129.9 49.779 130 49.98 130.07 50.214 C 130.27 50.788 130.24 51.291 129.98 51.712 C 129.72 52.145 129.25 52.476 128.55 52.711 C 128.24 52.817 127.94 52.88 127.66 52.888 C 127.39 52.908 127.13 52.873 126.89 52.782 C 126.65 52.701 126.45 52.547 126.27 52.348 C 126.1 52.149 125.94 51.882 125.83 51.538 C 125.73 51.262 125.67 51.011 125.66 50.771 C 125.63 50.531 125.63 50.335 125.65 50.195 L 124.73 50.344 C 124.72 50.409 124.72 50.51 124.72 50.63 C 124.72 50.753 124.73 50.885 124.75 51.04 C 124.77 51.192 124.8 51.342 124.83 51.505 C 124.88 51.675 124.92 51.833 124.97 51.978 Z" style="fill: rgb(255, 255, 255); fill-rule: evenodd; fill-opacity: 1;"/>
      <path d="M 123.79 48.539 L 124.2 49.542 L 129.81 47.228 L 129.4 46.225 Z M 130.62 46.314 C 130.7 46.497 130.82 46.622 130.99 46.691 C 131.16 46.773 131.34 46.774 131.55 46.691 C 131.75 46.605 131.88 46.474 131.95 46.295 C 132.02 46.128 132.01 45.954 131.94 45.77 C 131.86 45.588 131.74 45.458 131.57 45.378 C 131.4 45.309 131.21 45.31 131.01 45.394 C 130.81 45.48 130.68 45.607 130.61 45.774 C 130.55 45.953 130.54 46.131 130.62 46.314 Z" style="fill: rgb(255, 255, 255); fill-rule: evenodd; fill-opacity: 1;"/>
      <path d="M 122.95 44.866 C 122.83 44.635 122.74 44.421 122.66 44.238 C 122.58 44.055 122.52 43.904 122.49 43.773 L 124.11 42.967 C 124.18 43.024 124.27 43.113 124.37 43.254 C 124.47 43.401 124.58 43.595 124.69 43.814 C 124.77 43.96 124.83 44.123 124.89 44.29 C 124.95 44.466 124.98 44.633 124.99 44.8 C 124.98 44.972 124.96 45.13 124.89 45.28 C 124.82 45.431 124.68 45.551 124.5 45.646 C 124.15 45.818 123.85 45.822 123.61 45.669 C 123.36 45.519 123.14 45.252 122.95 44.866 Z M 127.86 42.523 C 127.67 42.137 127.45 41.829 127.22 41.603 C 126.98 41.395 126.73 41.248 126.47 41.17 C 126.2 41.107 125.92 41.101 125.64 41.153 C 125.34 41.21 125.04 41.319 124.74 41.47 L 121.34 43.161 C 121.37 43.25 121.41 43.376 121.46 43.531 C 121.51 43.705 121.57 43.881 121.64 44.08 C 121.72 44.279 121.79 44.487 121.88 44.718 C 121.98 44.942 122.08 45.166 122.19 45.386 C 122.34 45.69 122.51 45.955 122.71 46.185 C 122.9 46.415 123.11 46.584 123.34 46.704 C 123.57 46.824 123.82 46.882 124.09 46.876 C 124.36 46.873 124.66 46.789 124.97 46.633 C 125.28 46.483 125.5 46.294 125.65 46.059 C 125.82 45.836 125.9 45.586 125.93 45.308 C 125.97 45.031 125.94 44.745 125.86 44.431 C 125.78 44.118 125.67 43.809 125.52 43.507 C 125.47 43.413 125.42 43.309 125.36 43.208 C 125.29 43.109 125.22 43.016 125.16 42.927 C 125.1 42.843 125.04 42.781 124.99 42.713 C 124.94 42.644 124.91 42.608 124.89 42.582 L 125.16 42.446 C 125.32 42.369 125.49 42.306 125.67 42.26 C 125.84 42.213 126.01 42.208 126.18 42.239 C 126.34 42.277 126.5 42.338 126.65 42.459 C 126.8 42.579 126.94 42.773 127.06 43.024 C 127.23 43.347 127.34 43.63 127.42 43.891 C 127.48 44.157 127.54 44.365 127.54 44.507 L 128.4 44.221 C 128.39 44.07 128.35 43.829 128.26 43.511 C 128.16 43.193 128.03 42.868 127.86 42.523 Z" style="fill: rgb(255, 255, 255); fill-rule: evenodd; fill-opacity: 1;"/>
      <path d="M 125.12 37.88 L 123.91 35.93 L 123.13 36.412 L 124.35 38.362 L 121.98 39.847 C 121.72 40.007 121.5 40.118 121.31 40.182 C 121.11 40.248 120.94 40.276 120.8 40.251 C 120.65 40.234 120.52 40.178 120.4 40.084 C 120.29 39.99 120.18 39.865 120.08 39.705 C 119.91 39.428 119.8 39.182 119.76 38.971 C 119.72 38.764 119.69 38.631 119.68 38.543 L 118.8 38.842 C 118.81 38.962 118.86 39.16 118.93 39.438 C 119 39.709 119.14 39.996 119.32 40.292 C 119.54 40.638 119.76 40.9 120 41.067 C 120.23 41.238 120.48 41.346 120.74 41.373 C 121.01 41.4 121.29 41.364 121.58 41.247 C 121.88 41.145 122.19 40.99 122.54 40.772 L 127.13 37.903 L 126.72 36.883 Z" style="fill: rgb(255, 255, 255); fill-rule: evenodd; fill-opacity: 1;"/>
      <path d="M 117.46 37.299 L 118.08 38.186 L 123.04 34.682 L 122.41 33.796 Z M 123.63 33.611 C 123.74 33.771 123.89 33.865 124.07 33.896 C 124.26 33.935 124.43 33.899 124.61 33.77 C 124.79 33.643 124.9 33.484 124.92 33.295 C 124.95 33.117 124.9 32.95 124.79 32.787 C 124.68 32.627 124.53 32.526 124.35 32.485 C 124.17 32.456 123.99 32.5 123.8 32.627 C 123.62 32.756 123.53 32.908 123.5 33.086 C 123.47 33.274 123.51 33.449 123.63 33.611 Z" style="fill: rgb(255, 255, 255); fill-rule: evenodd; fill-opacity: 1;"/>
      <path d="M 115.45 29.946 C 115.09 30.251 114.79 30.589 114.59 30.944 C 114.38 31.299 114.25 31.669 114.19 32.036 C 114.14 32.414 114.17 32.78 114.28 33.146 C 114.39 33.513 114.57 33.86 114.83 34.174 C 115.1 34.488 115.4 34.738 115.75 34.901 C 116.09 35.074 116.44 35.171 116.82 35.18 C 117.2 35.198 117.58 35.133 117.97 34.994 C 118.35 34.854 118.74 34.622 119.11 34.317 C 119.47 34.01 119.76 33.679 119.97 33.317 C 120.18 32.963 120.31 32.594 120.36 32.217 C 120.42 31.85 120.4 31.474 120.29 31.108 C 120.18 30.741 119.99 30.402 119.72 30.088 C 119.46 29.774 119.16 29.523 118.82 29.352 C 118.48 29.18 118.12 29.09 117.74 29.072 C 117.36 29.063 116.98 29.129 116.59 29.269 C 116.2 29.416 115.82 29.638 115.45 29.946 Z M 116.18 30.815 C 116.71 30.372 117.22 30.145 117.73 30.116 C 118.23 30.103 118.65 30.298 118.99 30.701 C 119.33 31.104 119.44 31.554 119.33 32.041 C 119.22 32.546 118.91 33.005 118.38 33.448 C 117.85 33.889 117.34 34.118 116.84 34.13 C 116.33 34.158 115.91 33.964 115.57 33.56 C 115.23 33.157 115.12 32.707 115.23 32.203 C 115.34 31.717 115.65 31.256 116.18 30.815 Z" style="fill: rgb(255, 255, 255); fill-rule: evenodd; fill-opacity: 1;"/>
      <path d="M 116.41 26.821 C 116.28 26.609 116.08 26.325 115.83 25.991 C 115.59 25.659 115.26 25.303 114.88 24.931 C 114.53 24.6 114.19 24.369 113.87 24.243 C 113.55 24.126 113.23 24.084 112.92 24.125 C 112.61 24.171 112.31 24.303 112.02 24.491 C 111.73 24.678 111.43 24.933 111.15 25.229 L 108.79 27.692 L 109.58 28.442 L 111.77 26.147 C 112.03 25.878 112.27 25.666 112.49 25.505 C 112.72 25.35 112.92 25.256 113.11 25.218 C 113.31 25.181 113.5 25.202 113.7 25.278 C 113.89 25.366 114.09 25.503 114.3 25.703 C 114.38 25.785 114.47 25.864 114.55 25.961 C 114.64 26.06 114.72 26.14 114.79 26.22 C 114.87 26.311 114.93 26.401 114.98 26.465 C 115.03 26.538 115.08 26.594 115.09 26.626 L 111.55 30.33 L 112.34 31.081 Z" style="fill: rgb(255, 255, 255); fill-rule: evenodd; fill-opacity: 1;"/>
    </g>
  </g>
</svg>