<?xml version="1.0" encoding="UTF-8" standalone="no"?>
<!-- Created with Inkscape (http://www.inkscape.org/) -->

<svg
   width="100mm"
   height="100mm"
   viewBox="0 0 100 100"
   version="1.1"
   id="svg1"
   xml:space="preserve"
   xmlns="http://www.w3.org/2000/svg"
   xmlns:svg="http://www.w3.org/2000/svg"><defs
     id="defs1" /><g
     id="layer1"
     transform="translate(-12.499997,-12.499991)"><g
       id="layer2"
       style="display:inline"
       transform="rotate(-43.382193,62.499997,62.499992)"><circle
         style="fill:#002f6c;fill-opacity:1;stroke-width:0.893782"
         id="path1-4-4"
         transform="matrix(-0.5510988,0.83444,0.83444,0.5510988,0,0)"
         cy="86.596169"
         cx="17.708818"
         r="50" /></g><g
       id="_1421344023328"
       style="clip-rule:evenodd;display:inline;fill-rule:evenodd;image-rendering:optimizeQuality;shape-rendering:geometricPrecision;text-rendering:geometricPrecision"
       transform="matrix(0.01784288,0,0,0.01784087,26.000015,25.999982)"><path
         fill-rule="nonzero"
         d="M 4030.06,2540.77 C 3756.82,3636.78 2646.74,4303.79 1550.6,4030.48 454.91999,3757.24 -212.09001,2647.09 61.269989,1551.17 334.38999,455.03998 1444.47,-212.02002 2540.27,61.219983 3636.33,334.45998 4303.3,1444.73 4030.03,2540.79 l 0.02,-0.02 z"
         style="display:none;fill:#fafafa"
         id="path1" /><path
         fill-rule="nonzero"
         d="m 3268.9717,1726.8351 c 51.1654,-342.1 -209.286,-525.9917 -565.4338,-648.6657 l 115.537,-463.40433 -282.0887,-70.2897 -112.4709,451.20363 c -74.16,-18.49597 -150.3175,-35.92389 -226.0102,-53.20103 l 113.2877,-454.18158 -281.9127,-70.28971 -115.5997,463.25366 c -61.3685,-13.9725 -121.6437,-27.78165 -180.1221,-42.33214 l 0.3267,-1.45757 -389.0059,-97.14152 -75.0393,301.28829 c 0,0 209.2858,47.9739 204.8754,50.9267 114.2303,28.5104 134.8875,104.1277 131.4571,164.0637 l -316.5675,1269.5119 c -13.9599,34.7052 -49.3937,86.7878 -129.2581,67.0101 2.827,4.0964 -205.02629,-51.1654 -205.02629,-51.1654 l -140.05167,322.9004 367.09216,91.5123 c 68.2917,17.1263 135.2141,35.0444 201.1185,51.8943 l -116.7307,468.7195 281.762,70.2896 115.5998,-463.7436 c 76.9743,20.8959 151.6744,40.1709 224.8038,58.3401 l -115.2102,461.5575 282.1012,70.2895 116.718,-467.8399 c 481.0209,91.035 842.71,54.332 994.9499,-380.7504 122.674,-350.2925 -6.1068,-552.3408 -259.1697,-684.0996 184.3188,-42.508 323.1517,-163.7369 360.1687,-414.1614 l -0.088,-0.063 z m -644.5066,903.7641 c -87.1773,350.2925 -676.9623,160.9351 -868.1795,113.4512 l 154.9038,-620.9718 c 191.2045,47.7351 804.386,142.2002 713.2884,507.5206 z m 87.2402,-908.8405 c -79.5251,318.6282 -570.4095,156.751 -729.6482,117.0574 l 140.4411,-563.1845 c 159.2387,39.6934 672.0495,113.7778 589.2322,446.1271 z"
         style="display:none;fill:#f7931a;stroke-width:1.25653"
         id="path2" /><g
         style="fill:none"
         id="g1"
         transform="matrix(28.411509,0,0,28.414842,-8.813404e-4,-7.0583151)"><path
           d="M 141.846,89.665 C 132.225,128.236 93.1561,151.711 54.5761,142.093 16.0121,132.476 -7.46593,93.408 2.15707,54.839 11.7711,16.264 50.8431,-7.21401 89.4101,2.40299 127.985,12.02 151.462,51.091 141.846,89.665 Z"
           fill="#F7931A"
           id="path1-2"
           style="fill:#fafafa;fill-opacity:1" /><path
           d="m 111.78439,59.515125 c 1.7777,-11.886864 -7.27331,-18.274412 -19.647693,-22.536908 l 4.013148,-16.099743 -9.799034,-2.442627 -3.908943,15.675479 c -2.579085,-0.6426 -5.222678,-1.247987 -7.853864,-1.847168 l 3.933751,-15.779681 -9.79283,-2.442624 -4.018112,16.097261 C 62.578324,29.65282 60.48553,29.17397 58.452282,28.66783 l 0.0098,-0.04962 -13.514411,-3.374274 -2.607582,10.466441 c 0,0 7.270809,1.666046 7.116981,1.770254 3.969733,0.991191 4.685524,3.617416 4.566432,5.699044 L 49.45211,61.521078 c 0.27292,0.07072 0.626475,0.168713 1.018486,0.327503 -0.327503,-0.08187 -0.676093,-0.169956 -1.034611,-0.256793 l -6.408642,25.691606 c -0.486295,1.205804 -1.718152,3.015751 -4.492001,2.328495 0.098,0.14142 -7.126908,-1.777699 -7.126908,-1.777699 l -4.862924,11.215723 12.752763,3.179527 c 2.370674,0.5942 4.699173,1.21446 6.986729,1.80248 l -4.052848,16.28462 9.78911,2.44262 4.015629,-16.11091 c 2.67709,0.72448 5.272302,1.39562 7.812932,2.02705 l -4.001984,16.0352 9.800272,2.44266 4.056569,-16.25356 c 16.713842,3.16089 29.281748,1.88559 34.568958,-13.227922 4.26369,-12.169704 -0.21093,-19.189927 -9.003878,-23.768765 6.402418,-1.476245 11.228138,-5.689124 12.514568,-14.387798 z M 89.39386,90.914462 C 86.361979,103.08539 65.873201,96.505581 59.226382,94.854419 L 64.607847,73.28265 c 6.643099,1.656125 27.949392,4.938595 24.786013,17.631812 z m 3.026922,-31.574254 c -2.761447,11.070589 -19.817649,5.444736 -25.350459,4.065254 l 4.877806,-19.565814 c 5.531573,1.379482 23.351947,3.953604 20.472653,15.50056 z"
           fill="white"
           id="path2-1"
           style="fill:#f7931a;fill-opacity:1;stroke-width:1.24054" /></g></g><g
       id="layer3"
       style="display:inline"
       transform="rotate(27.709532,62.5,62.499995)"><path
         d="m 33.882824,92.939407 q -0.152193,-0.144043 -0.270868,-0.212647 -0.127652,-0.06836 -0.226891,-0.08359 -0.103605,-0.01062 -0.183409,0.02751 -0.0798,0.03813 -0.149642,0.111921 -0.148408,0.156805 -0.09686,0.397946 0.04719,0.245752 0.293429,0.706127 0.104426,0.203751 0.195757,0.421338 0.08697,0.222198 0.111094,0.446126 0.01976,0.228539 -0.04588,0.454937 -0.07,0.231009 -0.279523,0.452381 -0.209517,0.221372 -0.458399,0.318056 -0.253247,0.101296 -0.523294,0.08178 -0.270047,-0.01952 -0.547916,-0.160107 -0.282234,-0.135974 -0.554337,-0.393505 -0.322835,-0.305546 -0.492568,-0.597337 -0.169734,-0.291791 -0.243358,-0.518848 l 0.744424,-0.370844 q 0.06827,0.195762 0.186286,0.403631 0.109038,0.208116 0.339634,0.426363 0.258267,0.244437 0.443404,0.27977 0.17616,0.03558 0.315838,-0.112002 0.08293,-0.08763 0.09817,-0.186865 0.01524,-0.09924 -0.01054,-0.21981 -0.03475,-0.120323 -0.09232,-0.253494 -0.06654,-0.132924 -0.147168,-0.28792 -0.161745,-0.327945 -0.258923,-0.594781 -0.101543,-0.262224 -0.107964,-0.495623 -0.01103,-0.237763 0.08179,-0.455924 0.09282,-0.218162 0.311065,-0.448757 0.423399,-0.447357 0.972716,-0.399584 0.544953,0.05238 1.176785,0.650381 0.212148,0.200788 0.3566,0.389962 0.148816,0.184562 0.247642,0.348041 0.09421,0.159114 0.15178,0.292285 0.05295,0.128806 0.0826,0.22681 l -0.744177,0.379821 q -0.06876,-0.213716 -0.215192,-0.474705 -0.155404,-0.260743 -0.459791,-0.548829 z m -3.483992,-4.674424 q 0.210385,0.137268 0.502306,0.388683 0.296732,0.247271 0.570209,0.564849 0.277619,0.322389 0.377468,0.613504 0.09571,0.286303 0.04946,0.544004 -0.05106,0.261844 -0.222007,0.501235 -0.170951,0.23939 -0.430787,0.463144 l -1.409852,1.214068 -0.617394,-0.716955 1.323241,-1.139485 q 0.346448,-0.298337 0.421697,-0.522356 0.07525,-0.224018 -0.140217,-0.474231 -0.0663,-0.07699 -0.145693,-0.159457 -0.08421,-0.07832 -0.151842,-0.137403 l -1.953584,1.682293 -0.617393,-0.716955 z m -3.904009,-2.753439 q 0.32337,-0.22457 0.659781,-0.319037 0.331196,-0.09085 0.647326,-0.04753 0.310914,0.04694 0.589087,0.224846 0.274551,0.172694 0.488255,0.480417 0.210081,0.302507 0.279629,0.6253 0.06593,0.317577 0.0013,0.625304 -0.06983,0.311349 -0.267005,0.595173 -0.202394,0.287446 -0.525764,0.512016 -0.32337,0.22457 -0.658188,0.310199 -0.338439,0.08041 -0.649354,0.03348 -0.314536,-0.05215 -0.589087,-0.224846 -0.278174,-0.177909 -0.481011,-0.469985 -0.206459,-0.297292 -0.272385,-0.614869 -0.06955,-0.322793 -0.0049,-0.63052 0.06461,-0.307727 0.26179,-0.591551 0.197178,-0.283824 0.520548,-0.508394 z m 0.550558,0.792778 q -0.359879,0.249924 -0.461871,0.537224 -0.110829,0.285706 0.0739,0.551704 0.184726,0.265998 0.494771,0.267152 0.304828,0.0048 0.664708,-0.245148 0.359879,-0.249924 0.472302,-0.544468 0.107207,-0.290922 -0.07752,-0.55692 -0.184726,-0.265997 -0.491149,-0.261936 -0.31526,0.0025 -0.675139,0.252392 z m -2.249409,-3.557693 q -0.405123,0.211912 -0.518003,0.407117 -0.115823,0.189577 0.01662,0.442779 0.0412,0.07877 0.09661,0.157289 0.04978,0.08146 0.102234,0.154345 l 2.284446,-1.194952 0.438541,0.838381 -2.85837,1.49516 q -0.08406,-0.09219 -0.18577,-0.218143 -0.110284,-0.128635 -0.215201,-0.27441 -0.113487,-0.148459 -0.213038,-0.311374 -0.105177,-0.159971 -0.19053,-0.323146 -0.167765,-0.320723 -0.186377,-0.561806 -0.02718,-0.243767 0.01766,-0.432046 -0.223598,-0.11236 -0.417418,-0.304794 -0.196762,-0.19806 -0.299776,-0.394995 -0.185423,-0.354482 -0.201871,-0.632529 -0.02502,-0.28073 0.0844,-0.509955 0.109417,-0.229224 0.330503,-0.409367 0.221087,-0.180142 0.524929,-0.339077 l 1.671134,-0.874139 0.438541,0.83838 -1.569853,0.821162 q -0.405123,0.211912 -0.518003,0.407116 -0.115823,0.189578 0.01662,0.44278 0.03532,0.06752 0.13383,0.173649 0.09557,0.100502 0.187414,0.152787 0.108811,-0.107082 0.24922,-0.194859 0.134781,-0.08483 0.297956,-0.170188 l 1.614866,-0.844707 0.438541,0.838381 z m -1.692592,-3.79196 q -0.416216,0.156029 -0.772213,0.147072 -0.364172,-0.01267 -0.650294,-0.142767 -0.286123,-0.130093 -0.493454,-0.357538 -0.20956,-0.233391 -0.316552,-0.518796 -0.249646,-0.665944 0.01574,-1.20623 0.259439,-0.538057 1.050248,-0.834512 0.0773,-0.02898 0.174661,-0.0587 0.09142,-0.02749 0.164998,-0.04829 l 0.753398,2.009725 q 0.262368,-0.132263 0.338207,-0.418391 0.07584,-0.286128 -0.06682,-0.666668 -0.09139,-0.243783 -0.219941,-0.460072 -0.136727,-0.220005 -0.257857,-0.344134 l 0.674878,-0.388627 q 0.06242,0.05798 0.142679,0.163522 0.08026,0.105545 0.159764,0.245277 0.08323,0.131558 0.163475,0.291357 0.08025,0.159799 0.142661,0.326285 0.158258,0.422161 0.15153,0.784104 -0.009,0.355998 -0.144996,0.644349 -0.144214,0.284634 -0.403618,0.497164 -0.261632,0.206585 -0.606496,0.335866 z m -1.119065,-1.954024 q -0.110743,0.0483 -0.204396,0.124094 -0.09588,0.06985 -0.152377,0.172409 -0.05872,0.09661 -0.07212,0.223699 -0.01562,0.121141 0.04233,0.275736 0.05572,0.148648 0.14936,0.235614 0.08769,0.0892 0.19768,0.12934 0.109991,0.04015 0.238567,0.03942 0.1204,-0.0044 0.24006,-0.02896 z m -1.917367,-1.883891 q -0.128788,-0.215682 -0.280735,-0.569714 -0.15809,-0.352422 -0.264424,-0.757808 -0.107946,-0.411528 -0.06828,-0.710786 0.03192,-0.303788 0.186579,-0.515042 0.154661,-0.211254 0.407196,-0.349707 0.252535,-0.138454 0.584215,-0.225455 l 1.824237,-0.478505 0.240058,0.91519 -1.713678,0.449504 q -0.442239,0.116001 -0.595894,0.281037 -0.153655,0.165036 -0.06988,0.484431 0.02578,0.09828 0.06706,0.205613 0.03514,0.108949 0.06998,0.191717 l 2.493738,-0.654117 0.240058,0.915189 z m 1.690679,-8.390966 q 0.03581,0.360174 0.04635,0.722861 0.01623,0.35574 -0.02759,0.749357 l -4.246262,0.422207 q -0.08703,-0.29765 -0.148114,-0.65531 -0.06741,-0.357033 -0.09819,-0.666656 -0.04147,-0.417044 -0.01283,-0.770863 0.02169,-0.359509 0.141888,-0.626714 0.120202,-0.267204 0.346495,-0.430093 0.219347,-0.16858 0.566883,-0.203136 0.524464,-0.05215 0.878031,0.423202 0.116504,-0.432751 0.373136,-0.611419 0.256631,-0.178668 0.597848,-0.212596 0.688754,-0.06848 1.086553,0.402469 0.397171,0.464633 0.495812,1.456691 z m -1.915525,0.694585 1.131072,-0.112463 q 0.002,-0.108677 -0.0043,-0.235682 -0.0062,-0.127005 -0.02133,-0.278658 -0.04398,-0.442318 -0.197374,-0.701463 -0.153393,-0.259144 -0.49461,-0.225217 -0.303304,0.03016 -0.407063,0.270202 -0.110077,0.240672 -0.06798,0.664034 z m -0.751942,0.07477 -0.04775,-0.480232 q -0.04524,-0.454957 -0.178453,-0.639532 -0.139534,-0.183946 -0.398607,-0.158187 -0.265391,0.02639 -0.352706,0.239272 -0.08732,0.212884 -0.04836,0.604652 0.01257,0.126377 0.03334,0.271082 0.01445,0.145333 0.0384,0.257816 z m 2.391055,-4.902548 0.01267,0.946065 -3.339801,0.04471 -0.01266,-0.946066 z m -4.306104,-0.03126 q 0.260327,-0.0035 0.415008,0.16591 0.148247,0.16313 0.151307,0.39171 0.0031,0.228579 -0.140682,0.401969 -0.150177,0.167125 -0.410503,0.17061 -0.260327,0.0035 -0.408574,-0.159646 -0.154681,-0.169394 -0.157741,-0.397974 -0.0031,-0.228579 0.147116,-0.395705 0.143742,-0.173389 0.404069,-0.176874 z m 0.150978,-1.511075 -0.101943,-0.952908 0.982862,0.05226 0.06036,-1.135046 0.786289,0.04181 -0.06036,1.135046 1.173092,0.06238 q 0.298029,0.01585 0.480973,-0.07617 0.183282,-0.09836 0.200142,-0.415408 0.0081,-0.152185 -0.0088,-0.31206 -0.02294,-0.166553 -0.06658,-0.302412 l 0.742641,-0.09405 q 0.06065,0.174918 0.100248,0.386869 0.0396,0.211952 0.02342,0.516322 -0.02057,0.386804 -0.135513,0.63505 -0.121286,0.24791 -0.313269,0.390316 -0.198324,0.142069 -0.468019,0.191317 -0.269359,0.04291 -0.592752,0.02571 z m 2.707136,-3.024566 q -0.358703,-0.04837 -0.658079,-0.204079 -0.304821,-0.162848 -0.507961,-0.414503 -0.209434,-0.252505 -0.305449,-0.585826 -0.09602,-0.333322 -0.0417,-0.736077 0.03564,-0.264307 0.115689,-0.477774 0.07375,-0.214316 0.189861,-0.410106 l 0.722564,0.296072 q -0.06817,0.125364 -0.12714,0.277598 -0.05897,0.152235 -0.08528,0.347319 -0.05601,0.41534 0.174,0.657804 0.230858,0.236172 0.652492,0.29303 0.446805,0.06025 0.717693,-0.09544 0.271736,-0.161987 0.336232,-0.640258 0.02291,-0.169912 0.01776,-0.369239 -0.0052,-0.199328 -0.05232,-0.372282 l 0.785571,-0.02862 q 0.04716,0.172954 0.06441,0.425171 0.01725,0.252218 -0.02264,0.54799 -0.0611,0.453099 -0.237384,0.762516 -0.182576,0.308568 -0.444272,0.491132 -0.260847,0.176271 -0.589077,0.234528 -0.333674,0.05112 -0.704964,10e-4 z m 1.262489,-6.800692 q 0.38341,0.08942 0.679019,0.275735 0.289424,0.18487 0.469195,0.448492 0.173587,0.26218 0.228037,0.58786 0.05589,0.319495 -0.0292,0.684353 -0.08365,0.358674 -0.276564,0.626662 -0.191469,0.261803 -0.463132,0.420138 -0.277848,0.156892 -0.620637,0.200831 -0.348974,0.0425 -0.732384,-0.04693 -0.38341,-0.08942 -0.671392,-0.280477 -0.286539,-0.197238 -0.460126,-0.459418 -0.172145,-0.268364 -0.228038,-0.587859 -0.05445,-0.32568 0.02632,-0.671986 0.08221,-0.35249 0.27368,-0.614293 0.192911,-0.267988 0.464574,-0.426322 0.271663,-0.158335 0.614453,-0.202274 0.342789,-0.04394 0.726199,0.04548 z m -0.219229,0.939973 q -0.426698,-0.09952 -0.70826,0.01739 -0.286304,0.109277 -0.359861,0.424663 -0.07356,0.315385 0.13342,0.54623 0.200793,0.229403 0.627491,0.328921 0.426698,0.09952 0.720628,-0.0145 0.287746,-0.115461 0.361303,-0.430847 0.07356,-0.315386 -0.134862,-0.540047 -0.213161,-0.232287 -0.639859,-0.331806 z m 2.503676,-2.599018 -0.288468,0.901103 -3.181074,-1.018349 0.288467,-0.901103 z m -4.073216,-1.397292 q 0.247954,0.07938 0.340826,0.289129 0.08876,0.201768 0.01906,0.419484 -0.0697,0.217716 -0.261066,0.336474 -0.195481,0.110775 -0.443435,0.0314 -0.247955,-0.07938 -0.336715,-0.281145 -0.09287,-0.209752 -0.02317,-0.427468 0.0697,-0.217716 0.265177,-0.328491 0.19137,-0.118758 0.439324,-0.03938 z m 1.516312,-1.110526 q 0.02691,-0.249761 0.118572,-0.623961 0.08578,-0.376609 0.244777,-0.76438 0.1614,-0.393647 0.37315,-0.608799 0.208284,-0.223437 0.458928,-0.299109 0.250643,-0.07567 0.535656,-0.03431 0.285012,0.04137 0.60228,0.17145 l 1.74497,0.715462 -0.358936,0.875423 -1.639214,-0.672101 q -0.423023,-0.173446 -0.645053,-0.134083 -0.22203,0.03936 -0.347296,0.344878 -0.03854,0.094 -0.07015,0.204579 -0.03749,0.108165 -0.05946,0.195237 l 2.38538,0.97804 -0.358935,0.875423 z m 2.461517,-3.432993 0.837846,-1.639858 0.763382,0.390032 -0.837846,1.639858 z M 25.61505,37.82808 q 0.671747,0.74968 1.227459,1.45768 0.555711,0.707999 1.038192,1.437997 0.173293,0.263448 0.270905,0.480252 0.103018,0.220136 0.127841,0.421914 0.03023,0.20511 -0.02773,0.408079 -0.04923,0.200896 -0.189158,0.427938 -0.11661,0.189201 -0.254402,0.328052 -0.129054,0.136776 -0.235602,0.212832 l -0.556661,-0.537023 q 0.119876,-0.09768 0.196064,-0.184988 0.07619,-0.08731 0.142822,-0.195423 0.133269,-0.21623 0.08431,-0.403049 -0.04022,-0.188893 -0.195666,-0.396584 -0.710493,-0.05748 -1.550724,-0.194917 -0.845637,-0.14077 -1.833456,-0.413927 l 0.526411,-0.854109 q 0.244141,0.07588 0.536118,0.158863 0.289903,0.07425 0.593949,0.149751 0.298641,0.07217 0.58647,0.137681 0.29116,0.0601 0.532412,0.104365 -0.151295,-0.190217 -0.342505,-0.412493 -0.191209,-0.222276 -0.396561,-0.445809 -0.207427,-0.232271 -0.410705,-0.447067 -0.205353,-0.223534 -0.38286,-0.407528 z m 3.404805,0.957071 -3.796802,-2.896003 0.452634,-0.844717 1.272333,0.970469 q 0.03252,-0.09499 0.1009,-0.226519 0.06718,-0.14043 0.151904,-0.251507 0.246468,-0.323132 0.499094,-0.465868 0.251428,-0.151636 0.509271,-0.154626 0.261693,-0.008 0.522357,0.11092 0.264515,0.113908 0.537158,0.321866 l 1.499535,1.143767 -0.573809,0.752291 -1.408654,-1.074447 q -0.363523,-0.277277 -0.588162,-0.296879 -0.220787,-0.02465 -0.413341,0.227796 -0.07702,0.100978 -0.126144,0.207264 -0.05032,0.09739 -0.08404,0.183474 l 2.019576,1.540427 z m 1.921744,-5.050809 q 0.319003,0.300354 0.648121,0.339858 0.329117,0.0395 0.594647,-0.242514 0.08706,-0.09246 0.156436,-0.175413 0.06475,-0.0873 0.10339,-0.146862 l -1.252897,-1.17965 q -0.10255,0.02555 -0.230407,0.105765 -0.123505,0.07559 -0.223623,0.181928 -0.461413,0.490063 0.204333,1.116888 z m 2.622754,-0.469792 q -0.05932,0.118582 -0.144757,0.264904 -0.09006,0.141969 -0.197803,0.293455 -0.10339,0.146862 -0.224732,0.294265 -0.112366,0.147133 -0.229896,0.27196 -0.282942,0.30051 -0.592784,0.453589 -0.309842,0.153079 -0.624008,0.162539 -0.31879,0.0051 -0.632658,-0.124699 -0.314138,-0.138782 -0.605402,-0.413018 -0.295887,-0.278589 -0.462025,-0.574562 -0.170761,-0.300325 -0.206609,-0.595728 -0.03585,-0.295404 0.06349,-0.576909 0.103688,-0.286128 0.347454,-0.54503 0.134941,-0.14332 0.267152,-0.22816 0.136563,-0.08946 0.296242,-0.157161 l -1.10033,-1.036003 0.537633,-0.793333 z m 1.774928,-1.478741 -0.701853,0.63451 -2.239946,-2.477683 0.701853,-0.634509 z m -2.821284,-3.253285 q 0.174596,0.193128 0.149618,0.421156 -0.02453,0.21906 -0.194102,0.372364 -0.169575,0.153304 -0.394701,0.159943 -0.224674,-0.0023 -0.399271,-0.195458 -0.174596,-0.193127 -0.15007,-0.412187 0.02498,-0.228028 0.194554,-0.381333 0.169575,-0.153304 0.394249,-0.150973 0.225126,-0.0066 0.399723,0.186488 z m 4.178665,1.239599 q 0.205065,-0.160407 0.258793,-0.26693 0.05373,-0.106523 -0.03626,-0.22156 -0.07042,-0.09003 -0.231319,-0.06898 -0.164808,0.01605 -0.456389,0.10708 -0.225916,0.07191 -0.425735,0.11535 -0.194818,0.03953 -0.369185,0.02274 -0.178279,-0.02178 -0.33893,-0.113791 -0.160652,-0.09201 -0.309323,-0.282066 -0.289516,-0.370117 -0.182661,-0.800366 0.106854,-0.430248 0.587005,-0.805837 0.240076,-0.187794 0.495357,-0.314925 0.251368,-0.132132 0.420533,-0.183838 l 0.323795,0.681905 q -0.165252,0.05671 -0.347688,0.14298 -0.177434,0.08236 -0.367494,0.231031 -0.35011,0.273867 -0.197527,0.468928 0.03521,0.04501 0.0776,0.06829 0.04239,0.02327 0.114792,0.02307 0.06849,-0.0052 0.174811,-0.02388 0.107412,-0.02759 0.262661,-0.07647 0.3155,-0.101678 0.545974,-0.136846 0.226561,-0.04017 0.398749,-0.0056 0.173278,0.0257 0.306098,0.123349 0.137822,0.09374 0.266931,0.258792 0.305166,0.390123 0.166568,0.821017 -0.133596,0.426981 -0.668765,0.845606 -0.35011,0.273866 -0.632133,0.397729 -0.277021,0.119951 -0.398349,0.150361 l -0.348358,-0.703 q 0.248745,-0.07365 0.48402,-0.185128 0.231362,-0.116483 0.426423,-0.269066 z m 0.179033,-4.481429 0.708032,-0.645845 0.539225,0.823398 0.950892,-0.622717 0.43138,0.658719 -0.950893,0.622717 0.643591,0.982766 q 0.163506,0.249676 0.345911,0.342757 0.187716,0.0896 0.453329,-0.08434 0.127494,-0.08349 0.246384,-0.191714 0.120724,-0.117012 0.204451,-0.232566 l 0.515106,0.543165 q -0.105164,0.152364 -0.252637,0.309665 -0.147473,0.1573 -0.402461,0.324286 -0.324047,0.212211 -0.592199,0.266369 -0.271631,0.04885 -0.500012,-0.02172 -0.23186,-0.07587 -0.431095,-0.2642 -0.193922,-0.191805 -0.371345,-0.462729 z m 6.177858,-2.665059 q 0.203086,0.985911 0.326888,1.8774 0.123803,0.891488 0.173254,1.765123 0.01713,0.314868 -0.0077,0.551338 -0.02179,0.242069 -0.101909,0.428916 -0.07712,0.192447 -0.229375,0.338652 -0.143657,0.148812 -0.378852,0.274558 -0.195996,0.104789 -0.38495,0.155408 -0.180361,0.05323 -0.31071,0.06531 l -0.210684,-0.74423 q 0.152749,-0.02406 0.262529,-0.06115 0.109779,-0.03709 0.221777,-0.09697 0.223996,-0.119758 0.275726,-0.305829 0.06032,-0.183464 0.03055,-0.441169 -0.58499,-0.407297 -1.241835,-0.948991 -0.659838,-0.547294 -1.375897,-1.280548 l 0.884782,-0.473045 q 0.172763,0.188456 0.383284,0.407129 0.213126,0.210079 0.437841,0.428365 0.22172,0.212685 0.437452,0.41417 0.221333,0.198492 0.407514,0.358173 -0.03498,-0.240518 -0.08832,-0.528828 -0.05334,-0.28831 -0.118259,-0.584827 -0.06232,-0.30511 -0.129848,-0.593032 -0.06492,-0.296516 -0.125689,-0.544851 z m 3.082973,1.551138 q 0.239823,-0.101328 0.31949,-0.190136 0.07967,-0.08881 0.02283,-0.223344 -0.04449,-0.105287 -0.205299,-0.126958 -0.163285,-0.02752 -0.468519,-0.01574 -0.236855,0.01046 -0.441085,2.38e-4 -0.198381,-0.01269 -0.362324,-0.0744 -0.166415,-0.06756 -0.297486,-0.198304 -0.13107,-0.130746 -0.224984,-0.353021 -0.182884,-0.43285 0.03256,-0.820299 0.215442,-0.387448 0.776977,-0.624704 0.280768,-0.118628 0.560381,-0.174726 0.277142,-0.06195 0.453938,-0.06771 l 0.134602,0.742779 q -0.174325,0.01161 -0.372954,0.04728 -0.19278,0.0332 -0.415055,0.127111 -0.409452,0.172999 -0.313067,0.401122 0.02224,0.05264 0.05709,0.08618 0.03485,0.03353 0.104792,0.05223 0.06747,0.01285 0.174984,0.02258 0.110889,0.0014 0.273515,-0.0053 0.331103,-0.01581 0.562767,0.01039 0.229192,0.02035 0.386379,0.0987 0.160566,0.07003 0.263297,0.198962 0.108579,0.126462 0.190136,0.31949 0.19277,0.456248 -0.05348,0.836034 -0.240404,0.377315 -0.866282,0.641756 -0.409453,0.172999 -0.714028,0.218963 -0.298726,0.04349 -0.423785,0.04118 l -0.152808,-0.769554 q 0.259346,-0.0062 0.515561,-0.05239 0.253745,-0.05206 0.481868,-0.148447 z m 5.837878,-3.885597 q -0.130876,0.0029 -0.304622,0.0176 -0.175425,0.0085 -0.365281,0.06055 -0.08574,0.02349 -0.203197,0.07541 -0.113009,0.04412 -0.16922,0.07927 l 0.674378,2.46201 -0.912536,0.249956 -0.835423,-3.049952 q 0.22149,-0.152844 0.532077,-0.316925 0.315034,-0.171883 0.725369,-0.284279 0.07349,-0.02013 0.180963,-0.0364 0.105792,-0.02239 0.214939,-0.03254 0.10747,-0.01627 0.218295,-0.02029 0.109148,-0.01014 0.191029,3.46e-4 z m 4.278242,-1.706302 q -0.109719,1.000613 -0.265868,1.887008 -0.15615,0.886395 -0.377567,1.732952 -0.08046,0.304896 -0.176714,0.522306 -0.09513,0.223659 -0.228786,0.376843 -0.132533,0.159434 -0.322346,0.251777 -0.182436,0.09746 -0.444893,0.144848 -0.218714,0.03949 -0.414081,0.02959 -0.187989,-0.0048 -0.315745,-0.03333 l 0.02822,-0.772961 q 0.152752,0.02404 0.268618,0.02248 0.115866,-0.0016 0.240846,-0.02412 0.249958,-0.04513 0.356367,-0.206298 0.113785,-0.156048 0.164648,-0.410432 -0.431517,-0.56736 -0.890111,-1.284695 -0.459722,-0.723584 -0.915796,-1.641406 l 0.987338,-0.178255 q 0.10649,0.232429 0.239623,0.505215 0.138255,0.265409 0.285014,0.542188 0.145632,0.27053 0.289007,0.528562 0.149624,0.256903 0.277725,0.466072 0.04062,-0.23963 0.07847,-0.530379 0.03784,-0.29075 0.06718,-0.592869 0.03446,-0.309497 0.05868,-0.604239 0.02934,-0.302119 0.04783,-0.557111 z m 7.152776,0.690549 q -3.1e-5,0.18415 -0.06356,0.349239 -0.06353,0.15874 -0.184197,0.28572 -0.12067,0.12063 -0.292133,0.196801 -0.165112,0.06982 -0.374662,0.06979 -0.209549,-3.4e-5 -0.380988,-0.06991 -0.165087,-0.07623 -0.285717,-0.196897 -0.120629,-0.12702 -0.184103,-0.28578 -0.06347,-0.165111 -0.06344,-0.349261 2.9e-5,-0.1778 0.06356,-0.342889 0.06353,-0.16509 0.184198,-0.28572 0.120671,-0.12698 0.285782,-0.196803 0.171463,-0.07617 0.381013,-0.07614 0.20955,3.5e-5 0.374637,0.07626 0.171439,0.06988 0.292068,0.196899 0.12063,0.12067 0.184102,0.28578 0.06347,0.165111 0.06344,0.342911 z m 5.167569,2.674781 0.792324,-4.328633 2.898247,0.530502 -0.149775,0.818256 -1.923837,-0.352144 -0.165782,0.905702 1.711465,0.313271 -0.149775,0.818255 -1.711465,-0.31327 -0.326991,1.786419 z m 4.87547,1.057105 -0.914552,-0.242475 0.855987,-3.228553 0.914552,0.242475 z m 1.189275,-4.138736 q -0.06672,0.251656 -0.271502,0.355027 -0.197015,0.09886 -0.417981,0.04028 -0.220965,-0.05859 -0.34926,-0.243696 -0.12053,-0.189621 -0.05381,-0.441276 0.06672,-0.251656 0.263737,-0.350517 0.204781,-0.103372 0.425746,-0.04479 0.220966,0.05859 0.341496,0.248206 0.128295,0.185111 0.06157,0.436766 z m 1.185877,1.458143 q 0.250803,0.01423 0.629164,0.08683 0.380469,0.06661 0.775792,0.205762 0.401314,0.141264 0.626911,0.34185 0.233696,0.196704 0.32196,0.443195 0.08826,0.24649 0.06138,0.533232 -0.02688,0.286741 -0.140737,0.610188 l -0.626198,1.778955 -0.892473,-0.314153 0.588247,-1.67114 q 0.151806,-0.431262 0.101253,-0.651015 -0.05055,-0.219752 -0.36202,-0.329389 -0.09584,-0.03374 -0.207868,-0.05971 -0.109924,-0.03196 -0.197997,-0.0495 l -0.856016,2.431838 -0.892472,-0.314153 z m 4.247895,1.586797 q 0.24803,0.03983 0.616974,0.150765 0.371654,0.105197 0.75066,0.284081 0.384748,0.181594 0.588632,0.404215 0.212337,0.219589 0.274911,0.473819 0.06257,0.25423 0.0065,0.536714 -0.05609,0.282484 -0.202448,0.59258 l -0.804977,1.705526 -0.855634,-0.403844 0.756191,-1.602161 q 0.195146,-0.41346 0.167349,-0.637233 -0.0278,-0.223772 -0.326408,-0.364711 -0.09188,-0.04336 -0.200666,-0.08067 -0.106075,-0.04304 -0.191891,-0.0695 l -1.100407,2.33146 -0.855634,-0.403844 z m 3.204675,5.263478 -0.820958,-0.470348 1.660423,-2.898148 0.820958,0.470348 z m 2.217379,-3.691442 q -0.129425,0.225901 -0.35395,0.272905 -0.215859,0.04465 -0.414211,-0.06899 -0.198352,-0.113641 -0.274513,-0.325597 -0.06749,-0.214309 0.06193,-0.44021 0.129425,-0.225902 0.345284,-0.270552 0.224525,-0.047 0.422877,0.06664 0.198352,0.113641 0.265846,0.32795 0.07616,0.211956 -0.05326,0.437857 z m 0.118091,4.357058 q 0.216116,0.145175 0.334052,0.163201 0.117936,0.01803 0.199376,-0.103211 0.06374,-0.09488 -0.0062,-0.241304 -0.06639,-0.151694 -0.243399,-0.400642 -0.138459,-0.192455 -0.24175,-0.368936 -0.09802,-0.17294 -0.136165,-0.343908 -0.03461,-0.17624 0.003,-0.35751 0.03762,-0.18127 0.172173,-0.381573 0.262024,-0.390064 0.704193,-0.421975 0.442169,-0.03191 0.948197,0.308011 0.253015,0.169961 0.453077,0.373199 0.203603,0.197967 0.305244,0.342741 l -0.547789,0.519388 q -0.105182,-0.139502 -0.243801,-0.286167 -0.133348,-0.143123 -0.333651,-0.277676 -0.368979,-0.24786 -0.507073,-0.04229 -0.03187,0.04744 -0.04084,0.09496 -0.009,0.04752 0.01368,0.116286 0.0262,0.06349 0.07694,0.158776 0.05955,0.09355 0.154191,0.225973 0.19455,0.268382 0.299491,0.47657 0.108481,0.202917 0.129004,0.377346 0.02933,0.172699 -0.02229,0.329263 -0.04635,0.160105 -0.163201,0.334053 -0.276187,0.411148 -0.728818,0.413082 -0.44736,0.0055 -1.011371,-0.373396 -0.368979,-0.24786 -0.574232,-0.477534 -0.199982,-0.226133 -0.266535,-0.332038 l 0.560222,-0.549285 q 0.14719,0.21362 0.326167,0.402694 0.182519,0.183804 0.388093,0.321897 z m 1.739828,2.045483 3.024766,-3.695041 0.828664,0.481395 -1.013618,1.238232 q 0.09381,0.03577 0.222918,0.108624 0.138038,0.07197 0.246138,0.160458 0.314471,0.257427 0.448442,0.514808 0.142906,0.256491 0.137034,0.514284 -9.6e-4,0.261815 -0.128805,0.518237 -0.122931,0.260445 -0.340135,0.52578 l -1.194621,1.459345 -0.732129,-0.599322 1.12222,-1.3709 q 0.289605,-0.35378 0.316915,-0.577612 0.03222,-0.21981 -0.213457,-0.420925 -0.09827,-0.08045 -0.202807,-0.133193 -0.0956,-0.05364 -0.180478,-0.09029 l -1.608918,1.965447 z m 5.607414,5.28618 q -0.24067,-0.270344 -0.462369,-0.557577 -0.222219,-0.278268 -0.418121,-0.622473 l 3.18721,-2.837373 q 0.245356,0.189657 0.504997,0.443112 0.264385,0.249232 0.471277,0.481633 0.27867,0.313029 0.463467,0.61611 0.193762,0.303602 0.253567,0.590429 0.0598,0.286827 -0.02753,0.551617 -0.07837,0.265311 -0.339231,0.497536 -0.393659,0.35045 -0.959099,0.173689 0.160099,0.418587 0.05749,0.713974 -0.102609,0.295387 -0.358724,0.52339 -0.516973,0.460229 -1.115613,0.313025 Q 93.621793,35.9189 92.958895,35.17427 Z m 1.141473,-1.687817 -0.848974,0.755788 q 0.06229,0.08907 0.141996,0.188154 0.0797,0.09908 0.181037,0.212908 0.29556,0.332001 0.571976,0.451499 0.276415,0.119498 0.53253,-0.108505 0.227658,-0.20267 0.170513,-0.457859 -0.0524,-0.259411 -0.335294,-0.577184 z m 0.564402,-0.502452 0.320893,0.360459 q 0.304004,0.341486 0.520267,0.412514 0.221005,0.06681 0.415463,-0.106307 0.199201,-0.177336 0.144716,-0.400887 -0.05448,-0.223551 -0.316265,-0.517609 -0.08445,-0.09486 -0.186301,-0.199721 -0.09711,-0.109086 -0.1826,-0.186013 z m 0.947089,5.371693 -0.566308,-0.757954 2.675733,-1.999181 0.566307,0.757954 z m 3.502158,-2.505673 q -0.208565,0.155829 -0.433271,0.109699 -0.215818,-0.04484 -0.352644,-0.227974 -0.136826,-0.18313 -0.122446,-0.407894 0.02327,-0.223478 0.231832,-0.379307 0.208565,-0.15583 0.424383,-0.110986 0.224707,0.04613 0.361533,0.22926 0.136826,0.18313 0.113558,0.406608 -0.01438,0.224764 -0.222945,0.380594 z m 0.76601,1.311252 0.642563,0.711016 -0.825892,0.535405 0.618302,0.953767 -0.660706,0.428323 -0.618306,-0.953766 -0.985736,0.639031 q -0.250431,0.162349 -0.344356,0.34432 -0.09047,0.187299 0.08224,0.453714 0.0829,0.12788 0.19057,0.24727 0.116451,0.121265 0.231617,0.205526 l -0.545545,0.512584 q -0.151876,-0.105868 -0.308491,-0.254068 -0.156616,-0.1482 -0.322419,-0.403959 -0.210708,-0.325026 -0.263624,-0.593426 -0.04759,-0.271854 0.02403,-0.499906 0.07695,-0.231506 0.266194,-0.429866 0.192701,-0.193033 0.464445,-0.369198 z m -0.41245,4.03812 q 0.318634,-0.171698 0.652353,-0.221689 0.34233,-0.04741 0.65459,0.03679 0.31785,0.08119 0.59145,0.294421 0.27359,0.213235 0.46637,0.570999 0.12652,0.234783 0.18723,0.454534 0.0663,0.216738 0.0874,0.443382 l -0.7586,0.185164 q -0.0185,-0.141489 -0.0603,-0.299315 -0.0418,-0.157825 -0.13515,-0.331117 -0.19881,-0.368945 -0.5274,-0.429915 -0.32559,-0.05538 -0.700123,0.14644 -0.396895,0.213869 -0.52454,0.499048 -0.124634,0.29077 0.104297,0.715615 0.08133,0.150932 0.20266,0.309163 0.12133,0.158231 0.261139,0.270438 l -0.618732,0.484885 q -0.139809,-0.112207 -0.302007,-0.306122 -0.162198,-0.193915 -0.303773,-0.456648 -0.216882,-0.402485 -0.256127,-0.756426 -0.03365,-0.356953 0.07076,-0.658468 0.107429,-0.295926 0.338736,-0.535979 0.23991,-0.237475 0.569725,-0.415197 z m 2.975803,6.244038 q -0.36275,0.153009 -0.71142,0.176023 -0.34281,0.02055 -0.6432,-0.08707 -0.29454,-0.110085 -0.53001,-0.341567 -0.23301,-0.225631 -0.37861,-0.570829 -0.14314,-0.339348 -0.14458,-0.669544 10e-4,-0.324347 0.12775,-0.612118 0.13257,-0.290239 0.38407,-0.527266 0.25736,-0.239495 0.62011,-0.392504 0.36275,-0.153008 0.70803,-0.167704 0.34775,-0.0088 0.64229,0.101239 0.297,0.115936 0.53001,0.341567 0.23547,0.231482 0.37367,0.559128 0.14067,0.333496 0.13964,0.657842 10e-4,0.330197 -0.12528,0.617968 -0.12672,0.287772 -0.37822,0.524799 -0.2515,0.237027 -0.61425,0.390035 z m -0.37512,-0.889324 q 0.40371,-0.170284 0.56279,-0.430354 0.1674,-0.256687 0.0415,-0.555079 -0.12586,-0.298391 -0.429,-0.363499 -0.29728,-0.06758 -0.70099,0.102707 -0.4037,0.170283 -0.57449,0.435289 -0.16493,0.262538 -0.0391,0.56093 0.12586,0.298392 0.42653,0.357649 0.30898,0.06264 0.71269,-0.107643 z m -0.49795,3.574258 -0.29625,-0.898573 3.17214,-1.045838 0.29625,0.898573 z m 4.11665,-1.263628 q -0.24726,0.08152 -0.44568,-0.03359 -0.1904,-0.111067 -0.26198,-0.328172 -0.0716,-0.217105 0.0134,-0.425664 0.093,-0.204517 0.3403,-0.286036 0.24726,-0.08152 0.43766,0.02955 0.19842,0.11511 0.27,0.332215 0.0716,0.217105 -0.0215,0.421622 -0.085,0.208559 -0.33228,0.290078 z m -0.57402,1.789676 q 0.12502,0.217883 0.27081,0.574497 0.15195,0.35511 0.25124,0.762279 0.10079,0.413339 0.0559,0.711863 -0.0372,0.30319 -0.19548,0.511729 -0.15831,0.20854 -0.4132,0.342593 -0.2549,0.134054 -0.58804,0.215289 l -1.83226,0.446796 -0.22415,-0.919216 1.72121,-0.419716 q 0.44419,-0.108314 0.60068,-0.270661 0.1565,-0.162346 0.0783,-0.483146 -0.0241,-0.09871 -0.0635,-0.206745 -0.0332,-0.109542 -0.0666,-0.192902 l -2.5047,0.61077 -0.22415,-0.919215 z m -1.66375,9.830788 q 0.22254,-0.08727 0.45626,-0.194513 0.23422,-0.100912 0.46843,-0.201825 l -0.13221,-1.709394 q -0.24695,-0.0637 -0.49439,-0.133724 -0.24694,-0.0637 -0.48025,-0.115709 l -0.0793,-1.025637 q 0.72818,0.192068 1.34677,0.367136 0.6186,0.175069 1.16657,0.342861 0.54846,0.174124 1.03896,0.339993 0.49732,0.17171 0.9703,0.358041 l 0.073,0.943332 q -0.43919,0.250515 -0.90419,0.496657 -0.45867,0.245652 -0.97432,0.495711 -0.51517,0.256391 -1.09948,0.524499 -0.58432,0.268108 -1.2743,0.569865 z m 3.3019,-1.446383 q -0.0974,-0.02431 -0.26692,-0.07489 -0.16951,-0.05058 -0.39113,-0.116234 -0.22162,-0.06565 -0.48903,-0.146875 -0.26692,-0.07489 -0.55966,-0.154151 l 0.0965,1.247224 q 0.27706,-0.123333 0.52929,-0.238376 0.25223,-0.115043 0.46063,-0.220328 0.2089,-0.09895 0.36861,-0.174996 0.15971,-0.07604 0.25174,-0.121374 z m -2.60056,4.519717 q -0.007,0.260246 0.0404,0.369589 0.0477,0.109343 0.19372,0.113471 0.11425,0.0032 0.20072,-0.134079 0.0928,-0.137131 0.2088,-0.419716 0.0888,-0.219827 0.18287,-0.401391 0.0939,-0.175216 0.21808,-0.298754 0.13054,-0.12336 0.30389,-0.188335 0.17336,-0.06498 0.41456,-0.05815 0.46972,0.01328 0.73278,0.370112 0.26307,0.356829 0.24584,0.966186 -0.009,0.304678 -0.0736,0.582351 -0.0587,0.277852 -0.12682,0.441091 l -0.73164,-0.185856 q 0.0618,-0.163419 0.11179,-0.358933 0.0498,-0.189168 0.0566,-0.430371 0.0126,-0.444323 -0.23498,-0.451323 -0.0571,-0.0016 -0.1021,0.01617 -0.045,0.01779 -0.091,0.07366 -0.0397,0.05605 -0.0932,0.149826 -0.0473,0.100303 -0.10874,0.251026 -0.12305,0.307795 -0.24305,0.507683 -0.11365,0.200067 -0.25018,0.310552 -0.13036,0.117011 -0.2903,0.156956 -0.16013,0.04629 -0.36959,0.04037 -0.4951,-0.014 -0.73841,-0.395682 -0.24349,-0.375332 -0.22428,-1.054511 0.0126,-0.444322 0.0972,-0.740499 0.0844,-0.289829 0.13844,-0.402647 l 0.76355,0.180406 q -0.10203,0.238511 -0.16634,0.490794 -0.058,0.252462 -0.065,0.500013 z m -0.24536,3.592057 q -0.0298,0.25864 0.008,0.371694 0.0381,0.113054 0.1832,0.129767 0.11355,0.01308 0.21155,-0.116257 0.1043,-0.128609 0.24424,-0.40013 0.10744,-0.211343 0.21683,-0.384111 0.10866,-0.166459 0.24305,-0.278819 0.1407,-0.111633 0.31901,-0.161405 0.17832,-0.04977 0.41804,-0.02216 0.46681,0.05377 0.6981,0.431972 0.23129,0.378201 0.16154,0.983797 -0.0349,0.302798 -0.12363,0.573823 -0.0824,0.271751 -0.16441,0.428501 l -0.71287,-0.248305 q 0.0757,-0.157476 0.14235,-0.347947 0.066,-0.184162 0.0936,-0.423877 0.0509,-0.44158 -0.19516,-0.469919 -0.0568,-0.0065 -0.10311,0.0073 -0.0463,0.01384 -0.097,0.06553 -0.0444,0.05241 -0.10575,0.141227 -0.0558,0.09585 -0.13,0.240705 -0.14916,0.296027 -0.28596,0.484812 -0.13049,0.189513 -0.27605,0.287803 -0.13997,0.105325 -0.30276,0.131317 -0.16352,0.0323 -0.37169,0.0083 -0.49205,-0.05668 -0.70151,-0.457932 -0.21019,-0.394946 -0.13244,-1.069933 0.0509,-0.44158 0.16072,-0.72935 0.10912,-0.281461 0.17267,-0.389197 l 0.74514,0.24563 q -0.12224,0.228815 -0.20808,0.474607 -0.0795,0.246518 -0.10787,0.492541 z m -0.0303,5.890274 q -0.38501,-0.08228 -0.68403,-0.263062 -0.29281,-0.179457 -0.47745,-0.439691 -0.17844,-0.258907 -0.23893,-0.583518 -0.0618,-0.318401 0.0165,-0.684778 0.077,-0.360167 0.26487,-0.631695 0.18656,-0.265319 0.45524,-0.428677 0.27488,-0.162031 0.61679,-0.212336 0.34813,-0.04898 0.73313,0.0333 0.38501,0.08228 0.67649,0.267944 0.29016,0.191877 0.46859,0.450784 0.17711,0.265116 0.23893,0.583518 0.0605,0.32461 -0.0138,0.672358 -0.0756,0.353958 -0.26221,0.619276 -0.18789,0.271528 -0.45657,0.434886 -0.26867,0.163358 -0.61058,0.213664 -0.34192,0.0503 -0.72692,-0.03197 z m 0.20171,-0.943887 q 0.42848,0.09157 0.70782,-0.03055 0.28422,-0.114582 0.3519,-0.431281 0.0677,-0.316698 -0.14355,-0.543655 -0.20503,-0.22563 -0.6335,-0.317197 -0.42848,-0.09157 -0.72024,0.0279 -0.28555,0.120791 -0.35323,0.43749 -0.0677,0.316699 0.14488,0.537446 0.21745,0.228283 0.64592,0.319851 z m -0.53084,2.096781 q 0.34497,0.109574 0.61297,0.314628 0.27213,0.213028 0.42877,0.495976 0.16269,0.28487 0.19972,0.629764 0.037,0.344893 -0.086,0.732223 -0.0807,0.254185 -0.19644,0.450627 -0.10965,0.198365 -0.25781,0.371169 l -0.6606,-0.416373 q 0.0888,-0.111713 0.17315,-0.25148 0.0844,-0.139767 0.14397,-0.32738 0.12687,-0.399434 -0.0578,-0.677967 -0.18662,-0.272481 -0.59211,-0.401279 -0.42969,-0.136487 -0.72339,-0.0299 -0.29562,0.112641 -0.44172,0.572595 -0.0519,0.163405 -0.0812,0.36063 -0.0293,0.197224 -0.0127,0.375723 l -0.77872,-0.107434 q -0.0166,-0.178499 0.01,-0.429907 0.0266,-0.251408 0.1169,-0.535853 0.13841,-0.435746 0.36547,-0.710083 0.23311,-0.272413 0.52239,-0.407055 0.28736,-0.12859 0.62072,-0.129305 0.33749,0.0073 0.69456,0.120678 z m -3.16133,3.968287 0.3509,-0.878673 3.1019,1.238761 -0.35091,0.878673 z m 3.96529,1.67929 q -0.24179,-0.09656 -0.31973,-0.312302 -0.0744,-0.207491 0.0104,-0.419788 0.0848,-0.212297 0.284,-0.317353 0.20276,-0.0968 0.44455,-2.47e-4 0.24178,0.09656 0.31618,0.304049 0.078,0.215744 -0.007,0.428041 -0.0848,0.212297 -0.28754,0.309101 -0.19922,0.105056 -0.441,0.0085 z m -4.455089,1.006511 q -0.06157,0.125398 -0.111852,0.242195 -0.05028,0.116797 -0.07246,0.190793 l 0.644091,0.31627 q 0.0366,-0.0457 0.0984,-0.142702 0.0618,-0.097 0.10377,-0.182499 0.0588,-0.119698 0.0948,-0.236393 0.039,-0.108196 0.0383,-0.207587 -7.1e-4,-0.09939 -0.0467,-0.178576 -0.046,-0.07918 -0.14861,-0.129565 -0.19949,-0.09796 -0.34367,-0.006 -0.14127,0.100413 -0.256016,0.334109 z m 2.518749,1.151898 q -0.18473,0.376194 -0.39338,0.585008 -0.20864,0.208813 -0.44101,0.278643 -0.23517,0.07553 -0.49395,0.02627 -0.25878,-0.04926 -0.53808,-0.186399 L 98.779969,81.83563 q 0.04966,-0.201989 0.157899,-0.552073 0.102535,-0.352883 0.329242,-0.814576 0.142741,-0.290695 0.311592,-0.504902 0.166052,-0.208506 0.364015,-0.323526 0.203663,-0.112222 0.436543,-0.111058 0.23288,0.0012 0.50647,0.135508 0.2622,0.128747 0.39422,0.320908 0.12922,0.197861 0.15075,0.427737 0.0215,0.229875 -0.0448,0.480262 -0.0607,0.253186 -0.18101,0.498282 -0.0812,0.165297 -0.15984,0.282299 -0.0758,0.1255 -0.13775,0.194103 l 0.0798,0.03918 q 0.21659,0.106356 0.41206,0.03963 0.19547,-0.06672 0.35501,-0.391619 0.10635,-0.216597 0.17571,-0.444286 0.0751,-0.224891 0.0936,-0.406777 l 0.73717,0.227563 q -0.0136,0.08529 -0.044,0.204788 -0.0275,0.127993 -0.0747,0.267487 -0.0416,0.142293 -0.10014,0.290389 -0.0557,0.156594 -0.12844,0.304791 z m -0.78375,3.080535 -0.36013,0.888103 -0.84169,-0.51021 -0.589208,0.97201 -0.673347,-0.408168 0.58921,-0.97201 -1.004591,-0.608961 q -0.255221,-0.154709 -0.459934,-0.159993 -0.208005,1.47e-4 -0.372589,0.271658 -0.079,0.130326 -0.139571,0.279248 -0.05843,0.157644 -0.08412,0.298012 l -0.699032,-0.2678 q 0.02914,-0.182824 0.09433,-0.388355 0.06518,-0.205531 0.223184,-0.466182 0.200793,-0.331244 0.419344,-0.495786 0.223981,-0.16125 0.460457,-0.196117 0.241907,-0.03158 0.502894,0.05237 0.257694,0.08938 0.534636,0.257254 z m -5.883101,1.41196 0.544348,-0.773877 2.731942,1.921655 -0.544348,0.773878 z m 3.470254,2.549676 q -0.212946,-0.149787 -0.238957,-0.3777 -0.02447,-0.219065 0.107049,-0.406042 0.131521,-0.186977 0.349618,-0.243183 0.219638,-0.04736 0.432584,0.102428 0.212943,0.149786 0.237413,0.368852 0.026,0.227913 -0.105505,0.41489 -0.13152,0.186977 -0.351158,0.234336 -0.218098,0.05621 -0.431044,-0.09358 z m -4.968752,2.023261 q -0.302714,-0.251722 -0.483523,-0.550728 -0.175926,-0.294947 -0.218537,-0.611172 -0.03773,-0.312166 0.0595,-0.627726 0.09317,-0.310677 0.332714,-0.598743 0.235482,-0.283184 0.528013,-0.436343 0.288471,-0.148276 0.602282,-0.168119 0.318693,-0.01578 0.64484,0.09851 0.33103,0.118355 0.633743,0.370077 0.302714,0.251722 0.47458,0.551551 0.167806,0.304711 0.205535,0.616876 0.03367,0.317049 -0.0595,0.627726 -0.09723,0.31556 -0.324594,0.588979 -0.231422,0.278301 -0.519893,0.426577 -0.292531,0.153159 -0.606342,0.173002 -0.31381,0.01984 -0.639957,-0.09445 -0.326148,-0.114295 -0.628861,-0.366017 z m 0.617125,-0.742137 q 0.336891,0.280142 0.640989,0.301774 0.30492,0.03057 0.511981,-0.218433 0.207062,-0.249006 0.125444,-0.548117 -0.07674,-0.295051 -0.413627,-0.575193 -0.336892,-0.280142 -0.650754,-0.309894 -0.308981,-0.02569 -0.516042,0.223315 -0.207062,0.249006 -0.121384,0.543235 0.0865,0.30317 0.423393,0.583313 z m -0.472435,2.849624 q -0.123908,0.218521 -0.356667,0.525523 -0.228324,0.311547 -0.528265,0.604259 -0.304486,0.297146 -0.584277,0.410485 -0.279901,0.122318 -0.53998,0.0922 -0.26008,-0.03012 -0.505211,-0.181292 -0.245131,-0.151175 -0.484622,-0.396582 l -1.317202,-1.349736 0.677141,-0.660818 1.237371,1.267934 q 0.319321,0.327208 0.538719,0.37928 0.219397,0.05207 0.455714,-0.17855 0.07271,-0.07096 0.145646,-0.159879 0.07737,-0.08437 0.132121,-0.155555 L 91.46257,91.52484 92.13971,90.864022 Z"
         id="text4"
         style="font-weight:bold;font-size:6.35px;font-family:Ubuntu;-inkscape-font-specification:'Ubuntu, Bold';text-align:center;letter-spacing:0.463021px;word-spacing:0px;text-anchor:middle;fill:#fafafa;stroke-width:0.264583"
         transform="rotate(-27.709532,62.5,62.499995)"
         aria-label=" Suomen Bitcoin-yhdistys ry  •  Finnish Bitcoin Association" /></g><g
       id="layer4"><path
         d="m 39.877013,99.381012 q -0.09959,0.154897 -0.242292,0.259428 -0.139267,0.09919 -0.309434,0.140765 -0.166733,0.03623 -0.352157,0.0076 -0.176648,-0.03053 -0.35291,-0.143862 -0.176261,-0.113328 -0.282699,-0.264804 -0.09766,-0.153384 -0.133897,-0.320117 -0.0328,-0.172074 -3.59e-4,-0.339947 0.03588,-0.173215 0.135467,-0.328111 0.09616,-0.149555 0.238858,-0.254086 0.142701,-0.104531 0.309434,-0.140765 0.170167,-0.04158 0.346816,-0.01104 0.185423,0.02863 0.361685,0.141955 0.176261,0.113328 0.273924,0.266711 0.106437,0.151477 0.139238,0.323551 0.03623,0.166733 3.58e-4,0.339947 -0.03587,0.173214 -0.132032,0.322769 z m 3.767943,4.551358 1.697476,-4.059979 2.741802,1.146349 -0.320879,0.76747 -1.827868,-0.76423 -0.333127,0.79676 1.622819,0.6785 -0.31353,0.7499 -1.62282,-0.6785 -0.409059,0.97837 1.962615,0.82057 -0.320879,0.76747 z m 5.129651,1.23424 q 0.248079,0.079 0.366353,0.0633 0.118274,-0.0157 0.162584,-0.15482 0.03468,-0.10892 -0.07339,-0.22996 -0.106144,-0.12709 -0.345676,-0.31665 -0.18673,-0.14608 -0.335229,-0.28666 -0.142449,-0.13866 -0.22686,-0.29215 -0.08248,-0.15954 -0.09703,-0.3441 -0.01454,-0.18456 0.05867,-0.41449 0.142562,-0.44775 0.558191,-0.60198 0.415628,-0.15422 0.996496,0.0307 0.290434,0.0925 0.539327,0.23169 0.250819,0.13317 0.388872,0.24377 l -0.380793,0.65179 q -0.13998,-0.10454 -0.314066,-0.20662 -0.168036,-0.10015 -0.397963,-0.17336 -0.423549,-0.13485 -0.498683,0.10112 -0.01734,0.0545 -0.01267,0.10259 0.0047,0.0481 0.04564,0.10783 0.0429,0.0537 0.118246,0.13095 0.08333,0.0732 0.211205,0.17387 0.261807,0.20331 0.420753,0.37387 0.160872,0.16451 0.229328,0.32626 0.07643,0.15761 0.07063,0.32237 2.43e-4,0.16668 -0.06333,0.36635 -0.150268,0.47195 -0.58432,0.60032 -0.428001,0.13029 -1.075427,-0.0758 -0.423549,-0.13485 -0.684815,-0.29801 -0.255214,-0.16122 -0.348715,-0.24431 l 0.384375,-0.68397 q 0.20103,0.16397 0.425719,0.29549 0.226617,0.12546 0.462594,0.20059 z m 3.259048,-2.67272 0.955938,0.0679 -0.224959,0.9582 1.106563,0.25979 -0.179968,0.76656 -1.106563,-0.2598 -0.268499,1.14366 q -0.06821,0.29055 -0.0099,0.48686 0.06445,0.19777 0.37355,0.27034 0.148366,0.0348 0.30872,0.0464 0.167986,0.007 0.309417,-0.0122 l -0.03854,0.74758 q -0.182877,0.0288 -0.398491,0.0304 -0.215614,0.002 -0.512346,-0.0681 -0.377096,-0.0885 -0.601151,-0.2455 -0.222604,-0.16315 -0.328881,-0.37726 -0.104825,-0.22029 -0.105688,-0.49444 0.0053,-0.2727 0.07934,-0.58798 z m 3.454645,4.45831 q -0.04824,0.28165 -0.255474,0.40078 -0.199904,0.11393 -0.425223,0.0753 -0.225319,-0.0386 -0.38217,-0.21363 -0.149521,-0.18023 -0.101282,-0.46188 0.04824,-0.28165 0.248143,-0.39558 0.207235,-0.11913 0.432554,-0.0805 0.225319,0.0386 0.37484,0.21882 0.156851,0.17504 0.108612,0.45669 z m 3.696438,0.93561 q 0.06267,-0.46087 0.209809,-0.9554 0.147133,-0.49453 0.343982,-0.96734 0.20319,-0.47247 0.44139,-0.88585 0.238537,-0.41972 0.477005,-0.71862 l -1.90865,-0.10155 0.04285,-0.80531 3.0754,0.16363 -0.03644,0.68483 q -0.214721,0.21114 -0.482939,0.59113 -0.261877,0.38032 -0.510467,0.86945 -0.241911,0.48313 -0.437143,1.04505 -0.18889,0.56226 -0.257301,1.13093 z m 6.549795,-1.20386 q 0.01078,0.28555 -0.08164,0.53051 -0.08631,0.23838 -0.276315,0.42348 -0.19,0.1851 -0.484403,0.29789 -0.288297,0.10621 -0.675371,0.12082 -0.444183,0.0168 -0.746974,-0.0925 -0.296685,-0.11589 -0.487653,-0.29296 -0.184623,-0.17731 -0.268917,-0.39018 -0.08453,-0.21921 -0.09148,-0.40323 -0.0072,-0.19036 0.03758,-0.35092 0.04477,-0.16055 0.128816,-0.29082 0.0838,-0.13661 0.187604,-0.24855 0.110144,-0.11219 0.233459,-0.21217 -0.281243,-0.21178 -0.422645,-0.4225 -0.135058,-0.21095 -0.147759,-0.54726 -0.0096,-0.25382 0.08308,-0.49244 0.09901,-0.23885 0.2829,-0.41737 0.183655,-0.18486 0.446331,-0.29646 0.268781,-0.11817 0.598746,-0.13063 0.387074,-0.0146 0.664243,0.0893 0.283275,0.0973 0.467419,0.26195 0.184143,0.16462 0.268437,0.37749 0.0904,0.20628 0.09831,0.41568 0.0115,0.30459 -0.143414,0.57733 -0.148812,0.26615 -0.384188,0.42755 0.370559,0.22112 0.532675,0.47554 0.168223,0.24782 0.181164,0.59048 z m -2.194097,0.12099 q 0.0029,0.0761 0.0382,0.17013 0.04143,0.0874 0.12045,0.16067 0.07902,0.0733 0.201502,0.11948 0.122481,0.0462 0.293809,0.0397 0.329965,-0.0125 0.476265,-0.17685 0.146301,-0.16439 0.138872,-0.3611 -0.0055,-0.14595 -0.07963,-0.25753 -0.06777,-0.11182 -0.185102,-0.19 -0.117574,-0.0845 -0.278607,-0.14198 -0.154927,-0.0641 -0.334757,-0.11445 -0.172641,0.13996 -0.286495,0.32219 -0.113854,0.18223 -0.104508,0.4297 z m 1.09507,-2.132 q -0.0026,-0.0698 -0.03724,-0.14474 -0.0285,-0.0815 -0.100933,-0.1487 -0.06609,-0.0674 -0.169296,-0.10799 -0.103445,-0.0469 -0.249391,-0.0414 -0.139601,0.005 -0.239451,0.0535 -0.09985,0.0482 -0.166774,0.12703 -0.06082,0.0722 -0.08943,0.15589 -0.02861,0.0837 -0.02574,0.15983 0.0077,0.20306 0.160324,0.37522 0.159002,0.17192 0.525487,0.28517 0.198262,-0.13458 0.299904,-0.30363 0.101643,-0.16906 0.09254,-0.41019 z m 3.364127,3.09112 q -0.170034,0.022 -0.362218,0.0212 -0.19137,0.006 -0.372588,-0.009 -0.181219,-0.015 -0.331765,-0.0403 -0.150546,-0.0253 -0.237302,-0.0525 l 0.08161,-0.80451 q 0.172697,0.0481 0.435189,0.0974 0.267975,0.0422 0.645826,-0.007 0.434529,-0.0562 0.614868,-0.24602 0.18034,-0.18981 0.144494,-0.4669 -0.022,-0.17003 -0.11223,-0.27361 -0.08475,-0.11069 -0.219664,-0.16367 -0.135726,-0.0593 -0.315316,-0.0617 -0.174106,-0.009 -0.369329,0.0158 l -0.365257,0.0473 -0.09776,-0.7557 0.415636,-0.0538 q 0.138546,-0.0179 0.261237,-0.0594 0.12899,-0.0423 0.222418,-0.11201 0.09261,-0.076 0.136257,-0.1841 0.04913,-0.11521 0.02876,-0.27265 -0.01548,-0.11965 -0.07726,-0.2013 -0.06179,-0.0816 -0.150985,-0.12773 -0.0829,-0.0469 -0.193219,-0.0582 -0.104834,-0.0185 -0.211892,-0.005 -0.270793,0.035 -0.493211,0.14704 -0.21612,0.1112 -0.389567,0.25529 l -0.422568,-0.64325 q 0.09261,-0.076 0.2159,-0.16239 0.129584,-0.0872 0.285988,-0.16505 0.156403,-0.0779 0.334144,-0.13927 0.184037,-0.0622 0.391856,-0.0891 0.384149,-0.0497 0.67346,0.009 0.294794,0.0515 0.499418,0.19791 0.20381,0.14011 0.321303,0.35542 0.116679,0.209 0.150895,0.4735 0.0334,0.2582 -0.07967,0.52254 -0.113885,0.25804 -0.343195,0.41577 0.357989,0.0945 0.576462,0.34801 0.223957,0.24636 0.273652,0.63051 0.0391,0.30228 -0.02825,0.57351 -0.06817,0.26494 -0.25785,0.48156 -0.19049,0.21033 -0.510409,0.36056 -0.314437,0.14313 -0.767858,0.20178 z m 5.480644,-3.35878 q 0.24202,1.08458 -0.04322,1.75981 -0.280423,0.66765 -1.005539,0.82946 -0.725116,0.1618 -1.268969,-0.32191 -0.539039,-0.4913 -0.78106,-1.57587 -0.120319,-0.53919 -0.107619,-0.97794 0.0189,-0.44013 0.1598,-0.77085 0.140903,-0.33073 0.3928,-0.54309 0.251897,-0.21236 0.605158,-0.29119 0.725116,-0.16181 1.264155,0.32949 0.543854,0.48372 0.784492,1.56209 z m -0.942031,0.21021 q -0.07192,-0.32227 -0.160988,-0.57565 -0.09045,-0.25958 -0.201501,-0.4365 -0.111045,-0.17691 -0.25231,-0.25599 -0.141264,-0.0791 -0.314796,-0.0404 -0.173532,0.0387 -0.267775,0.17036 -0.08805,0.13025 -0.119545,0.33897 -0.0253,0.20734 0.0032,0.48075 0.0271,0.26721 0.09901,0.58949 0.07192,0.32227 0.16237,0.58185 0.09046,0.25958 0.201501,0.43649 0.117243,0.17553 0.25231,0.256 0.141265,0.0791 0.314797,0.0404 0.173532,-0.0387 0.267775,-0.17036 0.09424,-0.13164 0.119544,-0.33897 0.0253,-0.20734 -0.0032,-0.48075 -0.02848,-0.27341 -0.100394,-0.59569 z m 3.171308,-0.74234 q -0.133022,0.0427 -0.276424,0.11536 -0.143401,0.0727 -0.214473,0.14216 0.0078,0.0242 0.01723,0.0745 0.01552,0.0484 0.02716,0.0847 0.06983,0.21767 0.162143,0.40146 0.09231,0.18379 0.211421,0.30562 0.119114,0.12184 0.267201,0.16769 0.146147,0.0398 0.32754,-0.0184 0.151161,-0.0485 0.234552,-0.14194 0.0875,-0.10142 0.122971,-0.21951 0.04152,-0.12002 0.03489,-0.2446 -0.0025,-0.13257 -0.03744,-0.2414 -0.09893,-0.30837 -0.308516,-0.42119 -0.205477,-0.1208 -0.568263,-0.004 z m -0.110141,-0.73825 q 0.393019,-0.12609 0.700026,-0.10454 0.311114,0.0135 0.544656,0.13869 0.233543,0.12514 0.389741,0.34178 0.156198,0.21664 0.243491,0.48873 0.07759,0.24185 0.06837,0.5249 -0.0032,0.28111 -0.118615,0.54489 -0.109392,0.26183 -0.344851,0.48409 -0.229413,0.22031 -0.604293,0.34058 -0.755805,0.24248 -1.302072,-0.1091 -0.546268,-0.35157 -0.815907,-1.19203 -0.193986,-0.60464 -0.155915,-1.13035 0.03807,-0.52572 0.281846,-0.9507 0.247881,-0.43298 0.685267,-0.75336 0.441492,-0.32837 1.056289,-0.53228 0.07223,0.18356 0.142517,0.36108 0.06835,0.17146 0.142517,0.36107 -0.306428,0.10498 -0.56106,0.24669 -0.250524,0.13372 -0.439325,0.31434 -0.182755,0.17867 -0.289753,0.40639 -0.108938,0.22168 -0.120101,0.49868 0.113624,-0.10314 0.244932,-0.17195 0.131309,-0.0688 0.252238,-0.1076 z m 4.616652,-0.13164 q -0.07194,-0.16952 -0.202507,-0.26587 -0.133046,-0.10219 -0.357309,-0.11049 -0.224263,-0.008 -0.55976,0.0789 -0.335496,0.0872 -0.814818,0.29061 -0.166408,-0.57091 -0.363639,-1.14943 -0.197231,-0.57852 -0.38223,-1.07946 l 2.19202,-0.930264 0.31009,0.730674 -1.461347,0.62018 q 0.07761,0.21539 0.144424,0.42158 0.07017,0.19786 0.114654,0.35143 0.878234,-0.30373 1.427928,-0.13002 0.553058,0.16538 0.811053,0.7733 0.119074,0.28058 0.121412,0.56242 0.0023,0.28183 -0.121983,0.54154 -0.124322,0.2597 -0.38611,0.48807 -0.255942,0.22589 -0.659274,0.39706 -0.157825,0.067 -0.34311,0.11802 -0.176958,0.0544 -0.355513,0.0888 -0.170229,0.0378 -0.313712,0.0573 -0.143483,0.0195 -0.228512,0.0142 l -0.147303,-0.78597 q 0.173423,0.002 0.440372,-0.0351 0.264468,-0.0433 0.597655,-0.18465 0.403331,-0.17117 0.517559,-0.4059 0.111747,-0.24057 0.01996,-0.45685 z m 6.546593,-4.676149 q 0.100006,0.154629 0.136346,0.327747 0.03289,0.167785 5.52e-4,0.339947 -0.03579,0.166829 -0.138371,0.323922 -0.1007,0.148313 -0.276657,0.262112 -0.175957,0.113799 -0.357855,0.148256 -0.180015,0.02567 -0.346844,-0.01011 -0.170278,-0.04112 -0.30981,-0.139936 -0.142981,-0.104148 -0.242986,-0.258777 -0.09656,-0.149297 -0.132897,-0.322415 -0.03634,-0.173117 -5.52e-4,-0.339947 0.03234,-0.172161 0.133039,-0.320474 0.102583,-0.157093 0.27854,-0.270892 0.175957,-0.1138 0.355972,-0.139475 0.181898,-0.03446 0.352176,0.0067 0.166829,0.03579 0.30981,0.139936 0.14298,0.104148 0.239537,0.253445 z"
         id="text3"
         style="font-weight:bold;font-size:6.35px;font-family:Ubuntu;-inkscape-font-specification:'Ubuntu, Bold';text-align:center;letter-spacing:0.529167px;word-spacing:0.132292px;text-anchor:middle;fill:#fafafa;stroke-width:0.264583"
         aria-label="•  Est. 783065  •" /></g></g><g
     id="layer6"
     style="display:none"
     transform="translate(-12.499997,-12.499991)"><g
       id="layer8"
       style="display:inline"><rect
         style="clip-rule:evenodd;display:inline;fill:#ff0000;fill-opacity:0;fill-rule:evenodd;stroke:#ff0000;stroke-width:6.02388;stroke-opacity:1;image-rendering:optimizeQuality;shape-rendering:geometricPrecision;text-rendering:geometricPrecision"
         id="rect1-4"
         width="3013.4885"
         height="300.21466"
         x="538.88855"
         y="4092.5757"
         transform="matrix(0.01784288,0,0,0.01784087,26.000015,25.999982)" /></g><g
       id="layer5"
       style="clip-rule:evenodd;display:inline;fill-rule:evenodd;image-rendering:optimizeQuality;shape-rendering:geometricPrecision;text-rendering:geometricPrecision"
       transform="matrix(0.01784288,0,0,0.01784087,26.000015,25.999982)"><g
         id="layer9"
         style="display:none"
         transform="matrix(56.044765,0,0,56.051079,-1457.1647,-1457.327)" /><rect
         style="clip-rule:evenodd;display:inline;fill:#ff0000;fill-opacity:1;fill-rule:evenodd;stroke-width:2.20834;image-rendering:optimizeQuality;shape-rendering:geometricPrecision;text-rendering:geometricPrecision"
         id="rect1-6"
         width="26.062834"
         height="4665.0938"
         x="3555.3894"
         y="-283.3223"
         transform="translate(-3.3860383e-6)" /><rect
         style="clip-rule:evenodd;display:inline;fill:#ff0000;fill-opacity:1;fill-rule:evenodd;stroke-width:2.20792;image-rendering:optimizeQuality;shape-rendering:geometricPrecision;text-rendering:geometricPrecision"
         id="rect1-6-2"
         width="26.062834"
         height="4663.3286"
         x="509.81372"
         y="-267.52615" /><rect
         style="clip-rule:evenodd;display:inline;fill:#ff0000;fill-opacity:1;fill-rule:evenodd;stroke-width:1.80261;image-rendering:optimizeQuality;shape-rendering:geometricPrecision;text-rendering:geometricPrecision"
         id="rect1-9-7"
         width="4526.5205"
         height="17.897196"
         x="-212.75389"
         y="3605.9785" /><rect
         style="clip-rule:evenodd;display:inline;fill:#ff0000;fill-opacity:1;fill-rule:evenodd;stroke-width:1.78919;image-rendering:optimizeQuality;shape-rendering:geometricPrecision;text-rendering:geometricPrecision"
         id="rect1-9-7-1"
         width="3353.0491"
         height="23.802156"
         x="346.65002"
         y="3927.7739" /><rect
         style="clip-rule:evenodd;display:inline;fill:#ff0000;fill-opacity:1;fill-rule:evenodd;stroke-width:0.0357622;image-rendering:optimizeQuality;shape-rendering:geometricPrecision;text-rendering:geometricPrecision"
         id="rect1-9"
         width="99.860786"
         height="0.31930155"
         x="12.623635"
         y="62.310997"
         transform="matrix(56.044765,0,0,56.051079,-1457.1647,-1457.327)" /><rect
         style="clip-rule:evenodd;display:inline;fill:#ff0000;fill-opacity:1;fill-rule:evenodd;stroke-width:1.53852;image-rendering:optimizeQuality;shape-rendering:geometricPrecision;text-rendering:geometricPrecision"
         id="rect1-9-7-2"
         width="4397.9048"
         height="13.418591"
         x="-150.81184"
         y="-391.93872"
         transform="scale(1,-1)" /><rect
         style="clip-rule:evenodd;display:inline;fill:#ff0000;fill-opacity:1;fill-rule:evenodd;stroke-width:2.61727;image-rendering:optimizeQuality;shape-rendering:geometricPrecision;text-rendering:geometricPrecision"
         id="rect1"
         width="30.595966"
         height="5581.9248"
         x="2028.3218"
         y="-750.94604"
         transform="translate(-3.3860383e-6)" /></g></g></svg>
