<?xml version="1.0" encoding="UTF-8"?>
<!DOCTYPE svg PUBLIC "-//W3C//DTD SVG 1.1//EN" "http://www.w3.org/Graphics/SVG/1.1/DTD/svg11.dtd">
<svg version="1.2" width="200mm" height="200mm" viewBox="0 0 20000 20000" preserveAspectRatio="xMidYMid" fill-rule="evenodd" stroke-width="28.222" stroke-linejoin="round" xmlns="http://www.w3.org/2000/svg" xmlns:ooo="http://xml.openoffice.org/svg/export" xmlns:xlink="http://www.w3.org/1999/xlink" xmlns:presentation="http://sun.com/xmlns/staroffice/presentation" xmlns:smil="http://www.w3.org/2001/SMIL20/" xmlns:anim="urn:oasis:names:tc:opendocument:xmlns:animation:1.0" xml:space="preserve">
 <defs class="ClipPathGroup">
  <clipPath id="presentation_clip_path" clipPathUnits="userSpaceOnUse">
   <rect x="0" y="0" width="20000" height="20000"/>
  </clipPath>
  <clipPath id="presentation_clip_path_shrink" clipPathUnits="userSpaceOnUse">
   <rect x="20" y="20" width="19960" height="19960"/>
  </clipPath>
 </defs>
 <defs class="TextShapeIndex">
  <g ooo:slide="id1" ooo:id-list="id3 id4 id5 id6"/>
 </defs>
 <defs class="EmbeddedBulletChars">
  <g id="bullet-char-template-57356" transform="scale(0.00048828125,-0.00048828125)">
   <path d="M 580,1141 L 1163,571 580,0 -4,571 580,1141 Z"/>
  </g>
  <g id="bullet-char-template-57354" transform="scale(0.00048828125,-0.00048828125)">
   <path d="M 8,1128 L 1137,1128 1137,0 8,0 8,1128 Z"/>
  </g>
  <g id="bullet-char-template-10146" transform="scale(0.00048828125,-0.00048828125)">
   <path d="M 174,0 L 602,739 174,1481 1456,739 174,0 Z M 1358,739 L 309,1346 659,739 1358,739 Z"/>
  </g>
  <g id="bullet-char-template-10132" transform="scale(0.00048828125,-0.00048828125)">
   <path d="M 2015,739 L 1276,0 717,0 1260,543 174,543 174,936 1260,936 717,1481 1274,1481 2015,739 Z"/>
  </g>
  <g id="bullet-char-template-10007" transform="scale(0.00048828125,-0.00048828125)">
   <path d="M 0,-2 C -7,14 -16,27 -25,37 L 356,567 C 262,823 215,952 215,954 215,979 228,992 255,992 264,992 276,990 289,987 310,991 331,999 354,1012 L 381,999 492,748 772,1049 836,1024 860,1049 C 881,1039 901,1025 922,1006 886,937 835,863 770,784 769,783 710,716 594,584 L 774,223 C 774,196 753,168 711,139 L 727,119 C 717,90 699,76 672,76 641,76 570,178 457,381 L 164,-76 C 142,-110 111,-127 72,-127 30,-127 9,-110 8,-76 1,-67 -2,-52 -2,-32 -2,-23 -1,-13 0,-2 Z"/>
  </g>
  <g id="bullet-char-template-10004" transform="scale(0.00048828125,-0.00048828125)">
   <path d="M 285,-33 C 182,-33 111,30 74,156 52,228 41,333 41,471 41,549 55,616 82,672 116,743 169,778 240,778 293,778 328,747 346,684 L 369,508 C 377,444 397,411 428,410 L 1163,1116 C 1174,1127 1196,1133 1229,1133 1271,1133 1292,1118 1292,1087 L 1292,965 C 1292,929 1282,901 1262,881 L 442,47 C 390,-6 338,-33 285,-33 Z"/>
  </g>
  <g id="bullet-char-template-9679" transform="scale(0.00048828125,-0.00048828125)">
   <path d="M 813,0 C 632,0 489,54 383,161 276,268 223,411 223,592 223,773 276,916 383,1023 489,1130 632,1184 813,1184 992,1184 1136,1130 1245,1023 1353,916 1407,772 1407,592 1407,412 1353,268 1245,161 1136,54 992,0 813,0 Z"/>
  </g>
  <g id="bullet-char-template-8226" transform="scale(0.00048828125,-0.00048828125)">
   <path d="M 346,457 C 273,457 209,483 155,535 101,586 74,649 74,723 74,796 101,859 155,911 209,963 273,989 346,989 419,989 480,963 531,910 582,859 608,796 608,723 608,648 583,586 532,535 482,483 420,457 346,457 Z"/>
  </g>
  <g id="bullet-char-template-8211" transform="scale(0.00048828125,-0.00048828125)">
   <path d="M -4,459 L 1135,459 1135,606 -4,606 -4,459 Z"/>
  </g>
  <g id="bullet-char-template-61548" transform="scale(0.00048828125,-0.00048828125)">
   <path d="M 173,740 C 173,903 231,1043 346,1159 462,1274 601,1332 765,1332 928,1332 1067,1274 1183,1159 1299,1043 1357,903 1357,740 1357,577 1299,437 1183,322 1067,206 928,148 765,148 601,148 462,206 346,322 231,437 173,577 173,740 Z"/>
  </g>
 </defs>
 <g>
  <g id="id2" class="Master_Slide">
   <g id="bg-id2" class="Background"/>
   <g id="bo-id2" class="BackgroundObjects"/>
  </g>
 </g>
 <g class="SlideGroup">
  <g>
   <g id="container-id1">
    <g id="id1" class="Slide" clip-path="url(#presentation_clip_path)">
     <g class="Page">
      <g class="com.sun.star.drawing.CustomShape">
       <g id="id3">
        <rect class="BoundingBox" stroke="none" fill="none" x="-1" y="-1" width="20004" height="20004"/>
        <path fill="rgb(0,47,108)" stroke="none" d="M 20001,10001 C 20001,11756 19539,13480 18661,15001 17783,16521 16521,17783 15001,18661 13480,19539 11756,20001 10001,20001 8245,20001 6521,19539 5000,18661 3480,17783 2218,16521 1340,15001 462,13480 0,11756 0,10001 0,8245 462,6521 1340,5000 2218,3480 3480,2218 5000,1340 6521,462 8245,0 10000,0 11756,0 13480,462 15001,1340 16521,2218 17783,3480 18661,5000 19539,6521 20001,8245 20001,10000 L 20001,10001 Z"/>
        <path fill="none" stroke="rgb(0,47,108)" d="M 20001,10001 C 20001,11756 19539,13480 18661,15001 17783,16521 16521,17783 15001,18661 13480,19539 11756,20001 10001,20001 8245,20001 6521,19539 5000,18661 3480,17783 2218,16521 1340,15001 462,13480 0,11756 0,10001 0,8245 462,6521 1340,5000 2218,3480 3480,2218 5000,1340 6521,462 8245,0 10000,0 11756,0 13480,462 15001,1340 16521,2218 17783,3480 18661,5000 19539,6521 20001,8245 20001,10000 L 20001,10001 Z"/>
       </g>
      </g>
      <g class="com.sun.star.drawing.CustomShape">
       <g id="id4">
        <rect class="BoundingBox" stroke="none" fill="none" x="2699" y="2699" width="14603" height="14603"/>
        <path fill="rgb(250,250,250)" stroke="none" d="M 17301,10001 C 17301,11282 16964,12541 16323,13651 15682,14761 14761,15682 13651,16323 12541,16964 11282,17301 10001,17301 8719,17301 7460,16964 6350,16323 5240,15682 4319,14761 3678,13651 3037,12541 2700,11282 2700,10001 2700,8719 3037,7460 3678,6350 4319,5240 5240,4319 6350,3678 7460,3037 8719,2700 10000,2700 11282,2700 12541,3037 13651,3678 14761,4319 15682,5240 16323,6350 16964,7460 17301,8719 17301,10000 L 17301,10001 Z"/>
       </g>
      </g>
      <g class="com.sun.star.drawing.CustomShape">
       <g id="id5">
        <rect class="BoundingBox" stroke="none" fill="none" x="2292" y="886" width="15180" height="4805"/>
        <path fill="rgb(250,250,250)" stroke="none" d="M 2958,5653 L 2329,5268 2450,5078 2450,5078 2576,4890 2576,4889 2639,4801 2753,4881 2692,4967 2691,4968 2567,5153 2567,5153 2547,5185 2677,5268 2696,5237 2696,5237 2856,5002 2971,5081 2794,5343 3050,5507 2958,5653 Z M 3487,4896 L 3430,4968 3430,4969 3386,5027 2938,4693 2984,4631 2985,4630 3045,4552 3487,4896 Z M 2929,4440 L 2937,4447 2944,4455 2950,4462 2954,4470 2958,4479 2960,4483 2961,4488 2962,4493 2962,4497 2963,4502 2963,4507 2962,4517 2962,4527 2959,4537 2958,4541 2957,4546 2955,4551 2953,4554 2951,4559 2948,4564 2946,4569 2942,4573 2940,4577 2936,4581 2933,4585 2930,4588 2929,4589 2929,4589 2926,4593 2923,4597 2919,4600 2915,4603 2911,4607 2908,4609 2899,4614 2890,4620 2881,4623 2872,4627 2867,4628 2862,4628 2857,4629 2852,4629 2847,4629 2843,4629 2834,4627 2824,4625 2816,4622 2806,4617 2798,4611 2789,4604 2782,4597 2776,4590 2771,4581 2768,4573 2765,4568 2764,4563 2763,4559 2762,4554 2762,4550 2762,4544 2762,4534 2763,4524 2765,4514 2766,4509 2768,4504 2769,4500 2772,4495 2774,4490 2776,4486 2778,4481 2782,4477 2781,4476 2782,4475 2784,4472 2787,4468 2791,4464 2795,4460 2798,4456 2802,4452 2806,4448 2810,4445 2813,4442 2818,4439 2822,4437 2826,4435 2836,4430 2845,4426 2855,4423 2860,4422 2864,4421 2869,4421 2874,4420 2879,4420 2884,4421 2893,4422 2902,4425 2911,4429 2920,4434 2929,4440 Z M 3207,4382 L 3218,4361 3232,4336 3248,4308 3261,4285 3262,4282 3265,4279 3285,4249 3307,4219 3331,4189 3356,4159 3369,4144 3382,4131 3394,4119 3401,4111 3401,4111 3407,4108 3420,4097 3433,4088 3445,4079 3458,4073 3470,4067 3482,4061 3494,4057 3506,4053 3519,4050 3530,4047 3541,4047 3553,4046 3564,4047 3575,4048 3587,4050 3598,4053 3609,4056 3620,4059 3631,4064 3642,4069 3663,4082 3685,4096 3706,4112 3727,4131 3958,4346 3846,4468 3625,4270 3611,4258 3598,4247 3585,4239 3572,4231 3560,4225 3549,4219 3538,4216 3534,4215 3529,4214 3524,4214 3519,4214 3517,4214 3517,4214 3514,4215 3509,4215 3504,4216 3499,4218 3495,4220 3490,4222 3485,4226 3480,4229 3475,4232 3470,4236 3465,4240 3461,4245 3451,4256 3444,4263 3438,4271 3426,4287 3419,4295 3413,4303 3404,4318 3732,4599 3625,4725 3207,4382 Z M 3778,3756 L 3791,3735 3807,3712 3825,3686 3846,3659 3865,3633 3866,3632 3868,3631 3893,3603 3920,3575 3947,3549 3961,3535 3976,3523 3989,3512 4003,3502 4017,3493 4031,3485 4031,3484 4031,3484 4044,3477 4057,3472 4069,3467 4082,3463 4095,3460 4107,3457 4120,3455 4131,3454 4143,3454 4154,3455 4166,3457 4176,3459 4188,3462 4199,3466 4209,3470 4220,3475 4231,3480 4241,3487 4261,3502 4281,3517 4300,3536 4319,3556 4529,3792 4412,3897 4412,3897 4405,3903 4204,3685 4191,3671 4179,3659 4167,3649 4155,3641 4144,3633 4134,3627 4123,3623 4119,3621 4114,3620 4109,3619 4104,3619 4099,3619 4095,3619 4090,3620 4085,3621 4080,3622 4075,3624 4069,3627 4064,3630 4059,3633 4054,3636 4048,3639 4043,3644 4032,3654 4025,3661 4019,3667 4004,3682 3997,3690 3990,3697 3979,3711 4279,4022 4160,4138 3778,3756 Z M 4879,3500 L 4750,3604 4394,3173 4532,3062 4879,3500 Z M 4445,2925 L 4451,2933 4456,2942 4460,2951 4460,2952 4461,2953 4463,2959 4464,2969 4465,2974 4465,2979 4465,2984 4464,2988 4464,2993 4463,2998 4459,3008 4456,3017 4451,3026 4450,3031 4447,3034 4444,3039 4441,3042 4438,3047 4435,3050 4431,3054 4427,3058 4424,3061 4420,3065 4415,3068 4411,3071 4407,3074 4402,3077 4399,3079 4394,3081 4389,3083 4385,3085 4375,3088 4365,3091 4355,3092 4345,3093 4340,3093 4335,3092 4331,3092 4326,3091 4321,3090 4317,3088 4308,3084 4300,3080 4292,3075 4284,3068 4277,3060 4270,3052 4266,3042 4261,3034 4259,3024 4257,3016 4256,3011 4256,3006 4256,3001 4256,2996 4257,2992 4258,2987 4261,2977 4265,2968 4269,2958 4271,2954 4274,2949 4276,2945 4280,2942 4283,2937 4286,2934 4290,2930 4294,2926 4298,2922 4302,2919 4306,2916 4310,2913 4315,2910 4319,2907 4324,2904 4329,2902 4333,2900 4338,2898 4342,2896 4347,2895 4357,2893 4367,2891 4377,2891 4382,2890 4387,2891 4392,2892 4396,2892 4401,2893 4405,2896 4414,2898 4420,2902 4420,2902 4423,2904 4430,2910 4438,2916 4445,2925 Z M 5122,3175 L 5131,3168 5139,3161 5146,3155 5153,3149 5153,3149 5153,3149 5159,3144 5164,3139 5167,3134 5169,3132 5171,3130 5172,3128 5173,3125 5174,3123 5174,3121 5175,3119 5175,3116 5175,3114 5175,3112 5174,3109 5174,3107 5173,3105 5173,3102 5170,3097 5167,3092 5166,3090 5164,3088 5162,3087 5160,3086 5159,3084 5157,3083 5154,3082 5152,3081 5149,3080 5146,3080 5143,3079 5141,3079 5138,3078 5135,3079 5127,3079 5119,3080 5111,3081 5105,3081 5105,3081 5102,3083 5092,3085 5071,3090 5046,3097 5026,3103 5007,3108 4989,3113 4970,3116 4961,3118 4954,3119 4945,3121 4936,3121 4928,3122 4920,3121 4913,3121 4905,3120 4897,3120 4889,3118 4882,3116 4875,3114 4867,3112 4860,3109 4859,3109 4859,3109 4852,3106 4846,3102 4839,3098 4833,3093 4826,3089 4820,3083 4813,3076 4807,3069 4795,3054 4784,3038 4776,3022 4769,3006 4767,2997 4765,2988 4764,2983 4763,2982 4764,2980 4764,2971 4764,2962 4764,2953 4766,2944 4767,2935 4769,2927 4772,2917 4776,2908 4779,2898 4784,2889 4789,2880 4795,2871 4801,2862 4807,2852 4814,2843 4830,2826 4848,2808 4868,2791 4887,2776 4887,2776 4890,2774 4913,2759 4937,2744 4961,2731 4972,2725 4985,2720 5008,2709 5030,2701 5048,2694 5057,2691 5064,2689 5109,2808 5094,2813 5078,2818 5062,2825 5045,2832 5037,2836 5028,2840 5020,2844 5011,2849 5001,2853 4992,2860 4974,2871 4961,2880 4961,2880 4959,2883 4952,2888 4946,2894 4941,2899 4937,2905 4933,2910 4931,2916 4928,2921 4926,2926 4926,2930 4925,2935 4926,2940 4927,2944 4929,2948 4932,2953 4933,2955 4935,2957 4936,2958 4938,2959 4939,2961 4941,2962 4943,2963 4945,2964 4947,2965 4949,2966 4951,2967 4953,2967 4956,2967 4959,2967 4962,2968 4965,2968 4968,2968 4972,2968 4978,2967 4996,2963 5006,2961 5017,2958 5017,2958 5017,2958 5044,2951 5072,2943 5098,2938 5121,2933 5143,2929 5153,2928 5162,2927 5172,2926 5181,2927 5189,2926 5198,2927 5206,2928 5213,2930 5220,2931 5228,2934 5235,2935 5242,2938 5248,2941 5253,2945 5259,2948 5265,2953 5270,2957 5276,2962 5281,2968 5287,2973 5296,2985 5301,2992 5302,2993 5307,2999 5310,3006 5312,3008 5317,3016 5325,3034 5328,3043 5330,3051 5332,3060 5334,3069 5335,3078 5335,3086 5334,3095 5333,3104 5332,3113 5330,3122 5327,3131 5323,3140 5319,3149 5314,3158 5310,3167 5304,3176 5292,3193 5276,3210 5259,3228 5240,3245 5228,3254 5228,3255 5219,3262 5196,3280 5166,3301 5151,3310 5137,3319 5122,3327 5109,3333 5097,3340 5084,3345 5061,3354 5047,3360 5047,3360 5041,3362 5026,3368 5019,3370 5014,3371 4958,3252 4980,3245 5002,3237 5024,3229 5045,3219 5065,3209 5085,3199 5094,3193 5104,3187 5113,3181 5122,3175 Z M 5581,3003 L 5153,2329 5294,2210 5433,2440 5436,2436 5439,2432 5447,2425 5451,2421 5451,2420 5456,2417 5467,2408 5477,2399 5489,2392 5500,2383 5511,2377 5527,2367 5543,2360 5559,2352 5574,2346 5588,2340 5603,2336 5617,2331 5630,2329 5643,2327 5653,2326 5653,2326 5655,2326 5668,2326 5681,2326 5693,2327 5704,2329 5715,2332 5726,2336 5736,2340 5747,2344 5757,2350 5767,2356 5776,2362 5785,2370 5794,2377 5802,2386 5819,2405 5835,2425 5850,2447 5864,2471 6017,2748 5922,2799 5922,2799 5872,2829 5723,2572 5705,2542 5695,2529 5686,2518 5677,2508 5668,2500 5659,2493 5655,2490 5651,2488 5646,2487 5641,2485 5637,2484 5632,2483 5627,2482 5622,2482 5617,2483 5611,2484 5606,2485 5601,2486 5595,2488 5589,2490 5583,2492 5578,2495 5565,2502 5560,2505 5555,2507 5546,2514 5537,2520 5529,2527 5521,2533 5520,2534 5519,2534 5514,2540 5501,2553 5722,2916 5581,3003 Z M 6800,2380 L 6772,2392 6742,2404 6683,2425 6668,2430 6668,2430 6652,2436 6622,2446 6589,2455 6557,2463 6259,1814 6284,1798 6310,1781 6339,1764 6367,1749 6367,1749 6369,1748 6399,1733 6429,1719 6457,1705 6484,1694 6521,1679 6556,1665 6574,1659 6574,1659 6591,1655 6625,1646 6641,1643 6657,1640 6673,1638 6688,1636 6702,1635 6717,1635 6730,1635 6744,1636 6758,1638 6771,1640 6783,1643 6795,1647 6806,1651 6815,1655 6816,1656 6818,1656 6828,1662 6838,1668 6847,1676 6856,1685 6865,1693 6872,1703 6880,1714 6886,1725 6893,1738 6898,1751 6902,1761 6905,1772 6906,1782 6907,1792 6908,1803 6907,1813 6906,1823 6904,1833 6901,1843 6897,1853 6894,1858 6893,1860 6893,1863 6888,1874 6882,1884 6875,1894 6868,1905 6860,1915 6879,1914 6898,1915 6915,1917 6915,1917 6916,1917 6932,1920 6946,1925 6960,1931 6966,1934 6972,1938 6978,1941 6983,1945 6993,1954 7003,1963 7012,1973 7020,1983 7028,1994 7034,2007 7041,2019 7046,2032 7055,2058 7059,2085 7061,2098 7061,2110 7061,2123 7060,2135 7058,2147 7055,2159 7052,2171 7047,2182 7042,2193 7036,2205 7030,2213 7029,2215 7030,2215 7022,2226 7014,2237 7006,2248 6996,2258 6985,2269 6975,2279 6963,2288 6936,2308 6907,2326 6875,2344 6839,2362 6800,2380 Z M 6588,2110 L 6664,2285 6673,2282 6683,2279 6703,2272 6714,2268 6725,2263 6750,2253 6767,2245 6784,2237 6798,2229 6807,2223 6807,2223 6813,2220 6826,2212 6838,2204 6849,2194 6859,2185 6864,2180 6868,2175 6872,2170 6875,2165 6877,2160 6879,2155 6881,2149 6882,2144 6883,2138 6883,2132 6883,2126 6882,2120 6881,2114 6880,2107 6875,2094 6870,2083 6864,2073 6861,2068 6857,2065 6853,2061 6850,2057 6845,2054 6841,2051 6837,2049 6832,2047 6827,2045 6822,2043 6816,2042 6810,2041 6805,2041 6798,2040 6785,2041 6771,2042 6757,2045 6741,2049 6735,2050 6735,2050 6726,2053 6710,2059 6692,2066 6588,2110 Z M 6538,1994 L 6620,1960 6638,1952 6655,1943 6670,1935 6685,1927 6684,1926 6684,1925 6697,1919 6707,1911 6716,1904 6720,1900 6724,1895 6727,1892 6729,1887 6732,1883 6735,1879 6736,1875 6738,1870 6739,1866 6740,1862 6740,1857 6741,1852 6740,1848 6740,1843 6737,1833 6735,1823 6730,1814 6725,1805 6721,1801 6719,1798 6715,1794 6712,1792 6707,1789 6703,1787 6699,1785 6695,1783 6691,1782 6686,1780 6680,1780 6675,1779 6670,1779 6664,1780 6653,1780 6640,1782 6627,1784 6626,1784 6626,1784 6613,1788 6598,1793 6581,1799 6565,1806 6518,1826 6505,1831 6494,1837 6484,1842 6474,1847 6538,1994 Z M 7544,2098 L 7442,2130 7442,2130 7386,2149 7209,1618 7269,1598 7269,1598 7378,1564 7544,2098 Z M 7346,1406 L 7349,1416 7350,1426 7351,1436 7350,1445 7348,1454 7347,1459 7345,1463 7343,1468 7341,1472 7339,1476 7336,1481 7330,1488 7323,1496 7316,1502 7312,1506 7309,1508 7304,1511 7300,1513 7296,1516 7291,1519 7286,1521 7281,1523 7277,1525 7272,1526 7267,1528 7261,1529 7257,1530 7251,1531 7247,1532 7247,1532 7247,1532 7242,1532 7236,1533 7232,1533 7222,1532 7212,1531 7202,1529 7193,1526 7188,1525 7183,1522 7179,1520 7175,1518 7171,1515 7168,1512 7161,1505 7154,1499 7150,1490 7144,1482 7141,1471 7137,1461 7136,1451 7135,1442 7136,1431 7138,1423 7138,1418 7140,1413 7142,1409 7144,1404 7146,1401 7149,1396 7155,1388 7162,1381 7170,1373 7173,1370 7177,1366 7181,1364 7186,1361 7190,1358 7190,1357 7190,1357 7194,1356 7199,1354 7204,1352 7209,1350 7214,1348 7219,1347 7225,1346 7230,1344 7235,1343 7240,1343 7246,1342 7250,1342 7256,1342 7260,1342 7265,1343 7276,1344 7285,1346 7295,1350 7300,1351 7304,1353 7308,1356 7312,1358 7316,1361 7320,1365 7327,1370 7333,1378 7338,1386 7343,1395 7346,1406 Z M 7558,1366 L 7654,1323 7654,1322 7725,1294 7767,1453 7909,1417 7909,1417 7973,1402 8003,1530 7941,1545 7941,1545 7801,1581 7850,1771 7854,1783 7857,1794 7862,1804 7867,1814 7871,1822 7877,1830 7883,1838 7889,1844 7892,1847 7895,1850 7899,1852 7904,1854 7908,1855 7912,1856 7917,1858 7921,1859 7926,1859 7932,1859 7937,1859 7944,1859 7949,1858 7955,1856 7969,1854 7982,1850 7996,1846 8009,1841 8013,1839 8013,1838 8022,1835 8035,1830 8048,1824 8059,1817 8070,1811 8121,1926 8107,1935 8093,1943 8077,1952 8061,1960 8052,1964 8044,1966 8044,1967 8043,1968 8033,1972 8023,1976 8012,1979 8000,1983 7976,1990 7960,1994 7944,1998 7929,2000 7915,2001 7901,2003 7888,2003 7875,2002 7863,2001 7851,2000 7840,1998 7837,1997 7837,1997 7830,1995 7819,1992 7809,1988 7799,1983 7790,1979 7781,1973 7773,1968 7765,1961 7757,1954 7750,1946 7743,1938 7736,1929 7730,1920 7724,1910 7713,1890 7703,1867 7695,1843 7687,1818 7558,1366 Z M 8217,1633 L 8214,1618 8212,1604 8211,1589 8210,1574 8210,1560 8211,1546 8212,1531 8214,1517 8218,1503 8221,1489 8225,1476 8230,1462 8236,1449 8242,1437 8248,1425 8256,1413 8264,1401 8274,1390 8284,1379 8294,1369 8305,1359 8317,1348 8329,1340 8342,1331 8344,1329 8345,1328 8356,1323 8371,1315 8386,1308 8402,1302 8418,1297 8435,1291 8453,1287 8471,1283 8496,1280 8507,1279 8519,1277 8530,1276 8542,1276 8552,1276 8560,1275 8562,1275 8563,1276 8584,1277 8605,1280 8626,1282 8646,1286 8631,1417 8618,1414 8604,1412 8589,1411 8584,1410 8583,1409 8575,1410 8567,1410 8559,1410 8552,1410 8544,1411 8535,1412 8526,1412 8509,1415 8500,1417 8491,1419 8482,1422 8474,1425 8466,1428 8458,1431 8451,1434 8445,1438 8438,1442 8432,1446 8426,1451 8421,1456 8416,1462 8412,1467 8408,1472 8404,1479 8397,1492 8392,1504 8387,1518 8385,1533 8384,1533 8384,1536 8384,1548 8384,1565 8386,1581 8388,1598 8393,1616 8397,1633 8403,1648 8407,1658 8409,1662 8410,1662 8417,1675 8426,1687 8435,1698 8440,1702 8445,1707 8450,1711 8456,1714 8462,1718 8468,1721 8475,1724 8482,1725 8490,1727 8497,1729 8505,1730 8513,1731 8522,1731 8531,1731 8550,1729 8570,1726 8586,1724 8601,1720 8618,1716 8633,1711 8634,1710 8633,1710 8651,1705 8658,1701 8667,1698 8674,1695 8681,1692 8688,1687 8695,1683 8738,1808 8731,1813 8724,1816 8707,1824 8690,1831 8670,1839 8656,1844 8655,1844 8648,1846 8626,1853 8602,1859 8577,1864 8558,1867 8539,1869 8521,1871 8503,1871 8485,1871 8468,1870 8452,1868 8448,1867 8447,1867 8437,1865 8422,1863 8408,1859 8394,1854 8380,1850 8367,1844 8355,1838 8343,1831 8331,1824 8321,1816 8310,1807 8300,1798 8291,1788 8282,1778 8273,1768 8266,1756 8258,1744 8251,1731 8245,1718 8239,1705 8234,1691 8225,1663 8217,1633 Z M 9462,1460 L 9463,1477 9462,1478 9463,1482 9463,1493 9462,1508 9461,1524 9459,1539 9456,1554 9453,1569 9449,1583 9445,1596 9440,1610 9434,1623 9428,1635 9422,1647 9414,1659 9406,1670 9398,1680 9389,1690 9380,1700 9369,1709 9358,1718 9347,1726 9336,1734 9324,1741 9311,1747 9298,1754 9285,1759 9273,1762 9272,1763 9271,1764 9256,1768 9242,1772 9227,1775 9212,1778 9195,1780 9180,1781 9164,1781 9149,1781 9134,1781 9119,1779 9104,1777 9090,1774 9076,1770 9064,1766 9064,1766 9063,1766 9050,1762 9037,1756 9025,1751 9013,1744 9001,1737 8990,1729 8979,1721 8969,1713 8959,1704 8949,1694 8940,1684 8932,1672 8923,1661 8916,1649 8908,1636 8901,1623 8895,1610 8890,1596 8885,1581 8881,1566 8877,1551 8871,1519 8869,1503 8868,1487 8868,1471 8868,1456 8869,1441 8871,1426 8874,1411 8878,1397 8882,1383 8886,1370 8892,1356 8899,1344 8905,1331 8912,1320 8920,1309 8929,1297 8938,1287 8948,1277 8958,1267 8969,1258 8980,1250 8992,1241 9003,1233 9003,1233 9004,1233 9018,1226 9032,1220 9046,1214 9060,1209 9075,1204 9090,1201 9106,1197 9121,1194 9138,1193 9154,1191 9171,1191 9187,1191 9203,1191 9219,1193 9222,1193 9223,1193 9234,1196 9248,1199 9263,1203 9277,1207 9291,1212 9305,1218 9318,1224 9330,1231 9342,1238 9354,1246 9365,1255 9375,1264 9385,1273 9395,1283 9402,1294 9410,1305 9418,1317 9425,1330 9432,1342 9438,1356 9444,1369 9448,1383 9452,1398 9456,1413 9459,1428 9461,1444 9462,1460 Z M 9288,1474 L 9286,1456 9283,1439 9279,1424 9275,1410 9268,1396 9262,1384 9254,1372 9246,1362 9242,1357 9237,1352 9237,1352 9236,1352 9232,1348 9227,1345 9222,1341 9216,1339 9210,1336 9205,1334 9198,1332 9192,1331 9186,1329 9180,1328 9172,1328 9165,1328 9158,1328 9151,1329 9144,1329 9137,1331 9130,1332 9124,1334 9117,1336 9111,1339 9105,1342 9099,1345 9094,1347 9090,1352 9085,1355 9080,1360 9076,1364 9071,1369 9067,1374 9064,1380 9057,1392 9052,1404 9048,1418 9045,1432 9043,1447 9043,1463 9043,1480 9045,1497 9047,1515 9050,1532 9054,1548 9060,1563 9065,1576 9073,1588 9080,1600 9089,1611 9094,1616 9098,1620 9104,1624 9108,1627 9113,1631 9118,1634 9125,1637 9130,1638 9136,1641 9142,1642 9148,1643 9154,1644 9161,1644 9168,1645 9175,1645 9182,1644 9189,1643 9196,1642 9202,1640 9209,1639 9215,1637 9220,1634 9226,1632 9232,1628 9237,1625 9242,1622 9247,1617 9251,1613 9255,1609 9258,1604 9259,1604 9259,1603 9263,1599 9266,1593 9272,1581 9278,1568 9282,1555 9286,1540 9287,1525 9289,1508 9289,1491 9288,1474 Z M 9919,1726 L 9896,1726 9895,1726 9753,1730 9736,1170 9888,1166 9889,1166 9914,1166 9919,1726 Z M 9929,1005 L 9929,1016 9927,1026 9925,1035 9922,1044 9917,1052 9915,1056 9911,1060 9908,1064 9905,1067 9902,1071 9898,1074 9890,1079 9888,1080 9887,1080 9881,1085 9872,1089 9868,1091 9864,1093 9859,1095 9854,1096 9849,1097 9844,1098 9839,1099 9834,1099 9828,1100 9823,1100 9818,1100 9813,1100 9807,1100 9802,1099 9798,1098 9793,1097 9788,1096 9783,1095 9774,1091 9764,1087 9756,1082 9747,1077 9743,1074 9740,1070 9737,1067 9733,1063 9730,1060 9728,1056 9723,1048 9719,1039 9716,1030 9714,1020 9714,1009 9713,998 9715,988 9717,979 9721,970 9725,962 9727,957 9730,953 9733,950 9736,946 9739,943 9743,940 9752,934 9760,929 9770,924 9774,921 9779,920 9783,918 9789,917 9794,916 9798,915 9803,914 9809,914 9814,913 9819,913 9825,913 9830,913 9835,913 9841,914 9846,914 9851,916 9856,917 9861,918 9865,919 9870,922 9879,926 9885,928 9886,929 9888,931 9896,937 9901,940 9904,943 9907,947 9910,950 9914,954 9916,958 9921,966 9924,975 9927,985 9929,995 9929,1005 Z M 10147,1187 L 10171,1182 10199,1177 10230,1172 10265,1168 10300,1164 10332,1161 10332,1161 10338,1162 10376,1162 10414,1163 10434,1164 10453,1167 10470,1168 10487,1172 10503,1175 10518,1179 10533,1183 10546,1189 10554,1192 10554,1192 10558,1194 10570,1200 10581,1207 10592,1214 10602,1222 10610,1230 10618,1238 10626,1247 10632,1256 10638,1266 10644,1276 10648,1287 10653,1297 10657,1308 10660,1319 10662,1331 10666,1356 10669,1382 10669,1408 10668,1436 10643,1751 10519,1741 10519,1741 10477,1739 10495,1443 10496,1424 10496,1407 10495,1392 10492,1377 10490,1364 10488,1352 10483,1342 10481,1337 10479,1333 10476,1329 10473,1325 10469,1322 10466,1319 10462,1315 10457,1313 10453,1310 10448,1308 10442,1306 10437,1304 10431,1302 10425,1301 10419,1299 10412,1299 10398,1298 10388,1297 10378,1297 10358,1297 10348,1297 10337,1298 10327,1297 10327,1298 10320,1299 10304,1731 10138,1727 10147,1187 Z M 11755,1914 L 11754,1909 11755,1908 11745,1831 11733,1746 11580,1715 11579,1715 11433,1689 11389,1763 11350,1836 11345,1835 11344,1835 11171,1809 11286,1603 11395,1428 11417,1392 11418,1389 11499,1273 11607,1133 11688,1147 11689,1148 11784,1167 11830,1336 11872,1520 11906,1722 11937,1955 11755,1914 Z M 11659,1312 L 11656,1316 11655,1318 11649,1329 11641,1340 11634,1352 11596,1410 11548,1482 11496,1566 11604,1585 11605,1585 11719,1609 11702,1512 11684,1427 11669,1358 11664,1332 11662,1321 11659,1312 Z M 12385,1957 L 12389,1958 12390,1958 12396,1960 12405,1962 12415,1965 12424,1967 12431,1968 12439,1969 12445,1968 12447,1968 12450,1968 12452,1968 12455,1968 12458,1967 12459,1965 12461,1965 12464,1964 12465,1962 12467,1961 12468,1959 12470,1957 12472,1955 12473,1953 12476,1948 12478,1942 12478,1940 12479,1938 12479,1935 12478,1933 12479,1931 12479,1929 12477,1926 12477,1924 12476,1921 12474,1919 12473,1916 12472,1914 12471,1911 12468,1909 12464,1903 12458,1897 12453,1892 12445,1885 12438,1879 12420,1865 12419,1863 12418,1863 12400,1850 12383,1838 12367,1826 12352,1814 12338,1802 12331,1796 12326,1791 12319,1785 12313,1778 12308,1772 12303,1766 12299,1760 12294,1753 12290,1746 12287,1740 12284,1732 12281,1726 12278,1718 12276,1711 12274,1703 12273,1696 12272,1687 12272,1679 12271,1671 12272,1663 12274,1653 12275,1644 12279,1625 12285,1607 12293,1591 12303,1576 12308,1569 12314,1562 12320,1556 12327,1550 12333,1545 12340,1539 12349,1535 12357,1530 12365,1527 12375,1523 12384,1521 12394,1518 12404,1516 12414,1514 12425,1513 12436,1512 12447,1511 12459,1511 12482,1513 12507,1516 12521,1518 12522,1518 12533,1521 12560,1529 12586,1538 12612,1548 12637,1559 12649,1564 12661,1570 12683,1582 12703,1594 12720,1604 12726,1608 12726,1608 12728,1610 12734,1614 12715,1641 12714,1643 12667,1722 12654,1713 12640,1704 12624,1695 12609,1686 12601,1682 12592,1678 12584,1674 12575,1670 12565,1665 12554,1662 12534,1655 12515,1650 12507,1648 12499,1647 12492,1646 12485,1646 12484,1646 12483,1645 12478,1646 12472,1647 12467,1648 12462,1650 12458,1653 12454,1655 12451,1659 12448,1662 12446,1666 12444,1671 12443,1673 12443,1676 12442,1678 12443,1680 12442,1682 12442,1684 12443,1686 12443,1689 12444,1690 12444,1693 12445,1695 12446,1697 12447,1699 12449,1701 12450,1704 12452,1706 12454,1709 12457,1712 12461,1716 12461,1716 12462,1716 12475,1728 12483,1735 12492,1743 12514,1759 12537,1776 12557,1793 12576,1808 12592,1823 12599,1830 12606,1837 12612,1844 12617,1851 12622,1858 12627,1865 12631,1872 12635,1878 12636,1883 12636,1883 12638,1885 12640,1892 12644,1899 12645,1906 12646,1913 12647,1920 12648,1927 12648,1934 12648,1941 12647,1948 12646,1956 12645,1963 12641,1979 12637,1995 12630,2014 12621,2031 12615,2039 12610,2046 12605,2053 12598,2059 12592,2066 12585,2071 12578,2075 12573,2076 12573,2077 12570,2080 12562,2084 12554,2088 12545,2091 12536,2094 12526,2097 12516,2099 12506,2100 12496,2101 12474,2102 12451,2101 12426,2098 12401,2094 12375,2088 12354,2081 12353,2081 12347,2080 12312,2069 12295,2064 12280,2058 12264,2051 12251,2045 12239,2039 12226,2033 12205,2020 12187,2009 12173,2001 12167,1997 12163,1993 12223,1876 12242,1890 12261,1901 12281,1913 12302,1924 12323,1934 12343,1943 12353,1946 12364,1950 12374,1954 12385,1957 Z M 13001,2166 L 13012,2171 13021,2174 13031,2177 13039,2179 13047,2181 13054,2182 13060,2182 13062,2182 13065,2183 13067,2183 13071,2183 13073,2182 13074,2181 13077,2180 13079,2179 13081,2178 13082,2176 13084,2175 13086,2173 13088,2171 13090,2169 13092,2165 13095,2159 13096,2157 13096,2155 13096,2152 13096,2150 13097,2147 13097,2146 13096,2143 13096,2140 13095,2137 13093,2135 13092,2132 13091,2130 13090,2127 13088,2125 13084,2119 13079,2113 13074,2107 13067,2100 13060,2093 13044,2077 13027,2062 13026,2061 13024,2061 13008,2047 12994,2034 12980,2021 12966,2008 12960,2002 12955,1996 12949,1989 12944,1983 12939,1976 12935,1970 12931,1963 12927,1956 12923,1949 12920,1942 12918,1935 12916,1928 12913,1920 12912,1913 12910,1905 12910,1897 12910,1889 12910,1881 12910,1873 12912,1864 12914,1855 12916,1846 12922,1828 12929,1810 12938,1794 12949,1780 12954,1773 12961,1767 12967,1761 12975,1756 12982,1751 12989,1746 12998,1743 13006,1739 13015,1736 13025,1733 13034,1731 13044,1729 13054,1728 13065,1727 13076,1726 13087,1726 13098,1726 13110,1727 13133,1731 13151,1735 13152,1735 13157,1736 13182,1743 13209,1753 13235,1764 13260,1776 13284,1789 13295,1795 13307,1802 13328,1815 13347,1829 13352,1832 13352,1832 13363,1840 13370,1846 13376,1851 13306,1945 13305,1947 13301,1954 13289,1944 13275,1934 13261,1924 13246,1914 13238,1909 13230,1904 13222,1899 13213,1895 13204,1890 13193,1885 13174,1877 13155,1870 13147,1868 13139,1866 13132,1865 13125,1864 13119,1863 13113,1864 13107,1865 13102,1865 13102,1866 13101,1866 13098,1868 13094,1870 13090,1874 13087,1877 13085,1881 13083,1886 13082,1888 13081,1890 13080,1892 13081,1894 13080,1896 13080,1899 13080,1901 13080,1903 13081,1905 13081,1907 13081,1909 13083,1911 13083,1913 13084,1914 13084,1914 13085,1916 13086,1919 13087,1921 13090,1924 13092,1927 13096,1932 13109,1946 13117,1953 13124,1961 13145,1979 13167,1998 13186,2016 13203,2033 13218,2049 13225,2056 13231,2064 13237,2071 13241,2079 13246,2085 13247,2088 13247,2088 13250,2093 13254,2100 13256,2107 13259,2114 13261,2122 13264,2129 13265,2136 13265,2143 13266,2150 13266,2157 13265,2164 13264,2171 13263,2178 13261,2186 13260,2193 13255,2208 13249,2224 13241,2242 13231,2259 13225,2266 13219,2272 13213,2279 13206,2285 13199,2291 13192,2296 13184,2300 13176,2304 13168,2307 13160,2310 13155,2310 13155,2311 13150,2313 13141,2315 13130,2317 13121,2318 13111,2319 13100,2319 13078,2318 13056,2315 13031,2311 13007,2305 12981,2296 12954,2286 12943,2281 12942,2281 12919,2272 12903,2266 12888,2259 12874,2251 12861,2244 12849,2237 12837,2229 12817,2215 12799,2203 12786,2194 12781,2189 12777,2185 12846,2073 12864,2088 12882,2101 12901,2115 12921,2127 12941,2138 12960,2149 12970,2153 12981,2158 12991,2162 13001,2166 Z M 14021,2448 L 14013,2462 14004,2476 13995,2488 13986,2501 13976,2513 13966,2524 13956,2535 13945,2545 13934,2554 13923,2563 13911,2571 13899,2579 13888,2586 13875,2591 13862,2596 13850,2601 13837,2605 13824,2608 13811,2611 13797,2612 13783,2613 13770,2614 13756,2614 13741,2612 13726,2611 13713,2608 13708,2606 13707,2606 13698,2605 13683,2601 13669,2597 13655,2592 13640,2586 13625,2579 13611,2572 13598,2564 13585,2556 13573,2548 13561,2538 13550,2529 13539,2519 13529,2508 13526,2504 13526,2504 13520,2498 13511,2487 13504,2476 13496,2465 13488,2453 13482,2441 13477,2429 13472,2416 13468,2403 13464,2391 13461,2377 13459,2363 13457,2349 13456,2335 13456,2321 13456,2306 13457,2292 13460,2278 13462,2263 13466,2247 13470,2232 13475,2217 13487,2187 13493,2173 13501,2158 13509,2145 13517,2132 13526,2120 13536,2108 13546,2098 13556,2087 13567,2078 13578,2068 13590,2060 13602,2053 13614,2046 13626,2039 13639,2034 13652,2029 13666,2025 13680,2022 13693,2019 13707,2017 13721,2016 13736,2014 13750,2014 13757,2014 13758,2013 13766,2016 13781,2018 13796,2020 13811,2023 13826,2027 13841,2032 13856,2037 13870,2043 13885,2050 13900,2057 13914,2066 13929,2074 13941,2083 13954,2093 13962,2100 13963,2100 13965,2103 13976,2114 13987,2124 13996,2135 14006,2147 14014,2159 14022,2171 14029,2183 14035,2196 14041,2209 14046,2221 14050,2235 14053,2248 14056,2261 14057,2275 14058,2288 14059,2303 14058,2317 14057,2331 14055,2346 14053,2361 14049,2375 14045,2389 14040,2404 14035,2419 14028,2433 14021,2448 Z M 13865,2368 L 13873,2351 13879,2336 13884,2321 13888,2306 13889,2292 13891,2278 13890,2263 13889,2250 13888,2249 13888,2247 13887,2244 13886,2238 13883,2232 13881,2226 13878,2221 13875,2216 13871,2210 13868,2205 13863,2200 13859,2196 13855,2191 13850,2187 13844,2183 13838,2179 13831,2175 13825,2172 13819,2169 13812,2167 13805,2164 13799,2162 13792,2161 13786,2160 13779,2159 13773,2159 13767,2159 13761,2160 13755,2160 13749,2162 13742,2163 13736,2165 13730,2167 13724,2170 13712,2176 13701,2185 13690,2194 13681,2205 13671,2216 13662,2229 13653,2244 13646,2260 13638,2276 13633,2292 13628,2308 13624,2323 13622,2338 13622,2352 13622,2366 13624,2380 13625,2386 13627,2392 13629,2398 13631,2404 13634,2409 13637,2415 13641,2420 13644,2425 13648,2430 13653,2434 13657,2439 13662,2442 13668,2446 13673,2450 13679,2454 13685,2457 13692,2460 13698,2462 13705,2464 13711,2467 13717,2468 13724,2468 13730,2470 13736,2469 13742,2469 13748,2469 13755,2468 13761,2467 13766,2465 13773,2463 13778,2461 13782,2458 13783,2457 13784,2458 13796,2450 13807,2443 13818,2433 13828,2423 13838,2411 13848,2398 13856,2383 13865,2368 Z M 14244,2573 L 14251,2559 14259,2547 14269,2536 14278,2524 14287,2513 14298,2503 14308,2493 14319,2484 14331,2476 14343,2468 14354,2460 14367,2454 14380,2448 14393,2443 14406,2438 14420,2435 14434,2431 14449,2429 14464,2428 14477,2427 14493,2427 14508,2427 14523,2429 14539,2430 14540,2430 14541,2431 14555,2434 14571,2438 14587,2443 14603,2449 14618,2456 14634,2463 14651,2472 14667,2481 14688,2495 14697,2502 14706,2508 14716,2515 14724,2522 14732,2530 14737,2534 14737,2534 14740,2537 14755,2552 14769,2568 14783,2583 14796,2600 14696,2687 14689,2676 14680,2666 14670,2655 14664,2648 14664,2648 14659,2644 14654,2639 14648,2634 14642,2629 14636,2624 14629,2619 14622,2614 14607,2605 14599,2600 14591,2596 14583,2592 14574,2588 14566,2585 14558,2582 14551,2580 14544,2578 14536,2577 14528,2576 14521,2576 14514,2576 14506,2577 14500,2578 14493,2580 14486,2582 14472,2587 14460,2593 14447,2600 14436,2610 14430,2614 14428,2616 14425,2620 14414,2632 14405,2646 14395,2660 14386,2677 14378,2692 14372,2707 14371,2712 14370,2715 14368,2722 14365,2737 14363,2751 14363,2765 14363,2772 14364,2779 14365,2785 14367,2792 14369,2799 14372,2805 14375,2811 14379,2818 14384,2824 14388,2830 14393,2836 14399,2842 14406,2848 14412,2854 14427,2865 14445,2877 14458,2885 14472,2893 14487,2900 14500,2905 14500,2905 14502,2907 14519,2914 14527,2917 14535,2920 14543,2922 14551,2925 14558,2926 14566,2928 14515,3050 14507,3048 14499,3046 14482,3041 14464,3035 14443,3027 14428,3019 14427,3019 14422,3018 14401,3008 14380,2996 14358,2984 14342,2974 14326,2962 14311,2951 14297,2940 14285,2928 14273,2916 14262,2904 14259,2899 14258,2898 14252,2892 14243,2880 14235,2867 14227,2855 14220,2843 14214,2829 14209,2817 14205,2803 14201,2790 14198,2777 14196,2764 14195,2750 14195,2737 14195,2723 14196,2710 14198,2696 14200,2682 14204,2668 14207,2654 14212,2641 14217,2627 14229,2600 14244,2573 Z M 14828,3280 L 14778,3243 14778,3243 14692,3185 15011,2725 15102,2788 15102,2788 15155,2827 14828,3280 Z M 15263,2706 L 15257,2715 15249,2722 15242,2728 15235,2733 15226,2737 15222,2739 15217,2740 15212,2741 15208,2742 15203,2743 15198,2743 15188,2743 15178,2742 15168,2740 15163,2739 15159,2738 15154,2736 15150,2734 15145,2732 15143,2731 15143,2731 15140,2730 15136,2728 15131,2725 15127,2722 15122,2719 15118,2716 15114,2713 15110,2710 15106,2706 15103,2703 15100,2699 15096,2695 15093,2692 15088,2683 15082,2675 15078,2666 15074,2656 15073,2652 15072,2647 15072,2642 15071,2637 15071,2632 15071,2628 15073,2619 15074,2609 15077,2600 15081,2591 15088,2582 15094,2573 15101,2566 15108,2560 15117,2555 15125,2551 15129,2548 15134,2547 15138,2546 15143,2545 15147,2544 15153,2544 15163,2544 15173,2545 15183,2546 15188,2547 15194,2549 15198,2550 15203,2552 15208,2554 15212,2556 15217,2558 15221,2561 15226,2564 15230,2567 15235,2570 15239,2573 15243,2576 15247,2580 15249,2581 15249,2581 15251,2584 15254,2588 15257,2591 15261,2596 15263,2599 15265,2604 15270,2613 15275,2622 15278,2632 15279,2637 15280,2641 15281,2646 15281,2651 15282,2656 15281,2661 15280,2670 15278,2679 15274,2688 15270,2697 15263,2706 Z M 15250,3463 L 15259,3471 15268,3477 15287,3492 15296,3498 15304,3503 15311,3508 15314,3510 15317,3511 15393,3419 15392,3417 15390,3415 15385,3410 15372,3396 15364,3389 15358,3383 15351,3377 15344,3371 15335,3364 15325,3357 15317,3350 15311,3347 15307,3344 15303,3342 15298,3339 15294,3337 15289,3335 15285,3333 15280,3332 15276,3330 15272,3330 15268,3328 15263,3328 15259,3328 15255,3327 15251,3328 15247,3328 15243,3329 15241,3328 15241,3328 15240,3330 15236,3331 15232,3333 15229,3335 15225,3337 15222,3339 15220,3342 15216,3345 15213,3349 15207,3356 15204,3364 15203,3367 15201,3371 15199,3374 15199,3378 15199,3382 15198,3382 15198,3382 15198,3385 15198,3388 15198,3392 15199,3396 15200,3399 15201,3403 15202,3406 15205,3413 15210,3420 15214,3428 15220,3434 15226,3441 15232,3448 15240,3456 15250,3463 Z M 15530,3093 L 15544,3105 15558,3117 15571,3129 15583,3141 15595,3153 15604,3165 15613,3176 15621,3188 15628,3197 15628,3197 15628,3198 15635,3210 15640,3221 15645,3232 15649,3244 15652,3254 15654,3266 15656,3276 15657,3287 15657,3297 15656,3308 15655,3319 15653,3329 15650,3339 15647,3349 15643,3360 15632,3380 15620,3401 15606,3420 15590,3440 15376,3690 15289,3639 15275,3630 15271,3627 15271,3627 15261,3622 15230,3601 15198,3578 15163,3551 15142,3533 15123,3515 15107,3498 15107,3498 15106,3497 15097,3488 15089,3479 15082,3471 15075,3462 15069,3452 15064,3443 15058,3434 15053,3424 15049,3415 15046,3406 15043,3397 15040,3387 15039,3378 15038,3368 15037,3358 15038,3349 15038,3339 15039,3329 15041,3320 15044,3310 15048,3300 15053,3290 15057,3281 15063,3270 15070,3260 15077,3250 15084,3240 15092,3231 15100,3224 15108,3217 15117,3210 15126,3205 15135,3200 15144,3196 15153,3193 15162,3190 15172,3189 15182,3188 15192,3187 15202,3187 15211,3187 15222,3188 15232,3190 15243,3193 15253,3195 15263,3198 15274,3202 15284,3206 15294,3210 15305,3215 15316,3221 15323,3224 15323,3224 15325,3226 15336,3233 15346,3239 15356,3246 15366,3253 15386,3268 15399,3278 15410,3289 15421,3298 15431,3308 15440,3316 15447,3325 15454,3333 15459,3339 15468,3328 15475,3320 15479,3311 15484,3304 15487,3296 15488,3287 15489,3283 15490,3279 15490,3275 15490,3270 15489,3265 15489,3261 15488,3256 15487,3252 15485,3247 15483,3242 15481,3238 15478,3234 15475,3228 15472,3224 15468,3219 15464,3214 15454,3203 15444,3194 15431,3183 15413,3169 15396,3157 15384,3148 15383,3148 15378,3145 15359,3133 15341,3123 15323,3114 15305,3107 15298,3104 15290,3101 15350,2985 15386,3003 15396,3008 15408,3013 15419,3019 15431,3026 15481,3056 15494,3065 15505,3074 15518,3083 15530,3093 Z M 16043,3368 L 16062,3380 16063,3379 16192,3472 16078,3591 16127,3637 16127,3638 16231,3739 16138,3832 16036,3732 16035,3731 15987,3687 15852,3829 15843,3838 15836,3847 15830,3856 15824,3865 15819,3873 15816,3883 15813,3891 15810,3900 15809,3904 15809,3908 15809,3912 15810,3917 15811,3922 15812,3926 15813,3930 15815,3935 15817,3939 15820,3944 15824,3948 15824,3949 15825,3950 15827,3954 15830,3958 15835,3962 15844,3973 15854,3982 15865,3992 15876,4001 15887,4009 15898,4017 15910,4024 15922,4031 15933,4036 15863,4140 15848,4133 15833,4125 15817,4116 15802,4107 15794,4102 15785,4097 15776,4090 15768,4083 15760,4076 15750,4067 15732,4050 15729,4048 15729,4048 15720,4039 15708,4027 15699,4016 15690,4004 15681,3993 15674,3983 15668,3971 15662,3960 15657,3950 15653,3940 15650,3929 15647,3918 15645,3907 15644,3897 15643,3887 15643,3876 15644,3866 15645,3856 15648,3845 15650,3835 15654,3825 15653,3823 15653,3823 15658,3815 15662,3804 15667,3794 15678,3774 15693,3754 15709,3734 15726,3714 16043,3368 Z M 16109,4421 L 16030,4334 16030,4334 15997,4299 16404,3915 16439,3952 16439,3952 16524,4045 16109,4421 Z M 16655,3949 L 16647,3956 16638,3961 16630,3966 16621,3969 16612,3971 16607,3972 16602,3973 16597,3973 16593,3973 16588,3973 16583,3972 16573,3969 16564,3967 16554,3962 16550,3961 16546,3959 16541,3956 16538,3954 16533,3951 16529,3947 16525,3944 16521,3940 16517,3937 16514,3933 16510,3929 16507,3925 16504,3921 16501,3917 16499,3913 16496,3908 16493,3904 16493,3902 16493,3902 16491,3900 16488,3890 16484,3881 16482,3871 16480,3861 16480,3856 16480,3851 16480,3847 16481,3842 16482,3837 16483,3833 16486,3824 16489,3815 16495,3807 16501,3799 16508,3791 16516,3784 16525,3779 16533,3774 16543,3771 16551,3768 16556,3767 16561,3766 16566,3766 16571,3766 16575,3766 16580,3767 16591,3769 16600,3772 16610,3776 16615,3777 16619,3780 16623,3781 16623,3781 16623,3782 16628,3786 16632,3789 16636,3791 16640,3795 16644,3798 16648,3802 16651,3806 16655,3810 16658,3814 16662,3818 16665,3823 16668,3827 16670,3832 16672,3836 16675,3841 16677,3845 16678,3849 16681,3860 16683,3869 16684,3879 16685,3885 16685,3889 16684,3894 16684,3898 16683,3903 16681,3908 16679,3917 16674,3926 16669,3933 16663,3942 16655,3949 Z M 16825,4841 L 16812,4850 16798,4859 16785,4867 16771,4875 16757,4882 16743,4887 16729,4892 16715,4897 16702,4901 16688,4904 16674,4906 16660,4908 16648,4908 16647,4909 16646,4908 16633,4909 16619,4908 16606,4907 16593,4905 16579,4903 16566,4900 16553,4895 16540,4890 16527,4885 16514,4879 16502,4872 16489,4864 16478,4856 16466,4847 16454,4837 16444,4827 16433,4816 16430,4813 16430,4812 16422,4805 16411,4793 16401,4781 16393,4768 16384,4755 16376,4742 16370,4729 16363,4715 16358,4703 16353,4689 16349,4676 16346,4662 16344,4648 16341,4635 16340,4621 16340,4619 16340,4616 16339,4607 16340,4594 16341,4581 16342,4568 16344,4554 16347,4541 16350,4527 16355,4514 16360,4501 16366,4488 16372,4475 16379,4462 16387,4450 16396,4438 16406,4425 16416,4414 16426,4402 16450,4380 16462,4369 16475,4360 16488,4351 16501,4342 16514,4335 16528,4329 16542,4323 16556,4318 16570,4314 16584,4310 16598,4308 16612,4306 16626,4305 16640,4304 16653,4305 16668,4306 16681,4308 16695,4311 16702,4311 16704,4312 16709,4314 16722,4318 16736,4323 16749,4328 16762,4334 16776,4342 16788,4350 16801,4358 16813,4367 16826,4377 16838,4388 16849,4399 16860,4410 16870,4423 16881,4435 16889,4445 16889,4446 16890,4449 16899,4463 16907,4477 16914,4491 16920,4505 16926,4519 16931,4533 16935,4547 16938,4562 16941,4576 16943,4590 16944,4604 16945,4618 16945,4632 16944,4646 16942,4659 16939,4673 16936,4686 16935,4689 16935,4690 16931,4699 16927,4712 16921,4725 16914,4738 16907,4751 16899,4763 16891,4775 16881,4787 16872,4798 16861,4810 16850,4820 16838,4831 16825,4841 Z M 16718,4703 L 16731,4691 16744,4680 16754,4668 16764,4656 16772,4644 16779,4632 16784,4618 16788,4606 16790,4600 16791,4594 16792,4587 16792,4581 16792,4575 16791,4569 16790,4562 16789,4556 16787,4550 16785,4544 16783,4537 16781,4532 16781,4532 16781,4532 16777,4526 16773,4520 16769,4514 16764,4508 16760,4503 16754,4498 16749,4493 16745,4488 16739,4484 16733,4481 16728,4477 16722,4474 16717,4472 16711,4470 16705,4468 16699,4467 16692,4465 16686,4464 16679,4464 16673,4464 16659,4465 16646,4468 16632,4472 16619,4478 16605,4484 16592,4492 16577,4501 16564,4513 16550,4524 16538,4536 16527,4548 16518,4561 16509,4573 16503,4586 16497,4598 16494,4612 16492,4618 16491,4624 16490,4631 16490,4637 16490,4643 16490,4649 16492,4655 16493,4661 16495,4667 16497,4673 16499,4679 16502,4684 16505,4690 16509,4696 16513,4702 16517,4707 16522,4712 16527,4717 16532,4722 16537,4727 16538,4726 16538,4727 16542,4730 16547,4734 16552,4737 16558,4740 16563,4742 16569,4745 16575,4747 16581,4748 16587,4749 16593,4750 16599,4750 16606,4750 16619,4748 16633,4746 16647,4742 16661,4737 16675,4730 16689,4722 16703,4713 16718,4703 Z M 17204,4922 L 17222,4938 17243,4958 17265,4980 17274,4989 17275,4990 17289,5005 17312,5032 17336,5061 17358,5092 17380,5124 17391,5140 17401,5156 17408,5167 17408,5167 17410,5171 17417,5187 17424,5202 17429,5217 17434,5231 17437,5245 17440,5258 17442,5271 17443,5284 17444,5297 17443,5309 17442,5321 17440,5332 17438,5343 17434,5354 17430,5364 17425,5375 17419,5385 17413,5394 17407,5404 17400,5413 17392,5422 17373,5439 17354,5457 17333,5472 17310,5488 17040,5653 16952,5512 17202,5353 17217,5343 17231,5333 17243,5323 17253,5312 17263,5302 17271,5294 17277,5284 17279,5280 17281,5275 17283,5270 17284,5266 17285,5261 17286,5256 17286,5251 17286,5247 17286,5247 17285,5246 17285,5241 17284,5236 17282,5230 17280,5225 17278,5219 17275,5213 17273,5207 17269,5201 17262,5189 17256,5180 17251,5173 17239,5157 17232,5149 17226,5141 17214,5128 16856,5368 16761,5231 17204,4922 Z"/>
        <path fill="none" stroke="rgb(250,250,250)" stroke-width="53" stroke-linejoin="miter" d="M 2958,5653 L 2329,5268 2450,5078 2450,5078 2576,4890 2576,4889 2639,4801 2753,4881 2692,4967 2691,4968 2567,5153 2567,5153 2547,5185 2677,5268 2696,5237 2696,5237 2856,5002 2971,5081 2794,5343 3050,5507 2958,5653 Z"/>
        <path fill="none" stroke="rgb(250,250,250)" stroke-width="53" stroke-linejoin="miter" d="M 3487,4896 L 3430,4968 3430,4969 3386,5027 2938,4693 2984,4631 2985,4630 3045,4552 3487,4896 Z"/>
        <path fill="none" stroke="rgb(250,250,250)" stroke-width="53" stroke-linejoin="miter" d="M 2929,4440 L 2937,4447 2944,4455 2950,4462 2954,4470 2958,4479 2960,4483 2961,4488 2962,4493 2962,4497 2963,4502 2963,4507 2962,4517 2962,4527 2959,4537 2958,4541 2957,4546 2955,4551 2953,4554 2951,4559 2948,4564 2946,4569 2942,4573 2940,4577 2936,4581 2933,4585 2930,4588 2929,4589 2929,4589 2926,4593 2923,4597 2919,4600 2915,4603 2911,4607 2908,4609 2899,4614 2890,4620 2881,4623 2872,4627 2867,4628 2862,4628 2857,4629 2852,4629 2847,4629 2843,4629 2834,4627 2824,4625 2816,4622 2806,4617 2798,4611 2789,4604 2782,4597 2776,4590 2771,4581 2768,4573 2765,4568 2764,4563 2763,4559 2762,4554 2762,4550 2762,4544 2762,4534 2763,4524 2765,4514 2766,4509 2768,4504 2769,4500 2772,4495 2774,4490 2776,4486 2778,4481 2782,4477 2781,4476 2782,4475 2784,4472 2787,4468 2791,4464 2795,4460 2798,4456 2802,4452 2806,4448 2810,4445 2813,4442 2818,4439 2822,4437 2826,4435 2836,4430 2845,4426 2855,4423 2860,4422 2864,4421 2869,4421 2874,4420 2879,4420 2884,4421 2893,4422 2902,4425 2911,4429 2920,4434 2929,4440 Z"/>
        <path fill="none" stroke="rgb(250,250,250)" stroke-width="53" stroke-linejoin="miter" d="M 3207,4382 L 3218,4361 3232,4336 3248,4308 3261,4285 3262,4282 3265,4279 3285,4249 3307,4219 3331,4189 3356,4159 3369,4144 3382,4131 3394,4119 3401,4111 3401,4111 3407,4108 3420,4097 3433,4088 3445,4079 3458,4073 3470,4067 3482,4061 3494,4057 3506,4053 3519,4050 3530,4047 3541,4047 3553,4046 3564,4047 3575,4048 3587,4050 3598,4053 3609,4056 3620,4059 3631,4064 3642,4069 3663,4082 3685,4096 3706,4112 3727,4131 3958,4346 3846,4468 3625,4270 3611,4258 3598,4247 3585,4239 3572,4231 3560,4225 3549,4219 3538,4216 3534,4215 3529,4214 3524,4214 3519,4214 3517,4214 3517,4214 3514,4215 3509,4215 3504,4216 3499,4218 3495,4220 3490,4222 3485,4226 3480,4229 3475,4232 3470,4236 3465,4240 3461,4245 3451,4256 3444,4263 3438,4271 3426,4287 3419,4295 3413,4303 3404,4318 3732,4599 3625,4725 3207,4382 Z"/>
        <path fill="none" stroke="rgb(250,250,250)" stroke-width="53" stroke-linejoin="miter" d="M 3778,3756 L 3791,3735 3807,3712 3825,3686 3846,3659 3865,3633 3866,3632 3868,3631 3893,3603 3920,3575 3947,3549 3961,3535 3976,3523 3989,3512 4003,3502 4017,3493 4031,3485 4031,3484 4031,3484 4044,3477 4057,3472 4069,3467 4082,3463 4095,3460 4107,3457 4120,3455 4131,3454 4143,3454 4154,3455 4166,3457 4176,3459 4188,3462 4199,3466 4209,3470 4220,3475 4231,3480 4241,3487 4261,3502 4281,3517 4300,3536 4319,3556 4529,3792 4412,3897 4412,3897 4405,3903 4204,3685 4191,3671 4179,3659 4167,3649 4155,3641 4144,3633 4134,3627 4123,3623 4119,3621 4114,3620 4109,3619 4104,3619 4099,3619 4095,3619 4090,3620 4085,3621 4080,3622 4075,3624 4069,3627 4064,3630 4059,3633 4054,3636 4048,3639 4043,3644 4032,3654 4025,3661 4019,3667 4004,3682 3997,3690 3990,3697 3979,3711 4279,4022 4160,4138 3778,3756 Z"/>
        <path fill="none" stroke="rgb(250,250,250)" stroke-width="53" stroke-linejoin="miter" d="M 4879,3500 L 4750,3604 4394,3173 4532,3062 4879,3500 Z"/>
        <path fill="none" stroke="rgb(250,250,250)" stroke-width="53" stroke-linejoin="miter" d="M 4445,2925 L 4451,2933 4456,2942 4460,2951 4460,2952 4461,2953 4463,2959 4464,2969 4465,2974 4465,2979 4465,2984 4464,2988 4464,2993 4463,2998 4459,3008 4456,3017 4451,3026 4450,3031 4447,3034 4444,3039 4441,3042 4438,3047 4435,3050 4431,3054 4427,3058 4424,3061 4420,3065 4415,3068 4411,3071 4407,3074 4402,3077 4399,3079 4394,3081 4389,3083 4385,3085 4375,3088 4365,3091 4355,3092 4345,3093 4340,3093 4335,3092 4331,3092 4326,3091 4321,3090 4317,3088 4308,3084 4300,3080 4292,3075 4284,3068 4277,3060 4270,3052 4266,3042 4261,3034 4259,3024 4257,3016 4256,3011 4256,3006 4256,3001 4256,2996 4257,2992 4258,2987 4261,2977 4265,2968 4269,2958 4271,2954 4274,2949 4276,2945 4280,2942 4283,2937 4286,2934 4290,2930 4294,2926 4298,2922 4302,2919 4306,2916 4310,2913 4315,2910 4319,2907 4324,2904 4329,2902 4333,2900 4338,2898 4342,2896 4347,2895 4357,2893 4367,2891 4377,2891 4382,2890 4387,2891 4392,2892 4396,2892 4401,2893 4405,2896 4414,2898 4420,2902 4420,2902 4423,2904 4430,2910 4438,2916 4445,2925 Z"/>
        <path fill="none" stroke="rgb(250,250,250)" stroke-width="53" stroke-linejoin="miter" d="M 5122,3175 L 5131,3168 5139,3161 5146,3155 5153,3149 5153,3149 5153,3149 5159,3144 5164,3139 5167,3134 5169,3132 5171,3130 5172,3128 5173,3125 5174,3123 5174,3121 5175,3119 5175,3116 5175,3114 5175,3112 5174,3109 5174,3107 5173,3105 5173,3102 5170,3097 5167,3092 5166,3090 5164,3088 5162,3087 5160,3086 5159,3084 5157,3083 5154,3082 5152,3081 5149,3080 5146,3080 5143,3079 5141,3079 5138,3078 5135,3079 5127,3079 5119,3080 5111,3081 5105,3081 5105,3081 5102,3083 5092,3085 5071,3090 5046,3097 5026,3103 5007,3108 4989,3113 4970,3116 4961,3118 4954,3119 4945,3121 4936,3121 4928,3122 4920,3121 4913,3121 4905,3120 4897,3120 4889,3118 4882,3116 4875,3114 4867,3112 4860,3109 4859,3109 4859,3109 4852,3106 4846,3102 4839,3098 4833,3093 4826,3089 4820,3083 4813,3076 4807,3069 4795,3054 4784,3038 4776,3022 4769,3006 4767,2997 4765,2988 4764,2983 4763,2982 4764,2980 4764,2971 4764,2962 4764,2953 4766,2944 4767,2935 4769,2927 4772,2917 4776,2908 4779,2898 4784,2889 4789,2880 4795,2871 4801,2862 4807,2852 4814,2843 4830,2826 4848,2808 4868,2791 4887,2776 4887,2776 4890,2774 4913,2759 4937,2744 4961,2731 4972,2725 4985,2720 5008,2709 5030,2701 5048,2694 5057,2691 5064,2689 5109,2808 5094,2813 5078,2818 5062,2825 5045,2832 5037,2836 5028,2840 5020,2844 5011,2849 5001,2853 4992,2860 4974,2871 4961,2880 4961,2880 4959,2883 4952,2888 4946,2894 4941,2899 4937,2905 4933,2910 4931,2916 4928,2921 4926,2926 4926,2930 4925,2935 4926,2940 4927,2944 4929,2948 4932,2953 4933,2955 4935,2957 4936,2958 4938,2959 4939,2961 4941,2962 4943,2963 4945,2964 4947,2965 4949,2966 4951,2967 4953,2967 4956,2967 4959,2967 4962,2968 4965,2968 4968,2968 4972,2968 4978,2967 4996,2963 5006,2961 5017,2958 5017,2958 5017,2958 5044,2951 5072,2943 5098,2938 5121,2933 5143,2929 5153,2928 5162,2927 5172,2926 5181,2927 5189,2926 5198,2927 5206,2928 5213,2930 5220,2931 5228,2934 5235,2935 5242,2938 5248,2941 5253,2945 5259,2948 5265,2953 5270,2957 5276,2962 5281,2968 5287,2973 5296,2985 5301,2992 5302,2993 5307,2999 5310,3006 5312,3008 5317,3016 5325,3034 5328,3043 5330,3051 5332,3060 5334,3069 5335,3078 5335,3086 5334,3095 5333,3104 5332,3113 5330,3122 5327,3131 5323,3140 5319,3149 5314,3158 5310,3167 5304,3176 5292,3193 5276,3210 5259,3228 5240,3245 5228,3254 5228,3255 5219,3262 5196,3280 5166,3301 5151,3310 5137,3319 5122,3327 5109,3333 5097,3340 5084,3345 5061,3354 5047,3360 5047,3360 5041,3362 5026,3368 5019,3370 5014,3371 4958,3252 4980,3245 5002,3237 5024,3229 5045,3219 5065,3209 5085,3199 5094,3193 5104,3187 5113,3181 5122,3175 Z"/>
        <path fill="none" stroke="rgb(250,250,250)" stroke-width="53" stroke-linejoin="miter" d="M 5581,3003 L 5153,2329 5294,2210 5433,2440 5436,2436 5439,2432 5447,2425 5451,2421 5451,2420 5456,2417 5467,2408 5477,2399 5489,2392 5500,2383 5511,2377 5527,2367 5543,2360 5559,2352 5574,2346 5588,2340 5603,2336 5617,2331 5630,2329 5643,2327 5653,2326 5653,2326 5655,2326 5668,2326 5681,2326 5693,2327 5704,2329 5715,2332 5726,2336 5736,2340 5747,2344 5757,2350 5767,2356 5776,2362 5785,2370 5794,2377 5802,2386 5819,2405 5835,2425 5850,2447 5864,2471 6017,2748 5922,2799 5922,2799 5872,2829 5723,2572 5705,2542 5695,2529 5686,2518 5677,2508 5668,2500 5659,2493 5655,2490 5651,2488 5646,2487 5641,2485 5637,2484 5632,2483 5627,2482 5622,2482 5617,2483 5611,2484 5606,2485 5601,2486 5595,2488 5589,2490 5583,2492 5578,2495 5565,2502 5560,2505 5555,2507 5546,2514 5537,2520 5529,2527 5521,2533 5520,2534 5519,2534 5514,2540 5501,2553 5722,2916 5581,3003 Z"/>
        <path fill="none" stroke="rgb(250,250,250)" stroke-width="53" stroke-linejoin="miter" d="M 6800,2380 L 6772,2392 6742,2404 6683,2425 6668,2430 6668,2430 6652,2436 6622,2446 6589,2455 6557,2463 6259,1814 6284,1798 6310,1781 6339,1764 6367,1749 6367,1749 6369,1748 6399,1733 6429,1719 6457,1705 6484,1694 6521,1679 6556,1665 6574,1659 6574,1659 6591,1655 6625,1646 6641,1643 6657,1640 6673,1638 6688,1636 6702,1635 6717,1635 6730,1635 6744,1636 6758,1638 6771,1640 6783,1643 6795,1647 6806,1651 6815,1655 6816,1656 6818,1656 6828,1662 6838,1668 6847,1676 6856,1685 6865,1693 6872,1703 6880,1714 6886,1725 6893,1738 6898,1751 6902,1761 6905,1772 6906,1782 6907,1792 6908,1803 6907,1813 6906,1823 6904,1833 6901,1843 6897,1853 6894,1858 6893,1860 6893,1863 6888,1874 6882,1884 6875,1894 6868,1905 6860,1915 6879,1914 6898,1915 6915,1917 6915,1917 6916,1917 6932,1920 6946,1925 6960,1931 6966,1934 6972,1938 6978,1941 6983,1945 6993,1954 7003,1963 7012,1973 7020,1983 7028,1994 7034,2007 7041,2019 7046,2032 7055,2058 7059,2085 7061,2098 7061,2110 7061,2123 7060,2135 7058,2147 7055,2159 7052,2171 7047,2182 7042,2193 7036,2205 7030,2213 7029,2215 7030,2215 7022,2226 7014,2237 7006,2248 6996,2258 6985,2269 6975,2279 6963,2288 6936,2308 6907,2326 6875,2344 6839,2362 6800,2380 Z"/>
        <path fill="none" stroke="rgb(250,250,250)" stroke-width="53" stroke-linejoin="miter" d="M 6588,2110 L 6664,2285 6673,2282 6683,2279 6703,2272 6714,2268 6725,2263 6750,2253 6767,2245 6784,2237 6798,2229 6807,2223 6807,2223 6813,2220 6826,2212 6838,2204 6849,2194 6859,2185 6864,2180 6868,2175 6872,2170 6875,2165 6877,2160 6879,2155 6881,2149 6882,2144 6883,2138 6883,2132 6883,2126 6882,2120 6881,2114 6880,2107 6875,2094 6870,2083 6864,2073 6861,2068 6857,2065 6853,2061 6850,2057 6845,2054 6841,2051 6837,2049 6832,2047 6827,2045 6822,2043 6816,2042 6810,2041 6805,2041 6798,2040 6785,2041 6771,2042 6757,2045 6741,2049 6735,2050 6735,2050 6726,2053 6710,2059 6692,2066 6588,2110 Z"/>
        <path fill="none" stroke="rgb(250,250,250)" stroke-width="53" stroke-linejoin="miter" d="M 6538,1994 L 6620,1960 6638,1952 6655,1943 6670,1935 6685,1927 6684,1926 6684,1925 6697,1919 6707,1911 6716,1904 6720,1900 6724,1895 6727,1892 6729,1887 6732,1883 6735,1879 6736,1875 6738,1870 6739,1866 6740,1862 6740,1857 6741,1852 6740,1848 6740,1843 6737,1833 6735,1823 6730,1814 6725,1805 6721,1801 6719,1798 6715,1794 6712,1792 6707,1789 6703,1787 6699,1785 6695,1783 6691,1782 6686,1780 6680,1780 6675,1779 6670,1779 6664,1780 6653,1780 6640,1782 6627,1784 6626,1784 6626,1784 6613,1788 6598,1793 6581,1799 6565,1806 6518,1826 6505,1831 6494,1837 6484,1842 6474,1847 6538,1994 Z"/>
        <path fill="none" stroke="rgb(250,250,250)" stroke-width="53" stroke-linejoin="miter" d="M 7544,2098 L 7442,2130 7442,2130 7386,2149 7209,1618 7269,1598 7269,1598 7378,1564 7544,2098 Z"/>
        <path fill="none" stroke="rgb(250,250,250)" stroke-width="53" stroke-linejoin="miter" d="M 7346,1406 L 7349,1416 7350,1426 7351,1436 7350,1445 7348,1454 7347,1459 7345,1463 7343,1468 7341,1472 7339,1476 7336,1481 7330,1488 7323,1496 7316,1502 7312,1506 7309,1508 7304,1511 7300,1513 7296,1516 7291,1519 7286,1521 7281,1523 7277,1525 7272,1526 7267,1528 7261,1529 7257,1530 7251,1531 7247,1532 7247,1532 7247,1532 7242,1532 7236,1533 7232,1533 7222,1532 7212,1531 7202,1529 7193,1526 7188,1525 7183,1522 7179,1520 7175,1518 7171,1515 7168,1512 7161,1505 7154,1499 7150,1490 7144,1482 7141,1471 7137,1461 7136,1451 7135,1442 7136,1431 7138,1423 7138,1418 7140,1413 7142,1409 7144,1404 7146,1401 7149,1396 7155,1388 7162,1381 7170,1373 7173,1370 7177,1366 7181,1364 7186,1361 7190,1358 7190,1357 7190,1357 7194,1356 7199,1354 7204,1352 7209,1350 7214,1348 7219,1347 7225,1346 7230,1344 7235,1343 7240,1343 7246,1342 7250,1342 7256,1342 7260,1342 7265,1343 7276,1344 7285,1346 7295,1350 7300,1351 7304,1353 7308,1356 7312,1358 7316,1361 7320,1365 7327,1370 7333,1378 7338,1386 7343,1395 7346,1406 Z"/>
        <path fill="none" stroke="rgb(250,250,250)" stroke-width="53" stroke-linejoin="miter" d="M 7558,1366 L 7654,1323 7654,1322 7725,1294 7767,1453 7909,1417 7909,1417 7973,1402 8003,1530 7941,1545 7941,1545 7801,1581 7850,1771 7854,1783 7857,1794 7862,1804 7867,1814 7871,1822 7877,1830 7883,1838 7889,1844 7892,1847 7895,1850 7899,1852 7904,1854 7908,1855 7912,1856 7917,1858 7921,1859 7926,1859 7932,1859 7937,1859 7944,1859 7949,1858 7955,1856 7969,1854 7982,1850 7996,1846 8009,1841 8013,1839 8013,1838 8022,1835 8035,1830 8048,1824 8059,1817 8070,1811 8121,1926 8107,1935 8093,1943 8077,1952 8061,1960 8052,1964 8044,1966 8044,1967 8043,1968 8033,1972 8023,1976 8012,1979 8000,1983 7976,1990 7960,1994 7944,1998 7929,2000 7915,2001 7901,2003 7888,2003 7875,2002 7863,2001 7851,2000 7840,1998 7837,1997 7837,1997 7830,1995 7819,1992 7809,1988 7799,1983 7790,1979 7781,1973 7773,1968 7765,1961 7757,1954 7750,1946 7743,1938 7736,1929 7730,1920 7724,1910 7713,1890 7703,1867 7695,1843 7687,1818 7558,1366 Z"/>
        <path fill="none" stroke="rgb(250,250,250)" stroke-width="53" stroke-linejoin="miter" d="M 8217,1633 L 8214,1618 8212,1604 8211,1589 8210,1574 8210,1560 8211,1546 8212,1531 8214,1517 8218,1503 8221,1489 8225,1476 8230,1462 8236,1449 8242,1437 8248,1425 8256,1413 8264,1401 8274,1390 8284,1379 8294,1369 8305,1359 8317,1348 8329,1340 8342,1331 8344,1329 8345,1328 8356,1323 8371,1315 8386,1308 8402,1302 8418,1297 8435,1291 8453,1287 8471,1283 8496,1280 8507,1279 8519,1277 8530,1276 8542,1276 8552,1276 8560,1275 8562,1275 8563,1276 8584,1277 8605,1280 8626,1282 8646,1286 8631,1417 8618,1414 8604,1412 8589,1411 8584,1410 8583,1409 8575,1410 8567,1410 8559,1410 8552,1410 8544,1411 8535,1412 8526,1412 8509,1415 8500,1417 8491,1419 8482,1422 8474,1425 8466,1428 8458,1431 8451,1434 8445,1438 8438,1442 8432,1446 8426,1451 8421,1456 8416,1462 8412,1467 8408,1472 8404,1479 8397,1492 8392,1504 8387,1518 8385,1533 8384,1533 8384,1536 8384,1548 8384,1565 8386,1581 8388,1598 8393,1616 8397,1633 8403,1648 8407,1658 8409,1662 8410,1662 8417,1675 8426,1687 8435,1698 8440,1702 8445,1707 8450,1711 8456,1714 8462,1718 8468,1721 8475,1724 8482,1725 8490,1727 8497,1729 8505,1730 8513,1731 8522,1731 8531,1731 8550,1729 8570,1726 8586,1724 8601,1720 8618,1716 8633,1711 8634,1710 8633,1710 8651,1705 8658,1701 8667,1698 8674,1695 8681,1692 8688,1687 8695,1683 8738,1808 8731,1813 8724,1816 8707,1824 8690,1831 8670,1839 8656,1844 8655,1844 8648,1846 8626,1853 8602,1859 8577,1864 8558,1867 8539,1869 8521,1871 8503,1871 8485,1871 8468,1870 8452,1868 8448,1867 8447,1867 8437,1865 8422,1863 8408,1859 8394,1854 8380,1850 8367,1844 8355,1838 8343,1831 8331,1824 8321,1816 8310,1807 8300,1798 8291,1788 8282,1778 8273,1768 8266,1756 8258,1744 8251,1731 8245,1718 8239,1705 8234,1691 8225,1663 8217,1633 Z"/>
        <path fill="none" stroke="rgb(250,250,250)" stroke-width="53" stroke-linejoin="miter" d="M 9462,1460 L 9463,1477 9462,1478 9463,1482 9463,1493 9462,1508 9461,1524 9459,1539 9456,1554 9453,1569 9449,1583 9445,1596 9440,1610 9434,1623 9428,1635 9422,1647 9414,1659 9406,1670 9398,1680 9389,1690 9380,1700 9369,1709 9358,1718 9347,1726 9336,1734 9324,1741 9311,1747 9298,1754 9285,1759 9273,1762 9272,1763 9271,1764 9256,1768 9242,1772 9227,1775 9212,1778 9195,1780 9180,1781 9164,1781 9149,1781 9134,1781 9119,1779 9104,1777 9090,1774 9076,1770 9064,1766 9064,1766 9063,1766 9050,1762 9037,1756 9025,1751 9013,1744 9001,1737 8990,1729 8979,1721 8969,1713 8959,1704 8949,1694 8940,1684 8932,1672 8923,1661 8916,1649 8908,1636 8901,1623 8895,1610 8890,1596 8885,1581 8881,1566 8877,1551 8871,1519 8869,1503 8868,1487 8868,1471 8868,1456 8869,1441 8871,1426 8874,1411 8878,1397 8882,1383 8886,1370 8892,1356 8899,1344 8905,1331 8912,1320 8920,1309 8929,1297 8938,1287 8948,1277 8958,1267 8969,1258 8980,1250 8992,1241 9003,1233 9003,1233 9004,1233 9018,1226 9032,1220 9046,1214 9060,1209 9075,1204 9090,1201 9106,1197 9121,1194 9138,1193 9154,1191 9171,1191 9187,1191 9203,1191 9219,1193 9222,1193 9223,1193 9234,1196 9248,1199 9263,1203 9277,1207 9291,1212 9305,1218 9318,1224 9330,1231 9342,1238 9354,1246 9365,1255 9375,1264 9385,1273 9395,1283 9402,1294 9410,1305 9418,1317 9425,1330 9432,1342 9438,1356 9444,1369 9448,1383 9452,1398 9456,1413 9459,1428 9461,1444 9462,1460 Z"/>
        <path fill="none" stroke="rgb(250,250,250)" stroke-width="53" stroke-linejoin="miter" d="M 9288,1474 L 9286,1456 9283,1439 9279,1424 9275,1410 9268,1396 9262,1384 9254,1372 9246,1362 9242,1357 9237,1352 9237,1352 9236,1352 9232,1348 9227,1345 9222,1341 9216,1339 9210,1336 9205,1334 9198,1332 9192,1331 9186,1329 9180,1328 9172,1328 9165,1328 9158,1328 9151,1329 9144,1329 9137,1331 9130,1332 9124,1334 9117,1336 9111,1339 9105,1342 9099,1345 9094,1347 9090,1352 9085,1355 9080,1360 9076,1364 9071,1369 9067,1374 9064,1380 9057,1392 9052,1404 9048,1418 9045,1432 9043,1447 9043,1463 9043,1480 9045,1497 9047,1515 9050,1532 9054,1548 9060,1563 9065,1576 9073,1588 9080,1600 9089,1611 9094,1616 9098,1620 9104,1624 9108,1627 9113,1631 9118,1634 9125,1637 9130,1638 9136,1641 9142,1642 9148,1643 9154,1644 9161,1644 9168,1645 9175,1645 9182,1644 9189,1643 9196,1642 9202,1640 9209,1639 9215,1637 9220,1634 9226,1632 9232,1628 9237,1625 9242,1622 9247,1617 9251,1613 9255,1609 9258,1604 9259,1604 9259,1603 9263,1599 9266,1593 9272,1581 9278,1568 9282,1555 9286,1540 9287,1525 9289,1508 9289,1491 9288,1474 Z"/>
        <path fill="none" stroke="rgb(250,250,250)" stroke-width="53" stroke-linejoin="miter" d="M 9919,1726 L 9896,1726 9895,1726 9753,1730 9736,1170 9888,1166 9889,1166 9914,1166 9919,1726 Z"/>
        <path fill="none" stroke="rgb(250,250,250)" stroke-width="53" stroke-linejoin="miter" d="M 9929,1005 L 9929,1016 9927,1026 9925,1035 9922,1044 9917,1052 9915,1056 9911,1060 9908,1064 9905,1067 9902,1071 9898,1074 9890,1079 9888,1080 9887,1080 9881,1085 9872,1089 9868,1091 9864,1093 9859,1095 9854,1096 9849,1097 9844,1098 9839,1099 9834,1099 9828,1100 9823,1100 9818,1100 9813,1100 9807,1100 9802,1099 9798,1098 9793,1097 9788,1096 9783,1095 9774,1091 9764,1087 9756,1082 9747,1077 9743,1074 9740,1070 9737,1067 9733,1063 9730,1060 9728,1056 9723,1048 9719,1039 9716,1030 9714,1020 9714,1009 9713,998 9715,988 9717,979 9721,970 9725,962 9727,957 9730,953 9733,950 9736,946 9739,943 9743,940 9752,934 9760,929 9770,924 9774,921 9779,920 9783,918 9789,917 9794,916 9798,915 9803,914 9809,914 9814,913 9819,913 9825,913 9830,913 9835,913 9841,914 9846,914 9851,916 9856,917 9861,918 9865,919 9870,922 9879,926 9885,928 9886,929 9888,931 9896,937 9901,940 9904,943 9907,947 9910,950 9914,954 9916,958 9921,966 9924,975 9927,985 9929,995 9929,1005 Z"/>
        <path fill="none" stroke="rgb(250,250,250)" stroke-width="53" stroke-linejoin="miter" d="M 10147,1187 L 10171,1182 10199,1177 10230,1172 10265,1168 10300,1164 10332,1161 10332,1161 10338,1162 10376,1162 10414,1163 10434,1164 10453,1167 10470,1168 10487,1172 10503,1175 10518,1179 10533,1183 10546,1189 10554,1192 10554,1192 10558,1194 10570,1200 10581,1207 10592,1214 10602,1222 10610,1230 10618,1238 10626,1247 10632,1256 10638,1266 10644,1276 10648,1287 10653,1297 10657,1308 10660,1319 10662,1331 10666,1356 10669,1382 10669,1408 10668,1436 10643,1751 10519,1741 10519,1741 10477,1739 10495,1443 10496,1424 10496,1407 10495,1392 10492,1377 10490,1364 10488,1352 10483,1342 10481,1337 10479,1333 10476,1329 10473,1325 10469,1322 10466,1319 10462,1315 10457,1313 10453,1310 10448,1308 10442,1306 10437,1304 10431,1302 10425,1301 10419,1299 10412,1299 10398,1298 10388,1297 10378,1297 10358,1297 10348,1297 10337,1298 10327,1297 10327,1298 10320,1299 10304,1731 10138,1727 10147,1187 Z"/>
        <path fill="none" stroke="rgb(250,250,250)" stroke-width="53" stroke-linejoin="miter" d="M 11755,1914 L 11754,1909 11755,1908 11745,1831 11733,1746 11580,1715 11579,1715 11433,1689 11389,1763 11350,1836 11345,1835 11344,1835 11171,1809 11286,1603 11395,1428 11417,1392 11418,1389 11499,1273 11607,1133 11688,1147 11689,1148 11784,1167 11830,1336 11872,1520 11906,1722 11937,1955 11755,1914 Z"/>
        <path fill="none" stroke="rgb(250,250,250)" stroke-width="53" stroke-linejoin="miter" d="M 11659,1312 L 11656,1316 11655,1318 11649,1329 11641,1340 11634,1352 11596,1410 11548,1482 11496,1566 11604,1585 11605,1585 11719,1609 11702,1512 11684,1427 11669,1358 11664,1332 11662,1321 11659,1312 Z"/>
        <path fill="none" stroke="rgb(250,250,250)" stroke-width="53" stroke-linejoin="miter" d="M 12385,1957 L 12389,1958 12390,1958 12396,1960 12405,1962 12415,1965 12424,1967 12431,1968 12439,1969 12445,1968 12447,1968 12450,1968 12452,1968 12455,1968 12458,1967 12459,1965 12461,1965 12464,1964 12465,1962 12467,1961 12468,1959 12470,1957 12472,1955 12473,1953 12476,1948 12478,1942 12478,1940 12479,1938 12479,1935 12478,1933 12479,1931 12479,1929 12477,1926 12477,1924 12476,1921 12474,1919 12473,1916 12472,1914 12471,1911 12468,1909 12464,1903 12458,1897 12453,1892 12445,1885 12438,1879 12420,1865 12419,1863 12418,1863 12400,1850 12383,1838 12367,1826 12352,1814 12338,1802 12331,1796 12326,1791 12319,1785 12313,1778 12308,1772 12303,1766 12299,1760 12294,1753 12290,1746 12287,1740 12284,1732 12281,1726 12278,1718 12276,1711 12274,1703 12273,1696 12272,1687 12272,1679 12271,1671 12272,1663 12274,1653 12275,1644 12279,1625 12285,1607 12293,1591 12303,1576 12308,1569 12314,1562 12320,1556 12327,1550 12333,1545 12340,1539 12349,1535 12357,1530 12365,1527 12375,1523 12384,1521 12394,1518 12404,1516 12414,1514 12425,1513 12436,1512 12447,1511 12459,1511 12482,1513 12507,1516 12521,1518 12522,1518 12533,1521 12560,1529 12586,1538 12612,1548 12637,1559 12649,1564 12661,1570 12683,1582 12703,1594 12720,1604 12726,1608 12726,1608 12728,1610 12734,1614 12715,1641 12714,1643 12667,1722 12654,1713 12640,1704 12624,1695 12609,1686 12601,1682 12592,1678 12584,1674 12575,1670 12565,1665 12554,1662 12534,1655 12515,1650 12507,1648 12499,1647 12492,1646 12485,1646 12484,1646 12483,1645 12478,1646 12472,1647 12467,1648 12462,1650 12458,1653 12454,1655 12451,1659 12448,1662 12446,1666 12444,1671 12443,1673 12443,1676 12442,1678 12443,1680 12442,1682 12442,1684 12443,1686 12443,1689 12444,1690 12444,1693 12445,1695 12446,1697 12447,1699 12449,1701 12450,1704 12452,1706 12454,1709 12457,1712 12461,1716 12461,1716 12462,1716 12475,1728 12483,1735 12492,1743 12514,1759 12537,1776 12557,1793 12576,1808 12592,1823 12599,1830 12606,1837 12612,1844 12617,1851 12622,1858 12627,1865 12631,1872 12635,1878 12636,1883 12636,1883 12638,1885 12640,1892 12644,1899 12645,1906 12646,1913 12647,1920 12648,1927 12648,1934 12648,1941 12647,1948 12646,1956 12645,1963 12641,1979 12637,1995 12630,2014 12621,2031 12615,2039 12610,2046 12605,2053 12598,2059 12592,2066 12585,2071 12578,2075 12573,2076 12573,2077 12570,2080 12562,2084 12554,2088 12545,2091 12536,2094 12526,2097 12516,2099 12506,2100 12496,2101 12474,2102 12451,2101 12426,2098 12401,2094 12375,2088 12354,2081 12353,2081 12347,2080 12312,2069 12295,2064 12280,2058 12264,2051 12251,2045 12239,2039 12226,2033 12205,2020 12187,2009 12173,2001 12167,1997 12163,1993 12223,1876 12242,1890 12261,1901 12281,1913 12302,1924 12323,1934 12343,1943 12353,1946 12364,1950 12374,1954 12385,1957 Z"/>
        <path fill="none" stroke="rgb(250,250,250)" stroke-width="53" stroke-linejoin="miter" d="M 13001,2166 L 13012,2171 13021,2174 13031,2177 13039,2179 13047,2181 13054,2182 13060,2182 13062,2182 13065,2183 13067,2183 13071,2183 13073,2182 13074,2181 13077,2180 13079,2179 13081,2178 13082,2176 13084,2175 13086,2173 13088,2171 13090,2169 13092,2165 13095,2159 13096,2157 13096,2155 13096,2152 13096,2150 13097,2147 13097,2146 13096,2143 13096,2140 13095,2137 13093,2135 13092,2132 13091,2130 13090,2127 13088,2125 13084,2119 13079,2113 13074,2107 13067,2100 13060,2093 13044,2077 13027,2062 13026,2061 13024,2061 13008,2047 12994,2034 12980,2021 12966,2008 12960,2002 12955,1996 12949,1989 12944,1983 12939,1976 12935,1970 12931,1963 12927,1956 12923,1949 12920,1942 12918,1935 12916,1928 12913,1920 12912,1913 12910,1905 12910,1897 12910,1889 12910,1881 12910,1873 12912,1864 12914,1855 12916,1846 12922,1828 12929,1810 12938,1794 12949,1780 12954,1773 12961,1767 12967,1761 12975,1756 12982,1751 12989,1746 12998,1743 13006,1739 13015,1736 13025,1733 13034,1731 13044,1729 13054,1728 13065,1727 13076,1726 13087,1726 13098,1726 13110,1727 13133,1731 13151,1735 13152,1735 13157,1736 13182,1743 13209,1753 13235,1764 13260,1776 13284,1789 13295,1795 13307,1802 13328,1815 13347,1829 13352,1832 13352,1832 13363,1840 13370,1846 13376,1851 13306,1945 13305,1947 13301,1954 13289,1944 13275,1934 13261,1924 13246,1914 13238,1909 13230,1904 13222,1899 13213,1895 13204,1890 13193,1885 13174,1877 13155,1870 13147,1868 13139,1866 13132,1865 13125,1864 13119,1863 13113,1864 13107,1865 13102,1865 13102,1866 13101,1866 13098,1868 13094,1870 13090,1874 13087,1877 13085,1881 13083,1886 13082,1888 13081,1890 13080,1892 13081,1894 13080,1896 13080,1899 13080,1901 13080,1903 13081,1905 13081,1907 13081,1909 13083,1911 13083,1913 13084,1914 13084,1914 13085,1916 13086,1919 13087,1921 13090,1924 13092,1927 13096,1932 13109,1946 13117,1953 13124,1961 13145,1979 13167,1998 13186,2016 13203,2033 13218,2049 13225,2056 13231,2064 13237,2071 13241,2079 13246,2085 13247,2088 13247,2088 13250,2093 13254,2100 13256,2107 13259,2114 13261,2122 13264,2129 13265,2136 13265,2143 13266,2150 13266,2157 13265,2164 13264,2171 13263,2178 13261,2186 13260,2193 13255,2208 13249,2224 13241,2242 13231,2259 13225,2266 13219,2272 13213,2279 13206,2285 13199,2291 13192,2296 13184,2300 13176,2304 13168,2307 13160,2310 13155,2310 13155,2311 13150,2313 13141,2315 13130,2317 13121,2318 13111,2319 13100,2319 13078,2318 13056,2315 13031,2311 13007,2305 12981,2296 12954,2286 12943,2281 12942,2281 12919,2272 12903,2266 12888,2259 12874,2251 12861,2244 12849,2237 12837,2229 12817,2215 12799,2203 12786,2194 12781,2189 12777,2185 12846,2073 12864,2088 12882,2101 12901,2115 12921,2127 12941,2138 12960,2149 12970,2153 12981,2158 12991,2162 13001,2166 Z"/>
        <path fill="none" stroke="rgb(250,250,250)" stroke-width="53" stroke-linejoin="miter" d="M 14021,2448 L 14013,2462 14004,2476 13995,2488 13986,2501 13976,2513 13966,2524 13956,2535 13945,2545 13934,2554 13923,2563 13911,2571 13899,2579 13888,2586 13875,2591 13862,2596 13850,2601 13837,2605 13824,2608 13811,2611 13797,2612 13783,2613 13770,2614 13756,2614 13741,2612 13726,2611 13713,2608 13708,2606 13707,2606 13698,2605 13683,2601 13669,2597 13655,2592 13640,2586 13625,2579 13611,2572 13598,2564 13585,2556 13573,2548 13561,2538 13550,2529 13539,2519 13529,2508 13526,2504 13526,2504 13520,2498 13511,2487 13504,2476 13496,2465 13488,2453 13482,2441 13477,2429 13472,2416 13468,2403 13464,2391 13461,2377 13459,2363 13457,2349 13456,2335 13456,2321 13456,2306 13457,2292 13460,2278 13462,2263 13466,2247 13470,2232 13475,2217 13487,2187 13493,2173 13501,2158 13509,2145 13517,2132 13526,2120 13536,2108 13546,2098 13556,2087 13567,2078 13578,2068 13590,2060 13602,2053 13614,2046 13626,2039 13639,2034 13652,2029 13666,2025 13680,2022 13693,2019 13707,2017 13721,2016 13736,2014 13750,2014 13757,2014 13758,2013 13766,2016 13781,2018 13796,2020 13811,2023 13826,2027 13841,2032 13856,2037 13870,2043 13885,2050 13900,2057 13914,2066 13929,2074 13941,2083 13954,2093 13962,2100 13963,2100 13965,2103 13976,2114 13987,2124 13996,2135 14006,2147 14014,2159 14022,2171 14029,2183 14035,2196 14041,2209 14046,2221 14050,2235 14053,2248 14056,2261 14057,2275 14058,2288 14059,2303 14058,2317 14057,2331 14055,2346 14053,2361 14049,2375 14045,2389 14040,2404 14035,2419 14028,2433 14021,2448 Z"/>
        <path fill="none" stroke="rgb(250,250,250)" stroke-width="53" stroke-linejoin="miter" d="M 13865,2368 L 13873,2351 13879,2336 13884,2321 13888,2306 13889,2292 13891,2278 13890,2263 13889,2250 13888,2249 13888,2247 13887,2244 13886,2238 13883,2232 13881,2226 13878,2221 13875,2216 13871,2210 13868,2205 13863,2200 13859,2196 13855,2191 13850,2187 13844,2183 13838,2179 13831,2175 13825,2172 13819,2169 13812,2167 13805,2164 13799,2162 13792,2161 13786,2160 13779,2159 13773,2159 13767,2159 13761,2160 13755,2160 13749,2162 13742,2163 13736,2165 13730,2167 13724,2170 13712,2176 13701,2185 13690,2194 13681,2205 13671,2216 13662,2229 13653,2244 13646,2260 13638,2276 13633,2292 13628,2308 13624,2323 13622,2338 13622,2352 13622,2366 13624,2380 13625,2386 13627,2392 13629,2398 13631,2404 13634,2409 13637,2415 13641,2420 13644,2425 13648,2430 13653,2434 13657,2439 13662,2442 13668,2446 13673,2450 13679,2454 13685,2457 13692,2460 13698,2462 13705,2464 13711,2467 13717,2468 13724,2468 13730,2470 13736,2469 13742,2469 13748,2469 13755,2468 13761,2467 13766,2465 13773,2463 13778,2461 13782,2458 13783,2457 13784,2458 13796,2450 13807,2443 13818,2433 13828,2423 13838,2411 13848,2398 13856,2383 13865,2368 Z"/>
        <path fill="none" stroke="rgb(250,250,250)" stroke-width="53" stroke-linejoin="miter" d="M 14244,2573 L 14251,2559 14259,2547 14269,2536 14278,2524 14287,2513 14298,2503 14308,2493 14319,2484 14331,2476 14343,2468 14354,2460 14367,2454 14380,2448 14393,2443 14406,2438 14420,2435 14434,2431 14449,2429 14464,2428 14477,2427 14493,2427 14508,2427 14523,2429 14539,2430 14540,2430 14541,2431 14555,2434 14571,2438 14587,2443 14603,2449 14618,2456 14634,2463 14651,2472 14667,2481 14688,2495 14697,2502 14706,2508 14716,2515 14724,2522 14732,2530 14737,2534 14737,2534 14740,2537 14755,2552 14769,2568 14783,2583 14796,2600 14696,2687 14689,2676 14680,2666 14670,2655 14664,2648 14664,2648 14659,2644 14654,2639 14648,2634 14642,2629 14636,2624 14629,2619 14622,2614 14607,2605 14599,2600 14591,2596 14583,2592 14574,2588 14566,2585 14558,2582 14551,2580 14544,2578 14536,2577 14528,2576 14521,2576 14514,2576 14506,2577 14500,2578 14493,2580 14486,2582 14472,2587 14460,2593 14447,2600 14436,2610 14430,2614 14428,2616 14425,2620 14414,2632 14405,2646 14395,2660 14386,2677 14378,2692 14372,2707 14371,2712 14370,2715 14368,2722 14365,2737 14363,2751 14363,2765 14363,2772 14364,2779 14365,2785 14367,2792 14369,2799 14372,2805 14375,2811 14379,2818 14384,2824 14388,2830 14393,2836 14399,2842 14406,2848 14412,2854 14427,2865 14445,2877 14458,2885 14472,2893 14487,2900 14500,2905 14500,2905 14502,2907 14519,2914 14527,2917 14535,2920 14543,2922 14551,2925 14558,2926 14566,2928 14515,3050 14507,3048 14499,3046 14482,3041 14464,3035 14443,3027 14428,3019 14427,3019 14422,3018 14401,3008 14380,2996 14358,2984 14342,2974 14326,2962 14311,2951 14297,2940 14285,2928 14273,2916 14262,2904 14259,2899 14258,2898 14252,2892 14243,2880 14235,2867 14227,2855 14220,2843 14214,2829 14209,2817 14205,2803 14201,2790 14198,2777 14196,2764 14195,2750 14195,2737 14195,2723 14196,2710 14198,2696 14200,2682 14204,2668 14207,2654 14212,2641 14217,2627 14229,2600 14244,2573 Z"/>
        <path fill="none" stroke="rgb(250,250,250)" stroke-width="53" stroke-linejoin="miter" d="M 14828,3280 L 14778,3243 14778,3243 14692,3185 15011,2725 15102,2788 15102,2788 15155,2827 14828,3280 Z"/>
        <path fill="none" stroke="rgb(250,250,250)" stroke-width="53" stroke-linejoin="miter" d="M 15263,2706 L 15257,2715 15249,2722 15242,2728 15235,2733 15226,2737 15222,2739 15217,2740 15212,2741 15208,2742 15203,2743 15198,2743 15188,2743 15178,2742 15168,2740 15163,2739 15159,2738 15154,2736 15150,2734 15145,2732 15143,2731 15143,2731 15140,2730 15136,2728 15131,2725 15127,2722 15122,2719 15118,2716 15114,2713 15110,2710 15106,2706 15103,2703 15100,2699 15096,2695 15093,2692 15088,2683 15082,2675 15078,2666 15074,2656 15073,2652 15072,2647 15072,2642 15071,2637 15071,2632 15071,2628 15073,2619 15074,2609 15077,2600 15081,2591 15088,2582 15094,2573 15101,2566 15108,2560 15117,2555 15125,2551 15129,2548 15134,2547 15138,2546 15143,2545 15147,2544 15153,2544 15163,2544 15173,2545 15183,2546 15188,2547 15194,2549 15198,2550 15203,2552 15208,2554 15212,2556 15217,2558 15221,2561 15226,2564 15230,2567 15235,2570 15239,2573 15243,2576 15247,2580 15249,2581 15249,2581 15251,2584 15254,2588 15257,2591 15261,2596 15263,2599 15265,2604 15270,2613 15275,2622 15278,2632 15279,2637 15280,2641 15281,2646 15281,2651 15282,2656 15281,2661 15280,2670 15278,2679 15274,2688 15270,2697 15263,2706 Z"/>
        <path fill="none" stroke="rgb(250,250,250)" stroke-width="53" stroke-linejoin="miter" d="M 15250,3463 L 15259,3471 15268,3477 15287,3492 15296,3498 15304,3503 15311,3508 15314,3510 15317,3511 15393,3419 15392,3417 15390,3415 15385,3410 15372,3396 15364,3389 15358,3383 15351,3377 15344,3371 15335,3364 15325,3357 15317,3350 15311,3347 15307,3344 15303,3342 15298,3339 15294,3337 15289,3335 15285,3333 15280,3332 15276,3330 15272,3330 15268,3328 15263,3328 15259,3328 15255,3327 15251,3328 15247,3328 15243,3329 15241,3328 15241,3328 15240,3330 15236,3331 15232,3333 15229,3335 15225,3337 15222,3339 15220,3342 15216,3345 15213,3349 15207,3356 15204,3364 15203,3367 15201,3371 15199,3374 15199,3378 15199,3382 15198,3382 15198,3382 15198,3385 15198,3388 15198,3392 15199,3396 15200,3399 15201,3403 15202,3406 15205,3413 15210,3420 15214,3428 15220,3434 15226,3441 15232,3448 15240,3456 15250,3463 Z"/>
        <path fill="none" stroke="rgb(250,250,250)" stroke-width="53" stroke-linejoin="miter" d="M 15530,3093 L 15544,3105 15558,3117 15571,3129 15583,3141 15595,3153 15604,3165 15613,3176 15621,3188 15628,3197 15628,3197 15628,3198 15635,3210 15640,3221 15645,3232 15649,3244 15652,3254 15654,3266 15656,3276 15657,3287 15657,3297 15656,3308 15655,3319 15653,3329 15650,3339 15647,3349 15643,3360 15632,3380 15620,3401 15606,3420 15590,3440 15376,3690 15289,3639 15275,3630 15271,3627 15271,3627 15261,3622 15230,3601 15198,3578 15163,3551 15142,3533 15123,3515 15107,3498 15107,3498 15106,3497 15097,3488 15089,3479 15082,3471 15075,3462 15069,3452 15064,3443 15058,3434 15053,3424 15049,3415 15046,3406 15043,3397 15040,3387 15039,3378 15038,3368 15037,3358 15038,3349 15038,3339 15039,3329 15041,3320 15044,3310 15048,3300 15053,3290 15057,3281 15063,3270 15070,3260 15077,3250 15084,3240 15092,3231 15100,3224 15108,3217 15117,3210 15126,3205 15135,3200 15144,3196 15153,3193 15162,3190 15172,3189 15182,3188 15192,3187 15202,3187 15211,3187 15222,3188 15232,3190 15243,3193 15253,3195 15263,3198 15274,3202 15284,3206 15294,3210 15305,3215 15316,3221 15323,3224 15323,3224 15325,3226 15336,3233 15346,3239 15356,3246 15366,3253 15386,3268 15399,3278 15410,3289 15421,3298 15431,3308 15440,3316 15447,3325 15454,3333 15459,3339 15468,3328 15475,3320 15479,3311 15484,3304 15487,3296 15488,3287 15489,3283 15490,3279 15490,3275 15490,3270 15489,3265 15489,3261 15488,3256 15487,3252 15485,3247 15483,3242 15481,3238 15478,3234 15475,3228 15472,3224 15468,3219 15464,3214 15454,3203 15444,3194 15431,3183 15413,3169 15396,3157 15384,3148 15383,3148 15378,3145 15359,3133 15341,3123 15323,3114 15305,3107 15298,3104 15290,3101 15350,2985 15386,3003 15396,3008 15408,3013 15419,3019 15431,3026 15481,3056 15494,3065 15505,3074 15518,3083 15530,3093 Z"/>
        <path fill="none" stroke="rgb(250,250,250)" stroke-width="53" stroke-linejoin="miter" d="M 16043,3368 L 16062,3380 16063,3379 16192,3472 16078,3591 16127,3637 16127,3638 16231,3739 16138,3832 16036,3732 16035,3731 15987,3687 15852,3829 15843,3838 15836,3847 15830,3856 15824,3865 15819,3873 15816,3883 15813,3891 15810,3900 15809,3904 15809,3908 15809,3912 15810,3917 15811,3922 15812,3926 15813,3930 15815,3935 15817,3939 15820,3944 15824,3948 15824,3949 15825,3950 15827,3954 15830,3958 15835,3962 15844,3973 15854,3982 15865,3992 15876,4001 15887,4009 15898,4017 15910,4024 15922,4031 15933,4036 15863,4140 15848,4133 15833,4125 15817,4116 15802,4107 15794,4102 15785,4097 15776,4090 15768,4083 15760,4076 15750,4067 15732,4050 15729,4048 15729,4048 15720,4039 15708,4027 15699,4016 15690,4004 15681,3993 15674,3983 15668,3971 15662,3960 15657,3950 15653,3940 15650,3929 15647,3918 15645,3907 15644,3897 15643,3887 15643,3876 15644,3866 15645,3856 15648,3845 15650,3835 15654,3825 15653,3823 15653,3823 15658,3815 15662,3804 15667,3794 15678,3774 15693,3754 15709,3734 15726,3714 16043,3368 Z"/>
        <path fill="none" stroke="rgb(250,250,250)" stroke-width="53" stroke-linejoin="miter" d="M 16109,4421 L 16030,4334 16030,4334 15997,4299 16404,3915 16439,3952 16439,3952 16524,4045 16109,4421 Z"/>
        <path fill="none" stroke="rgb(250,250,250)" stroke-width="53" stroke-linejoin="miter" d="M 16655,3949 L 16647,3956 16638,3961 16630,3966 16621,3969 16612,3971 16607,3972 16602,3973 16597,3973 16593,3973 16588,3973 16583,3972 16573,3969 16564,3967 16554,3962 16550,3961 16546,3959 16541,3956 16538,3954 16533,3951 16529,3947 16525,3944 16521,3940 16517,3937 16514,3933 16510,3929 16507,3925 16504,3921 16501,3917 16499,3913 16496,3908 16493,3904 16493,3902 16493,3902 16491,3900 16488,3890 16484,3881 16482,3871 16480,3861 16480,3856 16480,3851 16480,3847 16481,3842 16482,3837 16483,3833 16486,3824 16489,3815 16495,3807 16501,3799 16508,3791 16516,3784 16525,3779 16533,3774 16543,3771 16551,3768 16556,3767 16561,3766 16566,3766 16571,3766 16575,3766 16580,3767 16591,3769 16600,3772 16610,3776 16615,3777 16619,3780 16623,3781 16623,3781 16623,3782 16628,3786 16632,3789 16636,3791 16640,3795 16644,3798 16648,3802 16651,3806 16655,3810 16658,3814 16662,3818 16665,3823 16668,3827 16670,3832 16672,3836 16675,3841 16677,3845 16678,3849 16681,3860 16683,3869 16684,3879 16685,3885 16685,3889 16684,3894 16684,3898 16683,3903 16681,3908 16679,3917 16674,3926 16669,3933 16663,3942 16655,3949 Z"/>
        <path fill="none" stroke="rgb(250,250,250)" stroke-width="53" stroke-linejoin="miter" d="M 16825,4841 L 16812,4850 16798,4859 16785,4867 16771,4875 16757,4882 16743,4887 16729,4892 16715,4897 16702,4901 16688,4904 16674,4906 16660,4908 16648,4908 16647,4909 16646,4908 16633,4909 16619,4908 16606,4907 16593,4905 16579,4903 16566,4900 16553,4895 16540,4890 16527,4885 16514,4879 16502,4872 16489,4864 16478,4856 16466,4847 16454,4837 16444,4827 16433,4816 16430,4813 16430,4812 16422,4805 16411,4793 16401,4781 16393,4768 16384,4755 16376,4742 16370,4729 16363,4715 16358,4703 16353,4689 16349,4676 16346,4662 16344,4648 16341,4635 16340,4621 16340,4619 16340,4616 16339,4607 16340,4594 16341,4581 16342,4568 16344,4554 16347,4541 16350,4527 16355,4514 16360,4501 16366,4488 16372,4475 16379,4462 16387,4450 16396,4438 16406,4425 16416,4414 16426,4402 16450,4380 16462,4369 16475,4360 16488,4351 16501,4342 16514,4335 16528,4329 16542,4323 16556,4318 16570,4314 16584,4310 16598,4308 16612,4306 16626,4305 16640,4304 16653,4305 16668,4306 16681,4308 16695,4311 16702,4311 16704,4312 16709,4314 16722,4318 16736,4323 16749,4328 16762,4334 16776,4342 16788,4350 16801,4358 16813,4367 16826,4377 16838,4388 16849,4399 16860,4410 16870,4423 16881,4435 16889,4445 16889,4446 16890,4449 16899,4463 16907,4477 16914,4491 16920,4505 16926,4519 16931,4533 16935,4547 16938,4562 16941,4576 16943,4590 16944,4604 16945,4618 16945,4632 16944,4646 16942,4659 16939,4673 16936,4686 16935,4689 16935,4690 16931,4699 16927,4712 16921,4725 16914,4738 16907,4751 16899,4763 16891,4775 16881,4787 16872,4798 16861,4810 16850,4820 16838,4831 16825,4841 Z"/>
        <path fill="none" stroke="rgb(250,250,250)" stroke-width="53" stroke-linejoin="miter" d="M 16718,4703 L 16731,4691 16744,4680 16754,4668 16764,4656 16772,4644 16779,4632 16784,4618 16788,4606 16790,4600 16791,4594 16792,4587 16792,4581 16792,4575 16791,4569 16790,4562 16789,4556 16787,4550 16785,4544 16783,4537 16781,4532 16781,4532 16781,4532 16777,4526 16773,4520 16769,4514 16764,4508 16760,4503 16754,4498 16749,4493 16745,4488 16739,4484 16733,4481 16728,4477 16722,4474 16717,4472 16711,4470 16705,4468 16699,4467 16692,4465 16686,4464 16679,4464 16673,4464 16659,4465 16646,4468 16632,4472 16619,4478 16605,4484 16592,4492 16577,4501 16564,4513 16550,4524 16538,4536 16527,4548 16518,4561 16509,4573 16503,4586 16497,4598 16494,4612 16492,4618 16491,4624 16490,4631 16490,4637 16490,4643 16490,4649 16492,4655 16493,4661 16495,4667 16497,4673 16499,4679 16502,4684 16505,4690 16509,4696 16513,4702 16517,4707 16522,4712 16527,4717 16532,4722 16537,4727 16538,4726 16538,4727 16542,4730 16547,4734 16552,4737 16558,4740 16563,4742 16569,4745 16575,4747 16581,4748 16587,4749 16593,4750 16599,4750 16606,4750 16619,4748 16633,4746 16647,4742 16661,4737 16675,4730 16689,4722 16703,4713 16718,4703 Z"/>
        <path fill="none" stroke="rgb(250,250,250)" stroke-width="53" stroke-linejoin="miter" d="M 17204,4922 L 17222,4938 17243,4958 17265,4980 17274,4989 17275,4990 17289,5005 17312,5032 17336,5061 17358,5092 17380,5124 17391,5140 17401,5156 17408,5167 17408,5167 17410,5171 17417,5187 17424,5202 17429,5217 17434,5231 17437,5245 17440,5258 17442,5271 17443,5284 17444,5297 17443,5309 17442,5321 17440,5332 17438,5343 17434,5354 17430,5364 17425,5375 17419,5385 17413,5394 17407,5404 17400,5413 17392,5422 17373,5439 17354,5457 17333,5472 17310,5488 17040,5653 16952,5512 17202,5353 17217,5343 17231,5333 17243,5323 17253,5312 17263,5302 17271,5294 17277,5284 17279,5280 17281,5275 17283,5270 17284,5266 17285,5261 17286,5256 17286,5251 17286,5247 17286,5247 17285,5246 17285,5241 17284,5236 17282,5230 17280,5225 17278,5219 17275,5213 17273,5207 17269,5201 17262,5189 17256,5180 17251,5173 17239,5157 17232,5149 17226,5141 17214,5128 16856,5368 16761,5231 17204,4922 Z"/>
       </g>
      </g>
      <g class="com.sun.star.drawing.ClosedBezierShape">
       <g id="id6">
        <rect class="BoundingBox" stroke="none" fill="none" x="5400" y="4099" width="8649" height="11448"/>
        <path fill="rgb(247,147,26)" stroke="none" d="M 14025,8702 C 13895,9583 13406,10009 12759,10158 13648,10622 14101,11332 13671,12563 13135,14093 11863,14222 10172,13902 10035,14451 9898,14999 9761,15546 9431,15464 9100,15382 8769,15299 8905,14759 9040,14218 9175,13677 8917,13613 8655,13545 8384,13472 8249,14016 8114,14559 7978,15102 7647,15020 7317,14938 6987,14855 7124,14306 7261,13757 7398,13207 7165,13147 6931,13084 6691,13025 6260,12918 5831,12811 5400,12703 5564,12324 5728,11946 5892,11567 6133,11627 6623,11762 6613,11748 6894,11818 7018,11634 7067,11512 7284,10645 7500,9779 7717,8912 L 7719,8904 C 7718,8904 7718,8904 7718,8904 7872,8285 8026,7667 8181,7048 8193,6838 8120,6572 7719,6472 7734,6461 7238,6353 6998,6293 7086,5940 7174,5586 7262,5233 7718,5347 8174,5461 8629,5575 L 8629,5579 C 8835,5631 9045,5679 9262,5728 9397,5186 9533,4643 9667,4100 9998,4182 10328,4265 10659,4347 10526,4880 10394,5412 10261,5944 10527,6004 10795,6065 11056,6132 11187,5602 11320,5074 11452,4544 11782,4626 12113,4709 12443,4792 12307,5335 12172,5878 12037,6421 13288,6853 14205,7499 14025,8702 Z M 11759,11879 C 12080,10595 9923,10263 9252,10095 9069,10822 8887,11551 8706,12278 9379,12445 11453,13112 11759,11879 Z M 12065,8683 C 12357,7516 10554,7255 9994,7115 9829,7775 9665,8436 9500,9096 10060,9235 11785,9804 12065,8683 Z"/>
       </g>
      </g>
     </g>
    </g>
   </g>
  </g>
 </g>
</svg>