<?xml version="1.0" encoding="UTF-8"?>
<!DOCTYPE svg PUBLIC "-//W3C//DTD SVG 1.1//EN" "http://www.w3.org/Graphics/SVG/1.1/DTD/svg11.dtd">
<svg version="1.2" width="200mm" height="200mm" viewBox="0 0 20000 20000" preserveAspectRatio="xMidYMid" fill-rule="evenodd" stroke-width="28.222" stroke-linejoin="round" xmlns="http://www.w3.org/2000/svg" xmlns:ooo="http://xml.openoffice.org/svg/export" xmlns:xlink="http://www.w3.org/1999/xlink" xmlns:presentation="http://sun.com/xmlns/staroffice/presentation" xmlns:smil="http://www.w3.org/2001/SMIL20/" xmlns:anim="urn:oasis:names:tc:opendocument:xmlns:animation:1.0" xml:space="preserve">
 <defs class="ClipPathGroup">
  <clipPath id="presentation_clip_path" clipPathUnits="userSpaceOnUse">
   <rect x="0" y="0" width="20000" height="20000"/>
  </clipPath>
  <clipPath id="presentation_clip_path_shrink" clipPathUnits="userSpaceOnUse">
   <rect x="20" y="20" width="19960" height="19960"/>
  </clipPath>
 </defs>
 <defs class="TextShapeIndex">
  <g ooo:slide="id1" ooo:id-list="id3 id4 id5 id6"/>
 </defs>
 <defs class="EmbeddedBulletChars">
  <g id="bullet-char-template-57356" transform="scale(0.00048828125,-0.00048828125)">
   <path d="M 580,1141 L 1163,571 580,0 -4,571 580,1141 Z"/>
  </g>
  <g id="bullet-char-template-57354" transform="scale(0.00048828125,-0.00048828125)">
   <path d="M 8,1128 L 1137,1128 1137,0 8,0 8,1128 Z"/>
  </g>
  <g id="bullet-char-template-10146" transform="scale(0.00048828125,-0.00048828125)">
   <path d="M 174,0 L 602,739 174,1481 1456,739 174,0 Z M 1358,739 L 309,1346 659,739 1358,739 Z"/>
  </g>
  <g id="bullet-char-template-10132" transform="scale(0.00048828125,-0.00048828125)">
   <path d="M 2015,739 L 1276,0 717,0 1260,543 174,543 174,936 1260,936 717,1481 1274,1481 2015,739 Z"/>
  </g>
  <g id="bullet-char-template-10007" transform="scale(0.00048828125,-0.00048828125)">
   <path d="M 0,-2 C -7,14 -16,27 -25,37 L 356,567 C 262,823 215,952 215,954 215,979 228,992 255,992 264,992 276,990 289,987 310,991 331,999 354,1012 L 381,999 492,748 772,1049 836,1024 860,1049 C 881,1039 901,1025 922,1006 886,937 835,863 770,784 769,783 710,716 594,584 L 774,223 C 774,196 753,168 711,139 L 727,119 C 717,90 699,76 672,76 641,76 570,178 457,381 L 164,-76 C 142,-110 111,-127 72,-127 30,-127 9,-110 8,-76 1,-67 -2,-52 -2,-32 -2,-23 -1,-13 0,-2 Z"/>
  </g>
  <g id="bullet-char-template-10004" transform="scale(0.00048828125,-0.00048828125)">
   <path d="M 285,-33 C 182,-33 111,30 74,156 52,228 41,333 41,471 41,549 55,616 82,672 116,743 169,778 240,778 293,778 328,747 346,684 L 369,508 C 377,444 397,411 428,410 L 1163,1116 C 1174,1127 1196,1133 1229,1133 1271,1133 1292,1118 1292,1087 L 1292,965 C 1292,929 1282,901 1262,881 L 442,47 C 390,-6 338,-33 285,-33 Z"/>
  </g>
  <g id="bullet-char-template-9679" transform="scale(0.00048828125,-0.00048828125)">
   <path d="M 813,0 C 632,0 489,54 383,161 276,268 223,411 223,592 223,773 276,916 383,1023 489,1130 632,1184 813,1184 992,1184 1136,1130 1245,1023 1353,916 1407,772 1407,592 1407,412 1353,268 1245,161 1136,54 992,0 813,0 Z"/>
  </g>
  <g id="bullet-char-template-8226" transform="scale(0.00048828125,-0.00048828125)">
   <path d="M 346,457 C 273,457 209,483 155,535 101,586 74,649 74,723 74,796 101,859 155,911 209,963 273,989 346,989 419,989 480,963 531,910 582,859 608,796 608,723 608,648 583,586 532,535 482,483 420,457 346,457 Z"/>
  </g>
  <g id="bullet-char-template-8211" transform="scale(0.00048828125,-0.00048828125)">
   <path d="M -4,459 L 1135,459 1135,606 -4,606 -4,459 Z"/>
  </g>
  <g id="bullet-char-template-61548" transform="scale(0.00048828125,-0.00048828125)">
   <path d="M 173,740 C 173,903 231,1043 346,1159 462,1274 601,1332 765,1332 928,1332 1067,1274 1183,1159 1299,1043 1357,903 1357,740 1357,577 1299,437 1183,322 1067,206 928,148 765,148 601,148 462,206 346,322 231,437 173,577 173,740 Z"/>
  </g>
 </defs>
 <g>
  <g id="id2" class="Master_Slide">
   <g id="bg-id2" class="Background"/>
   <g id="bo-id2" class="BackgroundObjects"/>
  </g>
 </g>
 <g class="SlideGroup">
  <g>
   <g id="container-id1">
    <g id="id1" class="Slide" clip-path="url(#presentation_clip_path)">
     <g class="Page">
      <g class="com.sun.star.drawing.CustomShape">
       <g id="id3">
        <rect class="BoundingBox" stroke="none" fill="none" x="-1" y="-1" width="20004" height="20004"/>
        <path fill="rgb(0,47,108)" stroke="none" d="M 20001,10001 C 20001,11756 19539,13480 18661,15001 17783,16521 16521,17783 15001,18661 13480,19539 11756,20001 10001,20001 8245,20001 6521,19539 5000,18661 3480,17783 2218,16521 1340,15001 462,13480 0,11756 0,10001 0,8245 462,6521 1340,5000 2218,3480 3480,2218 5000,1340 6521,462 8245,0 10000,0 11756,0 13480,462 15001,1340 16521,2218 17783,3480 18661,5000 19539,6521 20001,8245 20001,10000 L 20001,10001 Z"/>
        <path fill="none" stroke="rgb(0,47,108)" d="M 20001,10001 C 20001,11756 19539,13480 18661,15001 17783,16521 16521,17783 15001,18661 13480,19539 11756,20001 10001,20001 8245,20001 6521,19539 5000,18661 3480,17783 2218,16521 1340,15001 462,13480 0,11756 0,10001 0,8245 462,6521 1340,5000 2218,3480 3480,2218 5000,1340 6521,462 8245,0 10000,0 11756,0 13480,462 15001,1340 16521,2218 17783,3480 18661,5000 19539,6521 20001,8245 20001,10000 L 20001,10001 Z"/>
       </g>
      </g>
      <g class="com.sun.star.drawing.CustomShape">
       <g id="id4">
        <rect class="BoundingBox" stroke="none" fill="none" x="2699" y="2699" width="14603" height="14603"/>
        <path fill="rgb(250,250,250)" stroke="none" d="M 17301,10001 C 17301,11282 16964,12541 16323,13651 15682,14761 14761,15682 13651,16323 12541,16964 11282,17301 10001,17301 8719,17301 7460,16964 6350,16323 5240,15682 4319,14761 3678,13651 3037,12541 2700,11282 2700,10001 2700,8719 3037,7460 3678,6350 4319,5240 5240,4319 6350,3678 7460,3037 8719,2700 10000,2700 11282,2700 12541,3037 13651,3678 14761,4319 15682,5240 16323,6350 16964,7460 17301,8719 17301,10000 L 17301,10001 Z"/>
       </g>
      </g>
      <g class="com.sun.star.drawing.CustomShape">
       <g id="id5">
        <rect class="BoundingBox" stroke="none" fill="none" x="2931" y="887" width="14098" height="4070"/>
        <path fill="rgb(250,250,250)" stroke="none" d="M 3508,4689 L 3513,4683 3518,4677 3522,4671 3526,4665 3529,4660 3533,4655 3535,4649 3538,4644 3540,4639 3542,4635 3544,4630 3545,4624 3546,4620 3547,4616 3548,4611 3547,4607 3547,4603 3547,4599 3547,4595 3545,4591 3545,4588 3543,4584 3542,4581 3540,4578 3538,4575 3536,4572 3534,4569 3531,4565 3528,4563 3525,4559 3519,4554 3512,4548 3508,4546 3505,4545 3501,4542 3496,4540 3492,4539 3488,4539 3484,4537 3480,4537 3475,4537 3470,4537 3466,4537 3462,4537 3456,4538 3452,4539 3441,4542 3430,4546 3417,4551 3404,4557 3374,4572 3348,4586 3348,4587 3339,4592 3324,4601 3308,4610 3290,4619 3273,4627 3265,4631 3255,4635 3247,4639 3238,4641 3229,4644 3220,4646 3211,4648 3202,4649 3192,4651 3183,4651 3173,4652 3164,4652 3154,4652 3144,4651 3135,4650 3125,4647 3115,4645 3105,4642 3095,4637 3085,4633 3074,4627 3064,4621 3054,4614 3044,4606 3034,4599 3024,4590 3016,4582 3008,4572 3000,4564 2993,4554 2987,4545 2981,4535 2976,4525 2972,4514 2968,4503 2965,4493 2962,4482 2960,4471 2959,4459 2959,4448 2958,4437 2959,4426 2960,4414 2962,4402 2964,4390 2968,4378 2972,4367 2976,4354 2981,4342 2987,4329 2992,4317 2999,4305 3000,4304 2999,4304 3008,4293 3016,4281 3025,4269 3035,4257 3047,4242 3059,4229 3072,4217 3083,4206 3095,4195 3107,4185 3119,4176 3131,4168 3154,4153 3163,4147 3163,4147 3175,4141 3186,4136 3196,4131 3206,4127 3216,4124 3286,4245 3281,4248 3281,4248 3270,4252 3254,4260 3237,4269 3221,4279 3213,4285 3204,4291 3196,4298 3187,4305 3179,4313 3171,4321 3162,4330 3153,4340 3145,4351 3137,4362 3130,4372 3125,4381 3120,4390 3116,4398 3116,4399 3116,4400 3115,4404 3115,4408 3114,4412 3113,4416 3113,4419 3113,4423 3114,4427 3114,4431 3115,4434 3115,4438 3116,4441 3117,4444 3119,4447 3121,4450 3123,4454 3126,4456 3131,4463 3137,4468 3141,4472 3145,4474 3149,4476 3153,4478 3158,4480 3161,4481 3166,4482 3170,4483 3174,4484 3178,4483 3183,4483 3187,4482 3192,4481 3196,4480 3206,4478 3211,4476 3212,4476 3216,4474 3226,4470 3237,4467 3247,4461 3258,4455 3270,4449 3294,4435 3344,4409 3366,4397 3388,4388 3399,4384 3409,4380 3419,4377 3429,4374 3429,4374 3429,4374 3439,4372 3450,4370 3459,4369 3470,4368 3480,4368 3489,4368 3499,4370 3509,4370 3519,4372 3528,4375 3538,4378 3546,4382 3556,4386 3565,4390 3575,4396 3585,4402 3595,4408 3605,4415 3615,4423 3625,4432 3643,4449 3660,4467 3674,4487 3680,4496 3685,4505 3689,4516 3693,4526 3696,4536 3699,4546 3702,4557 3703,4568 3704,4579 3705,4589 3704,4600 3703,4606 3703,4607 3704,4611 3702,4623 3699,4634 3697,4646 3693,4658 3684,4681 3672,4705 3657,4730 3640,4755 3620,4780 3607,4796 3607,4796 3606,4797 3592,4812 3578,4826 3572,4833 3565,4839 3552,4851 3538,4862 3526,4872 3520,4877 3513,4881 3502,4889 3491,4896 3480,4901 3475,4905 3470,4907 3451,4915 3442,4919 3438,4920 3434,4922 3354,4806 3363,4803 3372,4798 3389,4790 3408,4778 3427,4766 3438,4759 3447,4751 3457,4743 3467,4734 3477,4723 3488,4713 3498,4702 3508,4689 Z M 4224,4070 L 4215,4088 4202,4108 4188,4130 4172,4153 4154,4177 4153,4178 4152,4179 4135,4200 4114,4225 4092,4248 4081,4260 4070,4269 4058,4279 4048,4288 4036,4295 4025,4302 4014,4307 4002,4312 3997,4314 3996,4314 3991,4316 3981,4320 3970,4323 3959,4324 3948,4326 3937,4327 3927,4326 3915,4325 3905,4323 3894,4321 3882,4318 3872,4315 3861,4311 3851,4306 3839,4301 3829,4295 3807,4282 3786,4266 3764,4250 3742,4231 3508,4016 3588,3930 3588,3929 3614,3902 3830,4108 3857,4132 3870,4142 3883,4151 3894,4159 3905,4164 3915,4169 3920,4170 3925,4172 3930,4173 3934,4174 3939,4174 3944,4174 3949,4174 3954,4174 3958,4173 3963,4170 3968,4169 3972,4167 3977,4164 3982,4161 3986,4158 3990,4154 4000,4146 4005,4140 4011,4133 4022,4120 4028,4113 4033,4107 4041,4095 3728,3786 3839,3677 4224,4070 Z M 4602,3376 L 4613,3389 4622,3403 4630,3416 4640,3429 4647,3442 4654,3455 4660,3469 4666,3483 4671,3496 4675,3510 4675,3517 4678,3521 4679,3523 4681,3536 4684,3550 4686,3563 4687,3577 4687,3589 4687,3602 4686,3615 4684,3627 4682,3640 4678,3652 4675,3665 4671,3676 4665,3688 4660,3699 4653,3711 4646,3722 4638,3732 4630,3743 4621,3753 4610,3761 4611,3762 4610,3763 4600,3772 4590,3781 4579,3789 4568,3797 4556,3803 4545,3810 4534,3815 4521,3820 4509,3824 4497,3828 4485,3830 4472,3832 4460,3833 4447,3833 4434,3834 4422,3833 4409,3831 4396,3829 4393,3828 4392,3828 4383,3826 4370,3823 4357,3819 4344,3814 4332,3809 4318,3803 4305,3797 4292,3789 4280,3781 4267,3772 4255,3763 4243,3752 4231,3743 4219,3731 4208,3719 4196,3706 4186,3694 4177,3681 4168,3668 4159,3656 4152,3643 4145,3630 4138,3616 4133,3602 4128,3588 4124,3575 4122,3561 4119,3548 4117,3534 4116,3526 4115,3524 4116,3521 4116,3508 4116,3495 4117,3482 4119,3469 4121,3456 4125,3443 4128,3430 4133,3418 4138,3406 4144,3394 4151,3382 4158,3371 4166,3360 4175,3348 4184,3338 4194,3327 4205,3318 4216,3308 4216,3308 4216,3308 4229,3300 4239,3292 4252,3284 4264,3278 4277,3273 4289,3267 4302,3264 4315,3260 4328,3257 4341,3256 4355,3254 4368,3253 4381,3253 4393,3254 4407,3256 4419,3258 4433,3261 4446,3264 4459,3269 4471,3274 4476,3277 4478,3278 4484,3280 4497,3286 4509,3293 4522,3302 4534,3311 4545,3320 4558,3330 4569,3340 4580,3351 4591,3363 4602,3376 Z M 4484,3474 L 4472,3461 4460,3449 4448,3438 4435,3428 4423,3420 4410,3413 4398,3408 4386,3403 4379,3401 4374,3400 4368,3399 4361,3399 4356,3399 4350,3399 4344,3399 4338,3400 4333,3401 4328,3403 4322,3406 4317,3408 4312,3411 4308,3413 4307,3414 4306,3414 4300,3418 4296,3422 4291,3427 4287,3431 4283,3436 4279,3441 4276,3446 4274,3451 4270,3456 4268,3462 4266,3467 4266,3472 4264,3479 4263,3484 4263,3490 4263,3497 4263,3502 4264,3509 4266,3522 4270,3534 4276,3548 4282,3561 4290,3575 4300,3588 4309,3602 4321,3616 4333,3629 4346,3641 4359,3651 4371,3661 4384,3669 4396,3676 4408,3682 4421,3686 4428,3687 4433,3689 4440,3689 4446,3690 4451,3691 4458,3690 4462,3689 4468,3689 4473,3687 4479,3685 4484,3683 4490,3681 4495,3677 4500,3674 4505,3671 4509,3667 4513,3663 4518,3658 4518,3657 4519,3656 4522,3653 4526,3649 4528,3644 4532,3639 4534,3634 4536,3630 4537,3624 4539,3618 4540,3613 4540,3607 4541,3601 4541,3595 4540,3583 4537,3570 4533,3557 4528,3543 4522,3530 4514,3516 4505,3502 4496,3488 4484,3474 Z M 5017,3040 L 4995,3011 4984,2999 4974,2989 4964,2979 4954,2972 4946,2965 4941,2963 4936,2961 4933,2959 4928,2958 4923,2957 4919,2956 4915,2955 4910,2956 4906,2955 4901,2956 4897,2957 4892,2959 4888,2960 4883,2962 4878,2964 4874,2967 4870,2969 4865,2973 4859,2977 4853,2982 4841,2992 4830,3002 4825,3007 4821,3010 4820,3010 4819,3012 5083,3366 4967,3454 4629,3017 4659,2980 4668,2970 4678,2959 4698,2937 4708,2927 4719,2915 4737,2898 4738,2898 4742,2895 4754,2885 4766,2875 4778,2865 4791,2856 4802,2848 4815,2840 4826,2833 4837,2827 4848,2823 4859,2818 4869,2814 4878,2812 4888,2810 4897,2808 4906,2807 4916,2807 4925,2806 4933,2806 4941,2806 4942,2807 4944,2807 4949,2807 4952,2798 4957,2788 4961,2778 4966,2769 4972,2759 4978,2750 4984,2741 4991,2732 4997,2723 5005,2715 5012,2706 5018,2700 5026,2692 5033,2686 5040,2680 5048,2675 5062,2666 5075,2658 5088,2651 5098,2645 5099,2644 5101,2644 5112,2640 5125,2636 5137,2633 5148,2631 5160,2630 5172,2629 5182,2628 5193,2630 5204,2630 5214,2633 5224,2636 5235,2639 5245,2643 5254,2648 5263,2653 5273,2660 5281,2666 5291,2673 5300,2681 5308,2690 5324,2708 5341,2728 5356,2750 5373,2774 5548,3046 5425,3125 5257,2873 5246,2857 5236,2843 5225,2831 5223,2830 5219,2825 5216,2820 5206,2810 5197,2802 5188,2797 5184,2794 5179,2791 5176,2789 5171,2788 5167,2787 5162,2786 5158,2785 5153,2785 5148,2785 5145,2785 5140,2787 5135,2788 5132,2789 5126,2791 5122,2793 5117,2796 5113,2798 5108,2801 5105,2803 5102,2805 5100,2808 5096,2811 5093,2814 5090,2818 5086,2822 5083,2826 5076,2835 5073,2839 5070,2843 5068,2848 5065,2852 5064,2855 5062,2860 5072,2869 5082,2878 5091,2888 5100,2898 5135,2945 5313,3202 5194,3286 5017,3040 Z M 5646,2654 L 5636,2638 5628,2622 5621,2606 5614,2590 5608,2575 5604,2559 5599,2544 5596,2529 5595,2514 5593,2499 5593,2485 5593,2471 5593,2457 5594,2443 5597,2431 5599,2418 5602,2404 5606,2393 5611,2381 5616,2369 5622,2358 5628,2347 5636,2336 5643,2326 5651,2316 5659,2306 5664,2300 5665,2299 5668,2297 5677,2289 5687,2281 5697,2274 5708,2267 5718,2261 5744,2248 5757,2243 5770,2238 5783,2234 5795,2232 5808,2229 5820,2227 5832,2226 5845,2226 5856,2226 5869,2227 5877,2228 5879,2228 5881,2229 5893,2232 5905,2235 5917,2239 5929,2244 5940,2249 5951,2256 5962,2262 5984,2278 6005,2297 6024,2318 6042,2343 6060,2371 6077,2401 6091,2430 6094,2438 6097,2444 6099,2451 6103,2457 6023,2498 6022,2499 5836,2601 5835,2601 5804,2619 5812,2629 5819,2637 5828,2645 5837,2652 5842,2654 5847,2656 5857,2661 5868,2664 5871,2665 5872,2665 5880,2667 5886,2668 5892,2668 5898,2668 5904,2668 5917,2667 5930,2665 5943,2661 5956,2657 5969,2651 5984,2644 6001,2633 6018,2623 6034,2611 6049,2599 6063,2586 6066,2582 6067,2581 6077,2574 6083,2568 6088,2562 6092,2556 6097,2550 6175,2658 6173,2661 6172,2664 6166,2670 6161,2676 6154,2684 6147,2691 6138,2699 6132,2703 6131,2705 6130,2706 6121,2714 6111,2722 6101,2730 6090,2738 6079,2746 6068,2754 6057,2761 6045,2768 6033,2775 6018,2783 6003,2789 5989,2796 5974,2801 5959,2805 5952,2807 5951,2807 5945,2809 5931,2812 5916,2814 5902,2815 5889,2815 5876,2815 5863,2814 5850,2812 5837,2809 5824,2806 5811,2802 5799,2798 5787,2792 5775,2787 5764,2780 5752,2773 5741,2764 5731,2756 5720,2747 5709,2737 5699,2726 5690,2715 5680,2704 5671,2693 5663,2680 5646,2654 Z M 5925,2426 L 5919,2417 5913,2409 5907,2401 5899,2393 5895,2390 5892,2387 5888,2384 5884,2381 5880,2378 5876,2376 5872,2373 5868,2372 5863,2370 5859,2368 5854,2367 5849,2365 5844,2365 5840,2364 5834,2364 5829,2364 5824,2365 5819,2364 5814,2365 5808,2367 5803,2369 5797,2371 5791,2373 5785,2377 5780,2380 5775,2383 5770,2387 5766,2390 5762,2394 5759,2398 5755,2402 5751,2406 5748,2411 5746,2415 5743,2419 5742,2424 5739,2428 5739,2429 5738,2430 5738,2433 5737,2438 5736,2443 5735,2447 5735,2453 5735,2457 5734,2462 5735,2467 5735,2472 5736,2477 5737,2483 5739,2493 5743,2503 5746,2513 5749,2523 5925,2426 Z M 6178,2064 L 6194,2049 6213,2033 6235,2017 6256,2001 6256,2001 6260,1999 6287,1982 6316,1966 6345,1950 6376,1936 6392,1928 6406,1923 6422,1918 6436,1913 6450,1910 6456,1909 6457,1908 6464,1908 6477,1906 6490,1905 6502,1906 6514,1907 6526,1908 6538,1911 6548,1914 6560,1917 6569,1922 6579,1926 6588,1932 6598,1938 6606,1945 6615,1952 6623,1959 6631,1968 6638,1977 6646,1987 6660,2007 6673,2030 6685,2055 6697,2081 6822,2379 6689,2436 6688,2436 6688,2436 6566,2158 6551,2125 6542,2111 6535,2099 6527,2088 6519,2079 6512,2071 6508,2068 6504,2065 6500,2062 6496,2060 6492,2058 6487,2056 6483,2055 6478,2054 6473,2054 6468,2054 6464,2054 6458,2054 6453,2056 6447,2057 6442,2058 6437,2060 6424,2065 6417,2068 6410,2073 6393,2081 6378,2090 6371,2094 6364,2098 6549,2499 6418,2561 6178,2064 Z M 7540,2128 L 7487,2143 7464,2149 7463,2150 7460,2150 7433,2158 7406,2164 7378,2169 7349,2174 7319,2177 7081,1487 7105,1475 7129,1462 7155,1449 7183,1437 7226,1419 7227,1418 7237,1415 7264,1406 7289,1398 7322,1389 7354,1381 7385,1374 7415,1370 7430,1368 7444,1367 7445,1367 7445,1367 7458,1367 7472,1368 7485,1369 7499,1371 7511,1373 7523,1376 7535,1379 7546,1383 7557,1388 7567,1393 7578,1399 7587,1406 7596,1413 7604,1421 7613,1430 7620,1439 7627,1449 7634,1460 7640,1471 7645,1484 7650,1497 7654,1511 7657,1521 7659,1532 7660,1543 7661,1553 7660,1564 7660,1574 7657,1584 7656,1595 7653,1604 7649,1615 7645,1624 7640,1633 7635,1643 7628,1652 7621,1662 7613,1671 7631,1673 7647,1676 7663,1681 7676,1685 7690,1692 7696,1696 7701,1699 7707,1703 7712,1707 7717,1712 7722,1717 7730,1726 7739,1737 7746,1748 7753,1760 7759,1771 7764,1785 7770,1798 7773,1811 7780,1840 7783,1867 7784,1880 7784,1892 7783,1905 7782,1917 7779,1929 7776,1941 7773,1952 7768,1963 7764,1974 7758,1984 7752,1995 7745,2005 7737,2015 7729,2024 7720,2033 7710,2042 7688,2059 7664,2075 7656,2077 7656,2078 7637,2090 7608,2103 7575,2116 7540,2128 Z M 7362,1829 L 7422,2014 7439,2011 7449,2008 7458,2006 7478,2001 7489,1998 7500,1995 7517,1990 7532,1984 7546,1978 7559,1971 7572,1964 7583,1957 7593,1949 7601,1941 7605,1937 7609,1932 7612,1928 7612,1928 7613,1927 7615,1923 7618,1917 7621,1913 7622,1908 7623,1902 7624,1896 7625,1890 7626,1884 7625,1878 7624,1872 7623,1865 7620,1851 7615,1839 7614,1834 7611,1828 7608,1824 7606,1820 7602,1815 7599,1811 7595,1808 7591,1804 7586,1801 7583,1798 7578,1796 7573,1794 7572,1794 7572,1794 7568,1792 7564,1791 7558,1789 7553,1788 7547,1787 7542,1787 7529,1787 7517,1787 7503,1789 7489,1792 7473,1795 7458,1800 7362,1829 Z M 7322,1706 L 7397,1683 7415,1678 7430,1672 7444,1666 7457,1659 7468,1653 7478,1646 7483,1643 7486,1639 7490,1636 7493,1632 7496,1628 7498,1625 7502,1621 7503,1617 7505,1614 7506,1609 7507,1605 7508,1600 7509,1596 7510,1591 7509,1587 7509,1582 7508,1577 7507,1574 7508,1572 7505,1562 7501,1552 7500,1551 7500,1551 7497,1542 7495,1538 7492,1535 7489,1531 7486,1527 7483,1524 7479,1522 7476,1519 7472,1516 7469,1514 7464,1513 7460,1511 7455,1510 7445,1508 7435,1508 7423,1509 7412,1509 7398,1512 7385,1514 7370,1517 7355,1522 7312,1535 7302,1538 7291,1543 7280,1547 7272,1550 7322,1706 Z M 8213,1938 L 8071,1970 7938,1415 8089,1380 8213,1938 Z M 8068,1216 L 8070,1227 8070,1237 8070,1247 8069,1257 8068,1261 8067,1266 8066,1270 8065,1274 8062,1279 8060,1284 8058,1287 8055,1291 8050,1299 8044,1305 8040,1308 8037,1311 8034,1314 8030,1316 8027,1319 8023,1321 8019,1323 8014,1325 8010,1326 8006,1328 7997,1330 7988,1332 7984,1332 7980,1333 7974,1333 7970,1333 7966,1333 7961,1332 7957,1331 7953,1330 7949,1329 7944,1328 7936,1325 7928,1320 7924,1318 7920,1316 7916,1313 7912,1309 7909,1306 7906,1303 7903,1299 7900,1295 7895,1287 7891,1278 7886,1269 7884,1259 7881,1248 7881,1238 7880,1228 7881,1218 7882,1214 7883,1209 7885,1205 7886,1201 7888,1196 7890,1191 7893,1188 7895,1184 7901,1176 7907,1170 7910,1166 7914,1164 7917,1161 7920,1159 7924,1156 7928,1154 7932,1152 7937,1150 7941,1148 7945,1147 7954,1144 7963,1142 7968,1142 7972,1142 7977,1142 7982,1142 7986,1142 7991,1142 7995,1143 7999,1144 8003,1145 8008,1147 8016,1150 8025,1154 8029,1157 8032,1159 8036,1162 8040,1165 8043,1168 8046,1171 8049,1175 8052,1179 8057,1187 8061,1196 8065,1206 8068,1216 Z M 8251,1201 L 8323,1173 8324,1172 8402,1146 8432,1312 8570,1287 8571,1287 8616,1280 8638,1413 8592,1419 8591,1420 8456,1444 8491,1641 8494,1654 8497,1665 8499,1676 8503,1686 8508,1695 8513,1703 8517,1711 8522,1718 8525,1721 8528,1724 8531,1728 8534,1730 8539,1732 8542,1734 8546,1735 8550,1737 8555,1738 8560,1738 8565,1739 8570,1739 8575,1739 8580,1738 8592,1737 8604,1735 8615,1732 8627,1728 8639,1724 8641,1723 8642,1722 8652,1719 8663,1714 8674,1709 8684,1703 8724,1824 8711,1832 8698,1840 8683,1847 8669,1853 8664,1854 8663,1855 8660,1856 8652,1861 8644,1863 8635,1867 8624,1869 8614,1871 8592,1876 8578,1878 8564,1880 8551,1880 8538,1881 8526,1880 8514,1880 8502,1878 8492,1875 8481,1873 8472,1869 8462,1865 8456,1862 8454,1861 8453,1860 8445,1856 8437,1850 8429,1844 8421,1838 8414,1831 8407,1824 8400,1816 8395,1807 8389,1798 8383,1789 8378,1779 8374,1768 8370,1757 8365,1746 8357,1723 8351,1697 8345,1671 8251,1201 Z M 8835,1536 L 8833,1521 8832,1506 8831,1490 8832,1476 8832,1461 8833,1446 8835,1432 8837,1418 8840,1404 8844,1391 8849,1377 8853,1364 8859,1352 8865,1340 8872,1328 8880,1316 8888,1305 8896,1295 8905,1285 8915,1276 8925,1266 8935,1258 8947,1250 8959,1242 8972,1235 8985,1228 8999,1223 9006,1219 9007,1218 9013,1217 9028,1213 9043,1210 9058,1206 9074,1205 9096,1203 9118,1202 9127,1203 9138,1203 9147,1204 9156,1205 9174,1207 9193,1211 9210,1215 9228,1221 9208,1352 9197,1350 9185,1346 9173,1345 9159,1343 9146,1341 9132,1340 9124,1340 9117,1341 9110,1340 9102,1341 9086,1344 9078,1346 9070,1347 9063,1350 9056,1352 9051,1356 9044,1359 9038,1362 9032,1366 9028,1371 9025,1372 9024,1373 9023,1375 9019,1380 9014,1385 9010,1391 9006,1397 9000,1409 8995,1423 8991,1436 8987,1451 8986,1466 8985,1483 8986,1499 8987,1517 8989,1536 8993,1553 8997,1569 9003,1584 9009,1598 9016,1611 9024,1622 9032,1632 9036,1637 9041,1641 9046,1645 9051,1649 9055,1651 9056,1651 9058,1652 9063,1655 9070,1657 9076,1659 9083,1661 9090,1662 9098,1663 9106,1664 9123,1664 9142,1663 9155,1662 9169,1660 9183,1656 9197,1652 9205,1650 9212,1647 9219,1644 9226,1642 9234,1639 9240,1635 9246,1632 9252,1628 9271,1702 9271,1707 9285,1758 9279,1762 9276,1762 9276,1763 9272,1766 9257,1773 9242,1779 9224,1785 9214,1788 9204,1792 9195,1794 9184,1796 9162,1800 9140,1803 9123,1804 9107,1804 9091,1804 9076,1803 9074,1802 9073,1802 9060,1802 9046,1799 9031,1797 9018,1793 9005,1788 8993,1783 8980,1777 8969,1772 8957,1765 8947,1757 8937,1749 8927,1741 8918,1732 8909,1722 8900,1711 8892,1700 8885,1690 8878,1678 8871,1665 8866,1652 8860,1638 8855,1625 8851,1611 8847,1596 8840,1567 8835,1536 Z M 9934,1456 L 9934,1473 9933,1490 9931,1505 9930,1521 9927,1536 9925,1551 9921,1565 9917,1580 9912,1593 9906,1607 9902,1619 9895,1631 9894,1631 9894,1631 9888,1643 9882,1655 9874,1666 9866,1676 9858,1686 9849,1695 9840,1704 9830,1712 9820,1719 9809,1727 9799,1733 9787,1739 9776,1745 9764,1750 9751,1753 9739,1756 9725,1759 9712,1762 9699,1763 9690,1763 9690,1763 9684,1763 9671,1764 9656,1764 9643,1763 9630,1761 9618,1759 9605,1756 9592,1752 9580,1747 9568,1742 9558,1736 9547,1730 9536,1723 9526,1715 9516,1708 9507,1699 9498,1690 9489,1680 9481,1670 9478,1666 9477,1665 9472,1659 9465,1648 9458,1636 9451,1624 9445,1611 9439,1598 9433,1584 9429,1570 9424,1555 9421,1541 9418,1525 9415,1509 9413,1493 9412,1476 9411,1459 9410,1443 9411,1427 9412,1412 9413,1397 9416,1382 9418,1367 9422,1353 9427,1339 9432,1325 9437,1312 9443,1300 9450,1287 9452,1282 9453,1280 9457,1276 9465,1265 9472,1254 9481,1244 9490,1235 9499,1226 9509,1217 9520,1210 9531,1202 9542,1195 9554,1189 9566,1183 9579,1179 9591,1173 9605,1170 9619,1167 9632,1165 9647,1162 9661,1162 9667,1161 9667,1161 9675,1161 9691,1163 9704,1163 9719,1166 9732,1168 9745,1172 9758,1175 9771,1181 9783,1186 9795,1192 9806,1199 9818,1206 9828,1214 9839,1221 9848,1230 9857,1240 9866,1250 9874,1260 9882,1271 9890,1282 9890,1283 9890,1284 9896,1294 9902,1307 9908,1320 9914,1334 9918,1348 9922,1363 9925,1377 9928,1392 9930,1408 9932,1423 9934,1439 9934,1456 Z M 9780,1459 L 9780,1441 9777,1424 9775,1408 9771,1392 9767,1378 9762,1365 9755,1353 9749,1342 9745,1336 9741,1332 9737,1327 9732,1323 9728,1320 9724,1316 9719,1313 9713,1310 9708,1307 9703,1306 9697,1304 9692,1302 9686,1302 9680,1301 9672,1300 9672,1300 9672,1300 9666,1300 9660,1301 9654,1302 9648,1303 9642,1304 9636,1306 9631,1309 9625,1311 9620,1314 9615,1317 9611,1320 9606,1324 9603,1328 9599,1333 9594,1338 9591,1342 9587,1348 9581,1360 9576,1372 9572,1386 9569,1400 9566,1416 9565,1432 9564,1449 9565,1467 9566,1485 9569,1502 9572,1518 9575,1533 9580,1548 9586,1561 9591,1573 9599,1585 9603,1590 9606,1594 9611,1598 9615,1603 9619,1607 9624,1610 9628,1613 9633,1616 9638,1618 9644,1620 9649,1622 9655,1623 9661,1624 9667,1624 9673,1625 9679,1625 9685,1624 9685,1623 9685,1623 9691,1623 9697,1622 9703,1621 9708,1619 9714,1617 9719,1615 9723,1613 9728,1609 9733,1606 9737,1602 9741,1598 9745,1593 9749,1589 9756,1578 9761,1567 9767,1554 9771,1540 9775,1526 9778,1510 9779,1494 9781,1477 9780,1459 Z M 10314,1748 L 10309,1748 10309,1748 10169,1744 10181,1173 10330,1177 10330,1177 10336,1177 10314,1748 Z M 10357,1013 L 10357,1024 10354,1033 10352,1043 10348,1052 10346,1057 10344,1061 10342,1064 10339,1068 10336,1072 10334,1073 10334,1074 10333,1076 10330,1078 10326,1082 10319,1088 10311,1092 10307,1095 10303,1097 10300,1098 10296,1100 10291,1102 10287,1103 10283,1103 10278,1104 10274,1105 10269,1106 10260,1106 10251,1105 10247,1104 10243,1103 10237,1102 10233,1101 10229,1100 10225,1099 10221,1097 10218,1095 10214,1093 10210,1090 10202,1085 10195,1079 10192,1075 10189,1072 10186,1069 10183,1064 10181,1061 10179,1057 10177,1052 10175,1048 10172,1039 10170,1029 10168,1019 10168,1008 10169,997 10171,987 10173,978 10177,969 10179,964 10181,960 10183,956 10185,953 10189,948 10192,945 10195,942 10198,938 10206,932 10213,928 10218,925 10222,924 10225,922 10229,920 10234,918 10238,918 10242,917 10248,916 10252,915 10256,914 10266,915 10275,915 10279,916 10284,917 10289,918 10293,919 10297,920 10302,922 10306,924 10309,926 10313,927 10317,930 10324,935 10332,941 10335,945 10338,948 10339,949 10339,949 10341,952 10344,956 10346,960 10348,964 10350,968 10352,973 10354,982 10356,992 10358,1002 10357,1013 Z M 10534,1207 L 10549,1202 10550,1203 10556,1202 10580,1198 10607,1195 10637,1192 10669,1190 10702,1189 10735,1190 10769,1192 10772,1192 10772,1192 10787,1193 10802,1196 10818,1199 10832,1203 10847,1207 10860,1212 10872,1217 10883,1222 10894,1229 10904,1235 10913,1242 10923,1250 10930,1258 10939,1266 10945,1275 10951,1283 10956,1293 10961,1303 10965,1313 10969,1323 10973,1334 10976,1345 10976,1348 10977,1349 10978,1357 10980,1369 10982,1394 10982,1420 10981,1447 10979,1476 10942,1797 10926,1795 10925,1795 10797,1782 10826,1480 10829,1444 10828,1428 10828,1413 10827,1399 10824,1387 10822,1377 10819,1372 10818,1368 10815,1364 10813,1360 10811,1356 10807,1352 10804,1349 10801,1346 10797,1343 10792,1341 10788,1338 10783,1336 10778,1335 10772,1332 10767,1331 10761,1330 10760,1329 10760,1329 10748,1328 10740,1328 10732,1328 10714,1328 10696,1328 10688,1328 10680,1329 10645,1769 10500,1758 10534,1207 Z M 11195,1428 L 11399,1458 11400,1459 11489,1474 11463,1619 11376,1603 11375,1603 11175,1573 11195,1428 Z M 12173,1443 L 12004,1720 12003,1720 12003,1720 11837,1969 11822,1989 11807,2008 11793,2025 11779,2040 11772,2047 11765,2054 11758,2060 11752,2066 11745,2071 11738,2076 11730,2081 11723,2085 11716,2089 11709,2093 11705,2093 11705,2094 11701,2096 11694,2099 11687,2101 11680,2103 11671,2105 11664,2106 11656,2107 11648,2108 11639,2108 11631,2107 11621,2106 11612,2105 11603,2104 11593,2102 11577,2098 11562,2094 11547,2088 11534,2083 11522,2077 11510,2071 11504,2067 11504,2066 11500,2064 11491,2059 11518,1989 11520,1986 11540,1936 11550,1943 11560,1948 11565,1950 11569,1952 11573,1954 11577,1956 11582,1958 11585,1959 11590,1961 11594,1962 11604,1965 11613,1967 11622,1969 11631,1969 11635,1968 11640,1968 11644,1968 11648,1967 11651,1967 11655,1966 11658,1965 11663,1963 11666,1962 11669,1960 11672,1958 11676,1955 11682,1950 11688,1945 11694,1939 11700,1932 11707,1925 11712,1917 11718,1908 11724,1899 11711,1840 11698,1777 11674,1641 11663,1568 11652,1491 11639,1359 11639,1356 11635,1324 11644,1326 11645,1326 11797,1356 11802,1451 11810,1555 11813,1592 11813,1593 11820,1657 11830,1748 11875,1670 11924,1580 11973,1489 12016,1405 12173,1443 Z M 12206,2044 L 12425,1257 12580,1274 12580,1273 12587,1275 12508,1538 12517,1538 12527,1538 12538,1539 12550,1539 12562,1541 12574,1543 12586,1546 12597,1549 12612,1554 12627,1559 12641,1565 12654,1571 12666,1578 12677,1585 12688,1592 12697,1600 12706,1608 12709,1611 12710,1612 12714,1616 12722,1625 12728,1634 12734,1644 12739,1653 12744,1663 12748,1673 12751,1684 12754,1694 12755,1705 12757,1716 12759,1728 12759,1740 12758,1751 12758,1763 12754,1789 12749,1814 12741,1839 12733,1867 12630,2173 12538,2142 12537,2142 12492,2128 12583,1839 12593,1804 12596,1788 12599,1774 12601,1760 12601,1748 12601,1738 12599,1733 12599,1728 12598,1724 12596,1719 12594,1715 12592,1711 12590,1707 12587,1703 12584,1700 12581,1697 12576,1694 12573,1691 12569,1688 12563,1685 12559,1682 12553,1681 12541,1676 12532,1673 12523,1671 12518,1670 12513,1669 12509,1669 12504,1668 12470,1667 12346,2084 12206,2044 Z M 13082,2027 L 13076,2044 13071,2062 13067,2077 13065,2093 13063,2109 13063,2123 13065,2138 13067,2151 13068,2157 13070,2164 13073,2170 13076,2176 13079,2182 13082,2187 13085,2192 13090,2197 13094,2201 13099,2206 13104,2210 13109,2214 13115,2217 13121,2221 13127,2224 13135,2227 13144,2231 13153,2233 13167,2238 13167,2238 13170,2239 13177,2241 13185,2243 13196,2246 13309,1974 13306,1970 13304,1967 13300,1964 13298,1960 13294,1956 13290,1952 13286,1949 13286,1949 13286,1949 13281,1945 13276,1941 13271,1938 13266,1935 13261,1932 13255,1929 13251,1926 13245,1924 13240,1922 13227,1918 13215,1915 13204,1913 13192,1914 13181,1915 13170,1918 13160,1922 13150,1928 13140,1936 13130,1945 13122,1955 13113,1966 13105,1979 13097,1994 13082,2027 Z M 13288,2406 L 13278,2405 13267,2404 13255,2403 13242,2400 13230,2398 13216,2395 13190,2388 13163,2381 13149,2377 13135,2373 13121,2368 13115,2365 13115,2365 13108,2364 13095,2359 13082,2354 13068,2349 13054,2342 13041,2335 13029,2328 13017,2320 13006,2312 12995,2303 12985,2294 12975,2284 12967,2274 12958,2264 12951,2253 12943,2243 12942,2240 12942,2239 12938,2231 12932,2220 12928,2208 12923,2196 12919,2184 12915,2171 12913,2158 12912,2145 12911,2131 12909,2117 12910,2103 12911,2088 12912,2073 12914,2059 12918,2044 12921,2029 12925,2013 12935,1981 12948,1949 12962,1920 12969,1906 12977,1894 12985,1881 12994,1869 13002,1858 13012,1847 13021,1837 13031,1827 13041,1818 13051,1811 13062,1803 13072,1796 13083,1790 13094,1785 13106,1780 13117,1776 13119,1775 13119,1775 13128,1773 13140,1770 13152,1768 13164,1767 13176,1767 13190,1768 13202,1769 13215,1771 13228,1773 13241,1776 13255,1781 13269,1786 13283,1792 13290,1796 13297,1799 13303,1803 13309,1806 13315,1809 13320,1813 13331,1821 13336,1825 13336,1825 13341,1830 13351,1840 13356,1845 13361,1850 13459,1611 13617,1650 13288,2406 Z M 13650,2593 L 13519,2530 13763,2014 13903,2081 13650,2593 Z M 13990,1940 L 13985,1950 13979,1957 13972,1965 13965,1972 13962,1975 13958,1978 13954,1981 13951,1983 13946,1986 13942,1988 13938,1989 13933,1991 13924,1993 13915,1994 13910,1995 13906,1994 13902,1995 13898,1994 13893,1994 13889,1993 13885,1992 13880,1991 13876,1990 13871,1989 13863,1985 13855,1981 13851,1978 13848,1975 13844,1972 13840,1970 13837,1967 13834,1964 13831,1960 13829,1957 13826,1954 13823,1950 13819,1942 13815,1933 13814,1929 13812,1925 13811,1920 13810,1915 13810,1911 13809,1907 13809,1902 13809,1897 13810,1887 13813,1877 13815,1867 13820,1858 13824,1848 13830,1840 13836,1832 13843,1825 13847,1822 13851,1819 13854,1816 13858,1814 13862,1811 13867,1809 13871,1808 13875,1807 13885,1804 13893,1803 13898,1803 13903,1803 13906,1803 13911,1803 13916,1803 13920,1804 13924,1805 13929,1807 13933,1808 13938,1809 13946,1813 13955,1817 13958,1820 13962,1822 13966,1825 13969,1828 13973,1831 13976,1834 13979,1838 13981,1841 13984,1844 13987,1848 13991,1856 13995,1865 13997,1869 13998,1873 13999,1878 14000,1883 14001,1887 14001,1891 14001,1896 14001,1901 14000,1911 13997,1920 13995,1930 13990,1940 Z M 14002,2645 L 14010,2649 14018,2653 14026,2657 14034,2659 14040,2662 14046,2663 14051,2664 14054,2664 14057,2664 14059,2664 14061,2664 14063,2664 14066,2663 14068,2662 14070,2661 14072,2660 14074,2659 14076,2658 14078,2656 14079,2655 14081,2653 14084,2649 14087,2643 14089,2641 14090,2639 14090,2636 14091,2635 14091,2632 14091,2630 14092,2627 14092,2625 14091,2623 14091,2620 14091,2617 14090,2615 14088,2608 14085,2603 14082,2597 14077,2590 14068,2576 14056,2559 14042,2541 14031,2527 14019,2513 14010,2499 14000,2486 13996,2479 13992,2472 13991,2471 13991,2469 13988,2465 13984,2458 13980,2451 13979,2444 13975,2437 13973,2430 13971,2423 13970,2416 13969,2408 13968,2401 13969,2394 13968,2387 13969,2379 13969,2371 13970,2363 13972,2355 13974,2347 13977,2339 13980,2330 13984,2322 13987,2313 13992,2304 14002,2287 14012,2271 14025,2258 14031,2252 14038,2246 14044,2241 14052,2237 14059,2232 14067,2228 14076,2224 14084,2222 14092,2220 14102,2217 14111,2216 14120,2215 14128,2213 14128,2213 14129,2213 14139,2213 14149,2214 14159,2215 14169,2216 14178,2219 14199,2224 14219,2231 14240,2240 14262,2251 14284,2264 14304,2276 14324,2290 14333,2298 14333,2298 14334,2299 14342,2305 14359,2320 14373,2335 14385,2348 14395,2360 14310,2455 14300,2444 14289,2433 14270,2412 14269,2412 14267,2411 14261,2405 14255,2400 14248,2395 14240,2390 14226,2380 14209,2371 14193,2363 14187,2361 14180,2358 14173,2356 14167,2354 14161,2354 14157,2355 14151,2355 14147,2355 14142,2357 14138,2359 14134,2362 14131,2365 14128,2369 14125,2374 14124,2376 14123,2377 14122,2380 14122,2382 14121,2383 14121,2386 14120,2388 14120,2390 14120,2392 14120,2394 14120,2396 14121,2399 14121,2401 14122,2403 14123,2406 14124,2408 14126,2414 14130,2420 14133,2427 14138,2434 14143,2442 14150,2451 14157,2459 14165,2469 14181,2489 14195,2508 14206,2522 14207,2524 14208,2525 14218,2543 14223,2551 14227,2559 14231,2567 14233,2574 14236,2582 14238,2590 14240,2597 14241,2604 14243,2611 14244,2618 14244,2625 14243,2632 14244,2640 14242,2646 14242,2653 14240,2660 14238,2668 14235,2674 14232,2681 14230,2688 14223,2703 14214,2718 14203,2735 14191,2750 14184,2758 14179,2764 14172,2770 14164,2775 14157,2780 14150,2784 14142,2788 14134,2792 14126,2795 14118,2797 14109,2799 14100,2800 14091,2801 14082,2801 14073,2801 14063,2801 14051,2799 14050,2799 14044,2798 14024,2794 14003,2788 13982,2781 13960,2771 13938,2759 13909,2743 13896,2735 13885,2726 13874,2718 13864,2711 13863,2710 13863,2710 13853,2702 13844,2694 13828,2679 13815,2666 13806,2655 13802,2650 13798,2646 13880,2541 13895,2556 13908,2571 13923,2585 13937,2599 13945,2605 13952,2612 13960,2618 13968,2624 13985,2634 14002,2645 Z M 14673,2342 L 14797,2392 14798,2391 14821,2403 14730,2545 14888,2647 14813,2759 14658,2658 14550,2828 14544,2839 14538,2849 14533,2859 14529,2869 14526,2879 14524,2888 14522,2896 14521,2905 14521,2909 14521,2914 14521,2918 14522,2922 14524,2926 14525,2930 14527,2934 14529,2938 14531,2942 14535,2945 14538,2950 14541,2953 14545,2956 14550,2960 14559,2967 14569,2973 14580,2979 14591,2984 14603,2989 14615,2994 14627,2998 14639,3001 14650,3004 14632,3043 14630,3048 14597,3119 14584,3117 14583,3116 14582,3117 14567,3113 14552,3109 14536,3104 14528,3101 14519,3099 14512,3095 14503,3091 14493,3086 14484,3080 14465,3069 14453,3061 14441,3052 14432,3044 14422,3035 14413,3027 14405,3018 14403,3015 14403,3015 14397,3009 14391,3000 14386,2991 14381,2982 14376,2973 14373,2964 14370,2954 14368,2945 14366,2935 14365,2926 14364,2916 14364,2905 14364,2895 14366,2885 14368,2874 14370,2864 14373,2853 14378,2842 14382,2831 14386,2819 14396,2797 14409,2774 14422,2751 14673,2342 Z M 15473,3072 L 15330,3168 15328,3170 15205,3256 14950,3415 14928,3427 14907,3439 14887,3448 14868,3456 14859,3460 14850,3463 14841,3465 14838,3466 14838,3465 14833,3468 14824,3471 14816,3473 14807,3474 14799,3475 14791,3476 14782,3476 14774,3476 14766,3476 14759,3475 14751,3474 14743,3472 14735,3470 14728,3467 14721,3465 14713,3461 14705,3457 14697,3452 14689,3448 14681,3443 14673,3437 14660,3427 14648,3417 14637,3406 14635,3403 14634,3401 14627,3395 14618,3385 14610,3375 14603,3365 14598,3357 14692,3264 14699,3274 14706,3283 14709,3287 14713,3290 14713,3290 14713,3291 14715,3293 14719,3297 14722,3300 14725,3303 14728,3307 14732,3310 14739,3316 14747,3322 14754,3327 14762,3331 14766,3332 14771,3334 14774,3336 14778,3337 14781,3338 14785,3338 14789,3339 14793,3339 14797,3339 14801,3338 14805,3338 14808,3337 14816,3335 14824,3333 14832,3330 14840,3326 14849,3322 14858,3317 14867,3312 14876,3306 14888,3246 14902,3184 14935,3049 14955,2978 14970,2928 14970,2926 14977,2903 15030,2744 15076,2776 15077,2777 15164,2840 15130,2929 15095,3027 15062,3124 15034,3211 15107,3158 15189,3096 15271,3033 15345,2973 15473,3072 Z M 15447,3639 L 15454,3646 15461,3651 15468,3656 15475,3660 15476,3659 15477,3660 15481,3664 15487,3666 15491,3668 15494,3670 15496,3670 15498,3671 15501,3671 15503,3671 15506,3671 15508,3671 15510,3670 15512,3670 15514,3669 15516,3668 15519,3667 15520,3666 15522,3664 15527,3661 15531,3656 15532,3654 15534,3653 15535,3650 15536,3649 15537,3646 15537,3644 15538,3641 15539,3639 15539,3637 15540,3634 15539,3631 15539,3629 15538,3622 15537,3616 15535,3609 15532,3602 15531,3597 15531,3596 15526,3586 15518,3567 15508,3547 15500,3531 15491,3515 15485,3499 15478,3484 15475,3477 15472,3469 15470,3461 15468,3454 15466,3446 15466,3439 15464,3431 15464,3424 15463,3417 15464,3410 15464,3402 15465,3394 15467,3388 15467,3380 15470,3373 15472,3365 15474,3358 15478,3350 15482,3343 15487,3335 15492,3328 15497,3320 15502,3312 15508,3304 15522,3289 15535,3276 15550,3266 15558,3262 15565,3258 15573,3254 15581,3251 15589,3248 15597,3246 15607,3245 15616,3244 15624,3243 15633,3243 15642,3244 15652,3245 15661,3245 15670,3247 15680,3250 15690,3253 15699,3256 15708,3260 15727,3269 15746,3280 15765,3294 15782,3307 15783,3308 15784,3309 15802,3326 15819,3343 15835,3360 15843,3371 15850,3380 15863,3397 15874,3414 15884,3430 15891,3444 15787,3519 15779,3506 15772,3493 15755,3467 15750,3460 15745,3454 15739,3447 15733,3441 15721,3428 15707,3415 15697,3406 15696,3406 15693,3404 15687,3400 15681,3396 15675,3393 15669,3390 15664,3389 15659,3388 15653,3387 15649,3387 15644,3388 15640,3389 15635,3391 15632,3394 15628,3396 15624,3400 15623,3402 15621,3404 15620,3406 15619,3408 15618,3409 15618,3411 15616,3413 15616,3415 15615,3417 15615,3419 15614,3421 15615,3424 15614,3426 15615,3429 15615,3431 15615,3434 15617,3440 15619,3447 15621,3454 15625,3462 15628,3470 15632,3479 15633,3480 15633,3480 15637,3490 15643,3502 15655,3525 15664,3547 15673,3567 15679,3586 15682,3594 15684,3604 15687,3612 15687,3620 15688,3628 15689,3636 15689,3643 15689,3650 15689,3658 15689,3664 15687,3672 15685,3678 15684,3686 15681,3692 15679,3698 15676,3705 15673,3712 15669,3718 15664,3724 15660,3730 15651,3743 15639,3756 15625,3770 15610,3782 15602,3788 15595,3793 15587,3798 15578,3801 15570,3805 15562,3807 15554,3810 15545,3812 15537,3812 15528,3813 15519,3813 15510,3813 15501,3812 15492,3810 15483,3808 15474,3806 15455,3799 15437,3791 15418,3780 15399,3768 15389,3761 15389,3760 15380,3754 15360,3738 15336,3717 15325,3706 15315,3695 15306,3685 15296,3675 15289,3665 15281,3656 15269,3637 15260,3621 15253,3608 15251,3604 15251,3604 15250,3603 15248,3598 15274,3576 15277,3573 15350,3513 15360,3531 15370,3549 15381,3565 15393,3582 15399,3590 15405,3598 15412,3605 15418,3613 15432,3626 15447,3639 Z M 16408,4137 L 16403,4128 16397,4117 16384,4095 16380,4089 16376,4083 16372,4077 16368,4071 16359,4059 16348,4047 16342,4041 16336,4035 16329,4029 16322,4023 16316,4018 16316,4017 16315,4018 16309,4013 16305,4010 16302,4009 16300,4007 16297,4006 15979,4306 15878,4202 16264,3823 16285,3833 16306,3845 16329,3859 16354,3873 16367,3881 16379,3890 16391,3900 16404,3910 16416,3920 16418,3921 16419,3922 16428,3931 16451,3956 16456,3960 16460,3966 16470,3979 16476,3986 16481,3993 16492,4009 16501,4023 16506,4031 16511,4039 16515,4046 16519,4054 16523,4061 16524,4065 16525,4067 16408,4137 Z M 16984,4599 L 16679,4713 16394,4805 16375,4809 16374,4809 16369,4811 16347,4817 16324,4822 16304,4825 16294,4827 16285,4827 16275,4827 16267,4828 16257,4829 16249,4828 16240,4827 16232,4826 16224,4825 16216,4824 16208,4821 16201,4819 16194,4816 16187,4814 16179,4810 16172,4806 16166,4802 16159,4797 16152,4792 16146,4786 16139,4780 16133,4773 16126,4766 16120,4759 16119,4756 16119,4756 16110,4746 16100,4734 16092,4720 16084,4708 16078,4695 16073,4684 16069,4673 16066,4663 16180,4596 16184,4608 16189,4618 16191,4622 16193,4627 16195,4630 16197,4634 16200,4638 16202,4642 16204,4646 16207,4650 16213,4657 16219,4665 16222,4668 16222,4668 16225,4672 16232,4677 16235,4680 16239,4683 16242,4685 16246,4687 16249,4688 16252,4690 16256,4691 16260,4693 16263,4694 16267,4694 16271,4695 16275,4695 16283,4695 16291,4694 16300,4693 16309,4692 16318,4690 16328,4688 16338,4684 16348,4681 16374,4626 16403,4568 16455,4470 16455,4470 16468,4446 16504,4382 16544,4315 16633,4174 16706,4257 16706,4257 16741,4299 16686,4377 16628,4463 16572,4549 16525,4627 16609,4593 16703,4553 16798,4512 16883,4472 16984,4599 Z"/>
        <path fill="none" stroke="rgb(250,250,250)" stroke-width="53" stroke-linejoin="miter" d="M 3508,4689 L 3513,4683 3518,4677 3522,4671 3526,4665 3529,4660 3533,4655 3535,4649 3538,4644 3540,4639 3542,4635 3544,4630 3545,4624 3546,4620 3547,4616 3548,4611 3547,4607 3547,4603 3547,4599 3547,4595 3545,4591 3545,4588 3543,4584 3542,4581 3540,4578 3538,4575 3536,4572 3534,4569 3531,4565 3528,4563 3525,4559 3519,4554 3512,4548 3508,4546 3505,4545 3501,4542 3496,4540 3492,4539 3488,4539 3484,4537 3480,4537 3475,4537 3470,4537 3466,4537 3462,4537 3456,4538 3452,4539 3441,4542 3430,4546 3417,4551 3404,4557 3374,4572 3348,4586 3348,4587 3339,4592 3324,4601 3308,4610 3290,4619 3273,4627 3265,4631 3255,4635 3247,4639 3238,4641 3229,4644 3220,4646 3211,4648 3202,4649 3192,4651 3183,4651 3173,4652 3164,4652 3154,4652 3144,4651 3135,4650 3125,4647 3115,4645 3105,4642 3095,4637 3085,4633 3074,4627 3064,4621 3054,4614 3044,4606 3034,4599 3024,4590 3016,4582 3008,4572 3000,4564 2993,4554 2987,4545 2981,4535 2976,4525 2972,4514 2968,4503 2965,4493 2962,4482 2960,4471 2959,4459 2959,4448 2958,4437 2959,4426 2960,4414 2962,4402 2964,4390 2968,4378 2972,4367 2976,4354 2981,4342 2987,4329 2992,4317 2999,4305 3000,4304 2999,4304 3008,4293 3016,4281 3025,4269 3035,4257 3047,4242 3059,4229 3072,4217 3083,4206 3095,4195 3107,4185 3119,4176 3131,4168 3154,4153 3163,4147 3163,4147 3175,4141 3186,4136 3196,4131 3206,4127 3216,4124 3286,4245 3281,4248 3281,4248 3270,4252 3254,4260 3237,4269 3221,4279 3213,4285 3204,4291 3196,4298 3187,4305 3179,4313 3171,4321 3162,4330 3153,4340 3145,4351 3137,4362 3130,4372 3125,4381 3120,4390 3116,4398 3116,4399 3116,4400 3115,4404 3115,4408 3114,4412 3113,4416 3113,4419 3113,4423 3114,4427 3114,4431 3115,4434 3115,4438 3116,4441 3117,4444 3119,4447 3121,4450 3123,4454 3126,4456 3131,4463 3137,4468 3141,4472 3145,4474 3149,4476 3153,4478 3158,4480 3161,4481 3166,4482 3170,4483 3174,4484 3178,4483 3183,4483 3187,4482 3192,4481 3196,4480 3206,4478 3211,4476 3212,4476 3216,4474 3226,4470 3237,4467 3247,4461 3258,4455 3270,4449 3294,4435 3344,4409 3366,4397 3388,4388 3399,4384 3409,4380 3419,4377 3429,4374 3429,4374 3429,4374 3439,4372 3450,4370 3459,4369 3470,4368 3480,4368 3489,4368 3499,4370 3509,4370 3519,4372 3528,4375 3538,4378 3546,4382 3556,4386 3565,4390 3575,4396 3585,4402 3595,4408 3605,4415 3615,4423 3625,4432 3643,4449 3660,4467 3674,4487 3680,4496 3685,4505 3689,4516 3693,4526 3696,4536 3699,4546 3702,4557 3703,4568 3704,4579 3705,4589 3704,4600 3703,4606 3703,4607 3704,4611 3702,4623 3699,4634 3697,4646 3693,4658 3684,4681 3672,4705 3657,4730 3640,4755 3620,4780 3607,4796 3607,4796 3606,4797 3592,4812 3578,4826 3572,4833 3565,4839 3552,4851 3538,4862 3526,4872 3520,4877 3513,4881 3502,4889 3491,4896 3480,4901 3475,4905 3470,4907 3451,4915 3442,4919 3438,4920 3434,4922 3354,4806 3363,4803 3372,4798 3389,4790 3408,4778 3427,4766 3438,4759 3447,4751 3457,4743 3467,4734 3477,4723 3488,4713 3498,4702 3508,4689 Z"/>
        <path fill="none" stroke="rgb(250,250,250)" stroke-width="53" stroke-linejoin="miter" d="M 4224,4070 L 4215,4088 4202,4108 4188,4130 4172,4153 4154,4177 4153,4178 4152,4179 4135,4200 4114,4225 4092,4248 4081,4260 4070,4269 4058,4279 4048,4288 4036,4295 4025,4302 4014,4307 4002,4312 3997,4314 3996,4314 3991,4316 3981,4320 3970,4323 3959,4324 3948,4326 3937,4327 3927,4326 3915,4325 3905,4323 3894,4321 3882,4318 3872,4315 3861,4311 3851,4306 3839,4301 3829,4295 3807,4282 3786,4266 3764,4250 3742,4231 3508,4016 3588,3930 3588,3929 3614,3902 3830,4108 3857,4132 3870,4142 3883,4151 3894,4159 3905,4164 3915,4169 3920,4170 3925,4172 3930,4173 3934,4174 3939,4174 3944,4174 3949,4174 3954,4174 3958,4173 3963,4170 3968,4169 3972,4167 3977,4164 3982,4161 3986,4158 3990,4154 4000,4146 4005,4140 4011,4133 4022,4120 4028,4113 4033,4107 4041,4095 3728,3786 3839,3677 4224,4070 Z"/>
        <path fill="none" stroke="rgb(250,250,250)" stroke-width="53" stroke-linejoin="miter" d="M 4602,3376 L 4613,3389 4622,3403 4630,3416 4640,3429 4647,3442 4654,3455 4660,3469 4666,3483 4671,3496 4675,3510 4675,3517 4678,3521 4679,3523 4681,3536 4684,3550 4686,3563 4687,3577 4687,3589 4687,3602 4686,3615 4684,3627 4682,3640 4678,3652 4675,3665 4671,3676 4665,3688 4660,3699 4653,3711 4646,3722 4638,3732 4630,3743 4621,3753 4610,3761 4611,3762 4610,3763 4600,3772 4590,3781 4579,3789 4568,3797 4556,3803 4545,3810 4534,3815 4521,3820 4509,3824 4497,3828 4485,3830 4472,3832 4460,3833 4447,3833 4434,3834 4422,3833 4409,3831 4396,3829 4393,3828 4392,3828 4383,3826 4370,3823 4357,3819 4344,3814 4332,3809 4318,3803 4305,3797 4292,3789 4280,3781 4267,3772 4255,3763 4243,3752 4231,3743 4219,3731 4208,3719 4196,3706 4186,3694 4177,3681 4168,3668 4159,3656 4152,3643 4145,3630 4138,3616 4133,3602 4128,3588 4124,3575 4122,3561 4119,3548 4117,3534 4116,3526 4115,3524 4116,3521 4116,3508 4116,3495 4117,3482 4119,3469 4121,3456 4125,3443 4128,3430 4133,3418 4138,3406 4144,3394 4151,3382 4158,3371 4166,3360 4175,3348 4184,3338 4194,3327 4205,3318 4216,3308 4216,3308 4216,3308 4229,3300 4239,3292 4252,3284 4264,3278 4277,3273 4289,3267 4302,3264 4315,3260 4328,3257 4341,3256 4355,3254 4368,3253 4381,3253 4393,3254 4407,3256 4419,3258 4433,3261 4446,3264 4459,3269 4471,3274 4476,3277 4478,3278 4484,3280 4497,3286 4509,3293 4522,3302 4534,3311 4545,3320 4558,3330 4569,3340 4580,3351 4591,3363 4602,3376 Z"/>
        <path fill="none" stroke="rgb(250,250,250)" stroke-width="53" stroke-linejoin="miter" d="M 4484,3474 L 4472,3461 4460,3449 4448,3438 4435,3428 4423,3420 4410,3413 4398,3408 4386,3403 4379,3401 4374,3400 4368,3399 4361,3399 4356,3399 4350,3399 4344,3399 4338,3400 4333,3401 4328,3403 4322,3406 4317,3408 4312,3411 4308,3413 4307,3414 4306,3414 4300,3418 4296,3422 4291,3427 4287,3431 4283,3436 4279,3441 4276,3446 4274,3451 4270,3456 4268,3462 4266,3467 4266,3472 4264,3479 4263,3484 4263,3490 4263,3497 4263,3502 4264,3509 4266,3522 4270,3534 4276,3548 4282,3561 4290,3575 4300,3588 4309,3602 4321,3616 4333,3629 4346,3641 4359,3651 4371,3661 4384,3669 4396,3676 4408,3682 4421,3686 4428,3687 4433,3689 4440,3689 4446,3690 4451,3691 4458,3690 4462,3689 4468,3689 4473,3687 4479,3685 4484,3683 4490,3681 4495,3677 4500,3674 4505,3671 4509,3667 4513,3663 4518,3658 4518,3657 4519,3656 4522,3653 4526,3649 4528,3644 4532,3639 4534,3634 4536,3630 4537,3624 4539,3618 4540,3613 4540,3607 4541,3601 4541,3595 4540,3583 4537,3570 4533,3557 4528,3543 4522,3530 4514,3516 4505,3502 4496,3488 4484,3474 Z"/>
        <path fill="none" stroke="rgb(250,250,250)" stroke-width="53" stroke-linejoin="miter" d="M 5017,3040 L 4995,3011 4984,2999 4974,2989 4964,2979 4954,2972 4946,2965 4941,2963 4936,2961 4933,2959 4928,2958 4923,2957 4919,2956 4915,2955 4910,2956 4906,2955 4901,2956 4897,2957 4892,2959 4888,2960 4883,2962 4878,2964 4874,2967 4870,2969 4865,2973 4859,2977 4853,2982 4841,2992 4830,3002 4825,3007 4821,3010 4820,3010 4819,3012 5083,3366 4967,3454 4629,3017 4659,2980 4668,2970 4678,2959 4698,2937 4708,2927 4719,2915 4737,2898 4738,2898 4742,2895 4754,2885 4766,2875 4778,2865 4791,2856 4802,2848 4815,2840 4826,2833 4837,2827 4848,2823 4859,2818 4869,2814 4878,2812 4888,2810 4897,2808 4906,2807 4916,2807 4925,2806 4933,2806 4941,2806 4942,2807 4944,2807 4949,2807 4952,2798 4957,2788 4961,2778 4966,2769 4972,2759 4978,2750 4984,2741 4991,2732 4997,2723 5005,2715 5012,2706 5018,2700 5026,2692 5033,2686 5040,2680 5048,2675 5062,2666 5075,2658 5088,2651 5098,2645 5099,2644 5101,2644 5112,2640 5125,2636 5137,2633 5148,2631 5160,2630 5172,2629 5182,2628 5193,2630 5204,2630 5214,2633 5224,2636 5235,2639 5245,2643 5254,2648 5263,2653 5273,2660 5281,2666 5291,2673 5300,2681 5308,2690 5324,2708 5341,2728 5356,2750 5373,2774 5548,3046 5425,3125 5257,2873 5246,2857 5236,2843 5225,2831 5223,2830 5219,2825 5216,2820 5206,2810 5197,2802 5188,2797 5184,2794 5179,2791 5176,2789 5171,2788 5167,2787 5162,2786 5158,2785 5153,2785 5148,2785 5145,2785 5140,2787 5135,2788 5132,2789 5126,2791 5122,2793 5117,2796 5113,2798 5108,2801 5105,2803 5102,2805 5100,2808 5096,2811 5093,2814 5090,2818 5086,2822 5083,2826 5076,2835 5073,2839 5070,2843 5068,2848 5065,2852 5064,2855 5062,2860 5072,2869 5082,2878 5091,2888 5100,2898 5135,2945 5313,3202 5194,3286 5017,3040 Z"/>
        <path fill="none" stroke="rgb(250,250,250)" stroke-width="53" stroke-linejoin="miter" d="M 5646,2654 L 5636,2638 5628,2622 5621,2606 5614,2590 5608,2575 5604,2559 5599,2544 5596,2529 5595,2514 5593,2499 5593,2485 5593,2471 5593,2457 5594,2443 5597,2431 5599,2418 5602,2404 5606,2393 5611,2381 5616,2369 5622,2358 5628,2347 5636,2336 5643,2326 5651,2316 5659,2306 5664,2300 5665,2299 5668,2297 5677,2289 5687,2281 5697,2274 5708,2267 5718,2261 5744,2248 5757,2243 5770,2238 5783,2234 5795,2232 5808,2229 5820,2227 5832,2226 5845,2226 5856,2226 5869,2227 5877,2228 5879,2228 5881,2229 5893,2232 5905,2235 5917,2239 5929,2244 5940,2249 5951,2256 5962,2262 5984,2278 6005,2297 6024,2318 6042,2343 6060,2371 6077,2401 6091,2430 6094,2438 6097,2444 6099,2451 6103,2457 6023,2498 6022,2499 5836,2601 5835,2601 5804,2619 5812,2629 5819,2637 5828,2645 5837,2652 5842,2654 5847,2656 5857,2661 5868,2664 5871,2665 5872,2665 5880,2667 5886,2668 5892,2668 5898,2668 5904,2668 5917,2667 5930,2665 5943,2661 5956,2657 5969,2651 5984,2644 6001,2633 6018,2623 6034,2611 6049,2599 6063,2586 6066,2582 6067,2581 6077,2574 6083,2568 6088,2562 6092,2556 6097,2550 6175,2658 6173,2661 6172,2664 6166,2670 6161,2676 6154,2684 6147,2691 6138,2699 6132,2703 6131,2705 6130,2706 6121,2714 6111,2722 6101,2730 6090,2738 6079,2746 6068,2754 6057,2761 6045,2768 6033,2775 6018,2783 6003,2789 5989,2796 5974,2801 5959,2805 5952,2807 5951,2807 5945,2809 5931,2812 5916,2814 5902,2815 5889,2815 5876,2815 5863,2814 5850,2812 5837,2809 5824,2806 5811,2802 5799,2798 5787,2792 5775,2787 5764,2780 5752,2773 5741,2764 5731,2756 5720,2747 5709,2737 5699,2726 5690,2715 5680,2704 5671,2693 5663,2680 5646,2654 Z"/>
        <path fill="none" stroke="rgb(250,250,250)" stroke-width="53" stroke-linejoin="miter" d="M 5925,2426 L 5919,2417 5913,2409 5907,2401 5899,2393 5895,2390 5892,2387 5888,2384 5884,2381 5880,2378 5876,2376 5872,2373 5868,2372 5863,2370 5859,2368 5854,2367 5849,2365 5844,2365 5840,2364 5834,2364 5829,2364 5824,2365 5819,2364 5814,2365 5808,2367 5803,2369 5797,2371 5791,2373 5785,2377 5780,2380 5775,2383 5770,2387 5766,2390 5762,2394 5759,2398 5755,2402 5751,2406 5748,2411 5746,2415 5743,2419 5742,2424 5739,2428 5739,2429 5738,2430 5738,2433 5737,2438 5736,2443 5735,2447 5735,2453 5735,2457 5734,2462 5735,2467 5735,2472 5736,2477 5737,2483 5739,2493 5743,2503 5746,2513 5749,2523 5925,2426 Z"/>
        <path fill="none" stroke="rgb(250,250,250)" stroke-width="53" stroke-linejoin="miter" d="M 6178,2064 L 6194,2049 6213,2033 6235,2017 6256,2001 6256,2001 6260,1999 6287,1982 6316,1966 6345,1950 6376,1936 6392,1928 6406,1923 6422,1918 6436,1913 6450,1910 6456,1909 6457,1908 6464,1908 6477,1906 6490,1905 6502,1906 6514,1907 6526,1908 6538,1911 6548,1914 6560,1917 6569,1922 6579,1926 6588,1932 6598,1938 6606,1945 6615,1952 6623,1959 6631,1968 6638,1977 6646,1987 6660,2007 6673,2030 6685,2055 6697,2081 6822,2379 6689,2436 6688,2436 6688,2436 6566,2158 6551,2125 6542,2111 6535,2099 6527,2088 6519,2079 6512,2071 6508,2068 6504,2065 6500,2062 6496,2060 6492,2058 6487,2056 6483,2055 6478,2054 6473,2054 6468,2054 6464,2054 6458,2054 6453,2056 6447,2057 6442,2058 6437,2060 6424,2065 6417,2068 6410,2073 6393,2081 6378,2090 6371,2094 6364,2098 6549,2499 6418,2561 6178,2064 Z"/>
        <path fill="none" stroke="rgb(250,250,250)" stroke-width="53" stroke-linejoin="miter" d="M 7540,2128 L 7487,2143 7464,2149 7463,2150 7460,2150 7433,2158 7406,2164 7378,2169 7349,2174 7319,2177 7081,1487 7105,1475 7129,1462 7155,1449 7183,1437 7226,1419 7227,1418 7237,1415 7264,1406 7289,1398 7322,1389 7354,1381 7385,1374 7415,1370 7430,1368 7444,1367 7445,1367 7445,1367 7458,1367 7472,1368 7485,1369 7499,1371 7511,1373 7523,1376 7535,1379 7546,1383 7557,1388 7567,1393 7578,1399 7587,1406 7596,1413 7604,1421 7613,1430 7620,1439 7627,1449 7634,1460 7640,1471 7645,1484 7650,1497 7654,1511 7657,1521 7659,1532 7660,1543 7661,1553 7660,1564 7660,1574 7657,1584 7656,1595 7653,1604 7649,1615 7645,1624 7640,1633 7635,1643 7628,1652 7621,1662 7613,1671 7631,1673 7647,1676 7663,1681 7676,1685 7690,1692 7696,1696 7701,1699 7707,1703 7712,1707 7717,1712 7722,1717 7730,1726 7739,1737 7746,1748 7753,1760 7759,1771 7764,1785 7770,1798 7773,1811 7780,1840 7783,1867 7784,1880 7784,1892 7783,1905 7782,1917 7779,1929 7776,1941 7773,1952 7768,1963 7764,1974 7758,1984 7752,1995 7745,2005 7737,2015 7729,2024 7720,2033 7710,2042 7688,2059 7664,2075 7656,2077 7656,2078 7637,2090 7608,2103 7575,2116 7540,2128 Z"/>
        <path fill="none" stroke="rgb(250,250,250)" stroke-width="53" stroke-linejoin="miter" d="M 7362,1829 L 7422,2014 7439,2011 7449,2008 7458,2006 7478,2001 7489,1998 7500,1995 7517,1990 7532,1984 7546,1978 7559,1971 7572,1964 7583,1957 7593,1949 7601,1941 7605,1937 7609,1932 7612,1928 7612,1928 7613,1927 7615,1923 7618,1917 7621,1913 7622,1908 7623,1902 7624,1896 7625,1890 7626,1884 7625,1878 7624,1872 7623,1865 7620,1851 7615,1839 7614,1834 7611,1828 7608,1824 7606,1820 7602,1815 7599,1811 7595,1808 7591,1804 7586,1801 7583,1798 7578,1796 7573,1794 7572,1794 7572,1794 7568,1792 7564,1791 7558,1789 7553,1788 7547,1787 7542,1787 7529,1787 7517,1787 7503,1789 7489,1792 7473,1795 7458,1800 7362,1829 Z"/>
        <path fill="none" stroke="rgb(250,250,250)" stroke-width="53" stroke-linejoin="miter" d="M 7322,1706 L 7397,1683 7415,1678 7430,1672 7444,1666 7457,1659 7468,1653 7478,1646 7483,1643 7486,1639 7490,1636 7493,1632 7496,1628 7498,1625 7502,1621 7503,1617 7505,1614 7506,1609 7507,1605 7508,1600 7509,1596 7510,1591 7509,1587 7509,1582 7508,1577 7507,1574 7508,1572 7505,1562 7501,1552 7500,1551 7500,1551 7497,1542 7495,1538 7492,1535 7489,1531 7486,1527 7483,1524 7479,1522 7476,1519 7472,1516 7469,1514 7464,1513 7460,1511 7455,1510 7445,1508 7435,1508 7423,1509 7412,1509 7398,1512 7385,1514 7370,1517 7355,1522 7312,1535 7302,1538 7291,1543 7280,1547 7272,1550 7322,1706 Z"/>
        <path fill="none" stroke="rgb(250,250,250)" stroke-width="53" stroke-linejoin="miter" d="M 8213,1938 L 8071,1970 7938,1415 8089,1380 8213,1938 Z"/>
        <path fill="none" stroke="rgb(250,250,250)" stroke-width="53" stroke-linejoin="miter" d="M 8068,1216 L 8070,1227 8070,1237 8070,1247 8069,1257 8068,1261 8067,1266 8066,1270 8065,1274 8062,1279 8060,1284 8058,1287 8055,1291 8050,1299 8044,1305 8040,1308 8037,1311 8034,1314 8030,1316 8027,1319 8023,1321 8019,1323 8014,1325 8010,1326 8006,1328 7997,1330 7988,1332 7984,1332 7980,1333 7974,1333 7970,1333 7966,1333 7961,1332 7957,1331 7953,1330 7949,1329 7944,1328 7936,1325 7928,1320 7924,1318 7920,1316 7916,1313 7912,1309 7909,1306 7906,1303 7903,1299 7900,1295 7895,1287 7891,1278 7886,1269 7884,1259 7881,1248 7881,1238 7880,1228 7881,1218 7882,1214 7883,1209 7885,1205 7886,1201 7888,1196 7890,1191 7893,1188 7895,1184 7901,1176 7907,1170 7910,1166 7914,1164 7917,1161 7920,1159 7924,1156 7928,1154 7932,1152 7937,1150 7941,1148 7945,1147 7954,1144 7963,1142 7968,1142 7972,1142 7977,1142 7982,1142 7986,1142 7991,1142 7995,1143 7999,1144 8003,1145 8008,1147 8016,1150 8025,1154 8029,1157 8032,1159 8036,1162 8040,1165 8043,1168 8046,1171 8049,1175 8052,1179 8057,1187 8061,1196 8065,1206 8068,1216 Z"/>
        <path fill="none" stroke="rgb(250,250,250)" stroke-width="53" stroke-linejoin="miter" d="M 8251,1201 L 8323,1173 8324,1172 8402,1146 8432,1312 8570,1287 8571,1287 8616,1280 8638,1413 8592,1419 8591,1420 8456,1444 8491,1641 8494,1654 8497,1665 8499,1676 8503,1686 8508,1695 8513,1703 8517,1711 8522,1718 8525,1721 8528,1724 8531,1728 8534,1730 8539,1732 8542,1734 8546,1735 8550,1737 8555,1738 8560,1738 8565,1739 8570,1739 8575,1739 8580,1738 8592,1737 8604,1735 8615,1732 8627,1728 8639,1724 8641,1723 8642,1722 8652,1719 8663,1714 8674,1709 8684,1703 8724,1824 8711,1832 8698,1840 8683,1847 8669,1853 8664,1854 8663,1855 8660,1856 8652,1861 8644,1863 8635,1867 8624,1869 8614,1871 8592,1876 8578,1878 8564,1880 8551,1880 8538,1881 8526,1880 8514,1880 8502,1878 8492,1875 8481,1873 8472,1869 8462,1865 8456,1862 8454,1861 8453,1860 8445,1856 8437,1850 8429,1844 8421,1838 8414,1831 8407,1824 8400,1816 8395,1807 8389,1798 8383,1789 8378,1779 8374,1768 8370,1757 8365,1746 8357,1723 8351,1697 8345,1671 8251,1201 Z"/>
        <path fill="none" stroke="rgb(250,250,250)" stroke-width="53" stroke-linejoin="miter" d="M 8835,1536 L 8833,1521 8832,1506 8831,1490 8832,1476 8832,1461 8833,1446 8835,1432 8837,1418 8840,1404 8844,1391 8849,1377 8853,1364 8859,1352 8865,1340 8872,1328 8880,1316 8888,1305 8896,1295 8905,1285 8915,1276 8925,1266 8935,1258 8947,1250 8959,1242 8972,1235 8985,1228 8999,1223 9006,1219 9007,1218 9013,1217 9028,1213 9043,1210 9058,1206 9074,1205 9096,1203 9118,1202 9127,1203 9138,1203 9147,1204 9156,1205 9174,1207 9193,1211 9210,1215 9228,1221 9208,1352 9197,1350 9185,1346 9173,1345 9159,1343 9146,1341 9132,1340 9124,1340 9117,1341 9110,1340 9102,1341 9086,1344 9078,1346 9070,1347 9063,1350 9056,1352 9051,1356 9044,1359 9038,1362 9032,1366 9028,1371 9025,1372 9024,1373 9023,1375 9019,1380 9014,1385 9010,1391 9006,1397 9000,1409 8995,1423 8991,1436 8987,1451 8986,1466 8985,1483 8986,1499 8987,1517 8989,1536 8993,1553 8997,1569 9003,1584 9009,1598 9016,1611 9024,1622 9032,1632 9036,1637 9041,1641 9046,1645 9051,1649 9055,1651 9056,1651 9058,1652 9063,1655 9070,1657 9076,1659 9083,1661 9090,1662 9098,1663 9106,1664 9123,1664 9142,1663 9155,1662 9169,1660 9183,1656 9197,1652 9205,1650 9212,1647 9219,1644 9226,1642 9234,1639 9240,1635 9246,1632 9252,1628 9271,1702 9271,1707 9285,1758 9279,1762 9276,1762 9276,1763 9272,1766 9257,1773 9242,1779 9224,1785 9214,1788 9204,1792 9195,1794 9184,1796 9162,1800 9140,1803 9123,1804 9107,1804 9091,1804 9076,1803 9074,1802 9073,1802 9060,1802 9046,1799 9031,1797 9018,1793 9005,1788 8993,1783 8980,1777 8969,1772 8957,1765 8947,1757 8937,1749 8927,1741 8918,1732 8909,1722 8900,1711 8892,1700 8885,1690 8878,1678 8871,1665 8866,1652 8860,1638 8855,1625 8851,1611 8847,1596 8840,1567 8835,1536 Z"/>
        <path fill="none" stroke="rgb(250,250,250)" stroke-width="53" stroke-linejoin="miter" d="M 9934,1456 L 9934,1473 9933,1490 9931,1505 9930,1521 9927,1536 9925,1551 9921,1565 9917,1580 9912,1593 9906,1607 9902,1619 9895,1631 9894,1631 9894,1631 9888,1643 9882,1655 9874,1666 9866,1676 9858,1686 9849,1695 9840,1704 9830,1712 9820,1719 9809,1727 9799,1733 9787,1739 9776,1745 9764,1750 9751,1753 9739,1756 9725,1759 9712,1762 9699,1763 9690,1763 9690,1763 9684,1763 9671,1764 9656,1764 9643,1763 9630,1761 9618,1759 9605,1756 9592,1752 9580,1747 9568,1742 9558,1736 9547,1730 9536,1723 9526,1715 9516,1708 9507,1699 9498,1690 9489,1680 9481,1670 9478,1666 9477,1665 9472,1659 9465,1648 9458,1636 9451,1624 9445,1611 9439,1598 9433,1584 9429,1570 9424,1555 9421,1541 9418,1525 9415,1509 9413,1493 9412,1476 9411,1459 9410,1443 9411,1427 9412,1412 9413,1397 9416,1382 9418,1367 9422,1353 9427,1339 9432,1325 9437,1312 9443,1300 9450,1287 9452,1282 9453,1280 9457,1276 9465,1265 9472,1254 9481,1244 9490,1235 9499,1226 9509,1217 9520,1210 9531,1202 9542,1195 9554,1189 9566,1183 9579,1179 9591,1173 9605,1170 9619,1167 9632,1165 9647,1162 9661,1162 9667,1161 9667,1161 9675,1161 9691,1163 9704,1163 9719,1166 9732,1168 9745,1172 9758,1175 9771,1181 9783,1186 9795,1192 9806,1199 9818,1206 9828,1214 9839,1221 9848,1230 9857,1240 9866,1250 9874,1260 9882,1271 9890,1282 9890,1283 9890,1284 9896,1294 9902,1307 9908,1320 9914,1334 9918,1348 9922,1363 9925,1377 9928,1392 9930,1408 9932,1423 9934,1439 9934,1456 Z"/>
        <path fill="none" stroke="rgb(250,250,250)" stroke-width="53" stroke-linejoin="miter" d="M 9780,1459 L 9780,1441 9777,1424 9775,1408 9771,1392 9767,1378 9762,1365 9755,1353 9749,1342 9745,1336 9741,1332 9737,1327 9732,1323 9728,1320 9724,1316 9719,1313 9713,1310 9708,1307 9703,1306 9697,1304 9692,1302 9686,1302 9680,1301 9672,1300 9672,1300 9672,1300 9666,1300 9660,1301 9654,1302 9648,1303 9642,1304 9636,1306 9631,1309 9625,1311 9620,1314 9615,1317 9611,1320 9606,1324 9603,1328 9599,1333 9594,1338 9591,1342 9587,1348 9581,1360 9576,1372 9572,1386 9569,1400 9566,1416 9565,1432 9564,1449 9565,1467 9566,1485 9569,1502 9572,1518 9575,1533 9580,1548 9586,1561 9591,1573 9599,1585 9603,1590 9606,1594 9611,1598 9615,1603 9619,1607 9624,1610 9628,1613 9633,1616 9638,1618 9644,1620 9649,1622 9655,1623 9661,1624 9667,1624 9673,1625 9679,1625 9685,1624 9685,1623 9685,1623 9691,1623 9697,1622 9703,1621 9708,1619 9714,1617 9719,1615 9723,1613 9728,1609 9733,1606 9737,1602 9741,1598 9745,1593 9749,1589 9756,1578 9761,1567 9767,1554 9771,1540 9775,1526 9778,1510 9779,1494 9781,1477 9780,1459 Z"/>
        <path fill="none" stroke="rgb(250,250,250)" stroke-width="53" stroke-linejoin="miter" d="M 10314,1748 L 10309,1748 10309,1748 10169,1744 10181,1173 10330,1177 10330,1177 10336,1177 10314,1748 Z"/>
        <path fill="none" stroke="rgb(250,250,250)" stroke-width="53" stroke-linejoin="miter" d="M 10357,1013 L 10357,1024 10354,1033 10352,1043 10348,1052 10346,1057 10344,1061 10342,1064 10339,1068 10336,1072 10334,1073 10334,1074 10333,1076 10330,1078 10326,1082 10319,1088 10311,1092 10307,1095 10303,1097 10300,1098 10296,1100 10291,1102 10287,1103 10283,1103 10278,1104 10274,1105 10269,1106 10260,1106 10251,1105 10247,1104 10243,1103 10237,1102 10233,1101 10229,1100 10225,1099 10221,1097 10218,1095 10214,1093 10210,1090 10202,1085 10195,1079 10192,1075 10189,1072 10186,1069 10183,1064 10181,1061 10179,1057 10177,1052 10175,1048 10172,1039 10170,1029 10168,1019 10168,1008 10169,997 10171,987 10173,978 10177,969 10179,964 10181,960 10183,956 10185,953 10189,948 10192,945 10195,942 10198,938 10206,932 10213,928 10218,925 10222,924 10225,922 10229,920 10234,918 10238,918 10242,917 10248,916 10252,915 10256,914 10266,915 10275,915 10279,916 10284,917 10289,918 10293,919 10297,920 10302,922 10306,924 10309,926 10313,927 10317,930 10324,935 10332,941 10335,945 10338,948 10339,949 10339,949 10341,952 10344,956 10346,960 10348,964 10350,968 10352,973 10354,982 10356,992 10358,1002 10357,1013 Z"/>
        <path fill="none" stroke="rgb(250,250,250)" stroke-width="53" stroke-linejoin="miter" d="M 10534,1207 L 10549,1202 10550,1203 10556,1202 10580,1198 10607,1195 10637,1192 10669,1190 10702,1189 10735,1190 10769,1192 10772,1192 10772,1192 10787,1193 10802,1196 10818,1199 10832,1203 10847,1207 10860,1212 10872,1217 10883,1222 10894,1229 10904,1235 10913,1242 10923,1250 10930,1258 10939,1266 10945,1275 10951,1283 10956,1293 10961,1303 10965,1313 10969,1323 10973,1334 10976,1345 10976,1348 10977,1349 10978,1357 10980,1369 10982,1394 10982,1420 10981,1447 10979,1476 10942,1797 10926,1795 10925,1795 10797,1782 10826,1480 10829,1444 10828,1428 10828,1413 10827,1399 10824,1387 10822,1377 10819,1372 10818,1368 10815,1364 10813,1360 10811,1356 10807,1352 10804,1349 10801,1346 10797,1343 10792,1341 10788,1338 10783,1336 10778,1335 10772,1332 10767,1331 10761,1330 10760,1329 10760,1329 10748,1328 10740,1328 10732,1328 10714,1328 10696,1328 10688,1328 10680,1329 10645,1769 10500,1758 10534,1207 Z"/>
        <path fill="none" stroke="rgb(250,250,250)" stroke-width="53" stroke-linejoin="miter" d="M 11195,1428 L 11399,1458 11400,1459 11489,1474 11463,1619 11376,1603 11375,1603 11175,1573 11195,1428 Z"/>
        <path fill="none" stroke="rgb(250,250,250)" stroke-width="53" stroke-linejoin="miter" d="M 12173,1443 L 12004,1720 12003,1720 12003,1720 11837,1969 11822,1989 11807,2008 11793,2025 11779,2040 11772,2047 11765,2054 11758,2060 11752,2066 11745,2071 11738,2076 11730,2081 11723,2085 11716,2089 11709,2093 11705,2093 11705,2094 11701,2096 11694,2099 11687,2101 11680,2103 11671,2105 11664,2106 11656,2107 11648,2108 11639,2108 11631,2107 11621,2106 11612,2105 11603,2104 11593,2102 11577,2098 11562,2094 11547,2088 11534,2083 11522,2077 11510,2071 11504,2067 11504,2066 11500,2064 11491,2059 11518,1989 11520,1986 11540,1936 11550,1943 11560,1948 11565,1950 11569,1952 11573,1954 11577,1956 11582,1958 11585,1959 11590,1961 11594,1962 11604,1965 11613,1967 11622,1969 11631,1969 11635,1968 11640,1968 11644,1968 11648,1967 11651,1967 11655,1966 11658,1965 11663,1963 11666,1962 11669,1960 11672,1958 11676,1955 11682,1950 11688,1945 11694,1939 11700,1932 11707,1925 11712,1917 11718,1908 11724,1899 11711,1840 11698,1777 11674,1641 11663,1568 11652,1491 11639,1359 11639,1356 11635,1324 11644,1326 11645,1326 11797,1356 11802,1451 11810,1555 11813,1592 11813,1593 11820,1657 11830,1748 11875,1670 11924,1580 11973,1489 12016,1405 12173,1443 Z"/>
        <path fill="none" stroke="rgb(250,250,250)" stroke-width="53" stroke-linejoin="miter" d="M 12206,2044 L 12425,1257 12580,1274 12580,1273 12587,1275 12508,1538 12517,1538 12527,1538 12538,1539 12550,1539 12562,1541 12574,1543 12586,1546 12597,1549 12612,1554 12627,1559 12641,1565 12654,1571 12666,1578 12677,1585 12688,1592 12697,1600 12706,1608 12709,1611 12710,1612 12714,1616 12722,1625 12728,1634 12734,1644 12739,1653 12744,1663 12748,1673 12751,1684 12754,1694 12755,1705 12757,1716 12759,1728 12759,1740 12758,1751 12758,1763 12754,1789 12749,1814 12741,1839 12733,1867 12630,2173 12538,2142 12537,2142 12492,2128 12583,1839 12593,1804 12596,1788 12599,1774 12601,1760 12601,1748 12601,1738 12599,1733 12599,1728 12598,1724 12596,1719 12594,1715 12592,1711 12590,1707 12587,1703 12584,1700 12581,1697 12576,1694 12573,1691 12569,1688 12563,1685 12559,1682 12553,1681 12541,1676 12532,1673 12523,1671 12518,1670 12513,1669 12509,1669 12504,1668 12470,1667 12346,2084 12206,2044 Z"/>
        <path fill="none" stroke="rgb(250,250,250)" stroke-width="53" stroke-linejoin="miter" d="M 13082,2027 L 13076,2044 13071,2062 13067,2077 13065,2093 13063,2109 13063,2123 13065,2138 13067,2151 13068,2157 13070,2164 13073,2170 13076,2176 13079,2182 13082,2187 13085,2192 13090,2197 13094,2201 13099,2206 13104,2210 13109,2214 13115,2217 13121,2221 13127,2224 13135,2227 13144,2231 13153,2233 13167,2238 13167,2238 13170,2239 13177,2241 13185,2243 13196,2246 13309,1974 13306,1970 13304,1967 13300,1964 13298,1960 13294,1956 13290,1952 13286,1949 13286,1949 13286,1949 13281,1945 13276,1941 13271,1938 13266,1935 13261,1932 13255,1929 13251,1926 13245,1924 13240,1922 13227,1918 13215,1915 13204,1913 13192,1914 13181,1915 13170,1918 13160,1922 13150,1928 13140,1936 13130,1945 13122,1955 13113,1966 13105,1979 13097,1994 13082,2027 Z"/>
        <path fill="none" stroke="rgb(250,250,250)" stroke-width="53" stroke-linejoin="miter" d="M 13288,2406 L 13278,2405 13267,2404 13255,2403 13242,2400 13230,2398 13216,2395 13190,2388 13163,2381 13149,2377 13135,2373 13121,2368 13115,2365 13115,2365 13108,2364 13095,2359 13082,2354 13068,2349 13054,2342 13041,2335 13029,2328 13017,2320 13006,2312 12995,2303 12985,2294 12975,2284 12967,2274 12958,2264 12951,2253 12943,2243 12942,2240 12942,2239 12938,2231 12932,2220 12928,2208 12923,2196 12919,2184 12915,2171 12913,2158 12912,2145 12911,2131 12909,2117 12910,2103 12911,2088 12912,2073 12914,2059 12918,2044 12921,2029 12925,2013 12935,1981 12948,1949 12962,1920 12969,1906 12977,1894 12985,1881 12994,1869 13002,1858 13012,1847 13021,1837 13031,1827 13041,1818 13051,1811 13062,1803 13072,1796 13083,1790 13094,1785 13106,1780 13117,1776 13119,1775 13119,1775 13128,1773 13140,1770 13152,1768 13164,1767 13176,1767 13190,1768 13202,1769 13215,1771 13228,1773 13241,1776 13255,1781 13269,1786 13283,1792 13290,1796 13297,1799 13303,1803 13309,1806 13315,1809 13320,1813 13331,1821 13336,1825 13336,1825 13341,1830 13351,1840 13356,1845 13361,1850 13459,1611 13617,1650 13288,2406 Z"/>
        <path fill="none" stroke="rgb(250,250,250)" stroke-width="53" stroke-linejoin="miter" d="M 13650,2593 L 13519,2530 13763,2014 13903,2081 13650,2593 Z"/>
        <path fill="none" stroke="rgb(250,250,250)" stroke-width="53" stroke-linejoin="miter" d="M 13990,1940 L 13985,1950 13979,1957 13972,1965 13965,1972 13962,1975 13958,1978 13954,1981 13951,1983 13946,1986 13942,1988 13938,1989 13933,1991 13924,1993 13915,1994 13910,1995 13906,1994 13902,1995 13898,1994 13893,1994 13889,1993 13885,1992 13880,1991 13876,1990 13871,1989 13863,1985 13855,1981 13851,1978 13848,1975 13844,1972 13840,1970 13837,1967 13834,1964 13831,1960 13829,1957 13826,1954 13823,1950 13819,1942 13815,1933 13814,1929 13812,1925 13811,1920 13810,1915 13810,1911 13809,1907 13809,1902 13809,1897 13810,1887 13813,1877 13815,1867 13820,1858 13824,1848 13830,1840 13836,1832 13843,1825 13847,1822 13851,1819 13854,1816 13858,1814 13862,1811 13867,1809 13871,1808 13875,1807 13885,1804 13893,1803 13898,1803 13903,1803 13906,1803 13911,1803 13916,1803 13920,1804 13924,1805 13929,1807 13933,1808 13938,1809 13946,1813 13955,1817 13958,1820 13962,1822 13966,1825 13969,1828 13973,1831 13976,1834 13979,1838 13981,1841 13984,1844 13987,1848 13991,1856 13995,1865 13997,1869 13998,1873 13999,1878 14000,1883 14001,1887 14001,1891 14001,1896 14001,1901 14000,1911 13997,1920 13995,1930 13990,1940 Z"/>
        <path fill="none" stroke="rgb(250,250,250)" stroke-width="53" stroke-linejoin="miter" d="M 14002,2645 L 14010,2649 14018,2653 14026,2657 14034,2659 14040,2662 14046,2663 14051,2664 14054,2664 14057,2664 14059,2664 14061,2664 14063,2664 14066,2663 14068,2662 14070,2661 14072,2660 14074,2659 14076,2658 14078,2656 14079,2655 14081,2653 14084,2649 14087,2643 14089,2641 14090,2639 14090,2636 14091,2635 14091,2632 14091,2630 14092,2627 14092,2625 14091,2623 14091,2620 14091,2617 14090,2615 14088,2608 14085,2603 14082,2597 14077,2590 14068,2576 14056,2559 14042,2541 14031,2527 14019,2513 14010,2499 14000,2486 13996,2479 13992,2472 13991,2471 13991,2469 13988,2465 13984,2458 13980,2451 13979,2444 13975,2437 13973,2430 13971,2423 13970,2416 13969,2408 13968,2401 13969,2394 13968,2387 13969,2379 13969,2371 13970,2363 13972,2355 13974,2347 13977,2339 13980,2330 13984,2322 13987,2313 13992,2304 14002,2287 14012,2271 14025,2258 14031,2252 14038,2246 14044,2241 14052,2237 14059,2232 14067,2228 14076,2224 14084,2222 14092,2220 14102,2217 14111,2216 14120,2215 14128,2213 14128,2213 14129,2213 14139,2213 14149,2214 14159,2215 14169,2216 14178,2219 14199,2224 14219,2231 14240,2240 14262,2251 14284,2264 14304,2276 14324,2290 14333,2298 14333,2298 14334,2299 14342,2305 14359,2320 14373,2335 14385,2348 14395,2360 14310,2455 14300,2444 14289,2433 14270,2412 14269,2412 14267,2411 14261,2405 14255,2400 14248,2395 14240,2390 14226,2380 14209,2371 14193,2363 14187,2361 14180,2358 14173,2356 14167,2354 14161,2354 14157,2355 14151,2355 14147,2355 14142,2357 14138,2359 14134,2362 14131,2365 14128,2369 14125,2374 14124,2376 14123,2377 14122,2380 14122,2382 14121,2383 14121,2386 14120,2388 14120,2390 14120,2392 14120,2394 14120,2396 14121,2399 14121,2401 14122,2403 14123,2406 14124,2408 14126,2414 14130,2420 14133,2427 14138,2434 14143,2442 14150,2451 14157,2459 14165,2469 14181,2489 14195,2508 14206,2522 14207,2524 14208,2525 14218,2543 14223,2551 14227,2559 14231,2567 14233,2574 14236,2582 14238,2590 14240,2597 14241,2604 14243,2611 14244,2618 14244,2625 14243,2632 14244,2640 14242,2646 14242,2653 14240,2660 14238,2668 14235,2674 14232,2681 14230,2688 14223,2703 14214,2718 14203,2735 14191,2750 14184,2758 14179,2764 14172,2770 14164,2775 14157,2780 14150,2784 14142,2788 14134,2792 14126,2795 14118,2797 14109,2799 14100,2800 14091,2801 14082,2801 14073,2801 14063,2801 14051,2799 14050,2799 14044,2798 14024,2794 14003,2788 13982,2781 13960,2771 13938,2759 13909,2743 13896,2735 13885,2726 13874,2718 13864,2711 13863,2710 13863,2710 13853,2702 13844,2694 13828,2679 13815,2666 13806,2655 13802,2650 13798,2646 13880,2541 13895,2556 13908,2571 13923,2585 13937,2599 13945,2605 13952,2612 13960,2618 13968,2624 13985,2634 14002,2645 Z"/>
        <path fill="none" stroke="rgb(250,250,250)" stroke-width="53" stroke-linejoin="miter" d="M 14673,2342 L 14797,2392 14798,2391 14821,2403 14730,2545 14888,2647 14813,2759 14658,2658 14550,2828 14544,2839 14538,2849 14533,2859 14529,2869 14526,2879 14524,2888 14522,2896 14521,2905 14521,2909 14521,2914 14521,2918 14522,2922 14524,2926 14525,2930 14527,2934 14529,2938 14531,2942 14535,2945 14538,2950 14541,2953 14545,2956 14550,2960 14559,2967 14569,2973 14580,2979 14591,2984 14603,2989 14615,2994 14627,2998 14639,3001 14650,3004 14632,3043 14630,3048 14597,3119 14584,3117 14583,3116 14582,3117 14567,3113 14552,3109 14536,3104 14528,3101 14519,3099 14512,3095 14503,3091 14493,3086 14484,3080 14465,3069 14453,3061 14441,3052 14432,3044 14422,3035 14413,3027 14405,3018 14403,3015 14403,3015 14397,3009 14391,3000 14386,2991 14381,2982 14376,2973 14373,2964 14370,2954 14368,2945 14366,2935 14365,2926 14364,2916 14364,2905 14364,2895 14366,2885 14368,2874 14370,2864 14373,2853 14378,2842 14382,2831 14386,2819 14396,2797 14409,2774 14422,2751 14673,2342 Z"/>
        <path fill="none" stroke="rgb(250,250,250)" stroke-width="53" stroke-linejoin="miter" d="M 15473,3072 L 15330,3168 15328,3170 15205,3256 14950,3415 14928,3427 14907,3439 14887,3448 14868,3456 14859,3460 14850,3463 14841,3465 14838,3466 14838,3465 14833,3468 14824,3471 14816,3473 14807,3474 14799,3475 14791,3476 14782,3476 14774,3476 14766,3476 14759,3475 14751,3474 14743,3472 14735,3470 14728,3467 14721,3465 14713,3461 14705,3457 14697,3452 14689,3448 14681,3443 14673,3437 14660,3427 14648,3417 14637,3406 14635,3403 14634,3401 14627,3395 14618,3385 14610,3375 14603,3365 14598,3357 14692,3264 14699,3274 14706,3283 14709,3287 14713,3290 14713,3290 14713,3291 14715,3293 14719,3297 14722,3300 14725,3303 14728,3307 14732,3310 14739,3316 14747,3322 14754,3327 14762,3331 14766,3332 14771,3334 14774,3336 14778,3337 14781,3338 14785,3338 14789,3339 14793,3339 14797,3339 14801,3338 14805,3338 14808,3337 14816,3335 14824,3333 14832,3330 14840,3326 14849,3322 14858,3317 14867,3312 14876,3306 14888,3246 14902,3184 14935,3049 14955,2978 14970,2928 14970,2926 14977,2903 15030,2744 15076,2776 15077,2777 15164,2840 15130,2929 15095,3027 15062,3124 15034,3211 15107,3158 15189,3096 15271,3033 15345,2973 15473,3072 Z"/>
        <path fill="none" stroke="rgb(250,250,250)" stroke-width="53" stroke-linejoin="miter" d="M 15447,3639 L 15454,3646 15461,3651 15468,3656 15475,3660 15476,3659 15477,3660 15481,3664 15487,3666 15491,3668 15494,3670 15496,3670 15498,3671 15501,3671 15503,3671 15506,3671 15508,3671 15510,3670 15512,3670 15514,3669 15516,3668 15519,3667 15520,3666 15522,3664 15527,3661 15531,3656 15532,3654 15534,3653 15535,3650 15536,3649 15537,3646 15537,3644 15538,3641 15539,3639 15539,3637 15540,3634 15539,3631 15539,3629 15538,3622 15537,3616 15535,3609 15532,3602 15531,3597 15531,3596 15526,3586 15518,3567 15508,3547 15500,3531 15491,3515 15485,3499 15478,3484 15475,3477 15472,3469 15470,3461 15468,3454 15466,3446 15466,3439 15464,3431 15464,3424 15463,3417 15464,3410 15464,3402 15465,3394 15467,3388 15467,3380 15470,3373 15472,3365 15474,3358 15478,3350 15482,3343 15487,3335 15492,3328 15497,3320 15502,3312 15508,3304 15522,3289 15535,3276 15550,3266 15558,3262 15565,3258 15573,3254 15581,3251 15589,3248 15597,3246 15607,3245 15616,3244 15624,3243 15633,3243 15642,3244 15652,3245 15661,3245 15670,3247 15680,3250 15690,3253 15699,3256 15708,3260 15727,3269 15746,3280 15765,3294 15782,3307 15783,3308 15784,3309 15802,3326 15819,3343 15835,3360 15843,3371 15850,3380 15863,3397 15874,3414 15884,3430 15891,3444 15787,3519 15779,3506 15772,3493 15755,3467 15750,3460 15745,3454 15739,3447 15733,3441 15721,3428 15707,3415 15697,3406 15696,3406 15693,3404 15687,3400 15681,3396 15675,3393 15669,3390 15664,3389 15659,3388 15653,3387 15649,3387 15644,3388 15640,3389 15635,3391 15632,3394 15628,3396 15624,3400 15623,3402 15621,3404 15620,3406 15619,3408 15618,3409 15618,3411 15616,3413 15616,3415 15615,3417 15615,3419 15614,3421 15615,3424 15614,3426 15615,3429 15615,3431 15615,3434 15617,3440 15619,3447 15621,3454 15625,3462 15628,3470 15632,3479 15633,3480 15633,3480 15637,3490 15643,3502 15655,3525 15664,3547 15673,3567 15679,3586 15682,3594 15684,3604 15687,3612 15687,3620 15688,3628 15689,3636 15689,3643 15689,3650 15689,3658 15689,3664 15687,3672 15685,3678 15684,3686 15681,3692 15679,3698 15676,3705 15673,3712 15669,3718 15664,3724 15660,3730 15651,3743 15639,3756 15625,3770 15610,3782 15602,3788 15595,3793 15587,3798 15578,3801 15570,3805 15562,3807 15554,3810 15545,3812 15537,3812 15528,3813 15519,3813 15510,3813 15501,3812 15492,3810 15483,3808 15474,3806 15455,3799 15437,3791 15418,3780 15399,3768 15389,3761 15389,3760 15380,3754 15360,3738 15336,3717 15325,3706 15315,3695 15306,3685 15296,3675 15289,3665 15281,3656 15269,3637 15260,3621 15253,3608 15251,3604 15251,3604 15250,3603 15248,3598 15274,3576 15277,3573 15350,3513 15360,3531 15370,3549 15381,3565 15393,3582 15399,3590 15405,3598 15412,3605 15418,3613 15432,3626 15447,3639 Z"/>
        <path fill="none" stroke="rgb(250,250,250)" stroke-width="53" stroke-linejoin="miter" d="M 16408,4137 L 16403,4128 16397,4117 16384,4095 16380,4089 16376,4083 16372,4077 16368,4071 16359,4059 16348,4047 16342,4041 16336,4035 16329,4029 16322,4023 16316,4018 16316,4017 16315,4018 16309,4013 16305,4010 16302,4009 16300,4007 16297,4006 15979,4306 15878,4202 16264,3823 16285,3833 16306,3845 16329,3859 16354,3873 16367,3881 16379,3890 16391,3900 16404,3910 16416,3920 16418,3921 16419,3922 16428,3931 16451,3956 16456,3960 16460,3966 16470,3979 16476,3986 16481,3993 16492,4009 16501,4023 16506,4031 16511,4039 16515,4046 16519,4054 16523,4061 16524,4065 16525,4067 16408,4137 Z"/>
        <path fill="none" stroke="rgb(250,250,250)" stroke-width="53" stroke-linejoin="miter" d="M 16984,4599 L 16679,4713 16394,4805 16375,4809 16374,4809 16369,4811 16347,4817 16324,4822 16304,4825 16294,4827 16285,4827 16275,4827 16267,4828 16257,4829 16249,4828 16240,4827 16232,4826 16224,4825 16216,4824 16208,4821 16201,4819 16194,4816 16187,4814 16179,4810 16172,4806 16166,4802 16159,4797 16152,4792 16146,4786 16139,4780 16133,4773 16126,4766 16120,4759 16119,4756 16119,4756 16110,4746 16100,4734 16092,4720 16084,4708 16078,4695 16073,4684 16069,4673 16066,4663 16180,4596 16184,4608 16189,4618 16191,4622 16193,4627 16195,4630 16197,4634 16200,4638 16202,4642 16204,4646 16207,4650 16213,4657 16219,4665 16222,4668 16222,4668 16225,4672 16232,4677 16235,4680 16239,4683 16242,4685 16246,4687 16249,4688 16252,4690 16256,4691 16260,4693 16263,4694 16267,4694 16271,4695 16275,4695 16283,4695 16291,4694 16300,4693 16309,4692 16318,4690 16328,4688 16338,4684 16348,4681 16374,4626 16403,4568 16455,4470 16455,4470 16468,4446 16504,4382 16544,4315 16633,4174 16706,4257 16706,4257 16741,4299 16686,4377 16628,4463 16572,4549 16525,4627 16609,4593 16703,4553 16798,4512 16883,4472 16984,4599 Z"/>
       </g>
      </g>
      <g class="com.sun.star.drawing.ClosedBezierShape">
       <g id="id6">
        <rect class="BoundingBox" stroke="none" fill="none" x="5400" y="4099" width="8649" height="11448"/>
        <path fill="rgb(247,147,26)" stroke="none" d="M 14025,8702 C 13895,9583 13406,10009 12759,10158 13648,10622 14101,11332 13671,12563 13135,14093 11863,14222 10172,13902 10035,14451 9898,14999 9761,15546 9431,15464 9100,15382 8769,15299 8905,14759 9040,14218 9175,13677 8917,13613 8655,13545 8384,13472 8249,14016 8114,14559 7978,15102 7647,15020 7317,14938 6987,14855 7124,14306 7261,13757 7398,13207 7165,13147 6931,13084 6691,13025 6260,12918 5831,12811 5400,12703 5564,12324 5728,11946 5892,11567 6133,11627 6623,11762 6613,11748 6894,11818 7018,11634 7067,11512 7284,10645 7500,9779 7717,8912 L 7719,8904 C 7718,8904 7718,8904 7718,8904 7872,8285 8026,7667 8181,7048 8193,6838 8120,6572 7719,6472 7734,6461 7238,6353 6998,6293 7086,5940 7174,5586 7262,5233 7718,5347 8174,5461 8629,5575 L 8629,5579 C 8835,5631 9045,5679 9262,5728 9397,5186 9533,4643 9667,4100 9998,4182 10328,4265 10659,4347 10526,4880 10394,5412 10261,5944 10527,6004 10795,6065 11056,6132 11187,5602 11320,5074 11452,4544 11782,4626 12113,4709 12443,4792 12307,5335 12172,5878 12037,6421 13288,6853 14205,7499 14025,8702 Z M 11759,11879 C 12080,10595 9923,10263 9252,10095 9069,10822 8887,11551 8706,12278 9379,12445 11453,13112 11759,11879 Z M 12065,8683 C 12357,7516 10554,7255 9994,7115 9829,7775 9665,8436 9500,9096 10060,9235 11785,9804 12065,8683 Z"/>
       </g>
      </g>
     </g>
    </g>
   </g>
  </g>
 </g>
</svg>