<?xml version="1.0" encoding="UTF-8" standalone="no"?>
<!-- Created with Inkscape (http://www.inkscape.org/) -->

<svg
   width="125mm"
   height="125mm"
   viewBox="0 0 125 125"
   version="1.1"
   id="svg1"
   xml:space="preserve"
   inkscape:version="1.3.2 (091e20e, 2023-11-25, custom)"
   sodipodi:docname="SBY-FBA-Inkscape-fonts.svg"
   inkscape:export-filename="SBY-FBA-helpers.png"
   inkscape:export-xdpi="130.048"
   inkscape:export-ydpi="130.048"
   xmlns:inkscape="http://www.inkscape.org/namespaces/inkscape"
   xmlns:sodipodi="http://sodipodi.sourceforge.net/DTD/sodipodi-0.dtd"
   xmlns:xlink="http://www.w3.org/1999/xlink"
   xmlns="http://www.w3.org/2000/svg"
   xmlns:svg="http://www.w3.org/2000/svg"><sodipodi:namedview
     id="namedview1"
     pagecolor="#ffffff"
     bordercolor="#000000"
     borderopacity="0.25"
     inkscape:showpageshadow="2"
     inkscape:pageopacity="0.0"
     inkscape:pagecheckerboard="0"
     inkscape:deskcolor="#d1d1d1"
     inkscape:document-units="mm"
     showgrid="false"
     inkscape:zoom="1.7758833"
     inkscape:cx="236.22048"
     inkscape:cy="236.22048"
     inkscape:window-width="1920"
     inkscape:window-height="1017"
     inkscape:window-x="1912"
     inkscape:window-y="-8"
     inkscape:window-maximized="1"
     inkscape:current-layer="layer1" /><defs
     id="defs1" /><g
     inkscape:label="SBY-FBA"
     inkscape:groupmode="layer"
     id="layer1"><g
       id="layer2"
       inkscape:label="Ball Blue"
       style="display:inline"
       transform="rotate(-43.382193,62.499997,62.499992)"><circle
         style="fill:#002f6c;fill-opacity:1;stroke-width:0.893782"
         id="path1-4-4"
         transform="matrix(-0.5510988,0.83444,0.83444,0.5510988,0,0)"
         cy="86.596169"
         cx="17.708818"
         r="50"
         inkscape:label="Ball Blue" /></g><g
       id="_1421344023328"
       inkscape:label="B symbol"
       style="clip-rule:evenodd;display:inline;fill-rule:evenodd;image-rendering:optimizeQuality;shape-rendering:geometricPrecision;text-rendering:geometricPrecision"
       transform="matrix(0.01784288,0,0,0.01784087,26.000015,25.999982)"><path
         fill-rule="nonzero"
         d="M 4030.06,2540.77 C 3756.82,3636.78 2646.74,4303.79 1550.6,4030.48 454.91999,3757.24 -212.09001,2647.09 61.269989,1551.17 334.38999,455.03998 1444.47,-212.02002 2540.27,61.219983 3636.33,334.45998 4303.3,1444.73 4030.03,2540.79 l 0.02,-0.02 z"
         style="display:none;fill:#fafafa"
         id="path1"
         inkscape:label="Ball White" /><path
         fill-rule="nonzero"
         d="m 3268.9717,1726.8351 c 51.1654,-342.1 -209.286,-525.9917 -565.4338,-648.6657 l 115.537,-463.40433 -282.0887,-70.2897 -112.4709,451.20363 c -74.16,-18.49597 -150.3175,-35.92389 -226.0102,-53.20103 l 113.2877,-454.18158 -281.9127,-70.28971 -115.5997,463.25366 c -61.3685,-13.9725 -121.6437,-27.78165 -180.1221,-42.33214 l 0.3267,-1.45757 -389.0059,-97.14152 -75.0393,301.28829 c 0,0 209.2858,47.9739 204.8754,50.9267 114.2303,28.5104 134.8875,104.1277 131.4571,164.0637 l -316.5675,1269.5119 c -13.9599,34.7052 -49.3937,86.7878 -129.2581,67.0101 2.827,4.0964 -205.02629,-51.1654 -205.02629,-51.1654 l -140.05167,322.9004 367.09216,91.5123 c 68.2917,17.1263 135.2141,35.0444 201.1185,51.8943 l -116.7307,468.7195 281.762,70.2896 115.5998,-463.7436 c 76.9743,20.8959 151.6744,40.1709 224.8038,58.3401 l -115.2102,461.5575 282.1012,70.2895 116.718,-467.8399 c 481.0209,91.035 842.71,54.332 994.9499,-380.7504 122.674,-350.2925 -6.1068,-552.3408 -259.1697,-684.0996 184.3188,-42.508 323.1517,-163.7369 360.1687,-414.1614 l -0.088,-0.063 z m -644.5066,903.7641 c -87.1773,350.2925 -676.9623,160.9351 -868.1795,113.4512 l 154.9038,-620.9718 c 191.2045,47.7351 804.386,142.2002 713.2884,507.5206 z m 87.2402,-908.8405 c -79.5251,318.6282 -570.4095,156.751 -729.6482,117.0574 l 140.4411,-563.1845 c 159.2387,39.6934 672.0495,113.7778 589.2322,446.1271 z"
         style="display:none;fill:#f7931a;stroke-width:1.25653"
         id="path2"
         inkscape:label="B" /><g
         style="fill:none"
         id="g1"
         transform="matrix(28.411509,0,0,28.414842,-8.813404e-4,-7.0583151)"
         inkscape:label="B symbol inverted"><path
           d="M 141.846,89.665 C 132.225,128.236 93.1561,151.711 54.5761,142.093 16.0121,132.476 -7.46593,93.408 2.15707,54.839 11.7711,16.264 50.8431,-7.21401 89.4101,2.40299 127.985,12.02 151.462,51.091 141.846,89.665 Z"
           fill="#F7931A"
           id="path1-2"
           style="fill:#fafafa;fill-opacity:1"
           inkscape:label="Ball print white" /><path
           d="m 111.78439,59.515125 c 1.7777,-11.886864 -7.27331,-18.274412 -19.647693,-22.536908 l 4.013148,-16.099743 -9.799034,-2.442627 -3.908943,15.675479 c -2.579085,-0.6426 -5.222678,-1.247987 -7.853864,-1.847168 l 3.933751,-15.779681 -9.79283,-2.442624 -4.018112,16.097261 C 62.578324,29.65282 60.48553,29.17397 58.452282,28.66783 l 0.0098,-0.04962 -13.514411,-3.374274 -2.607582,10.466441 c 0,0 7.270809,1.666046 7.116981,1.770254 3.969733,0.991191 4.685524,3.617416 4.566432,5.699044 L 49.45211,61.521078 c 0.27292,0.07072 0.626475,0.168713 1.018486,0.327503 -0.327503,-0.08187 -0.676093,-0.169956 -1.034611,-0.256793 l -6.408642,25.691606 c -0.486295,1.205804 -1.718152,3.015751 -4.492001,2.328495 0.098,0.14142 -7.126908,-1.777699 -7.126908,-1.777699 l -4.862924,11.215723 12.752763,3.179527 c 2.370674,0.5942 4.699173,1.21446 6.986729,1.80248 l -4.052848,16.28462 9.78911,2.44262 4.015629,-16.11091 c 2.67709,0.72448 5.272302,1.39562 7.812932,2.02705 l -4.001984,16.0352 9.800272,2.44266 4.056569,-16.25356 c 16.713842,3.16089 29.281748,1.88559 34.568958,-13.227922 4.26369,-12.169704 -0.21093,-19.189927 -9.003878,-23.768765 6.402418,-1.476245 11.228138,-5.689124 12.514568,-14.387798 z M 89.39386,90.914462 C 86.361979,103.08539 65.873201,96.505581 59.226382,94.854419 L 64.607847,73.28265 c 6.643099,1.656125 27.949392,4.938595 24.786013,17.631812 z m 3.026922,-31.574254 c -2.761447,11.070589 -19.817649,5.444736 -25.350459,4.065254 l 4.877806,-19.565814 c 5.531573,1.379482 23.351947,3.953604 20.472653,15.50056 z"
           fill="white"
           id="path2-1"
           style="fill:#f7931a;fill-opacity:1;stroke-width:1.24054"
           inkscape:label="B symbol orange" /></g></g><g
       id="layer3"
       inkscape:label="SBY FBA"
       style="display:inline"
       transform="rotate(27.709532,62.5,62.499995)"><text
         xml:space="preserve"
         style="font-style:normal;font-variant:normal;font-weight:bold;font-stretch:normal;font-size:6.35px;font-family:Ubuntu;-inkscape-font-specification:'Ubuntu, Bold';font-variant-ligatures:normal;font-variant-caps:normal;font-variant-numeric:normal;font-variant-east-asian:normal;text-align:center;letter-spacing:0.463021px;word-spacing:0px;text-anchor:middle;display:inline;fill:#fafafa;fill-opacity:1;stroke-width:0.264583"
         id="text4"
         inkscape:label="Text SBY FBA"
         transform="rotate(-27.709532,62.5,62.499995)"><textPath
           xlink:href="#path6-2"
           startOffset="50%"
           id="textPath4"
           style="letter-spacing:0.463021px"> Suomen Bitcoin-yhdistys ry  •  Finnish Bitcoin Association</textPath></text></g><g
       inkscape:groupmode="layer"
       id="layer4"
       inkscape:label="Est. 783065"><text
         xml:space="preserve"
         style="font-weight:bold;font-size:6.35px;font-family:Ubuntu;-inkscape-font-specification:'Ubuntu, Bold';text-align:center;letter-spacing:0.529167px;word-spacing:0.132292px;text-anchor:middle;fill:#fafafa;stroke-width:0.264583"
         id="text3"
         inkscape:label="Est. 783065"><textPath
           xlink:href="#path6"
           startOffset="50%"
           id="textPath3"
           style="font-size:6.35px;letter-spacing:0.529167px;word-spacing:0.132292px">•  Est. 783065  •</textPath></text></g></g><g
     inkscape:groupmode="layer"
     id="layer7"
     inkscape:label="Paths for Texts"
     style="display:none"><path
       style="font-style:italic;font-weight:bold;font-size:7.76111px;font-family:Ubuntu;-inkscape-font-specification:'Ubuntu, Bold Italic';white-space:pre;clip-rule:evenodd;display:none;fill:#7b7b7b;fill-opacity:0.4;fill-rule:evenodd;stroke-width:0.611243;image-rendering:optimizeQuality;shape-rendering:geometricPrecision;text-rendering:geometricPrecision"
       id="path6"
       sodipodi:type="arc"
       sodipodi:cx="-88.379715"
       sodipodi:cy="1.3631058"
       sodipodi:rx="45.5"
       sodipodi:ry="45.5"
       sodipodi:start="5.5004783"
       sodipodi:end="5.4784562"
       sodipodi:arc-type="arc"
       d="m -56.119889,-30.723553 a 45.5,45.5 0 0 1 0.004,64.169342 45.5,45.5 0 0 1 -64.168344,0.357238 45.5,45.5 0 0 1 -0.71051,-64.165409 45.5,45.5 0 0 1 64.16052,-1.063762"
       sodipodi:open="true"
       transform="matrix(-0.71794219,-0.69610272,-0.69610272,0.71794219,0,0)"
       inkscape:label="Path for Est" /><path
       style="font-style:italic;font-weight:bold;font-size:7.76111px;font-family:Ubuntu;-inkscape-font-specification:'Ubuntu, Bold Italic';white-space:pre;display:none;fill:#ffffff;fill-opacity:0.609375;stroke-width:0.55079"
       id="path6-2"
       sodipodi:type="arc"
       sodipodi:cx="42.499554"
       sodipodi:cy="-77.5131"
       sodipodi:rx="41"
       sodipodi:ry="41"
       sodipodi:start="5.5004783"
       sodipodi:end="5.4784562"
       sodipodi:arc-type="arc"
       d="m 71.568847,-106.42635 a 41,41 0 0 1 0.0036,57.822921 41,41 0 0 1 -57.822028,0.321906 41,41 0 0 1 -0.64024,-57.819377 41,41 0 0 1 57.814978,-0.95856"
       sodipodi:open="true"
       transform="rotate(133.98729,22.76296,-3.2554117)"
       inkscape:label="Path for SBY FBA" /></g><g
     inkscape:groupmode="layer"
     id="layer6"
     inkscape:label="Helper Layers"
     style="display:none"><g
       inkscape:groupmode="layer"
       id="layer8"
       inkscape:label="Aims for Est"
       style="display:inline"><rect
         style="clip-rule:evenodd;display:inline;fill:#ff0000;fill-opacity:0;fill-rule:evenodd;stroke:#ff0000;stroke-width:6.02388;stroke-opacity:1;image-rendering:optimizeQuality;shape-rendering:geometricPrecision;text-rendering:geometricPrecision"
         id="rect1-4"
         width="3013.4885"
         height="300.21466"
         x="538.88855"
         y="4092.5757"
         inkscape:label="Bottom Box"
         transform="matrix(0.01784288,0,0,0.01784087,26.000015,25.999982)" /></g><g
       inkscape:groupmode="layer"
       id="layer5"
       inkscape:label="Helper Aiming Lines "
       style="clip-rule:evenodd;display:inline;fill-rule:evenodd;image-rendering:optimizeQuality;shape-rendering:geometricPrecision;text-rendering:geometricPrecision"
       transform="matrix(0.01784288,0,0,0.01784087,26.000015,25.999982)"><g
         inkscape:groupmode="layer"
         id="layer9"
         inkscape:label="Text Bottoms"
         style="display:none"
         transform="matrix(56.044765,0,0,56.051079,-1457.1647,-1457.327)" /><rect
         style="clip-rule:evenodd;display:inline;fill:#ff0000;fill-opacity:1;fill-rule:evenodd;stroke-width:2.20834;image-rendering:optimizeQuality;shape-rendering:geometricPrecision;text-rendering:geometricPrecision"
         id="rect1-6"
         width="26.062834"
         height="4665.0938"
         x="3555.3894"
         y="-283.3223"
         inkscape:label="Text Right"
         transform="translate(-3.3860383e-6)" /><rect
         style="clip-rule:evenodd;display:inline;fill:#ff0000;fill-opacity:1;fill-rule:evenodd;stroke-width:2.20792;image-rendering:optimizeQuality;shape-rendering:geometricPrecision;text-rendering:geometricPrecision"
         id="rect1-6-2"
         width="26.062834"
         height="4663.3286"
         x="509.81372"
         y="-267.52615"
         inkscape:label="Text Left" /><rect
         style="clip-rule:evenodd;display:inline;fill:#ff0000;fill-opacity:1;fill-rule:evenodd;stroke-width:1.80261;image-rendering:optimizeQuality;shape-rendering:geometricPrecision;text-rendering:geometricPrecision"
         id="rect1-9-7"
         width="4526.5205"
         height="17.897196"
         x="-212.75389"
         y="3605.9785"
         inkscape:label="Bottom 1/3" /><rect
         style="clip-rule:evenodd;display:inline;fill:#ff0000;fill-opacity:1;fill-rule:evenodd;stroke-width:1.78919;image-rendering:optimizeQuality;shape-rendering:geometricPrecision;text-rendering:geometricPrecision"
         id="rect1-9-7-1"
         width="3353.0491"
         height="23.802156"
         x="346.65002"
         y="3927.7739"
         inkscape:label="Bottom 1/3" /><rect
         style="clip-rule:evenodd;display:inline;fill:#ff0000;fill-opacity:1;fill-rule:evenodd;stroke-width:0.0357622;image-rendering:optimizeQuality;shape-rendering:geometricPrecision;text-rendering:geometricPrecision"
         id="rect1-9"
         width="99.860786"
         height="0.31930155"
         x="12.623635"
         y="62.310997"
         inkscape:label="Middle"
         transform="matrix(56.044765,0,0,56.051079,-1457.1647,-1457.327)" /><rect
         style="clip-rule:evenodd;display:inline;fill:#ff0000;fill-opacity:1;fill-rule:evenodd;stroke-width:1.53852;image-rendering:optimizeQuality;shape-rendering:geometricPrecision;text-rendering:geometricPrecision"
         id="rect1-9-7-2"
         width="4397.9048"
         height="13.418591"
         x="-150.81184"
         y="-391.93872"
         inkscape:label="Top 1/3"
         transform="scale(1,-1)" /><rect
         style="clip-rule:evenodd;display:inline;fill:#ff0000;fill-opacity:1;fill-rule:evenodd;stroke-width:2.61727;image-rendering:optimizeQuality;shape-rendering:geometricPrecision;text-rendering:geometricPrecision"
         id="rect1"
         width="30.595966"
         height="5581.9248"
         x="2028.3218"
         y="-750.94604"
         inkscape:label="Center"
         transform="translate(-3.3860383e-6)" /></g></g></svg>
