<?xml version="1.0" encoding="UTF-8" standalone="no"?>
<svg
   width="503"
   height="503"
   overflow="hidden"
   version="1.1"
   id="svg114"
   xmlns="http://www.w3.org/2000/svg"
   xmlns:svg="http://www.w3.org/2000/svg">
  <defs
     id="defs49">
    <clipPath
       id="clip0">
      <rect
         x="0"
         y="0"
         width="503"
         height="503"
         id="rect1" />
    </clipPath>
    <clipPath
       id="clip1">
      <path
         d="M -0.106904,-0.106476 H 503 V 503 H -0.106904"
         fill-rule="evenodd"
         clip-rule="evenodd"
         id="path1" />
    </clipPath>
    <clipPath
       id="clip2">
      <path
         d="M -0.106904,-0.106476 H 503 V 503 H -0.106904"
         fill-rule="evenodd"
         clip-rule="evenodd"
         id="path2" />
    </clipPath>
    <clipPath
       id="clip3">
      <path
         d="M -0.106904,-0.106476 H 503 V 503 H -0.106904"
         fill-rule="evenodd"
         clip-rule="evenodd"
         id="path3" />
    </clipPath>
    <clipPath
       id="clip4">
      <path
         d="M -0.106904,-0.106476 H 503 V 503 H -0.106904"
         fill-rule="evenodd"
         clip-rule="evenodd"
         id="path4" />
    </clipPath>
    <clipPath
       id="clip5">
      <path
         d="M -0.106904,-0.106476 H 503 V 503 H -0.106904"
         fill-rule="evenodd"
         clip-rule="evenodd"
         id="path5" />
    </clipPath>
    <clipPath
       id="clip6">
      <path
         d="M -0.106904,-0.106476 H 503 V 503 H -0.106904"
         fill-rule="evenodd"
         clip-rule="evenodd"
         id="path6" />
    </clipPath>
    <clipPath
       id="clip7">
      <path
         d="M -0.106904,-0.106476 H 503 V 503 H -0.106904"
         fill-rule="evenodd"
         clip-rule="evenodd"
         id="path7" />
    </clipPath>
    <clipPath
       id="clip8">
      <path
         d="M -0.106904,-0.106476 H 503 V 503 H -0.106904"
         fill-rule="evenodd"
         clip-rule="evenodd"
         id="path8" />
    </clipPath>
    <clipPath
       id="clip9">
      <path
         d="M -0.106904,-0.106476 H 503 V 503 H -0.106904"
         fill-rule="evenodd"
         clip-rule="evenodd"
         id="path9" />
    </clipPath>
    <clipPath
       id="clip10">
      <path
         d="M -0.106904,-0.106476 H 503 V 503 H -0.106904"
         fill-rule="evenodd"
         clip-rule="evenodd"
         id="path10" />
    </clipPath>
    <clipPath
       id="clip11">
      <path
         d="M -0.106904,-0.106476 H 503 V 503 H -0.106904"
         fill-rule="evenodd"
         clip-rule="evenodd"
         id="path11" />
    </clipPath>
    <clipPath
       id="clip12">
      <path
         d="M -0.106904,-0.106476 H 503 V 503 H -0.106904"
         fill-rule="evenodd"
         clip-rule="evenodd"
         id="path12" />
    </clipPath>
    <clipPath
       id="clip13">
      <path
         d="M -0.106904,-0.106476 H 503 V 503 H -0.106904"
         fill-rule="evenodd"
         clip-rule="evenodd"
         id="path13" />
    </clipPath>
    <clipPath
       id="clip14">
      <path
         d="M -0.106904,-0.106476 H 503 V 503 H -0.106904"
         fill-rule="evenodd"
         clip-rule="evenodd"
         id="path14" />
    </clipPath>
    <clipPath
       id="clip15">
      <path
         d="M -0.106904,-0.106476 H 503 V 503 H -0.106904"
         fill-rule="evenodd"
         clip-rule="evenodd"
         id="path15" />
    </clipPath>
    <clipPath
       id="clip16">
      <path
         d="M -0.106904,-0.106476 H 503 V 503 H -0.106904"
         fill-rule="evenodd"
         clip-rule="evenodd"
         id="path16" />
    </clipPath>
    <clipPath
       id="clip17">
      <path
         d="M -0.106904,-0.106476 H 503 V 503 H -0.106904"
         fill-rule="evenodd"
         clip-rule="evenodd"
         id="path17" />
    </clipPath>
    <clipPath
       id="clip18">
      <path
         d="M -0.106904,-0.106476 H 503 V 503 H -0.106904"
         fill-rule="evenodd"
         clip-rule="evenodd"
         id="path18" />
    </clipPath>
    <clipPath
       id="clip19">
      <path
         d="M -0.106904,-0.106476 H 503 V 503 H -0.106904"
         fill-rule="evenodd"
         clip-rule="evenodd"
         id="path19" />
    </clipPath>
    <clipPath
       id="clip20">
      <path
         d="M -0.106904,-0.106476 H 503 V 503 H -0.106904"
         fill-rule="evenodd"
         clip-rule="evenodd"
         id="path20" />
    </clipPath>
    <clipPath
       id="clip21">
      <path
         d="M -0.106904,-0.106476 H 503 V 503 H -0.106904"
         fill-rule="evenodd"
         clip-rule="evenodd"
         id="path21" />
    </clipPath>
    <clipPath
       id="clip22">
      <path
         d="M -0.106904,-0.106476 H 503 V 503 H -0.106904"
         fill-rule="evenodd"
         clip-rule="evenodd"
         id="path22" />
    </clipPath>
    <clipPath
       id="clip23">
      <path
         d="M -0.106904,-0.106476 H 503 V 503 H -0.106904"
         fill-rule="evenodd"
         clip-rule="evenodd"
         id="path23" />
    </clipPath>
    <clipPath
       id="clip24">
      <path
         d="M -0.106904,-0.106476 H 503 V 503 H -0.106904"
         fill-rule="evenodd"
         clip-rule="evenodd"
         id="path24" />
    </clipPath>
    <clipPath
       id="clip25">
      <path
         d="M -0.106904,-0.106476 H 503 V 503 H -0.106904"
         fill-rule="evenodd"
         clip-rule="evenodd"
         id="path25" />
    </clipPath>
    <clipPath
       id="clip26">
      <path
         d="M -0.106958,-0.106476 H 503 V 503 H -0.106958"
         fill-rule="evenodd"
         clip-rule="evenodd"
         id="path26" />
    </clipPath>
    <clipPath
       id="clip27">
      <path
         d="M -0.106958,-0.106476 H 503 V 503 H -0.106958"
         fill-rule="evenodd"
         clip-rule="evenodd"
         id="path27" />
    </clipPath>
    <clipPath
       id="clip28">
      <path
         d="M -0.106958,-0.106476 H 503 V 503 H -0.106958"
         fill-rule="evenodd"
         clip-rule="evenodd"
         id="path28" />
    </clipPath>
    <clipPath
       id="clip29">
      <path
         d="M -0.106958,-0.106476 H 503 V 503 H -0.106958"
         fill-rule="evenodd"
         clip-rule="evenodd"
         id="path29" />
    </clipPath>
    <clipPath
       id="clip30">
      <path
         d="M -0.106958,-0.106476 H 503 V 503 H -0.106958"
         fill-rule="evenodd"
         clip-rule="evenodd"
         id="path30" />
    </clipPath>
    <clipPath
       id="clip31">
      <path
         d="M -0.106958,-0.106476 H 503 V 503 H -0.106958"
         fill-rule="evenodd"
         clip-rule="evenodd"
         id="path31" />
    </clipPath>
    <clipPath
       id="clip32">
      <path
         d="M -0.106958,-0.106476 H 503 V 503 H -0.106958"
         fill-rule="evenodd"
         clip-rule="evenodd"
         id="path32" />
    </clipPath>
    <clipPath
       id="clip33">
      <path
         d="M -0.106958,-0.106476 H 503 V 503 H -0.106958"
         fill-rule="evenodd"
         clip-rule="evenodd"
         id="path33" />
    </clipPath>
    <clipPath
       id="clip34">
      <path
         d="M -0.106958,-0.106476 H 503 V 503 H -0.106958"
         fill-rule="evenodd"
         clip-rule="evenodd"
         id="path34" />
    </clipPath>
    <clipPath
       id="clip35">
      <path
         d="M -0.106958,-0.106476 H 503 V 503 H -0.106958"
         fill-rule="evenodd"
         clip-rule="evenodd"
         id="path35" />
    </clipPath>
    <clipPath
       id="clip36">
      <path
         d="M -0.106958,-0.106476 H 503 V 503 H -0.106958"
         fill-rule="evenodd"
         clip-rule="evenodd"
         id="path36" />
    </clipPath>
    <clipPath
       id="clip37">
      <path
         d="M -0.106958,-0.106476 H 503 V 503 H -0.106958"
         fill-rule="evenodd"
         clip-rule="evenodd"
         id="path37" />
    </clipPath>
    <clipPath
       id="clip38">
      <path
         d="M -0.106958,-0.106476 H 503 V 503 H -0.106958"
         fill-rule="evenodd"
         clip-rule="evenodd"
         id="path38" />
    </clipPath>
    <clipPath
       id="clip39">
      <path
         d="M -0.106958,-0.106476 H 503 V 503 H -0.106958"
         fill-rule="evenodd"
         clip-rule="evenodd"
         id="path39" />
    </clipPath>
    <clipPath
       id="clip40">
      <path
         d="M -0.106958,-0.106476 H 503 V 503 H -0.106958"
         fill-rule="evenodd"
         clip-rule="evenodd"
         id="path40" />
    </clipPath>
    <clipPath
       id="clip41">
      <path
         d="M -0.106958,-0.106476 H 503 V 503 H -0.106958"
         fill-rule="evenodd"
         clip-rule="evenodd"
         id="path41" />
    </clipPath>
    <clipPath
       id="clip42">
      <path
         d="M -0.106958,-0.106476 H 503 V 503 H -0.106958"
         fill-rule="evenodd"
         clip-rule="evenodd"
         id="path42" />
    </clipPath>
    <clipPath
       id="clip43">
      <path
         d="M -0.106958,-0.106476 H 503 V 503 H -0.106958"
         fill-rule="evenodd"
         clip-rule="evenodd"
         id="path43" />
    </clipPath>
    <clipPath
       id="clip44">
      <path
         d="M -0.106958,-0.106476 H 503 V 503 H -0.106958"
         fill-rule="evenodd"
         clip-rule="evenodd"
         id="path44" />
    </clipPath>
    <clipPath
       id="clip45">
      <path
         d="M -0.106958,-0.106476 H 503 V 503 H -0.106958"
         fill-rule="evenodd"
         clip-rule="evenodd"
         id="path45" />
    </clipPath>
    <clipPath
       id="clip46">
      <path
         d="M -0.106958,-0.106476 H 503 V 503 H -0.106958"
         fill-rule="evenodd"
         clip-rule="evenodd"
         id="path46" />
    </clipPath>
    <clipPath
       id="clip47">
      <path
         d="M -0.106958,-0.106476 H 503 V 503 H -0.106958"
         fill-rule="evenodd"
         clip-rule="evenodd"
         id="path47" />
    </clipPath>
    <clipPath
       id="clip48">
      <path
         d="M -0.106958,-0.106476 H 503 V 503 H -0.106958"
         fill-rule="evenodd"
         clip-rule="evenodd"
         id="path48" />
    </clipPath>
    <clipPath
       id="clip49">
      <path
         d="M -0.106958,-0.106476 H 503 V 503 H -0.106958"
         fill-rule="evenodd"
         clip-rule="evenodd"
         id="path49" />
    </clipPath>
  </defs>
  <g
     clip-path="url(#clip0)"
     id="g114">
    <rect
       x="0"
       y="0"
       width="503"
       height="503"
       fill="#ffffff"
       fill-opacity="0"
       id="rect49" />
    <path
       d="M 251.681,503 C 112.734,503 0.106876,390.358 0.106876,251.425 0.106876,112.475 112.734,-0.150481 251.681,-0.150481 390.642,-0.150481 503.249,112.475 503.249,251.425 503.249,390.358 390.642,503 251.681,503 Z"
       fill="#002f6c"
       fill-rule="evenodd"
       transform="matrix(1,0,0,-1,-0.106877,503)"
       id="path50" />
    <g
       clip-path="url(#clip1)"
       id="g51">
      <path
         d="m 281.345,455.643 5.147,26.483 17.715,-3.443 -0.973,-5.006 -11.757,2.272 -1.076,-5.538 10.458,-2.023 -0.972,-5.006 -10.462,2.024 -2.123,-10.899 z"
         fill="#ffffff"
         fill-rule="evenodd"
         transform="matrix(1,0,0,-1,-0.106877,503)"
         id="path51" />
    </g>
    <g
       clip-path="url(#clip2)"
       id="g52">
      <path
         d="m 307.544,449.786 -5.598,1.526 5.353,19.738 5.598,-1.526 z m 7.423,25.311 c -0.277,-0.994 -0.834,-1.739 -1.626,-2.13 -0.838,-0.426 -1.707,-0.497 -2.609,-0.248 -0.902,0.213 -1.608,0.745 -2.084,1.526 -0.525,0.746 -0.639,1.669 -0.362,2.663 0.277,1.029 0.838,1.739 1.676,2.165 0.791,0.391 1.661,0.497 2.559,0.249 0.898,-0.249 1.608,-0.781 2.134,-1.527 0.472,-0.745 0.589,-1.668 0.312,-2.698 z"
         fill="#ffffff"
         fill-rule="evenodd"
         transform="matrix(1,0,0,-1,-0.106877,503)"
         id="path52" />
    </g>
    <g
       clip-path="url(#clip3)"
       id="g53">
      <path
         d="m 318.56,467.287 c 1.004,-0.071 2.311,-0.248 3.866,-0.532 1.544,-0.32 3.12,-0.746 4.728,-1.314 1.651,-0.603 2.922,-1.313 3.877,-2.094 0.905,-0.817 1.565,-1.775 1.913,-2.769 0.345,-0.959 0.483,-2.095 0.359,-3.266 -0.124,-1.136 -0.412,-2.414 -0.888,-3.728 l -3.894,-10.863 -5.456,1.953 3.656,10.224 c 0.632,1.739 0.859,3.088 0.65,3.976 -0.217,0.887 -0.927,1.562 -2.212,2.023 -0.401,0.142 -0.806,0.284 -1.253,0.426 -0.454,0.107 -0.884,0.178 -1.225,0.249 l -5.328,-14.839 -5.453,1.952 z"
         fill="#ffffff"
         fill-rule="evenodd"
         transform="matrix(1,0,0,-1,-0.106877,503)"
         id="path53" />
    </g>
    <g
       clip-path="url(#clip4)"
       id="g54">
      <path
         d="m 340.786,458.98 c 0.994,-0.177 2.269,-0.497 3.788,-0.923 1.498,-0.461 3.021,-1.065 4.562,-1.81 1.58,-0.746 2.776,-1.598 3.639,-2.485 0.816,-0.923 1.366,-1.917 1.608,-2.947 0.238,-1.029 0.259,-2.165 0.01,-3.266 -0.241,-1.136 -0.663,-2.378 -1.267,-3.621 l -5.02,-10.401 -5.222,2.52 4.715,9.763 c 0.816,1.668 1.175,2.946 1.058,3.869 -0.114,0.923 -0.753,1.669 -1.981,2.272 -0.387,0.178 -0.767,0.355 -1.204,0.533 -0.436,0.177 -0.859,0.284 -1.189,0.39 l -6.862,-14.2 -5.219,2.521 z"
         fill="#ffffff"
         fill-rule="evenodd"
         transform="matrix(1,0,0,-1,-0.106877,503)"
         id="path54" />
    </g>
    <g
       clip-path="url(#clip5)"
       id="g55">
      <path
         d="m 356.811,428.379 -5.002,2.911 10.291,17.679 5.006,-2.911 z m 13.738,22.507 c -0.532,-0.923 -1.242,-1.491 -2.13,-1.633 -0.923,-0.213 -1.775,-0.071 -2.591,0.426 -0.781,0.462 -1.349,1.136 -1.598,1.988 -0.319,0.888 -0.177,1.775 0.355,2.698 0.533,0.923 1.243,1.456 2.166,1.669 0.852,0.142 1.739,0 2.52,-0.462 0.817,-0.461 1.385,-1.136 1.669,-1.988 0.284,-0.887 0.142,-1.81 -0.391,-2.698 z"
         fill="#ffffff"
         fill-rule="evenodd"
         transform="matrix(1,0,0,-1,-0.106877,503)"
         id="path55" />
    </g>
    <g
       clip-path="url(#clip6)"
       id="g56">
      <path
         d="m 367.993,426.178 c 0.852,-0.604 1.562,-0.958 2.024,-1.029 0.461,-0.071 0.887,0.142 1.242,0.639 0.249,0.39 0.249,0.887 -0.035,1.491 -0.284,0.639 -0.746,1.42 -1.491,2.449 -0.533,0.781 -1.03,1.527 -1.42,2.237 -0.426,0.709 -0.71,1.455 -0.852,2.165 -0.142,0.71 -0.142,1.42 0,2.166 0.177,0.71 0.532,1.526 1.065,2.343 1.1,1.562 2.52,2.414 4.331,2.556 1.846,0.106 3.763,-0.533 5.822,-1.917 1.029,-0.71 1.952,-1.491 2.769,-2.272 0.816,-0.817 1.455,-1.562 1.846,-2.13 l -3.373,-3.195 c -0.426,0.568 -0.923,1.171 -1.455,1.739 -0.568,0.639 -1.278,1.207 -2.059,1.74 -1.527,1.029 -2.556,1.136 -3.124,0.284 -0.107,-0.213 -0.213,-0.391 -0.249,-0.568 -0.035,-0.213 0,-0.426 0.107,-0.675 0.071,-0.319 0.248,-0.639 0.461,-1.065 0.213,-0.355 0.533,-0.852 0.888,-1.384 0.816,-1.101 1.42,-2.095 1.846,-2.911 0.426,-0.817 0.674,-1.634 0.816,-2.308 0.071,-0.71 0.036,-1.42 -0.177,-2.059 -0.213,-0.675 -0.568,-1.314 -1.03,-2.023 -1.136,-1.669 -2.591,-2.521 -4.437,-2.485 -1.811,-0.036 -3.905,0.78 -6.213,2.343 -1.491,1.029 -2.627,1.952 -3.443,2.911 -0.852,0.923 -1.385,1.633 -1.669,2.059 l 3.444,3.337 c 0.603,-0.852 1.242,-1.669 2.023,-2.45 0.71,-0.781 1.491,-1.42 2.343,-1.988 z"
         fill="#ffffff"
         fill-rule="evenodd"
         transform="matrix(1,0,0,-1,-0.106877,503)"
         id="path56" />
    </g>
    <g
       clip-path="url(#clip7)"
       id="g57">
      <path
         d="m 375.377,415.99 18.673,22.507 5.077,-2.982 -6.284,-7.527 c 0.391,-0.177 0.888,-0.39 1.42,-0.674 0.533,-0.284 0.994,-0.639 1.456,-1.029 1.278,-1.065 2.201,-2.095 2.769,-3.16 0.532,-1.029 0.817,-2.13 0.817,-3.195 -0.036,-1.029 -0.32,-2.095 -0.817,-3.159 -0.533,-1.03 -1.243,-2.095 -2.166,-3.16 l -7.348,-8.911 -4.473,3.728 6.922,8.343 c 1.207,1.42 1.882,2.591 1.988,3.478 0.142,0.924 -0.319,1.811 -1.313,2.628 -0.391,0.319 -0.781,0.603 -1.172,0.816 -0.426,0.213 -0.816,0.426 -1.171,0.568 l -9.905,-11.964 z"
         fill="#ffffff"
         fill-rule="evenodd"
         transform="matrix(1,0,0,-1,-0.106877,503)"
         id="path57" />
    </g>
    <g
       clip-path="url(#clip8)"
       id="g58">
      <path
         d="m 404.097,388.69 c -0.959,1.136 -1.917,2.272 -2.805,3.408 -0.887,1.171 -1.739,2.449 -2.52,3.869 l 19.632,17.218 c 1.029,-0.781 2.059,-1.669 3.123,-2.698 1.065,-1.03 1.989,-2.024 2.841,-2.982 1.1,-1.314 2.094,-2.592 2.839,-3.799 0.746,-1.278 1.243,-2.485 1.492,-3.621 0.248,-1.171 0.212,-2.307 -0.142,-3.408 -0.355,-1.065 -1.065,-2.059 -2.166,-3.017 -1.597,-1.42 -3.585,-1.74 -5.893,-1.03 0.639,-1.704 0.781,-3.159 0.32,-4.366 -0.426,-1.207 -1.136,-2.272 -2.202,-3.195 -2.129,-1.882 -4.401,-2.485 -6.815,-1.882 -2.45,0.604 -5.006,2.45 -7.704,5.503 z m 7.064,10.295 -5.218,-4.58 c 0.248,-0.355 0.568,-0.781 0.852,-1.171 0.32,-0.391 0.71,-0.852 1.101,-1.314 1.206,-1.384 2.342,-2.272 3.478,-2.769 1.136,-0.532 2.202,-0.284 3.267,0.604 0.958,0.852 1.313,1.775 1.1,2.84 -0.249,1.029 -0.888,2.201 -2.059,3.514 z m 3.48,3.053 1.952,-2.237 c 1.242,-1.384 2.272,-2.236 3.195,-2.52 0.888,-0.284 1.739,-0.071 2.521,0.603 0.816,0.746 1.135,1.562 0.923,2.45 -0.213,0.923 -0.888,1.988 -1.917,3.195 -0.355,0.39 -0.71,0.816 -1.101,1.242 -0.426,0.426 -0.817,0.817 -1.136,1.136 z"
         fill="#ffffff"
         fill-rule="evenodd"
         transform="matrix(1,0,0,-1,-0.106877,503)"
         id="path58" />
    </g>
    <g
       clip-path="url(#clip9)"
       id="g59">
      <path
         d="m 417.871,372.111 -3.479,4.686 16.472,12.141 3.443,-4.65 z m 21.513,15.265 c -0.852,-0.639 -1.739,-0.852 -2.627,-0.674 -0.887,0.213 -1.633,0.674 -2.201,1.42 -0.532,0.745 -0.781,1.597 -0.674,2.485 0.035,0.923 0.532,1.704 1.384,2.343 0.817,0.603 1.74,0.852 2.663,0.639 0.852,-0.178 1.597,-0.639 2.13,-1.385 0.568,-0.781 0.816,-1.597 0.745,-2.52 -0.106,-0.888 -0.568,-1.669 -1.42,-2.308 z"
         fill="#ffffff"
         fill-rule="evenodd"
         transform="matrix(1,0,0,-1,-0.106877,503)"
         id="path59" />
    </g>
    <g
       clip-path="url(#clip10)"
       id="g60">
      <path
         d="m 442.011,382.3 3.905,-4.367 -5.076,-3.266 3.727,-5.857 -4.047,-2.592 -3.763,5.858 -6.07,-3.87 c -0.994,-0.639 -1.704,-1.349 -2.095,-2.13 -0.39,-0.745 -0.213,-1.668 0.462,-2.733 0.355,-0.533 0.781,-1.03 1.206,-1.527 0.462,-0.497 0.924,-0.923 1.385,-1.278 l -3.372,-3.088 c -0.604,0.426 -1.243,0.923 -1.882,1.562 -0.639,0.603 -1.278,1.42 -1.952,2.485 -0.852,1.349 -1.385,2.52 -1.562,3.656 -0.214,1.101 -0.143,2.13 0.177,3.053 0.284,0.923 0.817,1.775 1.633,2.592 0.745,0.816 1.704,1.562 2.84,2.272 z"
         fill="#ffffff"
         fill-rule="evenodd"
         transform="matrix(1,0,0,-1,-0.106877,503)"
         id="path60" />
    </g>
    <g
       clip-path="url(#clip11)"
       id="g61">
      <path
         d="m 437.858,360.254 c 1.278,0.71 2.627,1.136 4.047,1.314 1.349,0.177 2.698,0.106 3.976,-0.213 1.278,-0.355 2.485,-0.994 3.585,-1.846 1.101,-0.888 2.059,-2.059 2.84,-3.55 0.497,-0.959 0.888,-1.882 1.136,-2.762 0.249,-0.884 0.391,-1.821 0.497,-2.741 l -4.65,-1.093 c -0.107,0.568 -0.213,1.179 -0.355,1.832 -0.178,0.664 -0.426,1.313 -0.817,2.041 -0.816,1.509 -1.881,2.403 -3.195,2.616 -1.349,0.284 -2.769,0 -4.331,-0.816 -1.597,-0.852 -2.698,-1.871 -3.195,-3.064 -0.532,-1.161 -0.355,-2.598 0.568,-4.356 0.32,-0.614 0.746,-1.235 1.243,-1.902 0.461,-0.668 1.029,-1.211 1.562,-1.672 l -3.799,-2.936 c -0.568,0.461 -1.207,1.086 -1.846,1.888 -0.639,0.806 -1.278,1.75 -1.846,2.819 -0.852,1.644 -1.349,3.188 -1.491,4.661 -0.142,1.456 0,2.766 0.462,3.976 0.425,1.225 1.136,2.325 2.13,3.284 0.958,0.994 2.13,1.81 3.479,2.52 z"
         fill="#ffffff"
         fill-rule="evenodd"
         transform="matrix(1,0,0,-1,-0.106877,503)"
         id="path61" />
    </g>
    <g
       clip-path="url(#clip12)"
       id="g62">
      <path
         d="m 454.436,324.598 c -1.455,-0.607 -2.911,-0.948 -4.331,-1.019 -1.42,-0.085 -2.733,0.103 -3.94,0.579 -1.207,0.458 -2.308,1.15 -3.231,2.077 -0.923,0.962 -1.704,2.151 -2.307,3.56 -0.568,1.403 -0.817,2.766 -0.817,4.072 0,1.342 0.284,2.595 0.852,3.792 0.533,1.182 1.314,2.218 2.379,3.205 1.029,0.966 2.307,1.74 3.798,2.347 1.491,0.6 2.947,0.909 4.367,0.937 1.42,0.039 2.733,-0.185 3.94,-0.664 1.172,-0.468 2.272,-1.161 3.195,-2.123 0.923,-0.926 1.704,-2.084 2.237,-3.411 0.568,-1.374 0.816,-2.737 0.816,-4.079 0,-1.307 -0.284,-2.56 -0.816,-3.738 -0.497,-1.186 -1.314,-2.223 -2.343,-3.192 -1.03,-0.969 -2.308,-1.739 -3.799,-2.343 z m -2.236,5.471 c 1.668,0.674 2.84,1.526 3.55,2.574 0.639,1.064 0.745,2.19 0.213,3.422 -0.497,1.224 -1.314,1.963 -2.556,2.268 -1.243,0.284 -2.663,0.078 -4.331,-0.596 -1.669,-0.678 -2.805,-1.53 -3.515,-2.613 -0.674,-1.076 -0.816,-2.222 -0.319,-3.444 0.497,-1.224 1.384,-1.959 2.662,-2.243 1.207,-0.252 2.663,-0.046 4.296,0.632 z"
         fill="#ffffff"
         fill-rule="evenodd"
         transform="matrix(1,0,0,-1,-0.106877,503)"
         id="path62" />
    </g>
    <g
       clip-path="url(#clip13)"
       id="g63">
      <path
         d="m 447.62,311.783 -1.739,5.52 19.489,6.205 1.74,-5.516 z m 25.312,7.48 c -0.994,-0.324 -1.917,-0.249 -2.698,0.209 -0.781,0.476 -1.349,1.157 -1.633,2.052 -0.284,0.884 -0.213,1.757 0.177,2.581 0.32,0.841 1.03,1.438 2.059,1.753 0.994,0.316 1.917,0.245 2.698,-0.237 0.781,-0.448 1.314,-1.133 1.598,-2.024 0.284,-0.887 0.248,-1.757 -0.107,-2.609 -0.39,-0.813 -1.1,-1.41 -2.094,-1.725 z"
         fill="#ffffff"
         fill-rule="evenodd"
         transform="matrix(1,0,0,-1,-0.106877,503)"
         id="path63" />
    </g>
    <g
       clip-path="url(#clip14)"
       id="g64">
      <path
         d="m 468.317,311.96 c 0.461,-0.88 1.029,-2.073 1.668,-3.525 0.568,-1.463 1.03,-3.025 1.42,-4.697 0.426,-1.7 0.533,-3.152 0.355,-4.391 -0.177,-1.196 -0.639,-2.261 -1.278,-3.085 -0.639,-0.838 -1.491,-1.555 -2.556,-2.077 -1.029,-0.518 -2.236,-0.965 -3.585,-1.285 l -11.254,-2.62 -1.313,5.641 10.543,2.464 c 1.811,0.422 3.053,0.951 3.692,1.619 0.639,0.674 0.817,1.633 0.533,2.96 -0.107,0.416 -0.213,0.831 -0.355,1.278 -0.142,0.441 -0.32,0.842 -0.426,1.176 l -15.372,-3.59 -1.313,5.645 z"
         fill="#ffffff"
         fill-rule="evenodd"
         transform="matrix(1,0,0,-1,-0.106877,503)"
         id="path64" />
    </g>
    <g
       clip-path="url(#clip15)"
       id="g65">
      <path
         d="m 456.46,259.378 c 0.887,0.337 1.846,0.713 2.804,1.128 0.923,0.419 1.917,0.842 2.876,1.257 l -0.746,10.515 c -0.994,0.281 -2.023,0.519 -3.017,0.803 -1.03,0.273 -2.024,0.521 -2.947,0.731 l -0.426,6.283 c 2.982,-0.806 5.716,-1.59 8.236,-2.311 2.521,-0.724 4.899,-1.452 7.136,-2.194 2.236,-0.703 4.331,-1.413 6.39,-2.126 1.988,-0.678 3.94,-1.441 5.857,-2.205 l 0.426,-5.74 c -1.81,-1.022 -3.656,-2.009 -5.538,-3.039 -1.917,-0.987 -3.905,-1.984 -6.035,-3.028 -2.094,-1.008 -4.366,-2.063 -6.745,-3.127 -2.378,-1.062 -5.005,-2.216 -7.845,-3.469 z m 20.27,8.704 c -0.426,0.085 -0.994,0.242 -1.668,0.469 -0.675,0.223 -1.456,0.44 -2.379,0.731 -0.923,0.28 -1.917,0.564 -2.982,0.919 -1.1,0.355 -2.236,0.664 -3.408,1.009 l 0.533,-7.679 c 1.136,0.508 2.236,0.976 3.266,1.438 1.029,0.458 1.952,0.877 2.84,1.288 0.852,0.412 1.597,0.778 2.272,1.09 0.639,0.32 1.171,0.554 1.526,0.735 z"
         fill="#ffffff"
         fill-rule="evenodd"
         transform="matrix(1,0,0,-1,-0.106877,503)"
         id="path65" />
    </g>
    <g
       clip-path="url(#clip16)"
       id="g66">
      <path
         d="m 460.507,245.039 c -0.071,-1.051 0.035,-1.835 0.213,-2.265 0.177,-0.44 0.603,-0.692 1.171,-0.713 0.462,-0.015 0.923,0.237 1.278,0.813 0.391,0.564 0.781,1.409 1.278,2.559 0.355,0.873 0.746,1.679 1.136,2.407 0.355,0.721 0.852,1.363 1.385,1.85 0.532,0.489 1.136,0.891 1.846,1.136 0.71,0.248 1.562,0.372 2.52,0.333 1.917,-0.067 3.408,-0.827 4.473,-2.314 1.065,-1.477 1.562,-3.44 1.456,-5.929 -0.036,-1.246 -0.213,-2.442 -0.462,-3.564 -0.248,-1.122 -0.532,-2.045 -0.816,-2.691 l -4.473,1.182 c 0.248,0.65 0.461,1.381 0.71,2.155 0.213,0.806 0.319,1.697 0.355,2.67 0.071,1.828 -0.391,2.74 -1.42,2.776 -0.213,0.007 -0.426,-0.022 -0.604,-0.089 -0.213,-0.071 -0.355,-0.224 -0.532,-0.451 -0.213,-0.227 -0.426,-0.529 -0.604,-0.951 -0.213,-0.38 -0.461,-0.877 -0.745,-1.488 -0.497,-1.264 -1.03,-2.293 -1.456,-3.099 -0.497,-0.799 -1.029,-1.438 -1.562,-1.924 -0.568,-0.444 -1.171,-0.77 -1.846,-0.941 -0.639,-0.17 -1.384,-0.22 -2.236,-0.188 -2.024,0.082 -3.515,0.877 -4.473,2.432 -0.994,1.555 -1.42,3.749 -1.314,6.511 0.071,1.824 0.284,3.294 0.639,4.49 0.355,1.193 0.675,2.038 0.888,2.496 l 4.65,-1.154 c -0.426,-0.955 -0.781,-1.952 -0.994,-2.996 -0.284,-1.037 -0.426,-2.045 -0.461,-3.053 z"
         fill="#ffffff"
         fill-rule="evenodd"
         transform="matrix(1,0,0,-1,-0.106877,503)"
         id="path66" />
    </g>
    <g
       clip-path="url(#clip17)"
       id="g67">
      <path
         d="m 459.087,226.92 c -0.142,-1.04 -0.107,-1.825 0.035,-2.276 0.142,-0.447 0.533,-0.735 1.101,-0.806 0.461,-0.06 0.923,0.16 1.349,0.693 0.426,0.539 0.887,1.334 1.455,2.442 0.462,0.841 0.923,1.612 1.349,2.304 0.462,0.689 0.994,1.285 1.562,1.722 0.568,0.436 1.207,0.788 1.917,0.976 0.746,0.181 1.598,0.227 2.556,0.11 1.917,-0.241 3.337,-1.125 4.26,-2.694 0.959,-1.566 1.243,-3.561 0.923,-6.035 -0.142,-1.236 -0.426,-2.414 -0.745,-3.511 -0.355,-1.09 -0.71,-1.985 -1.065,-2.606 l -4.367,1.566 c 0.32,0.624 0.604,1.331 0.888,2.08 0.319,0.788 0.497,1.665 0.603,2.63 0.249,1.811 -0.142,2.762 -1.171,2.887 -0.213,0.031 -0.426,0.021 -0.604,-0.032 -0.213,-0.054 -0.39,-0.196 -0.568,-0.402 -0.213,-0.209 -0.461,-0.493 -0.71,-0.891 -0.248,-0.362 -0.532,-0.834 -0.852,-1.423 -0.603,-1.218 -1.207,-2.201 -1.739,-2.961 -0.568,-0.745 -1.136,-1.342 -1.704,-1.782 -0.604,-0.39 -1.207,-0.667 -1.917,-0.777 -0.675,-0.118 -1.42,-0.1 -2.272,0.01 -1.988,0.252 -3.408,1.172 -4.225,2.801 -0.852,1.64 -1.065,3.866 -0.745,6.603 0.248,1.811 0.568,3.263 1.029,4.413 0.462,1.161 0.852,1.977 1.101,2.421 l 4.544,-1.555 c -0.497,-0.919 -0.923,-1.885 -1.278,-2.9 -0.355,-1.016 -0.604,-1.999 -0.71,-3.007 z"
         fill="#ffffff"
         fill-rule="evenodd"
         transform="matrix(1,0,0,-1,-0.106877,503)"
         id="path67" />
    </g>
    <g
       clip-path="url(#clip18)"
       id="g68">
      <path
         d="m 459.158,194.792 c -1.527,0.352 -2.947,0.909 -4.118,1.658 -1.207,0.753 -2.166,1.647 -2.876,2.727 -0.745,1.086 -1.242,2.272 -1.491,3.56 -0.213,1.328 -0.177,2.755 0.178,4.228 0.319,1.484 0.887,2.752 1.668,3.813 0.746,1.108 1.704,1.963 2.84,2.623 1.136,0.668 2.379,1.062 3.799,1.257 1.42,0.199 2.911,0.1 4.473,-0.252 1.526,-0.351 2.911,-0.944 4.082,-1.725 1.207,-0.788 2.13,-1.722 2.84,-2.801 0.746,-1.076 1.207,-2.262 1.42,-3.589 0.249,-1.289 0.213,-2.677 -0.106,-4.079 -0.32,-1.438 -0.888,-2.709 -1.669,-3.813 -0.745,-1.061 -1.704,-1.924 -2.804,-2.588 -1.136,-0.667 -2.379,-1.068 -3.763,-1.267 -1.42,-0.199 -2.911,-0.103 -4.473,0.248 z m 1.313,5.769 c 1.74,-0.398 3.195,-0.362 4.367,0.089 1.171,0.5 1.881,1.374 2.165,2.659 0.284,1.292 0.036,2.385 -0.781,3.337 -0.887,0.951 -2.165,1.601 -3.905,1.995 -1.739,0.394 -3.195,0.362 -4.366,-0.124 -1.207,-0.49 -1.953,-1.357 -2.237,-2.645 -0.319,-1.292 0,-2.4 0.852,-3.351 0.888,-0.913 2.166,-1.566 3.905,-1.96 z"
         fill="#ffffff"
         fill-rule="evenodd"
         transform="matrix(1,0,0,-1,-0.106877,503)"
         id="path68" />
    </g>
    <g
       clip-path="url(#clip19)"
       id="g69">
      <path
         d="m 458.164,191.626 c 1.384,-0.472 2.662,-1.136 3.727,-2.038 1.101,-0.848 1.988,-1.882 2.627,-3.039 0.639,-1.154 0.959,-2.456 1.101,-3.862 0.142,-1.402 -0.071,-2.893 -0.568,-4.473 -0.355,-1.037 -0.746,-1.97 -1.243,-2.759 -0.461,-0.784 -1.029,-1.533 -1.633,-2.236 l -4.011,2.613 c 0.355,0.458 0.745,0.948 1.1,1.523 0.355,0.575 0.639,1.214 0.888,1.991 0.568,1.623 0.461,3.018 -0.284,4.122 -0.746,1.143 -1.917,1.995 -3.586,2.545 -1.739,0.582 -3.23,0.671 -4.437,0.217 -1.207,-0.419 -2.13,-1.548 -2.734,-3.43 -0.248,-0.663 -0.39,-1.391 -0.532,-2.204 -0.142,-0.81 -0.178,-1.583 -0.107,-2.297 l -4.792,0.731 c -0.036,0.714 -0.036,1.612 0.106,2.634 0.142,1.016 0.391,2.127 0.781,3.27 0.604,1.768 1.349,3.198 2.343,4.299 0.923,1.122 1.988,1.924 3.195,2.418 1.172,0.543 2.45,0.777 3.834,0.727 1.349,-0.003 2.769,-0.277 4.225,-0.752 z"
         fill="#ffffff"
         fill-rule="evenodd"
         transform="matrix(1,0,0,-1,-0.106877,503)"
         id="path69" />
    </g>
    <g
       clip-path="url(#clip20)"
       id="g70">
      <path
         d="m 439.775,171.032 2.201,5.357 18.886,-7.81 -2.201,-5.36 z m 24.14,-10.572 c -0.959,0.401 -1.633,1.051 -1.917,1.889 -0.284,0.884 -0.284,1.757 0.071,2.616 0.39,0.866 0.958,1.502 1.81,1.875 0.781,0.426 1.704,0.422 2.698,0.021 0.959,-0.398 1.633,-1.051 1.917,-1.935 0.284,-0.838 0.284,-1.711 -0.071,-2.57 -0.355,-0.866 -0.958,-1.498 -1.775,-1.924 -0.816,-0.377 -1.739,-0.369 -2.733,0.028 z"
         fill="#ffffff"
         fill-rule="evenodd"
         transform="matrix(1,0,0,-1,-0.106877,503)"
         id="path70" />
    </g>
    <g
       clip-path="url(#clip21)"
       id="g71">
      <path
         d="m 438.142,158.007 c -0.284,-0.525 -0.497,-1.012 -0.71,-1.48 -0.178,-0.472 -0.355,-0.87 -0.462,-1.165 l 3.941,-1.97 c 0.142,0.192 0.355,0.476 0.603,0.873 0.249,0.394 0.462,0.76 0.639,1.108 0.249,0.486 0.462,0.962 0.639,1.392 0.142,0.49 0.213,0.923 0.213,1.327 -0.035,0.398 -0.106,0.778 -0.284,1.094 -0.177,0.312 -0.497,0.593 -0.887,0.802 -0.817,0.401 -1.491,0.398 -2.095,0 -0.568,-0.369 -1.136,-1.047 -1.597,-1.981 z m 15.371,-7.178 c -0.781,-1.526 -1.597,-2.73 -2.449,-3.564 -0.852,-0.834 -1.74,-1.424 -2.734,-1.718 -0.958,-0.26 -1.952,-0.331 -3.017,-0.103 -1.03,0.227 -2.13,0.593 -3.266,1.164 l -10.792,5.4 c 0.213,0.82 0.532,1.945 0.958,3.39 0.461,1.431 1.136,3.081 2.094,4.959 0.604,1.179 1.243,2.205 1.918,3.043 0.71,0.869 1.455,1.53 2.307,1.977 0.781,0.472 1.669,0.678 2.627,0.682 0.959,-0.004 1.988,-0.302 3.089,-0.852 1.1,-0.544 1.881,-1.207 2.378,-2.02 0.533,-0.789 0.852,-1.637 0.923,-2.595 0.107,-0.959 0,-1.91 -0.248,-2.958 -0.284,-1.029 -0.675,-2.016 -1.172,-3.024 -0.319,-0.664 -0.674,-1.275 -0.958,-1.775 -0.355,-0.483 -0.639,-0.874 -0.888,-1.129 l 0.497,-0.245 c 0.852,-0.437 1.74,-0.525 2.521,-0.259 0.781,0.259 1.526,1.061 2.201,2.375 0.426,0.869 0.781,1.775 1.136,2.694 0.284,0.944 0.461,1.757 0.532,2.506 l 4.509,-1.43 c -0.036,-0.359 -0.142,-0.795 -0.249,-1.303 -0.142,-0.501 -0.319,-1.022 -0.461,-1.601 -0.213,-0.554 -0.426,-1.182 -0.639,-1.803 -0.284,-0.611 -0.533,-1.218 -0.817,-1.811 z"
         fill="#ffffff"
         fill-rule="evenodd"
         transform="matrix(1,0,0,-1,-0.106877,503)"
         id="path71" />
    </g>
    <g
       clip-path="url(#clip22)"
       id="g72">
      <path
         d="m 450.389,135.347 -2.272,-5.41 -5.112,3.199 -3.692,-5.9 -4.082,2.556 3.692,5.896 -6.107,3.82 c -1.029,0.639 -1.987,0.962 -2.839,0.991 -0.852,0.031 -1.598,-0.508 -2.272,-1.602 -0.32,-0.525 -0.604,-1.128 -0.852,-1.75 -0.249,-0.624 -0.426,-1.2 -0.568,-1.764 l -4.26,1.704 c 0.142,0.738 0.319,1.541 0.603,2.368 0.32,0.831 0.746,1.782 1.42,2.836 0.852,1.349 1.704,2.333 2.627,2.979 0.959,0.66 1.882,1.043 2.84,1.164 0.959,0.135 1.988,0 3.053,-0.38 1.065,-0.348 2.13,-0.887 3.266,-1.59 z"
         fill="#ffffff"
         fill-rule="evenodd"
         transform="matrix(1,0,0,-1,-0.106877,503)"
         id="path72" />
    </g>
    <g
       clip-path="url(#clip23)"
       id="g73">
      <path
         d="m 416.309,130.14 3.373,4.71 16.649,-11.91 -3.372,-4.711 z m 21.123,-15.794 c -0.852,0.607 -1.349,1.391 -1.42,2.268 -0.107,0.937 0.106,1.775 0.639,2.538 0.568,0.756 1.278,1.239 2.165,1.413 0.888,0.231 1.775,0.018 2.663,-0.593 0.852,-0.614 1.349,-1.398 1.42,-2.325 0.106,-0.88 -0.142,-1.722 -0.675,-2.485 -0.532,-0.756 -1.278,-1.239 -2.165,-1.47 -0.888,-0.174 -1.775,0.039 -2.627,0.654 z"
         fill="#ffffff"
         fill-rule="evenodd"
         transform="matrix(1,0,0,-1,-0.106877,503)"
         id="path73" />
    </g>
    <g
       clip-path="url(#clip24)"
       id="g74">
      <path
         d="m 409.244,105.219 c -1.206,1.033 -2.201,2.165 -2.911,3.376 -0.745,1.235 -1.171,2.463 -1.313,3.752 -0.142,1.31 -0.036,2.588 0.355,3.834 0.426,1.278 1.1,2.52 2.094,3.681 0.994,1.158 2.06,2.024 3.231,2.613 1.171,0.628 2.414,0.955 3.763,1.008 1.278,0.078 2.556,-0.145 3.941,-0.635 1.313,-0.472 2.591,-1.246 3.834,-2.279 1.206,-1.026 2.165,-2.191 2.84,-3.43 0.674,-1.238 1.1,-2.502 1.242,-3.784 0.142,-1.288 0,-2.57 -0.426,-3.844 -0.39,-1.25 -1.029,-2.464 -1.988,-3.561 -0.958,-1.129 -2.024,-1.995 -3.23,-2.616 -1.137,-0.597 -2.379,-0.923 -3.693,-0.998 -1.277,-0.082 -2.556,0.142 -3.905,0.614 -1.349,0.465 -2.626,1.243 -3.834,2.269 z m 3.799,4.515 c 1.384,-1.154 2.663,-1.793 3.94,-1.942 1.243,-0.081 2.272,0.362 3.124,1.371 0.853,1.011 1.137,2.108 0.853,3.322 -0.355,1.25 -1.172,2.418 -2.556,3.575 -1.349,1.154 -2.663,1.793 -3.941,1.907 -1.278,0.113 -2.343,-0.309 -3.195,-1.317 -0.852,-1.012 -1.101,-2.138 -0.781,-3.376 0.355,-1.215 1.207,-2.383 2.556,-3.54 z"
         fill="#ffffff"
         fill-rule="evenodd"
         transform="matrix(1,0,0,-1,-0.106877,503)"
         id="path74" />
    </g>
    <g
       clip-path="url(#clip25)"
       id="g75">
      <path
         d="m 412.794,95.2644 c -0.532,-0.8662 -1.242,-1.949 -2.2,-3.2128 -0.959,-1.2496 -2.06,-2.4601 -3.302,-3.6387 -1.278,-1.207 -2.485,-2.0306 -3.621,-2.5276 -1.136,-0.4402 -2.272,-0.6035 -3.302,-0.4686 -1.029,0.1349 -2.094,0.5147 -3.088,1.1431 -0.959,0.6319 -1.953,1.4519 -2.911,2.4637 l -7.988,8.3602 4.189,4.0013 7.491,-7.8566 c 1.278,-1.349 2.378,-2.1477 3.266,-2.3607 0.923,-0.213 1.81,0.1207 2.804,1.0614 0.32,0.2947 0.639,0.5929 0.959,0.9408 0.284,0.3479 0.533,0.6993 0.781,0.9727 l -10.899,11.4274 4.189,3.997 z"
         fill="#ffffff"
         fill-rule="evenodd"
         transform="matrix(1,0,0,-1,-0.106877,503)"
         id="path75" />
    </g>
    <g
       clip-path="url(#clip26)"
       id="g76">
      <path
         d="m 109.457,96.727 c -0.628,0.5751 -1.196,0.9904 -1.732,1.2673 -0.479,0.2805 -0.92,0.4296 -1.363,0.4651 -0.419,0.0639 -0.771,0.0177 -1.09,-0.1598 -0.327,-0.1775 -0.618,-0.3834 -0.902,-0.6958 -0.607,-0.6567 -0.788,-1.4874 -0.586,-2.4708 0.213,-0.9798 0.849,-2.4033 1.889,-4.2529 0.447,-0.8307 0.845,-1.6685 1.211,-2.5879 0.397,-0.8875 0.624,-1.7857 0.727,-2.7122 0.117,-0.9053 0.05,-1.8389 -0.241,-2.7833 -0.259,-0.923 -0.795,-1.8531 -1.637,-2.769 -0.837,-0.9123 -1.768,-1.5868 -2.794,-2.0128 -0.997,-0.4012 -2.066,-0.5858 -3.1661,-0.5219 -1.1005,0.0639 -2.2365,0.3692 -3.3903,0.8982 -1.1218,0.5502 -2.2826,1.3525 -3.3973,2.3785 -1.3419,1.2318 -2.3537,2.4247 -3.0708,3.6033 -0.7064,1.175 -1.2141,2.2223 -1.5336,3.1417 l 4.5121,2.343 c 0.2804,-0.7845 0.678,-1.6223 1.1253,-2.453 0.5006,-0.8272 1.2248,-1.704 2.1655,-2.5738 1.0615,-0.962 1.9667,-1.5336 2.6838,-1.665 0.7775,-0.1313 1.4274,0.1172 1.9774,0.7207 0.341,0.3657 0.515,0.7384 0.575,1.1466 0.071,0.4154 -0.003,0.8521 -0.135,1.3384 -0.131,0.4935 -0.294,1.0082 -0.593,1.5407 -0.238,0.5396 -0.539,1.136 -0.8694,1.7466 -0.6852,1.3206 -1.2319,2.5063 -1.665,3.582 -0.4331,1.0827 -0.6425,2.1158 -0.7135,3.0743 -0.0391,0.9301 0.1384,1.8744 0.4828,2.769 0.3514,0.8875 0.9975,1.8248 1.8602,2.7728 1.7009,1.856 3.6709,2.684 5.8789,2.502 2.233,-0.152 4.679,-1.441 7.277,-3.83 0.888,-0.8129 1.609,-1.5762 2.248,-2.3181 0.61,-0.7668 1.079,-1.4662 1.494,-2.1016 0.408,-0.6426 0.738,-1.2603 0.951,-1.775 0.245,-0.5432 0.426,-1.0224 0.554,-1.4023 l -4.508,-2.3962 c -0.313,0.8662 -0.763,1.8105 -1.417,2.879 -0.621,1.0402 -1.547,2.1549 -2.808,3.3122 z"
         fill="#ffffff"
         fill-rule="evenodd"
         transform="matrix(1,0,0,-1,-0.106877,503)"
         id="path76" />
    </g>
    <g
       clip-path="url(#clip27)"
       id="g77">
      <path
         d="m 90.621,122.07 c 0.8449,-0.543 1.8957,-1.317 3.1275,-2.304 1.2035,-1.004 2.3679,-2.151 3.5039,-3.429 1.1537,-1.306 1.9347,-2.538 2.3323,-3.688 0.4193,-1.182 0.5433,-2.315 0.3373,-3.376 -0.1704,-1.033 -0.5893,-2.081 -1.2816,-3.05 -0.6922,-0.98 -1.5478,-1.942 -2.5915,-2.868 l -8.5164,-7.5404 -3.8305,4.3274 7.9911,7.075 c 1.3951,1.232 2.2542,2.315 2.5311,3.231 0.2805,0.916 0.0071,1.871 -0.8946,2.886 -0.2804,0.319 -0.5964,0.61 -0.9336,0.934 -0.3373,0.323 -0.6461,0.617 -0.9088,0.852 l -11.7967,-10.437 -3.834,4.331 z"
         fill="#ffffff"
         fill-rule="evenodd"
         transform="matrix(1,0,0,-1,-0.106877,503)"
         id="path77" />
    </g>
    <g
       clip-path="url(#clip28)"
       id="g78">
      <path
         d="m 69.147,135.418 c 1.2957,0.923 2.6305,1.584 3.976,1.971 1.3809,0.408 2.6767,0.522 3.9547,0.33 1.3064,-0.163 2.5169,-0.593 3.6175,-1.285 1.1359,-0.717 2.1619,-1.701 3.0387,-2.936 0.8804,-1.232 1.4449,-2.496 1.7254,-3.77 0.3124,-1.303 0.3124,-2.588 0.0425,-3.88 -0.2449,-1.264 -0.781,-2.45 -1.5974,-3.646 -0.7846,-1.179 -1.8567,-2.219 -3.1525,-3.142 -1.2922,-0.923 -2.6518,-1.551 -4.0221,-1.906 -1.3703,-0.352 -2.6909,-0.43 -3.9654,-0.249 -1.278,0.192 -2.4814,0.618 -3.6174,1.342 -1.1005,0.685 -2.1158,1.637 -2.943,2.812 -0.852,1.203 -1.4164,2.467 -1.7217,3.77 -0.2876,1.274 -0.2947,2.556 -0.0533,3.82 0.245,1.271 0.7846,2.456 1.5656,3.635 0.7845,1.171 1.8531,2.211 3.1524,3.134 z m 3.408,-4.81 c -1.452,-1.029 -2.3927,-2.119 -2.8365,-3.298 -0.4011,-1.185 -0.2272,-2.304 0.5361,-3.379 0.7632,-1.072 1.7608,-1.605 3.0104,-1.623 1.278,0.004 2.6234,0.533 4.0754,1.562 1.4555,1.033 2.3962,2.127 2.8222,3.334 0.426,1.21 0.2876,2.346 -0.4756,3.422 -0.7668,1.072 -1.7928,1.587 -3.0744,1.576 -1.2602,-0.035 -2.6021,-0.557 -4.0576,-1.594 z"
         fill="#ffffff"
         fill-rule="evenodd"
         transform="matrix(1,0,0,-1,-0.106877,503)"
         id="path78" />
    </g>
    <g
       clip-path="url(#clip29)"
       id="g79">
      <path
         d="m 60.9358,148.546 c -1.6472,-0.869 -2.7015,-1.686 -3.1737,-2.467 -0.4508,-0.809 -0.4153,-1.707 0.1349,-2.737 0.1598,-0.305 0.3373,-0.653 0.5538,-0.98 0.213,-0.323 0.4651,-0.628 0.6639,-0.919 l 13.9337,7.352 2.698,-5.112 -17.4305,-9.202 c -0.3372,0.394 -0.749,0.838 -1.1928,1.342 -0.4153,0.533 -0.8733,1.076 -1.3241,1.676 -0.4473,0.596 -0.8591,1.21 -1.2851,1.864 -0.3976,0.663 -0.7952,1.338 -1.1431,1.988 -0.6923,1.302 -1.0792,2.463 -1.207,3.443 -0.0675,0.973 -0.0178,1.878 0.1526,2.631 -0.8946,0.447 -1.7608,1.086 -2.5773,1.885 -0.7987,0.759 -1.4058,1.579 -1.8176,2.367 -0.7632,1.445 -1.1892,2.755 -1.3064,3.881 -0.0745,1.146 0.1278,2.172 0.5574,3.099 0.4331,0.933 1.1289,1.778 2.0164,2.513 0.8839,0.728 1.9596,1.431 3.1985,2.08 l 10.1921,5.379 2.7015,-5.112 -9.5779,-5.048 c -1.6507,-0.87 -2.7051,-1.697 -3.1737,-2.468 -0.4508,-0.809 -0.4118,-1.714 0.1314,-2.744 0.142,-0.27 0.4118,-0.614 0.7987,-1.022 0.4118,-0.44 0.7988,-0.763 1.168,-0.962 0.4224,0.44 0.923,0.838 1.4803,1.175 0.568,0.344 1.1999,0.72 1.8602,1.065 l 9.8477,5.201 2.6909,-5.116 z"
         fill="#ffffff"
         fill-rule="evenodd"
         transform="matrix(1,0,0,-1,-0.106877,503)"
         id="path79" />
    </g>
    <g
       clip-path="url(#clip30)"
       id="g80">
      <path
         d="m 52.2987,167.741 c -1.7076,-0.639 -3.2909,-0.94 -4.7677,-0.866 -1.4626,0.032 -2.7725,0.327 -3.9192,0.856 -1.1502,0.518 -2.1691,1.256 -3.0282,2.218 -0.8484,0.934 -1.4803,1.978 -1.917,3.142 -1.0188,2.73 -0.9833,5.183 0.071,7.356 1.0863,2.19 3.227,3.894 6.4575,5.108 0.3337,0.121 0.6568,0.242 1.0366,0.341 0.4118,0.11 0.7384,0.231 1.0402,0.305 l 4.5901,-12.286 c 1.0828,0.529 1.7502,1.402 2.0732,2.552 0.3124,1.154 0.174,2.51 -0.4082,4.079 -0.3621,0.98 -0.8414,1.917 -1.3881,2.833 -0.5325,0.877 -1.0366,1.558 -1.5194,2.084 l 4.1251,2.368 c 0.2485,-0.238 0.5432,-0.586 0.8698,-1.001 0.323,-0.416 0.6709,-0.909 0.994,-1.449 0.3408,-0.575 0.6461,-1.171 0.9762,-1.832 0.3302,-0.66 0.6106,-1.306 0.8698,-1.995 0.639,-1.707 0.9407,-3.291 0.9017,-4.76 -0.0284,-1.463 -0.3231,-2.773 -0.923,-3.948 -0.5645,-1.157 -1.3845,-2.176 -2.4318,-3.021 -1.0579,-0.848 -2.2791,-1.555 -3.7026,-2.084 z m -6.816,11.953 c -0.4615,-0.213 -0.8733,-0.447 -1.2674,-0.724 -0.3799,-0.305 -0.6958,-0.671 -0.9301,-1.054 -0.2201,-0.405 -0.3763,-0.881 -0.4438,-1.364 -0.0567,-0.518 0.0391,-1.104 0.2699,-1.721 0.2307,-0.618 0.5289,-1.083 0.8697,-1.456 0.3834,-0.351 0.813,-0.61 1.2496,-0.777 0.4331,-0.171 0.9124,-0.238 1.4094,-0.22 0.536,0 1.0153,0.049 1.5123,0.156 z"
         fill="#ffffff"
         fill-rule="evenodd"
         transform="matrix(1,0,0,-1,-0.106877,503)"
         id="path80" />
    </g>
    <g
       clip-path="url(#clip31)"
       id="g81">
      <path
         d="m 34.9959,187.366 c -0.5034,0.877 -1.0895,2.044 -1.7377,3.479 -0.6106,1.445 -1.1296,2.992 -1.5563,4.647 -0.437,1.693 -0.5708,3.138 -0.4473,4.373 0.1715,1.207 0.5779,2.272 1.1981,3.117 0.6252,0.838 1.4789,1.583 2.4974,2.13 1.0256,0.543 2.222,1.008 3.5745,1.356 l 11.1648,2.879 1.4378,-5.594 -10.4761,-2.709 c -1.8034,-0.462 -3.0246,-1.015 -3.6565,-1.701 -0.6213,-0.678 -0.7775,-1.643 -0.4331,-2.957 0.1029,-0.415 0.213,-0.827 0.3656,-1.271 0.1562,-0.436 0.3337,-0.834 0.4615,-1.161 l 15.2544,3.934 1.4449,-5.598 z"
         fill="#ffffff"
         fill-rule="evenodd"
         transform="matrix(1,0,0,-1,-0.106877,503)"
         id="path81" />
    </g>
    <g
       clip-path="url(#clip32)"
       id="g82">
      <path
         d="m 46.7855,231.148 c 0.142,-1.466 0.2414,-2.94 0.3018,-4.377 0.0213,-1.477 -0.0284,-3.004 -0.2237,-4.619 l -25.9594,-2.467 c -0.3525,1.214 -0.6706,2.545 -0.9248,4.008 -0.2559,1.452 -0.4253,2.797 -0.5453,4.075 -0.164,1.704 -0.1949,3.295 -0.0997,4.743 0.1328,1.463 0.4434,2.698 0.9283,3.799 0.4768,1.093 1.1712,1.977 2.0871,2.651 0.9098,0.671 2.0824,1.055 3.5081,1.19 2.1225,0.202 3.9213,-0.682 5.3548,-2.61 0.4935,1.761 1.2326,3 2.2954,3.724 1.0629,0.728 2.2688,1.151 3.6604,1.285 2.8223,0.27 5.002,-0.539 6.6279,-2.449 1.6224,-1.913 2.6022,-4.899 2.9891,-8.953 z m -11.7232,-4.196 6.92,0.657 c -0.0035,0.429 -0.0177,0.937 -0.0248,1.441 -0.0107,0.507 -0.0639,1.09 -0.1242,1.707 -0.174,1.811 -0.5752,3.217 -1.1893,4.289 -0.6035,1.075 -1.6224,1.523 -3.014,1.388 -1.2354,-0.117 -2.0803,-0.664 -2.5322,-1.64 -0.415,-0.973 -0.5612,-2.311 -0.3937,-4.051 z m -4.599,-0.437 -0.2758,2.936 c -0.1772,1.853 -0.5332,3.149 -1.1098,3.916 -0.5428,0.759 -1.3511,1.072 -2.3937,0.976 -1.0846,-0.1 -1.8148,-0.604 -2.1595,-1.449 -0.3532,-0.852 -0.4629,-2.112 -0.3128,-3.695 0.0437,-0.504 0.0987,-1.086 0.1559,-1.661 0.0912,-0.579 0.18,-1.115 0.2637,-1.573 z"
         fill="#ffffff"
         fill-rule="evenodd"
         transform="matrix(1,0,0,-1,-0.106877,503)"
         id="path82" />
    </g>
    <g
       clip-path="url(#clip33)"
       id="g83">
      <path
         d="m 45.3407,252.586 0.0745,-5.779 -20.4125,-0.249 -0.0682,5.78 z m -26.313,0.224 c 1.0462,0.014 1.9084,-0.33 2.4967,-0.98 0.6319,-0.692 0.9475,-1.498 0.9578,-2.435 0.0117,-0.927 -0.2837,-1.747 -0.9017,-2.414 -0.5737,-0.707 -1.4218,-1.065 -2.468,-1.079 -1.0465,-0.015 -1.9024,0.326 -2.5343,1.019 -0.5883,0.649 -0.9085,1.466 -0.9202,2.396 -0.0121,0.926 0.29,1.746 0.8641,2.453 0.6113,0.667 1.4594,1.026 2.5056,1.04 z"
         fill="#ffffff"
         fill-rule="evenodd"
         transform="matrix(1,0,0,-1,-0.106877,503)"
         id="path83" />
    </g>
    <g
       clip-path="url(#clip34)"
       id="g84">
      <path
         d="m 19.8509,258.444 -0.5999,5.825 6.0062,-0.34 0.3916,6.929 4.8049,-0.27 -0.3933,-6.936 7.1614,-0.401 c 1.2034,-0.068 2.1868,0.11 2.9465,0.493 0.7632,0.383 1.1609,1.218 1.2354,2.496 0.0284,0.617 -0.0071,1.285 -0.0888,1.949 -0.0816,0.667 -0.2023,1.253 -0.362,1.81 l 4.5369,0.557 c 0.2307,-0.713 0.4615,-1.505 0.6035,-2.367 0.1491,-0.863 0.2059,-1.914 0.1349,-3.16 -0.0888,-1.583 -0.355,-2.854 -0.8804,-3.869 -0.4828,-1.023 -1.1112,-1.804 -1.9241,-2.379 -0.7669,-0.579 -1.7218,-0.955 -2.8223,-1.125 -1.1005,-0.21 -2.3075,-0.256 -3.6281,-0.181 z"
         fill="#ffffff"
         fill-rule="evenodd"
         transform="matrix(1,0,0,-1,-0.106877,503)"
         id="path84" />
    </g>
    <g
       clip-path="url(#clip35)"
       id="g85">
      <path
         d="m 36.0929,273.854 c -1.4633,0.203 -2.8127,0.625 -4.0477,1.31 -1.2056,0.639 -2.261,1.491 -3.097,2.51 -0.8357,1.019 -1.4154,2.233 -1.8116,3.582 -0.3965,1.349 -0.4654,2.854 -0.2318,4.498 0.1473,1.076 0.3681,2.07 0.6809,2.929 0.3195,0.855 0.7508,1.69 1.2134,2.492 l 4.408,-1.835 c -0.2695,-0.512 -0.5435,-1.062 -0.7846,-1.69 -0.2492,-0.632 -0.4228,-1.314 -0.5342,-2.12 -0.24,-1.693 0.1228,-3.038 1.0479,-3.983 0.9188,-0.994 2.2411,-1.611 3.9767,-1.849 1.8034,-0.259 3.2802,-0.071 4.3878,0.593 1.1112,0.631 1.7964,1.906 2.0733,3.862 0.0923,0.699 0.1171,1.438 0.1171,2.261 0,0.82 -0.1313,1.584 -0.3053,2.276 l 4.7996,0.153 c 0.1775,-0.693 0.3266,-1.577 0.3799,-2.603 0.0532,-1.029 0.0142,-2.158 -0.1527,-3.347 -0.2627,-1.843 -0.749,-3.383 -1.5158,-4.647 -0.7278,-1.271 -1.6046,-2.244 -2.6838,-2.954 -1.0828,-0.752 -2.2863,-1.214 -3.6459,-1.413 -1.3277,-0.245 -2.7761,-0.238 -4.2742,-0.025 z"
         fill="#ffffff"
         fill-rule="evenodd"
         transform="matrix(1,0,0,-1,-0.106877,503)"
         id="path85" />
    </g>
    <g
       clip-path="url(#clip36)"
       id="g86">
      <path
         d="m 43.4663,312.411 c 1.5442,-0.38 2.9216,-0.951 4.0967,-1.715 1.2105,-0.763 2.1477,-1.672 2.8471,-2.754 0.7313,-1.094 1.207,-2.29 1.4164,-3.572 0.2024,-1.327 0.1349,-2.755 -0.2201,-4.221 -0.3514,-1.473 -0.9372,-2.73 -1.7075,-3.78 -0.7846,-1.087 -1.7431,-1.935 -2.8968,-2.571 -1.1112,-0.653 -2.3608,-1.036 -3.8021,-1.203 -1.3987,-0.185 -2.8862,-0.064 -4.4375,0.309 -1.5443,0.369 -2.9146,0.98 -4.0761,1.782 -1.1666,0.799 -2.0935,1.739 -2.7932,2.822 -0.6982,1.09 -1.1672,2.279 -1.3696,3.607 -0.2066,1.289 -0.1522,2.67 0.1829,4.065 0.3461,1.434 0.9247,2.691 1.7111,3.78 0.7685,1.051 1.7338,1.896 2.8442,2.546 1.1151,0.649 2.3647,1.033 3.7705,1.214 1.3987,0.181 2.8826,0.06 4.434,-0.309 z m -1.3846,-5.74 c -1.7324,0.419 -3.1772,0.408 -4.3594,-0.029 -1.1502,-0.479 -1.8779,-1.342 -2.1868,-2.623 -0.312,-1.285 -0.0507,-2.382 0.7562,-3.334 0.8449,-0.962 2.1193,-1.626 3.8553,-2.044 1.7324,-0.419 3.1737,-0.405 4.3701,0.06 1.1892,0.469 1.9525,1.331 2.2613,2.609 0.3089,1.285 0.0178,2.393 -0.8307,3.351 -0.852,0.927 -2.1264,1.591 -3.866,2.01 z"
         fill="#ffffff"
         fill-rule="evenodd"
         transform="matrix(1,0,0,-1,-0.106877,503)"
         id="path86" />
    </g>
    <g
       clip-path="url(#clip37)"
       id="g87">
      <path
         d="m 56.4628,318.847 -1.7998,-5.495 -19.398,6.344 1.797,5.495 z m -24.8394,8.698 c 0.9965,-0.33 1.704,-0.927 2.047,-1.736 0.3788,-0.852 0.4196,-1.729 0.1271,-2.61 -0.2865,-0.887 -0.8385,-1.565 -1.6327,-2.002 -0.7714,-0.475 -1.6887,-0.546 -2.6873,-0.223 -0.9919,0.326 -1.6977,0.926 -2.0679,1.785 -0.3511,0.803 -0.3923,1.679 -0.0994,2.56 0.2865,0.887 0.8321,1.565 1.6032,2.045 0.7941,0.436 1.7182,0.504 2.71,0.181 z"
         fill="#ffffff"
         fill-rule="evenodd"
         transform="matrix(1,0,0,-1,-0.106877,503)"
         id="path87" />
    </g>
    <g
       clip-path="url(#clip38)"
       id="g88">
      <path
         d="m 39.6109,330.715 c 0.1172,1.001 0.3586,2.286 0.7065,3.823 0.3798,1.523 0.9017,3.071 1.5584,4.644 0.671,1.611 1.4378,2.85 2.2756,3.759 0.8662,0.859 1.8354,1.466 2.8365,1.761 1.0082,0.298 2.1371,0.373 3.2802,0.192 1.1431,-0.182 2.382,-0.533 3.6707,-1.065 l 10.6358,-4.434 -2.2223,-5.336 -9.9933,4.164 c -1.7146,0.717 -3.0281,1.005 -3.9405,0.838 -0.9017,-0.163 -1.6046,-0.841 -2.1264,-2.095 -0.1669,-0.394 -0.3302,-0.791 -0.4757,-1.231 -0.1385,-0.444 -0.2343,-0.874 -0.3302,-1.211 l 14.5444,-6.06 -2.2294,-5.328 z"
         fill="#ffffff"
         fill-rule="evenodd"
         transform="matrix(1,0,0,-1,-0.106877,503)"
         id="path88" />
    </g>
    <g
       clip-path="url(#clip39)"
       id="g89">
      <path
         d="m 53.1365,348.138 5.1723,9.986 4.6505,-2.414 -5.1652,-9.982 z"
         fill="#ffffff"
         fill-rule="evenodd"
         transform="matrix(1,0,0,-1,-0.106877,503)"
         id="path89" />
    </g>
    <g
       clip-path="url(#clip40)"
       id="g90">
      <path
         d="m 64.4539,380.241 c 2.6944,-3.089 5.1936,-6.071 7.4443,-8.982 2.2578,-2.911 4.3772,-5.822 6.3155,-8.804 0.7029,-1.065 1.2673,-2.059 1.6791,-2.982 0.4012,-0.887 0.6532,-1.704 0.7704,-2.556 0.0745,-0.852 0.0355,-1.633 -0.1633,-2.467 -0.2308,-0.82 -0.6426,-1.704 -1.2141,-2.623 -0.4722,-0.756 -0.9905,-1.445 -1.5123,-1.988 -0.5716,-0.554 -1.065,-0.98 -1.4981,-1.307 l -3.3903,3.295 c 0.4722,0.394 0.8875,0.774 1.2035,1.125 0.3088,0.355 0.6106,0.767 0.8768,1.193 0.5503,0.891 0.7313,1.707 0.5822,2.488 -0.213,0.746 -0.6248,1.562 -1.2425,2.379 -2.9039,0.284 -6.0705,0.674 -9.5033,1.278 -3.4329,0.568 -7.1533,1.42 -11.1648,2.556 l 3.2376,5.183 c 0.9976,-0.284 2.091,-0.604 3.2625,-0.923 1.2034,-0.32 2.3749,-0.639 3.5997,-0.959 1.2318,-0.319 2.4566,-0.603 3.6352,-0.852 1.1608,-0.248 2.2542,-0.497 3.234,-0.674 -0.607,0.781 -1.3135,1.633 -2.0803,2.52 -0.7774,0.888 -1.5939,1.882 -2.4317,2.805 -0.8343,0.923 -1.6614,1.81 -2.4921,2.733 -0.8272,0.888 -1.6082,1.669 -2.3217,2.45 z"
         fill="#ffffff"
         fill-rule="evenodd"
         transform="matrix(1,0,0,-1,-0.106877,503)"
         id="path90" />
    </g>
    <g
       clip-path="url(#clip41)"
       id="g91">
      <path
         d="m 82.9068,370.94 -23.0821,17.856 2.8009,5.148 7.7355,-6 c 0.142,0.391 0.3301,0.888 0.6141,1.42 0.2698,0.533 0.5964,1.03 0.9514,1.491 1.0189,1.314 2.0377,2.237 3.0566,2.876 1.0366,0.568 2.1087,0.887 3.1524,0.923 1.0472,0 2.13,-0.249 3.1914,-0.71 1.0508,-0.462 2.1371,-1.172 3.2412,-2.024 l 9.1164,-7.064 -3.5393,-4.58 -8.5591,6.639 c -1.4768,1.136 -2.6625,1.775 -3.5607,1.881 -0.9194,0.071 -1.7714,-0.39 -2.556,-1.42 -0.3088,-0.39 -0.5857,-0.816 -0.7845,-1.207 -0.1953,-0.426 -0.3941,-0.816 -0.5219,-1.171 l 12.2795,-9.479 z"
         fill="#ffffff"
         fill-rule="evenodd"
         transform="matrix(1,0,0,-1,-0.106877,503)"
         id="path91" />
    </g>
    <g
       clip-path="url(#clip42)"
       id="g92">
      <path
         d="m 92.2114,398.594 c 1.2922,-1.207 2.595,-1.917 3.944,-2.094 1.349,-0.142 2.5454,0.319 3.6459,1.455 0.3447,0.355 0.6637,0.746 0.9337,1.101 0.266,0.319 0.508,0.639 0.667,0.852 l -7.6073,7.277 c -0.4118,-0.106 -0.8698,-0.319 -1.3881,-0.603 -0.5112,-0.32 -0.994,-0.71 -1.3987,-1.136 -1.8992,-1.988 -1.491,-4.26 1.2035,-6.852 z m 16.0456,2.769 c -0.237,-0.461 -0.553,-1.029 -0.919,-1.562 -0.348,-0.603 -0.742,-1.171 -1.172,-1.81 -0.422,-0.604 -0.901,-1.207 -1.352,-1.811 -0.515,-0.568 -0.991,-1.136 -1.473,-1.668 -1.151,-1.172 -2.368,-2.13 -3.6391,-2.734 -1.278,-0.603 -2.5596,-0.923 -3.8518,-0.923 -1.2602,-0.035 -2.556,0.213 -3.834,0.817 -1.2744,0.497 -2.5027,1.349 -3.6813,2.485 -1.207,1.136 -2.1407,2.307 -2.8259,3.55 -0.6638,1.207 -1.0756,2.414 -1.2105,3.621 -0.1384,1.207 0.0248,2.378 0.4402,3.55 0.4118,1.171 1.1218,2.272 2.1158,3.302 0.5609,0.567 1.1041,1.029 1.6721,1.384 0.5396,0.355 1.1324,0.639 1.7856,0.923 l -6.6775,6.39 3.3157,4.828 z"
         fill="#ffffff"
         fill-rule="evenodd"
         transform="matrix(1,0,0,-1,-0.106877,503)"
         id="path92" />
    </g>
    <g
       clip-path="url(#clip43)"
       id="g93">
      <path
         d="m 116.44,407.647 -4.317,-3.834 -13.5678,15.265 4.3208,3.834 z m -17.0825,20.022 c 0.7025,-0.781 1.0085,-1.633 0.8945,-2.52 -0.103,-0.924 -0.5075,-1.705 -1.2033,-2.308 -0.6958,-0.639 -1.5088,-0.959 -2.4105,-0.923 -0.9159,-0.036 -1.743,0.391 -2.4388,1.172 -0.6958,0.781 -1.0011,1.633 -0.8946,2.591 0.1065,0.852 0.5076,1.633 1.2034,2.237 0.6994,0.639 1.5123,0.923 2.4176,0.958 0.9123,0 1.7359,-0.426 2.4317,-1.207 z"
         fill="#ffffff"
         fill-rule="evenodd"
         transform="matrix(1,0,0,-1,-0.106877,503)"
         id="path93" />
    </g>
    <g
       clip-path="url(#clip44)"
       id="g94">
      <path
         d="m 122.003,417.552 c 0.824,0.674 1.363,1.206 1.583,1.633 0.224,0.426 0.146,0.887 -0.213,1.349 -0.284,0.39 -0.759,0.532 -1.437,0.461 -0.671,-0.071 -1.58,-0.284 -2.766,-0.675 -0.919,-0.248 -1.775,-0.496 -2.574,-0.638 -0.798,-0.178 -1.604,-0.213 -2.311,-0.143 -0.706,0.107 -1.402,0.285 -2.045,0.675 -0.642,0.391 -1.285,0.959 -1.881,1.74 -1.161,1.526 -1.534,3.124 -1.093,4.899 0.45,1.775 1.657,3.407 3.621,4.899 0.983,0.781 2.002,1.42 3.01,1.952 1.033,0.497 1.91,0.888 2.599,1.065 l 1.959,-4.189 c -0.664,-0.213 -1.37,-0.497 -2.101,-0.816 -0.764,-0.355 -1.516,-0.817 -2.287,-1.42 -1.441,-1.137 -1.835,-2.059 -1.217,-2.876 0.138,-0.177 0.287,-0.319 0.472,-0.39 0.177,-0.107 0.397,-0.143 0.674,-0.143 0.306,0 0.668,0.036 1.126,0.143 0.426,0.071 0.965,0.213 1.601,0.39 1.299,0.426 2.41,0.71 3.315,0.852 0.927,0.142 1.765,0.142 2.471,0.071 0.696,-0.142 1.332,-0.39 1.885,-0.817 0.561,-0.39 1.072,-0.922 1.591,-1.597 1.239,-1.597 1.58,-3.266 1.004,-4.97 -0.561,-1.775 -1.973,-3.479 -4.15,-5.183 -1.444,-1.1 -2.701,-1.881 -3.841,-2.379 -1.15,-0.497 -1.988,-0.816 -2.474,-0.923 l -2.102,4.296 c 0.998,0.284 1.988,0.674 2.936,1.136 0.973,0.461 1.839,0.994 2.645,1.598 z"
         fill="#ffffff"
         fill-rule="evenodd"
         transform="matrix(1,0,0,-1,-0.106877,503)"
         id="path94" />
    </g>
    <g
       clip-path="url(#clip45)"
       id="g95">
      <path
         d="m 120.118,442.757 4.356,3.905 3.259,-5.041 5.839,3.763 2.606,-4.047 -5.84,-3.763 3.888,-6.035 c 0.649,-1.03 1.374,-1.704 2.133,-2.095 0.76,-0.39 1.662,-0.213 2.737,0.462 0.526,0.354 1.037,0.781 1.527,1.207 0.497,0.461 0.898,0.922 1.249,1.384 l 3.121,-3.337 c -0.44,-0.639 -0.944,-1.278 -1.555,-1.881 -0.614,-0.639 -1.431,-1.314 -2.471,-1.988 -1.345,-0.852 -2.524,-1.385 -3.656,-1.562 -1.112,-0.213 -2.113,-0.142 -3.057,0.142 -0.923,0.284 -1.778,0.852 -2.563,1.633 -0.817,0.781 -1.569,1.703 -2.283,2.84 z"
         fill="#ffffff"
         fill-rule="evenodd"
         transform="matrix(1,0,0,-1,-0.106877,503)"
         id="path95" />
    </g>
    <g
       clip-path="url(#clip46)"
       id="g96">
      <path
         d="m 154.241,456.673 c 0.773,-4.012 1.437,-7.846 1.924,-11.502 0.49,-3.621 0.852,-7.207 1.019,-10.792 0.071,-1.278 0.06,-2.414 -0.036,-3.408 -0.099,-0.959 -0.305,-1.811 -0.635,-2.592 -0.348,-0.781 -0.778,-1.42 -1.378,-2.059 -0.607,-0.568 -1.409,-1.136 -2.368,-1.633 -0.788,-0.426 -1.579,-0.781 -2.304,-0.958 -0.777,-0.213 -1.42,-0.32 -1.956,-0.391 l -1.267,4.544 c 0.603,0.106 1.154,0.213 1.605,0.391 0.45,0.142 0.908,0.355 1.356,0.568 0.926,0.497 1.484,1.1 1.746,1.846 0.206,0.781 0.256,1.668 0.142,2.698 -2.389,1.704 -4.909,3.656 -7.583,5.893 -2.68,2.201 -5.467,4.828 -8.367,7.81 l 5.417,2.875 c 0.714,-0.781 1.499,-1.597 2.351,-2.449 0.873,-0.888 1.725,-1.775 2.634,-2.663 0.905,-0.852 1.81,-1.739 2.712,-2.52 0.873,-0.817 1.704,-1.562 2.449,-2.237 -0.127,0.994 -0.305,2.095 -0.529,3.231 -0.216,1.171 -0.436,2.414 -0.695,3.621 -0.252,1.242 -0.526,2.414 -0.778,3.621 -0.273,1.207 -0.543,2.272 -0.77,3.301 z"
         fill="#ffffff"
         fill-rule="evenodd"
         transform="matrix(1,0,0,-1,-0.106877,503)"
         id="path96" />
    </g>
    <g
       clip-path="url(#clip47)"
       id="g97">
      <path
         d="m 169.456,445.419 c 0.966,0.391 1.64,0.817 1.959,1.136 0.316,0.355 0.373,0.852 0.146,1.385 -0.181,0.426 -0.596,0.71 -1.267,0.816 -0.668,0.107 -1.605,0.107 -2.851,0.071 -0.951,-0.035 -1.839,0 -2.655,0.036 -0.813,0.035 -1.605,0.213 -2.258,0.461 -0.664,0.284 -1.282,0.675 -1.804,1.207 -0.518,0.533 -0.986,1.278 -1.359,2.166 -0.739,1.739 -0.671,3.408 0.216,5.005 0.895,1.598 2.471,2.84 4.768,3.799 1.143,0.461 2.3,0.816 3.419,1.1 1.125,0.213 2.076,0.355 2.786,0.355 l 0.803,-4.544 c -0.696,-0.035 -1.459,-0.142 -2.244,-0.284 -0.827,-0.106 -1.683,-0.39 -2.577,-0.781 -1.683,-0.674 -2.315,-1.491 -1.924,-2.414 0.088,-0.248 0.195,-0.39 0.348,-0.532 0.142,-0.142 0.348,-0.249 0.621,-0.284 0.291,-0.107 0.649,-0.178 1.118,-0.178 0.437,-0.035 0.991,-0.035 1.651,-0.035 1.367,0.071 2.51,0.035 3.426,-0.036 0.93,-0.106 1.732,-0.319 2.392,-0.603 0.639,-0.32 1.19,-0.71 1.616,-1.243 0.436,-0.532 0.788,-1.207 1.118,-1.988 0.781,-1.846 0.681,-3.55 -0.327,-5.041 -0.994,-1.562 -2.808,-2.875 -5.346,-3.905 -1.686,-0.71 -3.103,-1.136 -4.335,-1.313 -1.231,-0.178 -2.123,-0.249 -2.627,-0.249 l -0.912,4.686 c 1.047,0.036 2.098,0.142 3.135,0.355 1.054,0.178 2.034,0.462 2.964,0.852 z"
         fill="#ffffff"
         fill-rule="evenodd"
         transform="matrix(1,0,0,-1,-0.106877,503)"
         id="path97" />
    </g>
    <g
       clip-path="url(#clip48)"
       id="g98">
      <path
         d="m 198.339,466.755 c -0.519,-0.036 -1.158,-0.036 -1.871,-0.071 -0.703,-0.071 -1.434,-0.213 -2.226,-0.426 -0.337,-0.071 -0.738,-0.213 -1.214,-0.391 -0.469,-0.213 -0.824,-0.39 -1.065,-0.532 l 4.1,-15.052 -5.577,-1.527 -5.076,18.638 c 0.919,0.639 1.988,1.278 3.28,1.988 1.267,0.674 2.726,1.242 4.409,1.704 0.302,0.071 0.674,0.177 1.097,0.248 0.422,0.071 0.891,0.107 1.31,0.178 0.433,0.035 0.909,0.106 1.342,0.142 0.44,0 0.845,-0.036 1.175,-0.036 z"
         fill="#ffffff"
         fill-rule="evenodd"
         transform="matrix(1,0,0,-1,-0.106877,503)"
         id="path98" />
    </g>
    <g
       clip-path="url(#clip49)"
       id="g99">
      <path
         d="m 219.465,476.162 c -0.462,-4.047 -0.969,-7.916 -1.594,-11.537 -0.621,-3.621 -1.342,-7.171 -2.237,-10.615 -0.323,-1.242 -0.667,-2.307 -1.054,-3.23 -0.38,-0.888 -0.838,-1.633 -1.381,-2.308 -0.557,-0.603 -1.171,-1.136 -1.924,-1.526 -0.76,-0.391 -1.69,-0.675 -2.755,-0.888 -0.884,-0.177 -1.736,-0.248 -2.488,-0.213 -0.796,0.036 -1.445,0.107 -1.974,0.213 l 0.142,4.722 c 0.603,-0.071 1.171,-0.142 1.643,-0.142 0.473,0.035 0.977,0.071 1.474,0.177 1.026,0.178 1.736,0.604 2.208,1.243 0.426,0.674 0.745,1.526 0.948,2.556 -1.772,2.307 -3.611,4.934 -5.499,7.845 -1.889,2.911 -3.77,6.213 -5.652,9.94 l 6.032,1.136 c 0.447,-0.958 0.955,-1.952 1.512,-3.017 0.564,-1.136 1.122,-2.201 1.722,-3.337 0.603,-1.101 1.207,-2.201 1.831,-3.231 0.59,-1.029 1.165,-1.988 1.683,-2.84 0.167,0.959 0.32,2.059 0.451,3.231 0.142,1.171 0.298,2.414 0.426,3.656 0.121,1.278 0.213,2.45 0.334,3.692 0.092,1.207 0.156,2.343 0.238,3.373 z"
         fill="#ffffff"
         fill-rule="evenodd"
         transform="matrix(1,0,0,-1,-0.106877,503)"
         id="path99" />
    </g>
    <path
       d="m 137.197,68.4192 c -0.387,-0.5964 -0.845,-1.0934 -1.416,-1.4874 -0.565,-0.3834 -1.151,-0.671 -1.818,-0.8094 -0.671,-0.1456 -1.37,-0.1775 -2.041,-0.0533 -0.724,0.1207 -1.434,0.3976 -2.12,0.852 -0.688,0.4509 -1.232,0.9798 -1.597,1.5798 -0.419,0.5822 -0.664,1.2354 -0.806,1.9063 -0.138,0.671 -0.117,1.3206 0.014,1.9987 0.128,0.6709 0.398,1.2957 0.792,1.885 0.383,0.5964 0.841,1.097 1.413,1.4875 0.564,0.3869 1.168,0.7029 1.839,0.8449 0.671,0.1384 1.349,0.1455 2.073,0.0248 0.671,-0.1242 1.381,-0.4118 2.066,-0.8555 0.689,-0.4509 1.228,-0.9834 1.654,-1.5691 0.362,-0.5964 0.629,-1.2141 0.771,-1.8851 0.138,-0.6709 0.092,-1.3561 -0.036,-2.0306 -0.124,-0.6709 -0.397,-1.2957 -0.788,-1.8886 z"
       fill="#ffffff"
       fill-rule="evenodd"
       transform="matrix(1,0,0,-1,-0.106877,503)"
       id="path100" />
    <path
       d="m 151.223,45.5963 10.284,23.714 16.025,-6.9474 -1.945,-4.4801 -10.679,4.6257 -2.027,-4.647 9.486,-4.118 -1.899,-4.3842 -9.486,4.118 -2.474,-5.7155 11.463,-4.9771 -1.949,-4.4802 z"
       fill="#ffffff"
       fill-rule="evenodd"
       transform="matrix(1,0,0,-1,-0.106877,503)"
       id="path101" />
    <path
       d="m 179.314,38.6631 c 0.955,-0.3124 1.697,-0.4473 2.144,-0.3976 0.451,0.0497 0.789,0.3692 0.963,0.9017 0.145,0.426 0.028,0.8946 -0.398,1.388 -0.426,0.497 -1.09,1.1076 -2.027,1.8532 -0.703,0.5822 -1.342,1.1466 -1.91,1.6933 -0.568,0.5361 -1.03,1.168 -1.338,1.7786 -0.309,0.6106 -0.522,1.2744 -0.558,1.9915 -0.039,0.7171 0.082,1.5478 0.373,2.4318 0.579,1.7324 1.669,2.9039 3.319,3.5003 1.655,0.5893 3.589,0.497 5.854,-0.2521 1.133,-0.3727 2.198,-0.8449 3.167,-1.3632 0.955,-0.5502 1.732,-1.0472 2.258,-1.4945 l -2.287,-3.8021 c -0.529,0.4118 -1.146,0.8165 -1.792,1.2283 -0.689,0.4189 -1.481,0.7633 -2.365,1.0544 -1.665,0.5502 -2.627,0.3585 -2.935,-0.5574 -0.071,-0.213 -0.093,-0.4047 -0.086,-0.6035 0.015,-0.1988 0.114,-0.394 0.274,-0.607 0.159,-0.245 0.376,-0.5148 0.71,-0.8201 0.298,-0.2946 0.692,-0.6603 1.182,-1.0579 1.029,-0.8165 1.846,-1.5549 2.456,-2.1903 0.604,-0.671 1.058,-1.3348 1.364,-1.9455 0.259,-0.639 0.404,-1.278 0.383,-1.9347 -0.025,-0.6639 -0.177,-1.3526 -0.437,-2.1371 -0.607,-1.84 -1.739,-3.0022 -3.429,-3.4605 -1.693,-0.4981 -3.83,-0.3053 -6.347,0.5314 -1.662,0.5513 -2.961,1.1363 -3.966,1.786 -1.001,0.6461 -1.7,1.1502 -2.066,1.4697 l 2.308,3.9902 c 0.763,-0.6461 1.594,-1.2354 2.488,-1.7289 0.891,-0.5289 1.775,-0.9407 2.698,-1.246 z"
       fill="#ffffff"
       fill-rule="evenodd"
       transform="matrix(1,0,0,-1,-0.106877,503)"
       id="path102" />
    <path
       d="m 196.454,54.773 5.616,-0.4366 -1.36,-5.6197 6.497,-1.5726 -1.09,-4.4979 -6.497,1.5691 -1.619,-6.7095 c -0.273,-1.1218 -0.273,-2.0842 -0.039,-2.8681 0.231,-0.7834 0.948,-1.3014 2.145,-1.5936 0.582,-0.1395 1.214,-0.2193 1.86,-0.2591 0.642,-0.0398 1.221,-0.0266 1.771,0.033 l -0.252,-4.3896 c -0.717,-0.093 -1.501,-0.1725 -2.343,-0.1661 -0.845,0.0135 -1.846,0.1395 -3.01,0.4253 -1.488,0.3585 -2.638,0.83 -3.511,1.5006 -0.884,0.6376 -1.516,1.3614 -1.921,2.2315 -0.411,0.8236 -0.596,1.7931 -0.571,2.8624 -0.014,1.077 0.152,2.2237 0.451,3.4591 z"
       fill="#ffffff"
       fill-rule="evenodd"
       transform="matrix(1,0,0,-1,-0.106877,503)"
       id="path103" />
    <path
       d="m 213.554,29.0195 c -0.199,-1.1023 -0.685,-1.8861 -1.48,-2.311 -0.806,-0.4583 -1.669,-0.6043 -2.553,-0.4449 -0.877,0.1594 -1.594,0.5975 -2.183,1.315 -0.596,0.6773 -0.809,1.5872 -0.611,2.6894 0.206,1.1023 0.725,1.8727 1.534,2.3377 0.795,0.4182 1.619,0.5712 2.496,0.4118 0.884,-0.1594 1.64,-0.6045 2.233,-1.2819 0.589,-0.7103 0.77,-1.6202 0.564,-2.7161 z"
       fill="#ffffff"
       fill-rule="evenodd"
       transform="matrix(1,0,0,-1,-0.106877,503)"
       id="path104" />
    <path
       d="m 229.547,23.926 c 0.27,1.813 0.703,3.6526 1.32,5.5916 0.625,1.9393 1.314,3.7985 2.159,5.6448 0.795,1.8535 1.665,3.5859 2.641,5.2082 0.976,1.6117 1.928,2.9679 2.872,4.1358 l -11.204,0.7846 0.33,4.7215 18.052,-1.2638 -0.28,-4.0151 c -0.842,-0.8059 -1.818,-1.9667 -2.862,-3.4293 -1.068,-1.4591 -2.083,-3.1453 -3.081,-5.0197 -0.991,-1.9124 -1.882,-3.9448 -2.67,-6.1362 -0.791,-2.1914 -1.356,-4.3896 -1.661,-6.6144 z"
       fill="#ffffff"
       fill-rule="evenodd"
       transform="matrix(1,0,0,-1,-0.106877,503)"
       id="path105" />
    <path
       d="m 266.119,30.5272 c 0.032,-1.1225 -0.128,-2.1318 -0.472,-3.075 -0.387,-0.9429 -0.923,-1.7796 -1.686,-2.5102 -0.767,-0.7306 -1.69,-1.2752 -2.83,-1.6802 -1.15,-0.4449 -2.485,-0.6642 -4.011,-0.7108 -1.754,-0.0465 -3.174,0.1396 -4.353,0.6312 -1.168,0.4512 -2.115,1.0224 -2.84,1.7133 -0.731,0.6908 -1.274,1.4942 -1.594,2.3444 -0.326,0.8499 -0.497,1.627 -0.511,2.3373 -0.021,0.7441 0.071,1.4214 0.238,2.059 0.174,0.6372 0.451,1.2084 0.778,1.7399 0.319,0.4913 0.717,0.9894 1.153,1.4079 0.401,0.4249 0.874,0.8509 1.342,1.2343 -1.1,0.8307 -1.906,1.6685 -2.417,2.5099 -0.544,0.8449 -0.835,1.9205 -0.87,3.2234 -0.025,1.0082 0.174,1.9454 0.554,2.8862 0.383,0.9443 0.923,1.743 1.65,2.4708 0.725,0.6922 1.609,1.2744 2.677,1.7217 1.037,0.4367 2.187,0.6497 3.493,0.6887 1.53,0.0426 2.837,-0.1455 3.934,-0.5289 1.093,-0.4189 1.966,-0.9514 2.687,-1.6011 0.731,-0.6567 1.236,-1.388 1.594,-2.1974 0.32,-0.852 0.494,-1.6685 0.518,-2.4921 0.029,-1.1893 -0.237,-2.3182 -0.841,-3.3406 -0.607,-1.0615 -1.409,-1.9064 -2.318,-2.5312 1.441,-0.8875 2.471,-1.7913 3.135,-2.7878 0.624,-0.9894 0.954,-2.1715 0.99,-3.5127 z m -12.897,-0.5779 c 0.007,-0.299 0.092,-0.6309 0.252,-0.9632 0.117,-0.3716 0.351,-0.7036 0.657,-0.9893 0.305,-0.2922 0.688,-0.5446 1.175,-0.7171 0.49,-0.1729 1.054,-0.2659 1.725,-0.2525 1.31,0.0398 2.233,0.3586 2.812,1.0093 0.575,0.6511 0.855,1.3352 0.834,2.1187 -0.011,0.5577 -0.139,1.0756 -0.412,1.514 -0.27,0.4448 -0.657,0.8435 -1.115,1.169 -0.458,0.3188 -0.99,0.6043 -1.594,0.8499 -0.635,0.2457 -1.281,0.4516 -1.991,0.6507 -0.696,-0.5378 -1.243,-1.1487 -1.708,-1.8726 -0.465,-0.7238 -0.664,-1.5474 -0.635,-2.5169 z m 6.56,12.4591 c -0.007,0.2591 -0.046,0.5573 -0.174,0.891 -0.117,0.2982 -0.312,0.5893 -0.575,0.8414 -0.273,0.252 -0.614,0.5041 -1.029,0.6851 -0.419,0.1704 -0.906,0.2308 -1.463,0.2201 -0.557,-0.0142 -1.001,-0.1065 -1.409,-0.3017 -0.405,-0.1988 -0.696,-0.4296 -0.955,-0.6958 -0.252,-0.3054 -0.465,-0.6106 -0.572,-0.9514 -0.099,-0.3373 -0.167,-0.6355 -0.16,-0.9337 0.022,-0.7846 0.341,-1.523 0.959,-2.2188 0.575,-0.6922 1.597,-1.2638 3.035,-1.7075 0.771,0.5041 1.388,1.1218 1.779,1.7679 0.39,0.6425 0.589,1.4732 0.564,2.4034 z"
       fill="#ffffff"
       fill-rule="evenodd"
       transform="matrix(1,0,0,-1,-0.106877,503)"
       id="path106" />
    <path
       d="m 277.348,23.9526 c -0.671,-0.0799 -1.374,-0.1331 -2.127,-0.1463 -0.756,0.0199 -1.473,0.0465 -2.19,0.1062 -0.724,0.0664 -1.374,0.1327 -1.953,0.2524 -0.578,0.1196 -1.036,0.2126 -1.388,0.3188 l 0.511,4.7218 c 0.664,-0.1792 1.548,-0.372 2.585,-0.5445 1.04,-0.2127 2.283,-0.2127 3.763,-0.0334 1.7,0.2059 2.925,0.6972 3.621,1.4214 0.703,0.7239 1.001,1.66 0.87,2.736 -0.078,0.6642 -0.291,1.202 -0.611,1.6536 -0.351,0.4118 -0.802,0.7306 -1.321,0.9695 -0.518,0.1984 -1.136,0.344 -1.814,0.3795 -0.717,0.0248 -1.427,-0.0284 -2.204,-0.1207 l -2.144,-0.2655 -0.547,4.4509 2.446,0.2983 c 0.557,0.0674 1.068,0.1668 1.573,0.3372 0.465,0.174 0.898,0.3727 1.267,0.6851 0.387,0.2734 0.639,0.6355 0.852,1.0757 0.17,0.4367 0.22,0.9301 0.145,1.562 -0.06,0.4828 -0.22,0.8733 -0.443,1.1857 -0.227,0.3124 -0.526,0.5716 -0.845,0.7597 -0.366,0.1846 -0.717,0.3302 -1.143,0.3905 -0.419,0.0604 -0.87,0.0391 -1.275,-0.0071 -1.075,-0.1313 -2.02,-0.3976 -2.868,-0.8378 -0.884,-0.4437 -1.654,-0.9159 -2.34,-1.4874 l -2.449,3.7949 c 0.373,0.3124 0.784,0.6213 1.31,0.9479 0.49,0.3266 1.047,0.6567 1.651,0.9549 0.6,0.3018 1.285,0.5716 2.005,0.813 0.685,0.2307 1.456,0.3976 2.272,0.497 1.516,0.1846 2.837,0.1597 3.987,-0.0391 1.122,-0.2414 2.112,-0.6461 2.886,-1.1892 0.785,-0.5787 1.434,-1.2887 1.875,-2.0981 0.443,-0.852 0.741,-1.7856 0.869,-2.8222 0.128,-1.0047 -0.046,-2.0413 -0.49,-3.0353 -0.44,-1.0295 -1.129,-1.8673 -2.034,-2.4637 1.402,-0.3941 2.539,-1.0437 3.408,-2.0271 0.838,-0.9869 1.36,-2.2372 1.548,-3.758 0.146,-1.1821 0.092,-2.2844 -0.195,-3.3338 -0.284,-1.049 -0.771,-2.0054 -1.534,-2.8155 -0.763,-0.8435 -1.732,-1.5276 -2.982,-2.092 -1.239,-0.5645 -2.776,-0.9763 -4.547,-1.1953 z"
       fill="#ffffff"
       fill-rule="evenodd"
       transform="matrix(1,0,0,-1,-0.106877,503)"
       id="path107" />
    <path
       d="m 307.611,43.3314 c 0.955,-4.2565 0.888,-7.6787 -0.205,-10.294 -1.119,-2.6632 -3.082,-4.2969 -5.925,-4.9345 -2.837,-0.644 -5.315,-0.0131 -7.431,1.9195 -2.147,1.8861 -3.681,4.9409 -4.643,9.2051 -0.472,2.1052 -0.678,4.0116 -0.604,5.7511 0.025,1.7253 0.345,3.2127 0.892,4.5227 0.543,1.3064 1.299,2.3572 2.296,3.195 0.994,0.8342 2.173,1.4058 3.554,1.7182 2.833,0.6461 5.311,0.0142 7.455,-1.8709 2.119,-1.9347 3.653,-4.9877 4.611,-9.2122 z m -5.534,-1.2497 c -0.291,1.2745 -0.618,2.3857 -0.962,3.4152 -0.337,0.994 -0.756,1.8176 -1.182,2.5276 -0.43,0.7064 -0.923,1.2105 -1.488,1.5016 -0.564,0.2947 -1.161,0.387 -1.853,0.2343 -0.688,-0.1597 -1.189,-0.5005 -1.533,-0.9975 -0.38,-0.5112 -0.611,-1.1751 -0.696,-1.9916 -0.121,-0.8307 -0.142,-1.7537 -0.021,-2.8045 0.131,-1.0756 0.312,-2.2223 0.596,-3.4932 0.295,-1.2745 0.618,-2.3892 0.966,-3.4187 0.351,-1.0295 0.763,-1.8527 1.228,-2.5499 0.422,-0.7107 0.923,-1.2088 1.487,-1.501 0.526,-0.3053 1.122,-0.3983 1.811,-0.2456 0.692,0.1594 1.189,0.498 1.576,1.0096 0.376,0.5044 0.611,1.1687 0.696,1.9912 0.081,0.8236 0.099,1.7466 -0.025,2.8222 -0.135,1.0828 -0.312,2.2259 -0.6,3.5003 z"
       fill="#ffffff"
       fill-rule="evenodd"
       transform="matrix(1,0,0,-1,-0.106877,503)"
       id="path108" />
    <path
       d="m 318.695,46.0081 c -0.533,-0.174 -1.051,-0.387 -1.616,-0.6923 -0.571,-0.3053 -0.994,-0.5644 -1.253,-0.8484 0.032,-0.1065 0.078,-0.245 0.139,-0.426 0.028,-0.1846 0.081,-0.3657 0.131,-0.5041 0.28,-0.852 0.618,-1.6401 0.973,-2.3502 0.351,-0.7135 0.788,-1.317 1.26,-1.7892 0.472,-0.4686 0.997,-0.7703 1.569,-0.9336 0.564,-0.1669 1.221,-0.142 1.931,0.0923 0.604,0.1988 1.047,0.5041 1.395,0.8875 0.306,0.3798 0.572,0.7845 0.725,1.2638 0.117,0.4721 0.191,0.9691 0.177,1.4732 -0.046,0.5006 -0.121,0.9514 -0.259,1.3739 -0.398,1.2035 -0.983,2.0271 -1.807,2.5063 -0.817,0.4367 -1.945,0.4189 -3.365,-0.0532 z m -0.686,4.3274 c 1.523,0.5077 2.904,0.7242 4.133,0.7065 1.199,-0.0817 2.275,-0.3515 3.18,-0.8378 0.909,-0.4864 1.672,-1.136 2.311,-1.9845 0.636,-0.852 1.101,-1.7998 1.456,-2.8648 0.316,-0.955 0.458,-1.9632 0.465,-3.0672 -0.028,-1.1077 -0.266,-2.1727 -0.667,-3.2057 -0.437,-1.0508 -1.115,-1.9809 -2.006,-2.8649 -0.916,-0.8885 -2.109,-1.5595 -3.564,-2.0441 -2.936,-0.9698 -5.514,-0.7969 -7.658,0.5709 -2.144,1.3738 -3.766,3.6671 -4.853,6.9616 -0.784,2.3749 -1.125,4.5795 -0.976,6.6314 0.146,2.0519 0.657,3.9511 1.626,5.6516 0.937,1.6827 2.265,3.1417 3.99,4.4623 1.701,1.2709 3.753,2.3075 6.149,3.1347 0.287,-0.7278 0.593,-1.4129 0.845,-2.0768 0.273,-0.6993 0.589,-1.4164 0.87,-2.1513 -1.19,-0.4331 -2.29,-0.9123 -3.259,-1.4271 -0.991,-0.5644 -1.843,-1.2034 -2.553,-1.9063 -0.742,-0.7171 -1.313,-1.4946 -1.725,-2.3856 -0.419,-0.884 -0.632,-1.8922 -0.671,-2.9678 0.451,0.426 0.937,0.7419 1.434,1.0224 0.49,0.284 1.015,0.4899 1.473,0.6425 z"
       fill="#ffffff"
       fill-rule="evenodd"
       transform="matrix(1,0,0,-1,-0.106877,503)"
       id="path109" />
    <path
       d="m 343.193,50.7012 c -0.287,0.6532 -0.692,1.2034 -1.221,1.5833 -0.533,0.3763 -1.228,0.5573 -2.095,0.5822 -0.869,0.0284 -1.977,-0.1385 -3.287,-0.5041 -1.299,-0.3728 -2.879,-0.9479 -4.76,-1.7715 -0.689,2.2152 -1.435,4.4624 -2.226,6.7202 -0.795,2.2649 -1.591,4.3558 -2.329,6.3154 l 12.805,5.6374 1.878,-4.2706 -8.542,-3.7595 c 0.334,-0.8342 0.607,-1.6472 0.906,-2.4175 0.277,-0.8165 0.497,-1.4946 0.681,-2.1052 3.415,1.2248 6.206,1.5549 8.396,0.9301 2.158,-0.6425 3.77,-2.169 4.807,-4.5298 0.486,-1.0934 0.731,-2.2045 0.759,-3.2908 0.032,-1.0899 -0.188,-2.1655 -0.671,-3.195 -0.486,-1.0295 -1.203,-1.9916 -2.201,-2.8827 -1.029,-0.9052 -2.303,-1.7075 -3.869,-2.3962 -0.618,-0.2734 -1.282,-0.5254 -1.96,-0.7455 -0.731,-0.1917 -1.42,-0.3799 -2.08,-0.5431 -0.71,-0.1527 -1.321,-0.2521 -1.892,-0.348 -0.572,-0.0852 -1.008,-0.1171 -1.342,-0.0994 l -0.923,4.6044 c 0.685,0.0178 1.541,0.1101 2.563,0.2769 1.03,0.1669 2.219,0.5254 3.515,1.097 1.572,0.6887 2.563,1.4945 2.996,2.4637 0.444,0.9301 0.472,1.7927 0.092,2.6483 z"
       fill="#ffffff"
       fill-rule="evenodd"
       transform="matrix(1,0,0,-1,-0.106877,503)"
       id="path110" />
    <path
       d="m 373.602,74.2909 c 0.391,-0.5893 0.675,-1.2141 0.817,-1.8921 0.106,-0.671 0.142,-1.3206 0,-1.9916 -0.142,-0.678 -0.391,-1.3241 -0.781,-1.8921 -0.391,-0.6142 -0.923,-1.1502 -1.633,-1.594 -0.675,-0.4544 -1.385,-0.7384 -2.095,-0.8307 -0.674,-0.1526 -1.384,-0.1136 -2.059,0.0249 -0.674,0.142 -1.242,0.426 -1.81,0.8165 -0.568,0.3869 -1.03,0.891 -1.42,1.4839 -0.391,0.5893 -0.675,1.2141 -0.781,1.8921 -0.142,0.671 -0.178,1.3526 -0.036,2.0235 0.142,0.671 0.391,1.2887 0.781,1.9064 0.391,0.5715 0.959,1.104 1.633,1.5478 0.675,0.4508 1.385,0.7384 2.095,0.8839 0.71,0.0994 1.384,0.0923 2.059,-0.0461 0.639,-0.1456 1.278,-0.458 1.846,-0.852 0.532,-0.3834 0.994,-0.8875 1.384,-1.4804 z"
       fill="#ffffff"
       fill-rule="evenodd"
       transform="matrix(1,0,0,-1,-0.106877,503)"
       id="path111" />
    <path
       d="m 256.268,471.547 c 0,-0.71 -0.117,-1.42 -0.37,-2.059 -0.255,-0.603 -0.592,-1.207 -1.05,-1.668 -0.458,-0.462 -1.051,-0.817 -1.672,-1.101 -0.671,-0.319 -1.431,-0.497 -2.265,-0.497 -0.838,0 -1.594,0.178 -2.219,0.497 -0.671,0.284 -1.218,0.639 -1.679,1.101 -0.462,0.461 -0.838,1.065 -1.09,1.668 -0.252,0.639 -0.373,1.349 -0.373,2.059 0,0.71 0.121,1.385 0.373,2.059 0.252,0.639 0.628,1.207 1.09,1.669 0.461,0.461 1.008,0.887 1.679,1.207 0.625,0.284 1.381,0.39 2.219,0.39 0.834,0 1.594,-0.106 2.265,-0.39 0.621,-0.32 1.214,-0.746 1.672,-1.207 0.458,-0.462 0.795,-1.03 1.05,-1.669 0.253,-0.674 0.37,-1.349 0.37,-2.059 z"
       fill="#ffffff"
       fill-rule="evenodd"
       transform="matrix(1,0,0,-1,-0.106877,503)"
       id="path112" />
    <path
       d="M 361.224,227.735 C 336.732,325.973 237.233,385.759 138.984,361.261 40.7755,336.77 -19.0101,237.265 5.49177,139.035 29.9722,40.7863 129.471,-19.0038 227.69,5.48729 325.933,29.9784 385.715,129.494 361.221,227.737 l 0.002,-0.002 z"
       fill="#fafafa"
       transform="matrix(1.00011,0,0,1,68.0708,68.071)"
       id="path113" />
    <path
       d="m 282.692,152.431 c 4.422,-29.57 -18.09,-45.465 -48.875,-56.0688 l 9.987,-40.0552 -24.383,-6.0757 -9.722,39.0007 c -6.41,-1.5988 -12.993,-3.1052 -19.535,-4.5986 l 9.792,-39.258 -24.368,-6.0756 -9.992,40.0422 c -5.304,-1.2078 -10.514,-2.4014 -15.569,-3.6591 l 0.028,-0.126 -33.624,-8.3966 -6.486,26.0424 c 0,0 18.09,4.1467 17.709,4.402 9.873,2.4643 11.659,9.0003 11.362,14.1813 l -27.363,109.732 c -1.206,3 -4.269,7.502 -11.172,5.793 0.244,0.354 -17.7223,-4.423 -17.7223,-4.423 l -12.1056,27.911 31.7299,7.91 c 5.903,1.48 11.688,3.029 17.384,4.485 l -10.089,40.515 24.354,6.075 9.992,-40.084 c 6.654,1.806 13.111,3.472 19.432,5.043 l -9.959,39.895 24.384,6.076 10.089,-40.439 c 41.578,7.869 72.841,4.696 86,-32.911 10.604,-30.278 -0.528,-47.742 -22.402,-59.131 15.932,-3.674 27.933,-14.153 31.132,-35.799 l -0.007,-0.005 z m -55.71,78.118 c -7.535,30.279 -58.514,13.911 -75.042,9.807 l 13.389,-53.675 c 16.527,4.126 69.529,12.291 61.655,43.868 z m 7.541,-78.557 c -6.874,27.541 -49.304,13.549 -63.068,10.118 l 12.139,-48.68 c 13.764,3.431 58.09,9.835 50.931,38.562 z"
       fill="#f7931a"
       transform="matrix(1.00011,0,0,1,68.0708,68.071)"
       id="path114" />
  </g>
</svg>
